%TF.GenerationSoftware,KiCad,Pcbnew,9.0.0*%
%TF.CreationDate,2025-06-30T18:18:02+02:00*%
%TF.ProjectId,CM5_MINIMA_3,434d355f-4d49-44e4-994d-415f332e6b69,2*%
%TF.SameCoordinates,Original*%
%TF.FileFunction,Other,Comment*%
%FSLAX46Y46*%
G04 Gerber Fmt 4.6, Leading zero omitted, Abs format (unit mm)*
G04 Created by KiCad (PCBNEW 9.0.0) date 2025-06-30 18:18:02*
%MOMM*%
%LPD*%
G01*
G04 APERTURE LIST*
%ADD10C,0.200000*%
%ADD11C,0.150000*%
%ADD12C,0.300000*%
%ADD13C,0.400000*%
%ADD14C,0.250000*%
G04 APERTURE END LIST*
D10*
%TO.C,D401*%
X22320000Y14520000D02*
G75*
G02*
X22120000Y14520000I-100000J0D01*
G01*
X22120000Y14520000D02*
G75*
G02*
X22320000Y14520000I100000J0D01*
G01*
D11*
%TO.C,M701*%
X37700000Y22375000D02*
G75*
G02*
X33200000Y22375000I-2250000J0D01*
G01*
X33200000Y22375000D02*
G75*
G02*
X37700000Y22375000I2250000J0D01*
G01*
%TO.C,H105*%
X2700000Y0D02*
G75*
G02*
X-2700000Y0I-2700000J0D01*
G01*
X-2700000Y0D02*
G75*
G02*
X2700000Y0I2700000J0D01*
G01*
%TO.C,M702*%
X37700000Y10500000D02*
G75*
G02*
X33200000Y10500000I-2250000J0D01*
G01*
X33200000Y10500000D02*
G75*
G02*
X37700000Y10500000I2250000J0D01*
G01*
%TO.C,H103*%
X57700000Y58000000D02*
G75*
G02*
X52300000Y58000000I-2700000J0D01*
G01*
X52300000Y58000000D02*
G75*
G02*
X57700000Y58000000I2700000J0D01*
G01*
%TO.C,H101*%
X4500000Y24350000D02*
G75*
G02*
X700000Y24350000I-1900000J0D01*
G01*
X700000Y24350000D02*
G75*
G02*
X4500000Y24350000I1900000J0D01*
G01*
D12*
%TO.C,J101*%
X4570000Y30650000D02*
G75*
G02*
X4270000Y30650000I-150000J0D01*
G01*
X4270000Y30650000D02*
G75*
G02*
X4570000Y30650000I150000J0D01*
G01*
X11730000Y30650000D02*
G75*
G02*
X11430000Y30650000I-150000J0D01*
G01*
X11430000Y30650000D02*
G75*
G02*
X11730000Y30650000I150000J0D01*
G01*
D10*
%TO.C,D402*%
X25320000Y14520000D02*
G75*
G02*
X25120000Y14520000I-100000J0D01*
G01*
X25120000Y14520000D02*
G75*
G02*
X25320000Y14520000I100000J0D01*
G01*
D11*
%TO.C,H104*%
X57700000Y0D02*
G75*
G02*
X52300000Y0I-2700000J0D01*
G01*
X52300000Y0D02*
G75*
G02*
X57700000Y0I2700000J0D01*
G01*
D12*
%TO.C,USB701*%
X4570000Y19100000D02*
G75*
G02*
X4270000Y19100000I-150000J0D01*
G01*
X4270000Y19100000D02*
G75*
G02*
X4570000Y19100000I150000J0D01*
G01*
X11730000Y19100000D02*
G75*
G02*
X11430000Y19100000I-150000J0D01*
G01*
X11430000Y19100000D02*
G75*
G02*
X11730000Y19100000I150000J0D01*
G01*
D11*
%TO.C,H102*%
X2700000Y58000000D02*
G75*
G02*
X-2700000Y58000000I-2700000J0D01*
G01*
X-2700000Y58000000D02*
G75*
G02*
X2700000Y58000000I2700000J0D01*
G01*
D13*
%TO.C,CN1*%
X4750000Y9460000D02*
G75*
G02*
X4350000Y9460000I-200000J0D01*
G01*
X4350000Y9460000D02*
G75*
G02*
X4750000Y9460000I200000J0D01*
G01*
D10*
%TO.C,D403*%
X16900000Y6620000D02*
G75*
G02*
X16700000Y6620000I-100000J0D01*
G01*
X16700000Y6620000D02*
G75*
G02*
X16900000Y6620000I100000J0D01*
G01*
D14*
%TO.C,SW101*%
X51660000Y9750000D02*
G75*
G02*
X51400000Y9750000I-130000J0D01*
G01*
X51400000Y9750000D02*
G75*
G02*
X51660000Y9750000I130000J0D01*
G01*
%TD*%
M02*
