%TF.GenerationSoftware,KiCad,Pcbnew,9.0.0*%
%TF.CreationDate,2025-06-30T18:18:02+02:00*%
%TF.ProjectId,CM5_MINIMA_3,434d355f-4d49-44e4-994d-415f332e6b69,2*%
%TF.SameCoordinates,Original*%
%TF.FileFunction,Legend,Bot*%
%TF.FilePolarity,Positive*%
%FSLAX46Y46*%
G04 Gerber Fmt 4.6, Leading zero omitted, Abs format (unit mm)*
G04 Created by KiCad (PCBNEW 9.0.0) date 2025-06-30 18:18:02*
%MOMM*%
%LPD*%
G01*
G04 APERTURE LIST*
G04 Aperture macros list*
%AMRoundRect*
0 Rectangle with rounded corners*
0 $1 Rounding radius*
0 $2 $3 $4 $5 $6 $7 $8 $9 X,Y pos of 4 corners*
0 Add a 4 corners polygon primitive as box body*
4,1,4,$2,$3,$4,$5,$6,$7,$8,$9,$2,$3,0*
0 Add four circle primitives for the rounded corners*
1,1,$1+$1,$2,$3*
1,1,$1+$1,$4,$5*
1,1,$1+$1,$6,$7*
1,1,$1+$1,$8,$9*
0 Add four rect primitives between the rounded corners*
20,1,$1+$1,$2,$3,$4,$5,0*
20,1,$1+$1,$4,$5,$6,$7,0*
20,1,$1+$1,$6,$7,$8,$9,0*
20,1,$1+$1,$8,$9,$2,$3,0*%
G04 Aperture macros list end*
%ADD10C,0.000250*%
%ADD11C,0.000000*%
%ADD12C,0.120000*%
%ADD13C,0.250000*%
%ADD14C,1.500000*%
%ADD15C,4.500000*%
%ADD16C,5.400000*%
%ADD17C,2.600000*%
%ADD18C,3.800000*%
%ADD19C,0.800000*%
%ADD20O,1.800000X0.860000*%
%ADD21C,1.150000*%
%ADD22C,1.650000*%
%ADD23C,1.000000*%
%ADD24O,1.500000X3.300000*%
%ADD25O,1.500000X2.300000*%
%ADD26C,1.200000*%
%ADD27C,2.700000*%
%ADD28R,0.700000X0.200000*%
%ADD29RoundRect,0.135000X0.135000X0.185000X-0.135000X0.185000X-0.135000X-0.185000X0.135000X-0.185000X0*%
%ADD30RoundRect,0.075000X0.200000X-0.075000X0.200000X0.075000X-0.200000X0.075000X-0.200000X-0.075000X0*%
%ADD31RoundRect,0.135000X0.185000X-0.135000X0.185000X0.135000X-0.185000X0.135000X-0.185000X-0.135000X0*%
%ADD32RoundRect,0.087500X0.187500X0.087500X-0.187500X0.087500X-0.187500X-0.087500X0.187500X-0.087500X0*%
%ADD33RoundRect,0.087500X0.087500X0.187500X-0.087500X0.187500X-0.087500X-0.187500X0.087500X-0.187500X0*%
%ADD34RoundRect,0.135000X-0.135000X-0.185000X0.135000X-0.185000X0.135000X0.185000X-0.135000X0.185000X0*%
%ADD35R,0.600000X1.550000*%
%ADD36R,1.200000X1.800000*%
%ADD37R,0.250000X0.680000*%
%ADD38C,0.900000*%
%ADD39R,0.700000X0.600000*%
%ADD40R,0.700000X0.900000*%
%ADD41RoundRect,0.140000X0.170000X-0.140000X0.170000X0.140000X-0.170000X0.140000X-0.170000X-0.140000X0*%
%ADD42C,3.000000*%
G04 APERTURE END LIST*
D10*
X44007809Y13940154D02*
X44007809Y13941154D01*
X44007714Y13940535D02*
X44007428Y13940154D01*
X44007428Y13940821D02*
X44007809Y13940440D01*
X44006999Y13940154D02*
X44006999Y13940821D01*
X44006999Y13941154D02*
X44007047Y13941106D01*
X44007047Y13941106D02*
X44006999Y13941059D01*
X44006999Y13941059D02*
X44006952Y13941106D01*
X44006952Y13941106D02*
X44006999Y13941154D01*
X44006999Y13941154D02*
X44006999Y13941059D01*
X44006523Y13940154D02*
X44006523Y13941154D01*
X44006523Y13940773D02*
X44006428Y13940821D01*
X44006428Y13940821D02*
X44006238Y13940821D01*
X44006238Y13940821D02*
X44006142Y13940773D01*
X44006142Y13940773D02*
X44006095Y13940725D01*
X44006095Y13940725D02*
X44006047Y13940630D01*
X44006047Y13940630D02*
X44006047Y13940344D01*
X44006047Y13940344D02*
X44006095Y13940249D01*
X44006095Y13940249D02*
X44006142Y13940201D01*
X44006142Y13940201D02*
X44006238Y13940154D01*
X44006238Y13940154D02*
X44006428Y13940154D01*
X44006428Y13940154D02*
X44006523Y13940201D01*
X44005190Y13940821D02*
X44005190Y13940154D01*
X44005618Y13940821D02*
X44005618Y13940297D01*
X44005618Y13940297D02*
X44005571Y13940201D01*
X44005571Y13940201D02*
X44005476Y13940154D01*
X44005476Y13940154D02*
X44005333Y13940154D01*
X44005333Y13940154D02*
X44005237Y13940201D01*
X44005237Y13940201D02*
X44005190Y13940249D01*
X44004809Y13940821D02*
X44004285Y13940821D01*
X44004285Y13940821D02*
X44004809Y13940154D01*
X44004809Y13940154D02*
X44004285Y13940154D01*
X44003999Y13940821D02*
X44003475Y13940821D01*
X44003475Y13940821D02*
X44003999Y13940154D01*
X44003999Y13940154D02*
X44003475Y13940154D01*
X44002665Y13940154D02*
X44002665Y13940678D01*
X44002665Y13940678D02*
X44002712Y13940773D01*
X44002712Y13940773D02*
X44002808Y13940821D01*
X44002808Y13940821D02*
X44002998Y13940821D01*
X44002998Y13940821D02*
X44003093Y13940773D01*
X44002665Y13940201D02*
X44002760Y13940154D01*
X44002760Y13940154D02*
X44002998Y13940154D01*
X44002998Y13940154D02*
X44003093Y13940201D01*
X44003093Y13940201D02*
X44003141Y13940297D01*
X44003141Y13940297D02*
X44003141Y13940392D01*
X44003141Y13940392D02*
X44003093Y13940487D01*
X44003093Y13940487D02*
X44002998Y13940535D01*
X44002998Y13940535D02*
X44002760Y13940535D01*
X44002760Y13940535D02*
X44002665Y13940582D01*
X44002188Y13940154D02*
X44002188Y13940821D01*
X44002188Y13940630D02*
X44002141Y13940725D01*
X44002141Y13940725D02*
X44002093Y13940773D01*
X44002093Y13940773D02*
X44001998Y13940821D01*
X44001998Y13940821D02*
X44001903Y13940821D01*
X44001141Y13940154D02*
X44001141Y13941154D01*
X44001141Y13940201D02*
X44001236Y13940154D01*
X44001236Y13940154D02*
X44001427Y13940154D01*
X44001427Y13940154D02*
X44001522Y13940201D01*
X44001522Y13940201D02*
X44001569Y13940249D01*
X44001569Y13940249D02*
X44001617Y13940344D01*
X44001617Y13940344D02*
X44001617Y13940630D01*
X44001617Y13940630D02*
X44001569Y13940725D01*
X44001569Y13940725D02*
X44001522Y13940773D01*
X44001522Y13940773D02*
X44001427Y13940821D01*
X44001427Y13940821D02*
X44001236Y13940821D01*
X44001236Y13940821D02*
X44001141Y13940773D01*
X44000664Y13940535D02*
X43999903Y13940535D01*
X43998998Y13941154D02*
X43999188Y13941154D01*
X43999188Y13941154D02*
X43999284Y13941106D01*
X43999284Y13941106D02*
X43999331Y13941059D01*
X43999331Y13941059D02*
X43999426Y13940916D01*
X43999426Y13940916D02*
X43999474Y13940725D01*
X43999474Y13940725D02*
X43999474Y13940344D01*
X43999474Y13940344D02*
X43999426Y13940249D01*
X43999426Y13940249D02*
X43999379Y13940201D01*
X43999379Y13940201D02*
X43999284Y13940154D01*
X43999284Y13940154D02*
X43999093Y13940154D01*
X43999093Y13940154D02*
X43998998Y13940201D01*
X43998998Y13940201D02*
X43998950Y13940249D01*
X43998950Y13940249D02*
X43998903Y13940344D01*
X43998903Y13940344D02*
X43998903Y13940582D01*
X43998903Y13940582D02*
X43998950Y13940678D01*
X43998950Y13940678D02*
X43998998Y13940725D01*
X43998998Y13940725D02*
X43999093Y13940773D01*
X43999093Y13940773D02*
X43999284Y13940773D01*
X43999284Y13940773D02*
X43999379Y13940725D01*
X43999379Y13940725D02*
X43999426Y13940678D01*
X43999426Y13940678D02*
X43999474Y13940582D01*
X43998570Y13941154D02*
X43997903Y13941154D01*
X43997903Y13941154D02*
X43998332Y13940154D01*
X43996951Y13940249D02*
X43996999Y13940201D01*
X43996999Y13940201D02*
X43997141Y13940154D01*
X43997141Y13940154D02*
X43997237Y13940154D01*
X43997237Y13940154D02*
X43997380Y13940201D01*
X43997380Y13940201D02*
X43997475Y13940297D01*
X43997475Y13940297D02*
X43997522Y13940392D01*
X43997522Y13940392D02*
X43997570Y13940582D01*
X43997570Y13940582D02*
X43997570Y13940725D01*
X43997570Y13940725D02*
X43997522Y13940916D01*
X43997522Y13940916D02*
X43997475Y13941011D01*
X43997475Y13941011D02*
X43997380Y13941106D01*
X43997380Y13941106D02*
X43997237Y13941154D01*
X43997237Y13941154D02*
X43997141Y13941154D01*
X43997141Y13941154D02*
X43996999Y13941106D01*
X43996999Y13941106D02*
X43996951Y13941059D01*
X43995951Y13940249D02*
X43995999Y13940201D01*
X43995999Y13940201D02*
X43996141Y13940154D01*
X43996141Y13940154D02*
X43996237Y13940154D01*
X43996237Y13940154D02*
X43996380Y13940201D01*
X43996380Y13940201D02*
X43996475Y13940297D01*
X43996475Y13940297D02*
X43996522Y13940392D01*
X43996522Y13940392D02*
X43996570Y13940582D01*
X43996570Y13940582D02*
X43996570Y13940725D01*
X43996570Y13940725D02*
X43996522Y13940916D01*
X43996522Y13940916D02*
X43996475Y13941011D01*
X43996475Y13941011D02*
X43996380Y13941106D01*
X43996380Y13941106D02*
X43996237Y13941154D01*
X43996237Y13941154D02*
X43996141Y13941154D01*
X43996141Y13941154D02*
X43995999Y13941106D01*
X43995999Y13941106D02*
X43995951Y13941059D01*
X43995094Y13941154D02*
X43995284Y13941154D01*
X43995284Y13941154D02*
X43995380Y13941106D01*
X43995380Y13941106D02*
X43995427Y13941059D01*
X43995427Y13941059D02*
X43995522Y13940916D01*
X43995522Y13940916D02*
X43995570Y13940725D01*
X43995570Y13940725D02*
X43995570Y13940344D01*
X43995570Y13940344D02*
X43995522Y13940249D01*
X43995522Y13940249D02*
X43995475Y13940201D01*
X43995475Y13940201D02*
X43995380Y13940154D01*
X43995380Y13940154D02*
X43995189Y13940154D01*
X43995189Y13940154D02*
X43995094Y13940201D01*
X43995094Y13940201D02*
X43995046Y13940249D01*
X43995046Y13940249D02*
X43994999Y13940344D01*
X43994999Y13940344D02*
X43994999Y13940582D01*
X43994999Y13940582D02*
X43995046Y13940678D01*
X43995046Y13940678D02*
X43995094Y13940725D01*
X43995094Y13940725D02*
X43995189Y13940773D01*
X43995189Y13940773D02*
X43995380Y13940773D01*
X43995380Y13940773D02*
X43995475Y13940725D01*
X43995475Y13940725D02*
X43995522Y13940678D01*
X43995522Y13940678D02*
X43995570Y13940582D01*
X43994570Y13940154D02*
X43994570Y13941154D01*
X43994570Y13941154D02*
X43994332Y13941154D01*
X43994332Y13941154D02*
X43994189Y13941106D01*
X43994189Y13941106D02*
X43994094Y13941011D01*
X43994094Y13941011D02*
X43994047Y13940916D01*
X43994047Y13940916D02*
X43993999Y13940725D01*
X43993999Y13940725D02*
X43993999Y13940582D01*
X43993999Y13940582D02*
X43994047Y13940392D01*
X43994047Y13940392D02*
X43994094Y13940297D01*
X43994094Y13940297D02*
X43994189Y13940201D01*
X43994189Y13940201D02*
X43994332Y13940154D01*
X43994332Y13940154D02*
X43994570Y13940154D01*
X43993523Y13940154D02*
X43993332Y13940154D01*
X43993332Y13940154D02*
X43993237Y13940201D01*
X43993237Y13940201D02*
X43993189Y13940249D01*
X43993189Y13940249D02*
X43993094Y13940392D01*
X43993094Y13940392D02*
X43993047Y13940582D01*
X43993047Y13940582D02*
X43993047Y13940963D01*
X43993047Y13940963D02*
X43993094Y13941059D01*
X43993094Y13941059D02*
X43993142Y13941106D01*
X43993142Y13941106D02*
X43993237Y13941154D01*
X43993237Y13941154D02*
X43993428Y13941154D01*
X43993428Y13941154D02*
X43993523Y13941106D01*
X43993523Y13941106D02*
X43993570Y13941059D01*
X43993570Y13941059D02*
X43993618Y13940963D01*
X43993618Y13940963D02*
X43993618Y13940725D01*
X43993618Y13940725D02*
X43993570Y13940630D01*
X43993570Y13940630D02*
X43993523Y13940582D01*
X43993523Y13940582D02*
X43993428Y13940535D01*
X43993428Y13940535D02*
X43993237Y13940535D01*
X43993237Y13940535D02*
X43993142Y13940582D01*
X43993142Y13940582D02*
X43993094Y13940630D01*
X43993094Y13940630D02*
X43993047Y13940725D01*
X43992618Y13940678D02*
X43992285Y13940678D01*
X43992142Y13940154D02*
X43992618Y13940154D01*
X43992618Y13940154D02*
X43992618Y13941154D01*
X43992618Y13941154D02*
X43992142Y13941154D01*
X3507690Y5462901D02*
X3507690Y5463901D01*
X3507595Y5463282D02*
X3507309Y5462901D01*
X3507309Y5463568D02*
X3507690Y5463187D01*
X3506880Y5462901D02*
X3506880Y5463568D01*
X3506880Y5463901D02*
X3506928Y5463853D01*
X3506928Y5463853D02*
X3506880Y5463806D01*
X3506880Y5463806D02*
X3506833Y5463853D01*
X3506833Y5463853D02*
X3506880Y5463901D01*
X3506880Y5463901D02*
X3506880Y5463806D01*
X3506404Y5462901D02*
X3506404Y5463901D01*
X3506404Y5463520D02*
X3506309Y5463568D01*
X3506309Y5463568D02*
X3506119Y5463568D01*
X3506119Y5463568D02*
X3506023Y5463520D01*
X3506023Y5463520D02*
X3505976Y5463472D01*
X3505976Y5463472D02*
X3505928Y5463377D01*
X3505928Y5463377D02*
X3505928Y5463091D01*
X3505928Y5463091D02*
X3505976Y5462996D01*
X3505976Y5462996D02*
X3506023Y5462948D01*
X3506023Y5462948D02*
X3506119Y5462901D01*
X3506119Y5462901D02*
X3506309Y5462901D01*
X3506309Y5462901D02*
X3506404Y5462948D01*
X3505071Y5463568D02*
X3505071Y5462901D01*
X3505499Y5463568D02*
X3505499Y5463044D01*
X3505499Y5463044D02*
X3505452Y5462948D01*
X3505452Y5462948D02*
X3505357Y5462901D01*
X3505357Y5462901D02*
X3505214Y5462901D01*
X3505214Y5462901D02*
X3505118Y5462948D01*
X3505118Y5462948D02*
X3505071Y5462996D01*
X3504690Y5463568D02*
X3504166Y5463568D01*
X3504166Y5463568D02*
X3504690Y5462901D01*
X3504690Y5462901D02*
X3504166Y5462901D01*
X3503880Y5463568D02*
X3503356Y5463568D01*
X3503356Y5463568D02*
X3503880Y5462901D01*
X3503880Y5462901D02*
X3503356Y5462901D01*
X3502546Y5462901D02*
X3502546Y5463425D01*
X3502546Y5463425D02*
X3502593Y5463520D01*
X3502593Y5463520D02*
X3502689Y5463568D01*
X3502689Y5463568D02*
X3502879Y5463568D01*
X3502879Y5463568D02*
X3502974Y5463520D01*
X3502546Y5462948D02*
X3502641Y5462901D01*
X3502641Y5462901D02*
X3502879Y5462901D01*
X3502879Y5462901D02*
X3502974Y5462948D01*
X3502974Y5462948D02*
X3503022Y5463044D01*
X3503022Y5463044D02*
X3503022Y5463139D01*
X3503022Y5463139D02*
X3502974Y5463234D01*
X3502974Y5463234D02*
X3502879Y5463282D01*
X3502879Y5463282D02*
X3502641Y5463282D01*
X3502641Y5463282D02*
X3502546Y5463329D01*
X3502069Y5462901D02*
X3502069Y5463568D01*
X3502069Y5463377D02*
X3502022Y5463472D01*
X3502022Y5463472D02*
X3501974Y5463520D01*
X3501974Y5463520D02*
X3501879Y5463568D01*
X3501879Y5463568D02*
X3501784Y5463568D01*
X3501022Y5462901D02*
X3501022Y5463901D01*
X3501022Y5462948D02*
X3501117Y5462901D01*
X3501117Y5462901D02*
X3501308Y5462901D01*
X3501308Y5462901D02*
X3501403Y5462948D01*
X3501403Y5462948D02*
X3501450Y5462996D01*
X3501450Y5462996D02*
X3501498Y5463091D01*
X3501498Y5463091D02*
X3501498Y5463377D01*
X3501498Y5463377D02*
X3501450Y5463472D01*
X3501450Y5463472D02*
X3501403Y5463520D01*
X3501403Y5463520D02*
X3501308Y5463568D01*
X3501308Y5463568D02*
X3501117Y5463568D01*
X3501117Y5463568D02*
X3501022Y5463520D01*
X3500545Y5463282D02*
X3499784Y5463282D01*
X3498879Y5463901D02*
X3499069Y5463901D01*
X3499069Y5463901D02*
X3499165Y5463853D01*
X3499165Y5463853D02*
X3499212Y5463806D01*
X3499212Y5463806D02*
X3499307Y5463663D01*
X3499307Y5463663D02*
X3499355Y5463472D01*
X3499355Y5463472D02*
X3499355Y5463091D01*
X3499355Y5463091D02*
X3499307Y5462996D01*
X3499307Y5462996D02*
X3499260Y5462948D01*
X3499260Y5462948D02*
X3499165Y5462901D01*
X3499165Y5462901D02*
X3498974Y5462901D01*
X3498974Y5462901D02*
X3498879Y5462948D01*
X3498879Y5462948D02*
X3498831Y5462996D01*
X3498831Y5462996D02*
X3498784Y5463091D01*
X3498784Y5463091D02*
X3498784Y5463329D01*
X3498784Y5463329D02*
X3498831Y5463425D01*
X3498831Y5463425D02*
X3498879Y5463472D01*
X3498879Y5463472D02*
X3498974Y5463520D01*
X3498974Y5463520D02*
X3499165Y5463520D01*
X3499165Y5463520D02*
X3499260Y5463472D01*
X3499260Y5463472D02*
X3499307Y5463425D01*
X3499307Y5463425D02*
X3499355Y5463329D01*
X3498451Y5463901D02*
X3497784Y5463901D01*
X3497784Y5463901D02*
X3498213Y5462901D01*
X3497403Y5463425D02*
X3497070Y5463425D01*
X3496927Y5462901D02*
X3497403Y5462901D01*
X3497403Y5462901D02*
X3497403Y5463901D01*
X3497403Y5463901D02*
X3496927Y5463901D01*
X3496165Y5463425D02*
X3496022Y5463377D01*
X3496022Y5463377D02*
X3495975Y5463329D01*
X3495975Y5463329D02*
X3495927Y5463234D01*
X3495927Y5463234D02*
X3495927Y5463091D01*
X3495927Y5463091D02*
X3495975Y5462996D01*
X3495975Y5462996D02*
X3496022Y5462948D01*
X3496022Y5462948D02*
X3496117Y5462901D01*
X3496117Y5462901D02*
X3496498Y5462901D01*
X3496498Y5462901D02*
X3496498Y5463901D01*
X3496498Y5463901D02*
X3496165Y5463901D01*
X3496165Y5463901D02*
X3496070Y5463853D01*
X3496070Y5463853D02*
X3496022Y5463806D01*
X3496022Y5463806D02*
X3495975Y5463710D01*
X3495975Y5463710D02*
X3495975Y5463615D01*
X3495975Y5463615D02*
X3496022Y5463520D01*
X3496022Y5463520D02*
X3496070Y5463472D01*
X3496070Y5463472D02*
X3496165Y5463425D01*
X3496165Y5463425D02*
X3496498Y5463425D01*
X3495165Y5463425D02*
X3495498Y5463425D01*
X3495498Y5462901D02*
X3495498Y5463901D01*
X3495498Y5463901D02*
X3495022Y5463901D01*
X3494118Y5462901D02*
X3494689Y5462901D01*
X3494403Y5462901D02*
X3494403Y5463901D01*
X3494403Y5463901D02*
X3494499Y5463758D01*
X3494499Y5463758D02*
X3494594Y5463663D01*
X3494594Y5463663D02*
X3494689Y5463615D01*
X3493261Y5463568D02*
X3493261Y5462901D01*
X3493499Y5463948D02*
X3493737Y5463234D01*
X3493737Y5463234D02*
X3493118Y5463234D01*
X3492737Y5463425D02*
X3492404Y5463425D01*
X3492261Y5462901D02*
X3492737Y5462901D01*
X3492737Y5462901D02*
X3492737Y5463901D01*
X3492737Y5463901D02*
X3492261Y5463901D01*
X38687728Y-1188320D02*
X38687728Y-1187320D01*
X38687633Y-1187939D02*
X38687347Y-1188320D01*
X38687347Y-1187653D02*
X38687728Y-1188034D01*
X38686918Y-1188320D02*
X38686918Y-1187653D01*
X38686918Y-1187320D02*
X38686966Y-1187368D01*
X38686966Y-1187368D02*
X38686918Y-1187415D01*
X38686918Y-1187415D02*
X38686871Y-1187368D01*
X38686871Y-1187368D02*
X38686918Y-1187320D01*
X38686918Y-1187320D02*
X38686918Y-1187415D01*
X38686442Y-1188320D02*
X38686442Y-1187320D01*
X38686442Y-1187701D02*
X38686347Y-1187653D01*
X38686347Y-1187653D02*
X38686157Y-1187653D01*
X38686157Y-1187653D02*
X38686061Y-1187701D01*
X38686061Y-1187701D02*
X38686014Y-1187749D01*
X38686014Y-1187749D02*
X38685966Y-1187844D01*
X38685966Y-1187844D02*
X38685966Y-1188130D01*
X38685966Y-1188130D02*
X38686014Y-1188225D01*
X38686014Y-1188225D02*
X38686061Y-1188273D01*
X38686061Y-1188273D02*
X38686157Y-1188320D01*
X38686157Y-1188320D02*
X38686347Y-1188320D01*
X38686347Y-1188320D02*
X38686442Y-1188273D01*
X38685109Y-1187653D02*
X38685109Y-1188320D01*
X38685537Y-1187653D02*
X38685537Y-1188177D01*
X38685537Y-1188177D02*
X38685490Y-1188273D01*
X38685490Y-1188273D02*
X38685395Y-1188320D01*
X38685395Y-1188320D02*
X38685252Y-1188320D01*
X38685252Y-1188320D02*
X38685156Y-1188273D01*
X38685156Y-1188273D02*
X38685109Y-1188225D01*
X38684728Y-1187653D02*
X38684204Y-1187653D01*
X38684204Y-1187653D02*
X38684728Y-1188320D01*
X38684728Y-1188320D02*
X38684204Y-1188320D01*
X38683918Y-1187653D02*
X38683394Y-1187653D01*
X38683394Y-1187653D02*
X38683918Y-1188320D01*
X38683918Y-1188320D02*
X38683394Y-1188320D01*
X38682584Y-1188320D02*
X38682584Y-1187796D01*
X38682584Y-1187796D02*
X38682631Y-1187701D01*
X38682631Y-1187701D02*
X38682727Y-1187653D01*
X38682727Y-1187653D02*
X38682917Y-1187653D01*
X38682917Y-1187653D02*
X38683012Y-1187701D01*
X38682584Y-1188273D02*
X38682679Y-1188320D01*
X38682679Y-1188320D02*
X38682917Y-1188320D01*
X38682917Y-1188320D02*
X38683012Y-1188273D01*
X38683012Y-1188273D02*
X38683060Y-1188177D01*
X38683060Y-1188177D02*
X38683060Y-1188082D01*
X38683060Y-1188082D02*
X38683012Y-1187987D01*
X38683012Y-1187987D02*
X38682917Y-1187939D01*
X38682917Y-1187939D02*
X38682679Y-1187939D01*
X38682679Y-1187939D02*
X38682584Y-1187892D01*
X38682107Y-1188320D02*
X38682107Y-1187653D01*
X38682107Y-1187844D02*
X38682060Y-1187749D01*
X38682060Y-1187749D02*
X38682012Y-1187701D01*
X38682012Y-1187701D02*
X38681917Y-1187653D01*
X38681917Y-1187653D02*
X38681822Y-1187653D01*
X38681060Y-1188320D02*
X38681060Y-1187320D01*
X38681060Y-1188273D02*
X38681155Y-1188320D01*
X38681155Y-1188320D02*
X38681346Y-1188320D01*
X38681346Y-1188320D02*
X38681441Y-1188273D01*
X38681441Y-1188273D02*
X38681488Y-1188225D01*
X38681488Y-1188225D02*
X38681536Y-1188130D01*
X38681536Y-1188130D02*
X38681536Y-1187844D01*
X38681536Y-1187844D02*
X38681488Y-1187749D01*
X38681488Y-1187749D02*
X38681441Y-1187701D01*
X38681441Y-1187701D02*
X38681346Y-1187653D01*
X38681346Y-1187653D02*
X38681155Y-1187653D01*
X38681155Y-1187653D02*
X38681060Y-1187701D01*
X38680583Y-1187939D02*
X38679822Y-1187939D01*
X38678917Y-1187320D02*
X38679107Y-1187320D01*
X38679107Y-1187320D02*
X38679203Y-1187368D01*
X38679203Y-1187368D02*
X38679250Y-1187415D01*
X38679250Y-1187415D02*
X38679345Y-1187558D01*
X38679345Y-1187558D02*
X38679393Y-1187749D01*
X38679393Y-1187749D02*
X38679393Y-1188130D01*
X38679393Y-1188130D02*
X38679345Y-1188225D01*
X38679345Y-1188225D02*
X38679298Y-1188273D01*
X38679298Y-1188273D02*
X38679203Y-1188320D01*
X38679203Y-1188320D02*
X38679012Y-1188320D01*
X38679012Y-1188320D02*
X38678917Y-1188273D01*
X38678917Y-1188273D02*
X38678869Y-1188225D01*
X38678869Y-1188225D02*
X38678822Y-1188130D01*
X38678822Y-1188130D02*
X38678822Y-1187892D01*
X38678822Y-1187892D02*
X38678869Y-1187796D01*
X38678869Y-1187796D02*
X38678917Y-1187749D01*
X38678917Y-1187749D02*
X38679012Y-1187701D01*
X38679012Y-1187701D02*
X38679203Y-1187701D01*
X38679203Y-1187701D02*
X38679298Y-1187749D01*
X38679298Y-1187749D02*
X38679345Y-1187796D01*
X38679345Y-1187796D02*
X38679393Y-1187892D01*
X38678489Y-1187320D02*
X38677822Y-1187320D01*
X38677822Y-1187320D02*
X38678251Y-1188320D01*
X38676870Y-1188225D02*
X38676918Y-1188273D01*
X38676918Y-1188273D02*
X38677060Y-1188320D01*
X38677060Y-1188320D02*
X38677156Y-1188320D01*
X38677156Y-1188320D02*
X38677299Y-1188273D01*
X38677299Y-1188273D02*
X38677394Y-1188177D01*
X38677394Y-1188177D02*
X38677441Y-1188082D01*
X38677441Y-1188082D02*
X38677489Y-1187892D01*
X38677489Y-1187892D02*
X38677489Y-1187749D01*
X38677489Y-1187749D02*
X38677441Y-1187558D01*
X38677441Y-1187558D02*
X38677394Y-1187463D01*
X38677394Y-1187463D02*
X38677299Y-1187368D01*
X38677299Y-1187368D02*
X38677156Y-1187320D01*
X38677156Y-1187320D02*
X38677060Y-1187320D01*
X38677060Y-1187320D02*
X38676918Y-1187368D01*
X38676918Y-1187368D02*
X38676870Y-1187415D01*
X38675870Y-1188225D02*
X38675918Y-1188273D01*
X38675918Y-1188273D02*
X38676060Y-1188320D01*
X38676060Y-1188320D02*
X38676156Y-1188320D01*
X38676156Y-1188320D02*
X38676299Y-1188273D01*
X38676299Y-1188273D02*
X38676394Y-1188177D01*
X38676394Y-1188177D02*
X38676441Y-1188082D01*
X38676441Y-1188082D02*
X38676489Y-1187892D01*
X38676489Y-1187892D02*
X38676489Y-1187749D01*
X38676489Y-1187749D02*
X38676441Y-1187558D01*
X38676441Y-1187558D02*
X38676394Y-1187463D01*
X38676394Y-1187463D02*
X38676299Y-1187368D01*
X38676299Y-1187368D02*
X38676156Y-1187320D01*
X38676156Y-1187320D02*
X38676060Y-1187320D01*
X38676060Y-1187320D02*
X38675918Y-1187368D01*
X38675918Y-1187368D02*
X38675870Y-1187415D01*
X38675537Y-1187320D02*
X38674870Y-1187320D01*
X38674870Y-1187320D02*
X38675299Y-1188320D01*
X38674061Y-1187653D02*
X38674061Y-1188320D01*
X38674299Y-1187273D02*
X38674537Y-1187987D01*
X38674537Y-1187987D02*
X38673918Y-1187987D01*
X38673109Y-1187653D02*
X38673109Y-1188320D01*
X38673347Y-1187273D02*
X38673585Y-1187987D01*
X38673585Y-1187987D02*
X38672966Y-1187987D01*
X38672109Y-1187320D02*
X38672585Y-1187320D01*
X38672585Y-1187320D02*
X38672633Y-1187796D01*
X38672633Y-1187796D02*
X38672585Y-1187749D01*
X38672585Y-1187749D02*
X38672490Y-1187701D01*
X38672490Y-1187701D02*
X38672252Y-1187701D01*
X38672252Y-1187701D02*
X38672157Y-1187749D01*
X38672157Y-1187749D02*
X38672109Y-1187796D01*
X38672109Y-1187796D02*
X38672062Y-1187892D01*
X38672062Y-1187892D02*
X38672062Y-1188130D01*
X38672062Y-1188130D02*
X38672109Y-1188225D01*
X38672109Y-1188225D02*
X38672157Y-1188273D01*
X38672157Y-1188273D02*
X38672252Y-1188320D01*
X38672252Y-1188320D02*
X38672490Y-1188320D01*
X38672490Y-1188320D02*
X38672585Y-1188273D01*
X38672585Y-1188273D02*
X38672633Y-1188225D01*
X44107832Y15293015D02*
X44107832Y15294015D01*
X44107737Y15293396D02*
X44107451Y15293015D01*
X44107451Y15293682D02*
X44107832Y15293301D01*
X44107022Y15293015D02*
X44107022Y15293682D01*
X44107022Y15294015D02*
X44107070Y15293967D01*
X44107070Y15293967D02*
X44107022Y15293920D01*
X44107022Y15293920D02*
X44106975Y15293967D01*
X44106975Y15293967D02*
X44107022Y15294015D01*
X44107022Y15294015D02*
X44107022Y15293920D01*
X44106546Y15293015D02*
X44106546Y15294015D01*
X44106546Y15293634D02*
X44106451Y15293682D01*
X44106451Y15293682D02*
X44106261Y15293682D01*
X44106261Y15293682D02*
X44106165Y15293634D01*
X44106165Y15293634D02*
X44106118Y15293586D01*
X44106118Y15293586D02*
X44106070Y15293491D01*
X44106070Y15293491D02*
X44106070Y15293205D01*
X44106070Y15293205D02*
X44106118Y15293110D01*
X44106118Y15293110D02*
X44106165Y15293062D01*
X44106165Y15293062D02*
X44106261Y15293015D01*
X44106261Y15293015D02*
X44106451Y15293015D01*
X44106451Y15293015D02*
X44106546Y15293062D01*
X44105213Y15293682D02*
X44105213Y15293015D01*
X44105641Y15293682D02*
X44105641Y15293158D01*
X44105641Y15293158D02*
X44105594Y15293062D01*
X44105594Y15293062D02*
X44105499Y15293015D01*
X44105499Y15293015D02*
X44105356Y15293015D01*
X44105356Y15293015D02*
X44105260Y15293062D01*
X44105260Y15293062D02*
X44105213Y15293110D01*
X44104832Y15293682D02*
X44104308Y15293682D01*
X44104308Y15293682D02*
X44104832Y15293015D01*
X44104832Y15293015D02*
X44104308Y15293015D01*
X44104022Y15293682D02*
X44103498Y15293682D01*
X44103498Y15293682D02*
X44104022Y15293015D01*
X44104022Y15293015D02*
X44103498Y15293015D01*
X44102688Y15293015D02*
X44102688Y15293539D01*
X44102688Y15293539D02*
X44102735Y15293634D01*
X44102735Y15293634D02*
X44102831Y15293682D01*
X44102831Y15293682D02*
X44103021Y15293682D01*
X44103021Y15293682D02*
X44103116Y15293634D01*
X44102688Y15293062D02*
X44102783Y15293015D01*
X44102783Y15293015D02*
X44103021Y15293015D01*
X44103021Y15293015D02*
X44103116Y15293062D01*
X44103116Y15293062D02*
X44103164Y15293158D01*
X44103164Y15293158D02*
X44103164Y15293253D01*
X44103164Y15293253D02*
X44103116Y15293348D01*
X44103116Y15293348D02*
X44103021Y15293396D01*
X44103021Y15293396D02*
X44102783Y15293396D01*
X44102783Y15293396D02*
X44102688Y15293443D01*
X44102211Y15293015D02*
X44102211Y15293682D01*
X44102211Y15293491D02*
X44102164Y15293586D01*
X44102164Y15293586D02*
X44102116Y15293634D01*
X44102116Y15293634D02*
X44102021Y15293682D01*
X44102021Y15293682D02*
X44101926Y15293682D01*
X44101164Y15293015D02*
X44101164Y15294015D01*
X44101164Y15293062D02*
X44101259Y15293015D01*
X44101259Y15293015D02*
X44101450Y15293015D01*
X44101450Y15293015D02*
X44101545Y15293062D01*
X44101545Y15293062D02*
X44101592Y15293110D01*
X44101592Y15293110D02*
X44101640Y15293205D01*
X44101640Y15293205D02*
X44101640Y15293491D01*
X44101640Y15293491D02*
X44101592Y15293586D01*
X44101592Y15293586D02*
X44101545Y15293634D01*
X44101545Y15293634D02*
X44101450Y15293682D01*
X44101450Y15293682D02*
X44101259Y15293682D01*
X44101259Y15293682D02*
X44101164Y15293634D01*
X44100687Y15293396D02*
X44099926Y15293396D01*
X44099021Y15294015D02*
X44099211Y15294015D01*
X44099211Y15294015D02*
X44099307Y15293967D01*
X44099307Y15293967D02*
X44099354Y15293920D01*
X44099354Y15293920D02*
X44099449Y15293777D01*
X44099449Y15293777D02*
X44099497Y15293586D01*
X44099497Y15293586D02*
X44099497Y15293205D01*
X44099497Y15293205D02*
X44099449Y15293110D01*
X44099449Y15293110D02*
X44099402Y15293062D01*
X44099402Y15293062D02*
X44099307Y15293015D01*
X44099307Y15293015D02*
X44099116Y15293015D01*
X44099116Y15293015D02*
X44099021Y15293062D01*
X44099021Y15293062D02*
X44098973Y15293110D01*
X44098973Y15293110D02*
X44098926Y15293205D01*
X44098926Y15293205D02*
X44098926Y15293443D01*
X44098926Y15293443D02*
X44098973Y15293539D01*
X44098973Y15293539D02*
X44099021Y15293586D01*
X44099021Y15293586D02*
X44099116Y15293634D01*
X44099116Y15293634D02*
X44099307Y15293634D01*
X44099307Y15293634D02*
X44099402Y15293586D01*
X44099402Y15293586D02*
X44099449Y15293539D01*
X44099449Y15293539D02*
X44099497Y15293443D01*
X44098593Y15294015D02*
X44097926Y15294015D01*
X44097926Y15294015D02*
X44098355Y15293015D01*
X44096974Y15293110D02*
X44097022Y15293062D01*
X44097022Y15293062D02*
X44097164Y15293015D01*
X44097164Y15293015D02*
X44097260Y15293015D01*
X44097260Y15293015D02*
X44097403Y15293062D01*
X44097403Y15293062D02*
X44097498Y15293158D01*
X44097498Y15293158D02*
X44097545Y15293253D01*
X44097545Y15293253D02*
X44097593Y15293443D01*
X44097593Y15293443D02*
X44097593Y15293586D01*
X44097593Y15293586D02*
X44097545Y15293777D01*
X44097545Y15293777D02*
X44097498Y15293872D01*
X44097498Y15293872D02*
X44097403Y15293967D01*
X44097403Y15293967D02*
X44097260Y15294015D01*
X44097260Y15294015D02*
X44097164Y15294015D01*
X44097164Y15294015D02*
X44097022Y15293967D01*
X44097022Y15293967D02*
X44096974Y15293920D01*
X44095974Y15293110D02*
X44096022Y15293062D01*
X44096022Y15293062D02*
X44096164Y15293015D01*
X44096164Y15293015D02*
X44096260Y15293015D01*
X44096260Y15293015D02*
X44096403Y15293062D01*
X44096403Y15293062D02*
X44096498Y15293158D01*
X44096498Y15293158D02*
X44096545Y15293253D01*
X44096545Y15293253D02*
X44096593Y15293443D01*
X44096593Y15293443D02*
X44096593Y15293586D01*
X44096593Y15293586D02*
X44096545Y15293777D01*
X44096545Y15293777D02*
X44096498Y15293872D01*
X44096498Y15293872D02*
X44096403Y15293967D01*
X44096403Y15293967D02*
X44096260Y15294015D01*
X44096260Y15294015D02*
X44096164Y15294015D01*
X44096164Y15294015D02*
X44096022Y15293967D01*
X44096022Y15293967D02*
X44095974Y15293920D01*
X44095117Y15294015D02*
X44095307Y15294015D01*
X44095307Y15294015D02*
X44095403Y15293967D01*
X44095403Y15293967D02*
X44095450Y15293920D01*
X44095450Y15293920D02*
X44095545Y15293777D01*
X44095545Y15293777D02*
X44095593Y15293586D01*
X44095593Y15293586D02*
X44095593Y15293205D01*
X44095593Y15293205D02*
X44095545Y15293110D01*
X44095545Y15293110D02*
X44095498Y15293062D01*
X44095498Y15293062D02*
X44095403Y15293015D01*
X44095403Y15293015D02*
X44095212Y15293015D01*
X44095212Y15293015D02*
X44095117Y15293062D01*
X44095117Y15293062D02*
X44095069Y15293110D01*
X44095069Y15293110D02*
X44095022Y15293205D01*
X44095022Y15293205D02*
X44095022Y15293443D01*
X44095022Y15293443D02*
X44095069Y15293539D01*
X44095069Y15293539D02*
X44095117Y15293586D01*
X44095117Y15293586D02*
X44095212Y15293634D01*
X44095212Y15293634D02*
X44095403Y15293634D01*
X44095403Y15293634D02*
X44095498Y15293586D01*
X44095498Y15293586D02*
X44095545Y15293539D01*
X44095545Y15293539D02*
X44095593Y15293443D01*
X44094593Y15293015D02*
X44094593Y15294015D01*
X44094593Y15294015D02*
X44094355Y15294015D01*
X44094355Y15294015D02*
X44094212Y15293967D01*
X44094212Y15293967D02*
X44094117Y15293872D01*
X44094117Y15293872D02*
X44094070Y15293777D01*
X44094070Y15293777D02*
X44094022Y15293586D01*
X44094022Y15293586D02*
X44094022Y15293443D01*
X44094022Y15293443D02*
X44094070Y15293253D01*
X44094070Y15293253D02*
X44094117Y15293158D01*
X44094117Y15293158D02*
X44094212Y15293062D01*
X44094212Y15293062D02*
X44094355Y15293015D01*
X44094355Y15293015D02*
X44094593Y15293015D01*
X44093546Y15293015D02*
X44093355Y15293015D01*
X44093355Y15293015D02*
X44093260Y15293062D01*
X44093260Y15293062D02*
X44093212Y15293110D01*
X44093212Y15293110D02*
X44093117Y15293253D01*
X44093117Y15293253D02*
X44093070Y15293443D01*
X44093070Y15293443D02*
X44093070Y15293824D01*
X44093070Y15293824D02*
X44093117Y15293920D01*
X44093117Y15293920D02*
X44093165Y15293967D01*
X44093165Y15293967D02*
X44093260Y15294015D01*
X44093260Y15294015D02*
X44093451Y15294015D01*
X44093451Y15294015D02*
X44093546Y15293967D01*
X44093546Y15293967D02*
X44093593Y15293920D01*
X44093593Y15293920D02*
X44093641Y15293824D01*
X44093641Y15293824D02*
X44093641Y15293586D01*
X44093641Y15293586D02*
X44093593Y15293491D01*
X44093593Y15293491D02*
X44093546Y15293443D01*
X44093546Y15293443D02*
X44093451Y15293396D01*
X44093451Y15293396D02*
X44093260Y15293396D01*
X44093260Y15293396D02*
X44093165Y15293443D01*
X44093165Y15293443D02*
X44093117Y15293491D01*
X44093117Y15293491D02*
X44093070Y15293586D01*
X44092213Y15293682D02*
X44092213Y15293015D01*
X44092451Y15294062D02*
X44092689Y15293348D01*
X44092689Y15293348D02*
X44092070Y15293348D01*
X676774Y1657786D02*
X675774Y1657786D01*
X676393Y1657691D02*
X676774Y1657405D01*
X676107Y1657405D02*
X676488Y1657786D01*
X676774Y1656976D02*
X676107Y1656976D01*
X675774Y1656976D02*
X675822Y1657024D01*
X675822Y1657024D02*
X675869Y1656976D01*
X675869Y1656976D02*
X675822Y1656929D01*
X675822Y1656929D02*
X675774Y1656976D01*
X675774Y1656976D02*
X675869Y1656976D01*
X676774Y1656500D02*
X675774Y1656500D01*
X676155Y1656500D02*
X676107Y1656405D01*
X676107Y1656405D02*
X676107Y1656215D01*
X676107Y1656215D02*
X676155Y1656119D01*
X676155Y1656119D02*
X676203Y1656072D01*
X676203Y1656072D02*
X676298Y1656024D01*
X676298Y1656024D02*
X676584Y1656024D01*
X676584Y1656024D02*
X676679Y1656072D01*
X676679Y1656072D02*
X676727Y1656119D01*
X676727Y1656119D02*
X676774Y1656215D01*
X676774Y1656215D02*
X676774Y1656405D01*
X676774Y1656405D02*
X676727Y1656500D01*
X676107Y1655167D02*
X676774Y1655167D01*
X676107Y1655595D02*
X676631Y1655595D01*
X676631Y1655595D02*
X676727Y1655548D01*
X676727Y1655548D02*
X676774Y1655453D01*
X676774Y1655453D02*
X676774Y1655310D01*
X676774Y1655310D02*
X676727Y1655214D01*
X676727Y1655214D02*
X676679Y1655167D01*
X676107Y1654786D02*
X676107Y1654262D01*
X676107Y1654262D02*
X676774Y1654786D01*
X676774Y1654786D02*
X676774Y1654262D01*
X676107Y1653976D02*
X676107Y1653452D01*
X676107Y1653452D02*
X676774Y1653976D01*
X676774Y1653976D02*
X676774Y1653452D01*
X676774Y1652642D02*
X676250Y1652642D01*
X676250Y1652642D02*
X676155Y1652689D01*
X676155Y1652689D02*
X676107Y1652785D01*
X676107Y1652785D02*
X676107Y1652975D01*
X676107Y1652975D02*
X676155Y1653070D01*
X676727Y1652642D02*
X676774Y1652737D01*
X676774Y1652737D02*
X676774Y1652975D01*
X676774Y1652975D02*
X676727Y1653070D01*
X676727Y1653070D02*
X676631Y1653118D01*
X676631Y1653118D02*
X676536Y1653118D01*
X676536Y1653118D02*
X676441Y1653070D01*
X676441Y1653070D02*
X676393Y1652975D01*
X676393Y1652975D02*
X676393Y1652737D01*
X676393Y1652737D02*
X676346Y1652642D01*
X676774Y1652165D02*
X676107Y1652165D01*
X676298Y1652165D02*
X676203Y1652118D01*
X676203Y1652118D02*
X676155Y1652070D01*
X676155Y1652070D02*
X676107Y1651975D01*
X676107Y1651975D02*
X676107Y1651880D01*
X676774Y1651118D02*
X675774Y1651118D01*
X676727Y1651118D02*
X676774Y1651213D01*
X676774Y1651213D02*
X676774Y1651404D01*
X676774Y1651404D02*
X676727Y1651499D01*
X676727Y1651499D02*
X676679Y1651546D01*
X676679Y1651546D02*
X676584Y1651594D01*
X676584Y1651594D02*
X676298Y1651594D01*
X676298Y1651594D02*
X676203Y1651546D01*
X676203Y1651546D02*
X676155Y1651499D01*
X676155Y1651499D02*
X676107Y1651404D01*
X676107Y1651404D02*
X676107Y1651213D01*
X676107Y1651213D02*
X676155Y1651118D01*
X676393Y1650641D02*
X676393Y1649879D01*
X675774Y1648975D02*
X675774Y1649165D01*
X675774Y1649165D02*
X675822Y1649261D01*
X675822Y1649261D02*
X675869Y1649308D01*
X675869Y1649308D02*
X676012Y1649403D01*
X676012Y1649403D02*
X676203Y1649451D01*
X676203Y1649451D02*
X676584Y1649451D01*
X676584Y1649451D02*
X676679Y1649403D01*
X676679Y1649403D02*
X676727Y1649356D01*
X676727Y1649356D02*
X676774Y1649261D01*
X676774Y1649261D02*
X676774Y1649070D01*
X676774Y1649070D02*
X676727Y1648975D01*
X676727Y1648975D02*
X676679Y1648927D01*
X676679Y1648927D02*
X676584Y1648880D01*
X676584Y1648880D02*
X676346Y1648880D01*
X676346Y1648880D02*
X676250Y1648927D01*
X676250Y1648927D02*
X676203Y1648975D01*
X676203Y1648975D02*
X676155Y1649070D01*
X676155Y1649070D02*
X676155Y1649261D01*
X676155Y1649261D02*
X676203Y1649356D01*
X676203Y1649356D02*
X676250Y1649403D01*
X676250Y1649403D02*
X676346Y1649451D01*
X675774Y1648547D02*
X675774Y1647880D01*
X675774Y1647880D02*
X676774Y1648309D01*
X676250Y1647499D02*
X676250Y1647166D01*
X676774Y1647023D02*
X676774Y1647499D01*
X676774Y1647499D02*
X675774Y1647499D01*
X675774Y1647499D02*
X675774Y1647023D01*
X676250Y1646261D02*
X676298Y1646118D01*
X676298Y1646118D02*
X676346Y1646071D01*
X676346Y1646071D02*
X676441Y1646023D01*
X676441Y1646023D02*
X676584Y1646023D01*
X676584Y1646023D02*
X676679Y1646071D01*
X676679Y1646071D02*
X676727Y1646118D01*
X676727Y1646118D02*
X676774Y1646213D01*
X676774Y1646213D02*
X676774Y1646594D01*
X676774Y1646594D02*
X675774Y1646594D01*
X675774Y1646594D02*
X675774Y1646261D01*
X675774Y1646261D02*
X675822Y1646166D01*
X675822Y1646166D02*
X675869Y1646118D01*
X675869Y1646118D02*
X675965Y1646071D01*
X675965Y1646071D02*
X676060Y1646071D01*
X676060Y1646071D02*
X676155Y1646118D01*
X676155Y1646118D02*
X676203Y1646166D01*
X676203Y1646166D02*
X676250Y1646261D01*
X676250Y1646261D02*
X676250Y1646594D01*
X676774Y1645594D02*
X675774Y1645594D01*
X675774Y1645594D02*
X675774Y1645356D01*
X675774Y1645356D02*
X675822Y1645213D01*
X675822Y1645213D02*
X675917Y1645118D01*
X675917Y1645118D02*
X676012Y1645071D01*
X676012Y1645071D02*
X676203Y1645023D01*
X676203Y1645023D02*
X676346Y1645023D01*
X676346Y1645023D02*
X676536Y1645071D01*
X676536Y1645071D02*
X676631Y1645118D01*
X676631Y1645118D02*
X676727Y1645213D01*
X676727Y1645213D02*
X676774Y1645356D01*
X676774Y1645356D02*
X676774Y1645594D01*
X675869Y1644642D02*
X675822Y1644594D01*
X675822Y1644594D02*
X675774Y1644499D01*
X675774Y1644499D02*
X675774Y1644261D01*
X675774Y1644261D02*
X675822Y1644166D01*
X675822Y1644166D02*
X675869Y1644118D01*
X675869Y1644118D02*
X675965Y1644071D01*
X675965Y1644071D02*
X676060Y1644071D01*
X676060Y1644071D02*
X676203Y1644118D01*
X676203Y1644118D02*
X676774Y1644690D01*
X676774Y1644690D02*
X676774Y1644071D01*
X675869Y1643690D02*
X675822Y1643642D01*
X675822Y1643642D02*
X675774Y1643547D01*
X675774Y1643547D02*
X675774Y1643309D01*
X675774Y1643309D02*
X675822Y1643214D01*
X675822Y1643214D02*
X675869Y1643166D01*
X675869Y1643166D02*
X675965Y1643119D01*
X675965Y1643119D02*
X676060Y1643119D01*
X676060Y1643119D02*
X676203Y1643166D01*
X676203Y1643166D02*
X676774Y1643738D01*
X676774Y1643738D02*
X676774Y1643119D01*
X676774Y1642167D02*
X676774Y1642738D01*
X676774Y1642452D02*
X675774Y1642452D01*
X675774Y1642452D02*
X675917Y1642548D01*
X675917Y1642548D02*
X676012Y1642643D01*
X676012Y1642643D02*
X676060Y1642738D01*
X48207761Y3296663D02*
X48207761Y3297663D01*
X48207666Y3297044D02*
X48207380Y3296663D01*
X48207380Y3297330D02*
X48207761Y3296949D01*
X48206951Y3296663D02*
X48206951Y3297330D01*
X48206951Y3297663D02*
X48206999Y3297615D01*
X48206999Y3297615D02*
X48206951Y3297568D01*
X48206951Y3297568D02*
X48206904Y3297615D01*
X48206904Y3297615D02*
X48206951Y3297663D01*
X48206951Y3297663D02*
X48206951Y3297568D01*
X48206475Y3296663D02*
X48206475Y3297663D01*
X48206475Y3297282D02*
X48206380Y3297330D01*
X48206380Y3297330D02*
X48206190Y3297330D01*
X48206190Y3297330D02*
X48206094Y3297282D01*
X48206094Y3297282D02*
X48206047Y3297234D01*
X48206047Y3297234D02*
X48205999Y3297139D01*
X48205999Y3297139D02*
X48205999Y3296853D01*
X48205999Y3296853D02*
X48206047Y3296758D01*
X48206047Y3296758D02*
X48206094Y3296710D01*
X48206094Y3296710D02*
X48206190Y3296663D01*
X48206190Y3296663D02*
X48206380Y3296663D01*
X48206380Y3296663D02*
X48206475Y3296710D01*
X48205142Y3297330D02*
X48205142Y3296663D01*
X48205570Y3297330D02*
X48205570Y3296806D01*
X48205570Y3296806D02*
X48205523Y3296710D01*
X48205523Y3296710D02*
X48205428Y3296663D01*
X48205428Y3296663D02*
X48205285Y3296663D01*
X48205285Y3296663D02*
X48205189Y3296710D01*
X48205189Y3296710D02*
X48205142Y3296758D01*
X48204761Y3297330D02*
X48204237Y3297330D01*
X48204237Y3297330D02*
X48204761Y3296663D01*
X48204761Y3296663D02*
X48204237Y3296663D01*
X48203951Y3297330D02*
X48203427Y3297330D01*
X48203427Y3297330D02*
X48203951Y3296663D01*
X48203951Y3296663D02*
X48203427Y3296663D01*
X48202617Y3296663D02*
X48202617Y3297187D01*
X48202617Y3297187D02*
X48202664Y3297282D01*
X48202664Y3297282D02*
X48202760Y3297330D01*
X48202760Y3297330D02*
X48202950Y3297330D01*
X48202950Y3297330D02*
X48203045Y3297282D01*
X48202617Y3296710D02*
X48202712Y3296663D01*
X48202712Y3296663D02*
X48202950Y3296663D01*
X48202950Y3296663D02*
X48203045Y3296710D01*
X48203045Y3296710D02*
X48203093Y3296806D01*
X48203093Y3296806D02*
X48203093Y3296901D01*
X48203093Y3296901D02*
X48203045Y3296996D01*
X48203045Y3296996D02*
X48202950Y3297044D01*
X48202950Y3297044D02*
X48202712Y3297044D01*
X48202712Y3297044D02*
X48202617Y3297091D01*
X48202140Y3296663D02*
X48202140Y3297330D01*
X48202140Y3297139D02*
X48202093Y3297234D01*
X48202093Y3297234D02*
X48202045Y3297282D01*
X48202045Y3297282D02*
X48201950Y3297330D01*
X48201950Y3297330D02*
X48201855Y3297330D01*
X48201093Y3296663D02*
X48201093Y3297663D01*
X48201093Y3296710D02*
X48201188Y3296663D01*
X48201188Y3296663D02*
X48201379Y3296663D01*
X48201379Y3296663D02*
X48201474Y3296710D01*
X48201474Y3296710D02*
X48201521Y3296758D01*
X48201521Y3296758D02*
X48201569Y3296853D01*
X48201569Y3296853D02*
X48201569Y3297139D01*
X48201569Y3297139D02*
X48201521Y3297234D01*
X48201521Y3297234D02*
X48201474Y3297282D01*
X48201474Y3297282D02*
X48201379Y3297330D01*
X48201379Y3297330D02*
X48201188Y3297330D01*
X48201188Y3297330D02*
X48201093Y3297282D01*
X48200616Y3297044D02*
X48199855Y3297044D01*
X48198950Y3297663D02*
X48199140Y3297663D01*
X48199140Y3297663D02*
X48199236Y3297615D01*
X48199236Y3297615D02*
X48199283Y3297568D01*
X48199283Y3297568D02*
X48199378Y3297425D01*
X48199378Y3297425D02*
X48199426Y3297234D01*
X48199426Y3297234D02*
X48199426Y3296853D01*
X48199426Y3296853D02*
X48199378Y3296758D01*
X48199378Y3296758D02*
X48199331Y3296710D01*
X48199331Y3296710D02*
X48199236Y3296663D01*
X48199236Y3296663D02*
X48199045Y3296663D01*
X48199045Y3296663D02*
X48198950Y3296710D01*
X48198950Y3296710D02*
X48198902Y3296758D01*
X48198902Y3296758D02*
X48198855Y3296853D01*
X48198855Y3296853D02*
X48198855Y3297091D01*
X48198855Y3297091D02*
X48198902Y3297187D01*
X48198902Y3297187D02*
X48198950Y3297234D01*
X48198950Y3297234D02*
X48199045Y3297282D01*
X48199045Y3297282D02*
X48199236Y3297282D01*
X48199236Y3297282D02*
X48199331Y3297234D01*
X48199331Y3297234D02*
X48199378Y3297187D01*
X48199378Y3297187D02*
X48199426Y3297091D01*
X48198522Y3297663D02*
X48197855Y3297663D01*
X48197855Y3297663D02*
X48198284Y3296663D01*
X48197474Y3297187D02*
X48197141Y3297187D01*
X48196998Y3296663D02*
X48197474Y3296663D01*
X48197474Y3296663D02*
X48197474Y3297663D01*
X48197474Y3297663D02*
X48196998Y3297663D01*
X48196236Y3297187D02*
X48196093Y3297139D01*
X48196093Y3297139D02*
X48196046Y3297091D01*
X48196046Y3297091D02*
X48195998Y3296996D01*
X48195998Y3296996D02*
X48195998Y3296853D01*
X48195998Y3296853D02*
X48196046Y3296758D01*
X48196046Y3296758D02*
X48196093Y3296710D01*
X48196093Y3296710D02*
X48196188Y3296663D01*
X48196188Y3296663D02*
X48196569Y3296663D01*
X48196569Y3296663D02*
X48196569Y3297663D01*
X48196569Y3297663D02*
X48196236Y3297663D01*
X48196236Y3297663D02*
X48196141Y3297615D01*
X48196141Y3297615D02*
X48196093Y3297568D01*
X48196093Y3297568D02*
X48196046Y3297472D01*
X48196046Y3297472D02*
X48196046Y3297377D01*
X48196046Y3297377D02*
X48196093Y3297282D01*
X48196093Y3297282D02*
X48196141Y3297234D01*
X48196141Y3297234D02*
X48196236Y3297187D01*
X48196236Y3297187D02*
X48196569Y3297187D01*
X48195617Y3296949D02*
X48195141Y3296949D01*
X48195712Y3296663D02*
X48195379Y3297663D01*
X48195379Y3297663D02*
X48195046Y3296663D01*
X48194141Y3296758D02*
X48194189Y3296710D01*
X48194189Y3296710D02*
X48194331Y3296663D01*
X48194331Y3296663D02*
X48194427Y3296663D01*
X48194427Y3296663D02*
X48194570Y3296710D01*
X48194570Y3296710D02*
X48194665Y3296806D01*
X48194665Y3296806D02*
X48194712Y3296901D01*
X48194712Y3296901D02*
X48194760Y3297091D01*
X48194760Y3297091D02*
X48194760Y3297234D01*
X48194760Y3297234D02*
X48194712Y3297425D01*
X48194712Y3297425D02*
X48194665Y3297520D01*
X48194665Y3297520D02*
X48194570Y3297615D01*
X48194570Y3297615D02*
X48194427Y3297663D01*
X48194427Y3297663D02*
X48194331Y3297663D01*
X48194331Y3297663D02*
X48194189Y3297615D01*
X48194189Y3297615D02*
X48194141Y3297568D01*
X48193284Y3297330D02*
X48193284Y3296663D01*
X48193522Y3297710D02*
X48193760Y3296996D01*
X48193760Y3296996D02*
X48193141Y3296996D01*
X48192189Y3296758D02*
X48192237Y3296710D01*
X48192237Y3296710D02*
X48192379Y3296663D01*
X48192379Y3296663D02*
X48192475Y3296663D01*
X48192475Y3296663D02*
X48192618Y3296710D01*
X48192618Y3296710D02*
X48192713Y3296806D01*
X48192713Y3296806D02*
X48192760Y3296901D01*
X48192760Y3296901D02*
X48192808Y3297091D01*
X48192808Y3297091D02*
X48192808Y3297234D01*
X48192808Y3297234D02*
X48192760Y3297425D01*
X48192760Y3297425D02*
X48192713Y3297520D01*
X48192713Y3297520D02*
X48192618Y3297615D01*
X48192618Y3297615D02*
X48192475Y3297663D01*
X48192475Y3297663D02*
X48192379Y3297663D01*
X48192379Y3297663D02*
X48192237Y3297615D01*
X48192237Y3297615D02*
X48192189Y3297568D01*
X6035717Y18957714D02*
X6034717Y18957714D01*
X6035336Y18957619D02*
X6035717Y18957333D01*
X6035050Y18957333D02*
X6035431Y18957714D01*
X6035717Y18956904D02*
X6035050Y18956904D01*
X6034717Y18956904D02*
X6034765Y18956952D01*
X6034765Y18956952D02*
X6034812Y18956904D01*
X6034812Y18956904D02*
X6034765Y18956857D01*
X6034765Y18956857D02*
X6034717Y18956904D01*
X6034717Y18956904D02*
X6034812Y18956904D01*
X6035717Y18956428D02*
X6034717Y18956428D01*
X6035098Y18956428D02*
X6035050Y18956333D01*
X6035050Y18956333D02*
X6035050Y18956143D01*
X6035050Y18956143D02*
X6035098Y18956047D01*
X6035098Y18956047D02*
X6035146Y18956000D01*
X6035146Y18956000D02*
X6035241Y18955952D01*
X6035241Y18955952D02*
X6035527Y18955952D01*
X6035527Y18955952D02*
X6035622Y18956000D01*
X6035622Y18956000D02*
X6035670Y18956047D01*
X6035670Y18956047D02*
X6035717Y18956143D01*
X6035717Y18956143D02*
X6035717Y18956333D01*
X6035717Y18956333D02*
X6035670Y18956428D01*
X6035050Y18955095D02*
X6035717Y18955095D01*
X6035050Y18955523D02*
X6035574Y18955523D01*
X6035574Y18955523D02*
X6035670Y18955476D01*
X6035670Y18955476D02*
X6035717Y18955381D01*
X6035717Y18955381D02*
X6035717Y18955238D01*
X6035717Y18955238D02*
X6035670Y18955142D01*
X6035670Y18955142D02*
X6035622Y18955095D01*
X6035050Y18954714D02*
X6035050Y18954190D01*
X6035050Y18954190D02*
X6035717Y18954714D01*
X6035717Y18954714D02*
X6035717Y18954190D01*
X6035050Y18953904D02*
X6035050Y18953380D01*
X6035050Y18953380D02*
X6035717Y18953904D01*
X6035717Y18953904D02*
X6035717Y18953380D01*
X6035717Y18952570D02*
X6035193Y18952570D01*
X6035193Y18952570D02*
X6035098Y18952617D01*
X6035098Y18952617D02*
X6035050Y18952713D01*
X6035050Y18952713D02*
X6035050Y18952903D01*
X6035050Y18952903D02*
X6035098Y18952998D01*
X6035670Y18952570D02*
X6035717Y18952665D01*
X6035717Y18952665D02*
X6035717Y18952903D01*
X6035717Y18952903D02*
X6035670Y18952998D01*
X6035670Y18952998D02*
X6035574Y18953046D01*
X6035574Y18953046D02*
X6035479Y18953046D01*
X6035479Y18953046D02*
X6035384Y18952998D01*
X6035384Y18952998D02*
X6035336Y18952903D01*
X6035336Y18952903D02*
X6035336Y18952665D01*
X6035336Y18952665D02*
X6035289Y18952570D01*
X6035717Y18952093D02*
X6035050Y18952093D01*
X6035241Y18952093D02*
X6035146Y18952046D01*
X6035146Y18952046D02*
X6035098Y18951998D01*
X6035098Y18951998D02*
X6035050Y18951903D01*
X6035050Y18951903D02*
X6035050Y18951808D01*
X6035717Y18951046D02*
X6034717Y18951046D01*
X6035670Y18951046D02*
X6035717Y18951141D01*
X6035717Y18951141D02*
X6035717Y18951332D01*
X6035717Y18951332D02*
X6035670Y18951427D01*
X6035670Y18951427D02*
X6035622Y18951474D01*
X6035622Y18951474D02*
X6035527Y18951522D01*
X6035527Y18951522D02*
X6035241Y18951522D01*
X6035241Y18951522D02*
X6035146Y18951474D01*
X6035146Y18951474D02*
X6035098Y18951427D01*
X6035098Y18951427D02*
X6035050Y18951332D01*
X6035050Y18951332D02*
X6035050Y18951141D01*
X6035050Y18951141D02*
X6035098Y18951046D01*
X6035336Y18950569D02*
X6035336Y18949807D01*
X6034717Y18948903D02*
X6034717Y18949093D01*
X6034717Y18949093D02*
X6034765Y18949189D01*
X6034765Y18949189D02*
X6034812Y18949236D01*
X6034812Y18949236D02*
X6034955Y18949331D01*
X6034955Y18949331D02*
X6035146Y18949379D01*
X6035146Y18949379D02*
X6035527Y18949379D01*
X6035527Y18949379D02*
X6035622Y18949331D01*
X6035622Y18949331D02*
X6035670Y18949284D01*
X6035670Y18949284D02*
X6035717Y18949189D01*
X6035717Y18949189D02*
X6035717Y18948998D01*
X6035717Y18948998D02*
X6035670Y18948903D01*
X6035670Y18948903D02*
X6035622Y18948855D01*
X6035622Y18948855D02*
X6035527Y18948808D01*
X6035527Y18948808D02*
X6035289Y18948808D01*
X6035289Y18948808D02*
X6035193Y18948855D01*
X6035193Y18948855D02*
X6035146Y18948903D01*
X6035146Y18948903D02*
X6035098Y18948998D01*
X6035098Y18948998D02*
X6035098Y18949189D01*
X6035098Y18949189D02*
X6035146Y18949284D01*
X6035146Y18949284D02*
X6035193Y18949331D01*
X6035193Y18949331D02*
X6035289Y18949379D01*
X6034717Y18948475D02*
X6034717Y18947808D01*
X6034717Y18947808D02*
X6035717Y18948237D01*
X6035193Y18947427D02*
X6035193Y18947094D01*
X6035717Y18946951D02*
X6035717Y18947427D01*
X6035717Y18947427D02*
X6034717Y18947427D01*
X6034717Y18947427D02*
X6034717Y18946951D01*
X6035193Y18946189D02*
X6035241Y18946046D01*
X6035241Y18946046D02*
X6035289Y18945999D01*
X6035289Y18945999D02*
X6035384Y18945951D01*
X6035384Y18945951D02*
X6035527Y18945951D01*
X6035527Y18945951D02*
X6035622Y18945999D01*
X6035622Y18945999D02*
X6035670Y18946046D01*
X6035670Y18946046D02*
X6035717Y18946141D01*
X6035717Y18946141D02*
X6035717Y18946522D01*
X6035717Y18946522D02*
X6034717Y18946522D01*
X6034717Y18946522D02*
X6034717Y18946189D01*
X6034717Y18946189D02*
X6034765Y18946094D01*
X6034765Y18946094D02*
X6034812Y18946046D01*
X6034812Y18946046D02*
X6034908Y18945999D01*
X6034908Y18945999D02*
X6035003Y18945999D01*
X6035003Y18945999D02*
X6035098Y18946046D01*
X6035098Y18946046D02*
X6035146Y18946094D01*
X6035146Y18946094D02*
X6035193Y18946189D01*
X6035193Y18946189D02*
X6035193Y18946522D01*
X6035193Y18945189D02*
X6035193Y18945522D01*
X6035717Y18945522D02*
X6034717Y18945522D01*
X6034717Y18945522D02*
X6034717Y18945046D01*
X6034717Y18944475D02*
X6034717Y18944380D01*
X6034717Y18944380D02*
X6034765Y18944284D01*
X6034765Y18944284D02*
X6034812Y18944237D01*
X6034812Y18944237D02*
X6034908Y18944189D01*
X6034908Y18944189D02*
X6035098Y18944142D01*
X6035098Y18944142D02*
X6035336Y18944142D01*
X6035336Y18944142D02*
X6035527Y18944189D01*
X6035527Y18944189D02*
X6035622Y18944237D01*
X6035622Y18944237D02*
X6035670Y18944284D01*
X6035670Y18944284D02*
X6035717Y18944380D01*
X6035717Y18944380D02*
X6035717Y18944475D01*
X6035717Y18944475D02*
X6035670Y18944570D01*
X6035670Y18944570D02*
X6035622Y18944618D01*
X6035622Y18944618D02*
X6035527Y18944665D01*
X6035527Y18944665D02*
X6035336Y18944713D01*
X6035336Y18944713D02*
X6035098Y18944713D01*
X6035098Y18944713D02*
X6034908Y18944665D01*
X6034908Y18944665D02*
X6034812Y18944618D01*
X6034812Y18944618D02*
X6034765Y18944570D01*
X6034765Y18944570D02*
X6034717Y18944475D01*
X6035717Y18943190D02*
X6035717Y18943761D01*
X6035717Y18943475D02*
X6034717Y18943475D01*
X6034717Y18943475D02*
X6034860Y18943571D01*
X6034860Y18943571D02*
X6034955Y18943666D01*
X6034955Y18943666D02*
X6035003Y18943761D01*
X6034717Y18942285D02*
X6034717Y18942761D01*
X6034717Y18942761D02*
X6035193Y18942809D01*
X6035193Y18942809D02*
X6035146Y18942761D01*
X6035146Y18942761D02*
X6035098Y18942666D01*
X6035098Y18942666D02*
X6035098Y18942428D01*
X6035098Y18942428D02*
X6035146Y18942333D01*
X6035146Y18942333D02*
X6035193Y18942285D01*
X6035193Y18942285D02*
X6035289Y18942238D01*
X6035289Y18942238D02*
X6035527Y18942238D01*
X6035527Y18942238D02*
X6035622Y18942285D01*
X6035622Y18942285D02*
X6035670Y18942333D01*
X6035670Y18942333D02*
X6035717Y18942428D01*
X6035717Y18942428D02*
X6035717Y18942666D01*
X6035717Y18942666D02*
X6035670Y18942761D01*
X6035670Y18942761D02*
X6035622Y18942809D01*
X47207760Y6648809D02*
X47207760Y6649809D01*
X47207665Y6649190D02*
X47207379Y6648809D01*
X47207379Y6649476D02*
X47207760Y6649095D01*
X47206950Y6648809D02*
X47206950Y6649476D01*
X47206950Y6649809D02*
X47206998Y6649761D01*
X47206998Y6649761D02*
X47206950Y6649714D01*
X47206950Y6649714D02*
X47206903Y6649761D01*
X47206903Y6649761D02*
X47206950Y6649809D01*
X47206950Y6649809D02*
X47206950Y6649714D01*
X47206474Y6648809D02*
X47206474Y6649809D01*
X47206474Y6649428D02*
X47206379Y6649476D01*
X47206379Y6649476D02*
X47206189Y6649476D01*
X47206189Y6649476D02*
X47206093Y6649428D01*
X47206093Y6649428D02*
X47206046Y6649380D01*
X47206046Y6649380D02*
X47205998Y6649285D01*
X47205998Y6649285D02*
X47205998Y6648999D01*
X47205998Y6648999D02*
X47206046Y6648904D01*
X47206046Y6648904D02*
X47206093Y6648856D01*
X47206093Y6648856D02*
X47206189Y6648809D01*
X47206189Y6648809D02*
X47206379Y6648809D01*
X47206379Y6648809D02*
X47206474Y6648856D01*
X47205141Y6649476D02*
X47205141Y6648809D01*
X47205569Y6649476D02*
X47205569Y6648952D01*
X47205569Y6648952D02*
X47205522Y6648856D01*
X47205522Y6648856D02*
X47205427Y6648809D01*
X47205427Y6648809D02*
X47205284Y6648809D01*
X47205284Y6648809D02*
X47205188Y6648856D01*
X47205188Y6648856D02*
X47205141Y6648904D01*
X47204760Y6649476D02*
X47204236Y6649476D01*
X47204236Y6649476D02*
X47204760Y6648809D01*
X47204760Y6648809D02*
X47204236Y6648809D01*
X47203950Y6649476D02*
X47203426Y6649476D01*
X47203426Y6649476D02*
X47203950Y6648809D01*
X47203950Y6648809D02*
X47203426Y6648809D01*
X47202616Y6648809D02*
X47202616Y6649333D01*
X47202616Y6649333D02*
X47202663Y6649428D01*
X47202663Y6649428D02*
X47202759Y6649476D01*
X47202759Y6649476D02*
X47202949Y6649476D01*
X47202949Y6649476D02*
X47203044Y6649428D01*
X47202616Y6648856D02*
X47202711Y6648809D01*
X47202711Y6648809D02*
X47202949Y6648809D01*
X47202949Y6648809D02*
X47203044Y6648856D01*
X47203044Y6648856D02*
X47203092Y6648952D01*
X47203092Y6648952D02*
X47203092Y6649047D01*
X47203092Y6649047D02*
X47203044Y6649142D01*
X47203044Y6649142D02*
X47202949Y6649190D01*
X47202949Y6649190D02*
X47202711Y6649190D01*
X47202711Y6649190D02*
X47202616Y6649237D01*
X47202139Y6648809D02*
X47202139Y6649476D01*
X47202139Y6649285D02*
X47202092Y6649380D01*
X47202092Y6649380D02*
X47202044Y6649428D01*
X47202044Y6649428D02*
X47201949Y6649476D01*
X47201949Y6649476D02*
X47201854Y6649476D01*
X47201092Y6648809D02*
X47201092Y6649809D01*
X47201092Y6648856D02*
X47201187Y6648809D01*
X47201187Y6648809D02*
X47201378Y6648809D01*
X47201378Y6648809D02*
X47201473Y6648856D01*
X47201473Y6648856D02*
X47201520Y6648904D01*
X47201520Y6648904D02*
X47201568Y6648999D01*
X47201568Y6648999D02*
X47201568Y6649285D01*
X47201568Y6649285D02*
X47201520Y6649380D01*
X47201520Y6649380D02*
X47201473Y6649428D01*
X47201473Y6649428D02*
X47201378Y6649476D01*
X47201378Y6649476D02*
X47201187Y6649476D01*
X47201187Y6649476D02*
X47201092Y6649428D01*
X47200615Y6649190D02*
X47199854Y6649190D01*
X47198949Y6649809D02*
X47199139Y6649809D01*
X47199139Y6649809D02*
X47199235Y6649761D01*
X47199235Y6649761D02*
X47199282Y6649714D01*
X47199282Y6649714D02*
X47199377Y6649571D01*
X47199377Y6649571D02*
X47199425Y6649380D01*
X47199425Y6649380D02*
X47199425Y6648999D01*
X47199425Y6648999D02*
X47199377Y6648904D01*
X47199377Y6648904D02*
X47199330Y6648856D01*
X47199330Y6648856D02*
X47199235Y6648809D01*
X47199235Y6648809D02*
X47199044Y6648809D01*
X47199044Y6648809D02*
X47198949Y6648856D01*
X47198949Y6648856D02*
X47198901Y6648904D01*
X47198901Y6648904D02*
X47198854Y6648999D01*
X47198854Y6648999D02*
X47198854Y6649237D01*
X47198854Y6649237D02*
X47198901Y6649333D01*
X47198901Y6649333D02*
X47198949Y6649380D01*
X47198949Y6649380D02*
X47199044Y6649428D01*
X47199044Y6649428D02*
X47199235Y6649428D01*
X47199235Y6649428D02*
X47199330Y6649380D01*
X47199330Y6649380D02*
X47199377Y6649333D01*
X47199377Y6649333D02*
X47199425Y6649237D01*
X47198521Y6649809D02*
X47197854Y6649809D01*
X47197854Y6649809D02*
X47198283Y6648809D01*
X47197569Y6649809D02*
X47196902Y6649809D01*
X47196902Y6649809D02*
X47197331Y6648809D01*
X47196474Y6648809D02*
X47196283Y6648809D01*
X47196283Y6648809D02*
X47196188Y6648856D01*
X47196188Y6648856D02*
X47196140Y6648904D01*
X47196140Y6648904D02*
X47196045Y6649047D01*
X47196045Y6649047D02*
X47195998Y6649237D01*
X47195998Y6649237D02*
X47195998Y6649618D01*
X47195998Y6649618D02*
X47196045Y6649714D01*
X47196045Y6649714D02*
X47196093Y6649761D01*
X47196093Y6649761D02*
X47196188Y6649809D01*
X47196188Y6649809D02*
X47196379Y6649809D01*
X47196379Y6649809D02*
X47196474Y6649761D01*
X47196474Y6649761D02*
X47196521Y6649714D01*
X47196521Y6649714D02*
X47196569Y6649618D01*
X47196569Y6649618D02*
X47196569Y6649380D01*
X47196569Y6649380D02*
X47196521Y6649285D01*
X47196521Y6649285D02*
X47196474Y6649237D01*
X47196474Y6649237D02*
X47196379Y6649190D01*
X47196379Y6649190D02*
X47196188Y6649190D01*
X47196188Y6649190D02*
X47196093Y6649237D01*
X47196093Y6649237D02*
X47196045Y6649285D01*
X47196045Y6649285D02*
X47195998Y6649380D01*
X47195093Y6649809D02*
X47195569Y6649809D01*
X47195569Y6649809D02*
X47195617Y6649333D01*
X47195617Y6649333D02*
X47195569Y6649380D01*
X47195569Y6649380D02*
X47195474Y6649428D01*
X47195474Y6649428D02*
X47195236Y6649428D01*
X47195236Y6649428D02*
X47195141Y6649380D01*
X47195141Y6649380D02*
X47195093Y6649333D01*
X47195093Y6649333D02*
X47195046Y6649237D01*
X47195046Y6649237D02*
X47195046Y6648999D01*
X47195046Y6648999D02*
X47195093Y6648904D01*
X47195093Y6648904D02*
X47195141Y6648856D01*
X47195141Y6648856D02*
X47195236Y6648809D01*
X47195236Y6648809D02*
X47195474Y6648809D01*
X47195474Y6648809D02*
X47195569Y6648856D01*
X47195569Y6648856D02*
X47195617Y6648904D01*
X47194141Y6649809D02*
X47194617Y6649809D01*
X47194617Y6649809D02*
X47194665Y6649333D01*
X47194665Y6649333D02*
X47194617Y6649380D01*
X47194617Y6649380D02*
X47194522Y6649428D01*
X47194522Y6649428D02*
X47194284Y6649428D01*
X47194284Y6649428D02*
X47194189Y6649380D01*
X47194189Y6649380D02*
X47194141Y6649333D01*
X47194141Y6649333D02*
X47194094Y6649237D01*
X47194094Y6649237D02*
X47194094Y6648999D01*
X47194094Y6648999D02*
X47194141Y6648904D01*
X47194141Y6648904D02*
X47194189Y6648856D01*
X47194189Y6648856D02*
X47194284Y6648809D01*
X47194284Y6648809D02*
X47194522Y6648809D01*
X47194522Y6648809D02*
X47194617Y6648856D01*
X47194617Y6648856D02*
X47194665Y6648904D01*
X47193618Y6648809D02*
X47193427Y6648809D01*
X47193427Y6648809D02*
X47193332Y6648856D01*
X47193332Y6648856D02*
X47193284Y6648904D01*
X47193284Y6648904D02*
X47193189Y6649047D01*
X47193189Y6649047D02*
X47193142Y6649237D01*
X47193142Y6649237D02*
X47193142Y6649618D01*
X47193142Y6649618D02*
X47193189Y6649714D01*
X47193189Y6649714D02*
X47193237Y6649761D01*
X47193237Y6649761D02*
X47193332Y6649809D01*
X47193332Y6649809D02*
X47193523Y6649809D01*
X47193523Y6649809D02*
X47193618Y6649761D01*
X47193618Y6649761D02*
X47193665Y6649714D01*
X47193665Y6649714D02*
X47193713Y6649618D01*
X47193713Y6649618D02*
X47193713Y6649380D01*
X47193713Y6649380D02*
X47193665Y6649285D01*
X47193665Y6649285D02*
X47193618Y6649237D01*
X47193618Y6649237D02*
X47193523Y6649190D01*
X47193523Y6649190D02*
X47193332Y6649190D01*
X47193332Y6649190D02*
X47193237Y6649237D01*
X47193237Y6649237D02*
X47193189Y6649285D01*
X47193189Y6649285D02*
X47193142Y6649380D01*
X47192761Y6649714D02*
X47192713Y6649761D01*
X47192713Y6649761D02*
X47192618Y6649809D01*
X47192618Y6649809D02*
X47192380Y6649809D01*
X47192380Y6649809D02*
X47192285Y6649761D01*
X47192285Y6649761D02*
X47192237Y6649714D01*
X47192237Y6649714D02*
X47192190Y6649618D01*
X47192190Y6649618D02*
X47192190Y6649523D01*
X47192190Y6649523D02*
X47192237Y6649380D01*
X47192237Y6649380D02*
X47192809Y6648809D01*
X47192809Y6648809D02*
X47192190Y6648809D01*
X8497809Y1821298D02*
X8497809Y1822298D01*
X8497714Y1821679D02*
X8497428Y1821298D01*
X8497428Y1821965D02*
X8497809Y1821584D01*
X8496999Y1821298D02*
X8496999Y1821965D01*
X8496999Y1822298D02*
X8497047Y1822250D01*
X8497047Y1822250D02*
X8496999Y1822203D01*
X8496999Y1822203D02*
X8496952Y1822250D01*
X8496952Y1822250D02*
X8496999Y1822298D01*
X8496999Y1822298D02*
X8496999Y1822203D01*
X8496523Y1821298D02*
X8496523Y1822298D01*
X8496523Y1821917D02*
X8496428Y1821965D01*
X8496428Y1821965D02*
X8496238Y1821965D01*
X8496238Y1821965D02*
X8496142Y1821917D01*
X8496142Y1821917D02*
X8496095Y1821869D01*
X8496095Y1821869D02*
X8496047Y1821774D01*
X8496047Y1821774D02*
X8496047Y1821488D01*
X8496047Y1821488D02*
X8496095Y1821393D01*
X8496095Y1821393D02*
X8496142Y1821345D01*
X8496142Y1821345D02*
X8496238Y1821298D01*
X8496238Y1821298D02*
X8496428Y1821298D01*
X8496428Y1821298D02*
X8496523Y1821345D01*
X8495190Y1821965D02*
X8495190Y1821298D01*
X8495618Y1821965D02*
X8495618Y1821441D01*
X8495618Y1821441D02*
X8495571Y1821345D01*
X8495571Y1821345D02*
X8495476Y1821298D01*
X8495476Y1821298D02*
X8495333Y1821298D01*
X8495333Y1821298D02*
X8495237Y1821345D01*
X8495237Y1821345D02*
X8495190Y1821393D01*
X8494809Y1821965D02*
X8494285Y1821965D01*
X8494285Y1821965D02*
X8494809Y1821298D01*
X8494809Y1821298D02*
X8494285Y1821298D01*
X8493999Y1821965D02*
X8493475Y1821965D01*
X8493475Y1821965D02*
X8493999Y1821298D01*
X8493999Y1821298D02*
X8493475Y1821298D01*
X8492665Y1821298D02*
X8492665Y1821822D01*
X8492665Y1821822D02*
X8492712Y1821917D01*
X8492712Y1821917D02*
X8492808Y1821965D01*
X8492808Y1821965D02*
X8492998Y1821965D01*
X8492998Y1821965D02*
X8493093Y1821917D01*
X8492665Y1821345D02*
X8492760Y1821298D01*
X8492760Y1821298D02*
X8492998Y1821298D01*
X8492998Y1821298D02*
X8493093Y1821345D01*
X8493093Y1821345D02*
X8493141Y1821441D01*
X8493141Y1821441D02*
X8493141Y1821536D01*
X8493141Y1821536D02*
X8493093Y1821631D01*
X8493093Y1821631D02*
X8492998Y1821679D01*
X8492998Y1821679D02*
X8492760Y1821679D01*
X8492760Y1821679D02*
X8492665Y1821726D01*
X8492188Y1821298D02*
X8492188Y1821965D01*
X8492188Y1821774D02*
X8492141Y1821869D01*
X8492141Y1821869D02*
X8492093Y1821917D01*
X8492093Y1821917D02*
X8491998Y1821965D01*
X8491998Y1821965D02*
X8491903Y1821965D01*
X8491141Y1821298D02*
X8491141Y1822298D01*
X8491141Y1821345D02*
X8491236Y1821298D01*
X8491236Y1821298D02*
X8491427Y1821298D01*
X8491427Y1821298D02*
X8491522Y1821345D01*
X8491522Y1821345D02*
X8491569Y1821393D01*
X8491569Y1821393D02*
X8491617Y1821488D01*
X8491617Y1821488D02*
X8491617Y1821774D01*
X8491617Y1821774D02*
X8491569Y1821869D01*
X8491569Y1821869D02*
X8491522Y1821917D01*
X8491522Y1821917D02*
X8491427Y1821965D01*
X8491427Y1821965D02*
X8491236Y1821965D01*
X8491236Y1821965D02*
X8491141Y1821917D01*
X8490664Y1821679D02*
X8489903Y1821679D01*
X8488998Y1822298D02*
X8489188Y1822298D01*
X8489188Y1822298D02*
X8489284Y1822250D01*
X8489284Y1822250D02*
X8489331Y1822203D01*
X8489331Y1822203D02*
X8489426Y1822060D01*
X8489426Y1822060D02*
X8489474Y1821869D01*
X8489474Y1821869D02*
X8489474Y1821488D01*
X8489474Y1821488D02*
X8489426Y1821393D01*
X8489426Y1821393D02*
X8489379Y1821345D01*
X8489379Y1821345D02*
X8489284Y1821298D01*
X8489284Y1821298D02*
X8489093Y1821298D01*
X8489093Y1821298D02*
X8488998Y1821345D01*
X8488998Y1821345D02*
X8488950Y1821393D01*
X8488950Y1821393D02*
X8488903Y1821488D01*
X8488903Y1821488D02*
X8488903Y1821726D01*
X8488903Y1821726D02*
X8488950Y1821822D01*
X8488950Y1821822D02*
X8488998Y1821869D01*
X8488998Y1821869D02*
X8489093Y1821917D01*
X8489093Y1821917D02*
X8489284Y1821917D01*
X8489284Y1821917D02*
X8489379Y1821869D01*
X8489379Y1821869D02*
X8489426Y1821822D01*
X8489426Y1821822D02*
X8489474Y1821726D01*
X8488570Y1822298D02*
X8487903Y1822298D01*
X8487903Y1822298D02*
X8488332Y1821298D01*
X8487522Y1821822D02*
X8487189Y1821822D01*
X8487046Y1821298D02*
X8487522Y1821298D01*
X8487522Y1821298D02*
X8487522Y1822298D01*
X8487522Y1822298D02*
X8487046Y1822298D01*
X8486284Y1821822D02*
X8486141Y1821774D01*
X8486141Y1821774D02*
X8486094Y1821726D01*
X8486094Y1821726D02*
X8486046Y1821631D01*
X8486046Y1821631D02*
X8486046Y1821488D01*
X8486046Y1821488D02*
X8486094Y1821393D01*
X8486094Y1821393D02*
X8486141Y1821345D01*
X8486141Y1821345D02*
X8486236Y1821298D01*
X8486236Y1821298D02*
X8486617Y1821298D01*
X8486617Y1821298D02*
X8486617Y1822298D01*
X8486617Y1822298D02*
X8486284Y1822298D01*
X8486284Y1822298D02*
X8486189Y1822250D01*
X8486189Y1822250D02*
X8486141Y1822203D01*
X8486141Y1822203D02*
X8486094Y1822107D01*
X8486094Y1822107D02*
X8486094Y1822012D01*
X8486094Y1822012D02*
X8486141Y1821917D01*
X8486141Y1821917D02*
X8486189Y1821869D01*
X8486189Y1821869D02*
X8486284Y1821822D01*
X8486284Y1821822D02*
X8486617Y1821822D01*
X8485617Y1821298D02*
X8485617Y1822298D01*
X8485617Y1822298D02*
X8485379Y1822298D01*
X8485379Y1822298D02*
X8485236Y1822250D01*
X8485236Y1822250D02*
X8485141Y1822155D01*
X8485141Y1822155D02*
X8485094Y1822060D01*
X8485094Y1822060D02*
X8485046Y1821869D01*
X8485046Y1821869D02*
X8485046Y1821726D01*
X8485046Y1821726D02*
X8485094Y1821536D01*
X8485094Y1821536D02*
X8485141Y1821441D01*
X8485141Y1821441D02*
X8485236Y1821345D01*
X8485236Y1821345D02*
X8485379Y1821298D01*
X8485379Y1821298D02*
X8485617Y1821298D01*
X8484665Y1822203D02*
X8484617Y1822250D01*
X8484617Y1822250D02*
X8484522Y1822298D01*
X8484522Y1822298D02*
X8484284Y1822298D01*
X8484284Y1822298D02*
X8484189Y1822250D01*
X8484189Y1822250D02*
X8484141Y1822203D01*
X8484141Y1822203D02*
X8484094Y1822107D01*
X8484094Y1822107D02*
X8484094Y1822012D01*
X8484094Y1822012D02*
X8484141Y1821869D01*
X8484141Y1821869D02*
X8484713Y1821298D01*
X8484713Y1821298D02*
X8484094Y1821298D01*
X8483142Y1821298D02*
X8483713Y1821298D01*
X8483427Y1821298D02*
X8483427Y1822298D01*
X8483427Y1822298D02*
X8483523Y1822155D01*
X8483523Y1822155D02*
X8483618Y1822060D01*
X8483618Y1822060D02*
X8483713Y1822012D01*
X8482142Y1821393D02*
X8482190Y1821345D01*
X8482190Y1821345D02*
X8482332Y1821298D01*
X8482332Y1821298D02*
X8482428Y1821298D01*
X8482428Y1821298D02*
X8482571Y1821345D01*
X8482571Y1821345D02*
X8482666Y1821441D01*
X8482666Y1821441D02*
X8482713Y1821536D01*
X8482713Y1821536D02*
X8482761Y1821726D01*
X8482761Y1821726D02*
X8482761Y1821869D01*
X8482761Y1821869D02*
X8482713Y1822060D01*
X8482713Y1822060D02*
X8482666Y1822155D01*
X8482666Y1822155D02*
X8482571Y1822250D01*
X8482571Y1822250D02*
X8482428Y1822298D01*
X8482428Y1822298D02*
X8482332Y1822298D01*
X8482332Y1822298D02*
X8482190Y1822250D01*
X8482190Y1822250D02*
X8482142Y1822203D01*
X9957666Y6946711D02*
X9957666Y6947711D01*
X9957571Y6947092D02*
X9957285Y6946711D01*
X9957285Y6947378D02*
X9957666Y6946997D01*
X9956856Y6946711D02*
X9956856Y6947378D01*
X9956856Y6947711D02*
X9956904Y6947663D01*
X9956904Y6947663D02*
X9956856Y6947616D01*
X9956856Y6947616D02*
X9956809Y6947663D01*
X9956809Y6947663D02*
X9956856Y6947711D01*
X9956856Y6947711D02*
X9956856Y6947616D01*
X9956380Y6946711D02*
X9956380Y6947711D01*
X9956380Y6947330D02*
X9956285Y6947378D01*
X9956285Y6947378D02*
X9956095Y6947378D01*
X9956095Y6947378D02*
X9955999Y6947330D01*
X9955999Y6947330D02*
X9955952Y6947282D01*
X9955952Y6947282D02*
X9955904Y6947187D01*
X9955904Y6947187D02*
X9955904Y6946901D01*
X9955904Y6946901D02*
X9955952Y6946806D01*
X9955952Y6946806D02*
X9955999Y6946758D01*
X9955999Y6946758D02*
X9956095Y6946711D01*
X9956095Y6946711D02*
X9956285Y6946711D01*
X9956285Y6946711D02*
X9956380Y6946758D01*
X9955047Y6947378D02*
X9955047Y6946711D01*
X9955475Y6947378D02*
X9955475Y6946854D01*
X9955475Y6946854D02*
X9955428Y6946758D01*
X9955428Y6946758D02*
X9955333Y6946711D01*
X9955333Y6946711D02*
X9955190Y6946711D01*
X9955190Y6946711D02*
X9955094Y6946758D01*
X9955094Y6946758D02*
X9955047Y6946806D01*
X9954666Y6947378D02*
X9954142Y6947378D01*
X9954142Y6947378D02*
X9954666Y6946711D01*
X9954666Y6946711D02*
X9954142Y6946711D01*
X9953856Y6947378D02*
X9953332Y6947378D01*
X9953332Y6947378D02*
X9953856Y6946711D01*
X9953856Y6946711D02*
X9953332Y6946711D01*
X9952522Y6946711D02*
X9952522Y6947235D01*
X9952522Y6947235D02*
X9952569Y6947330D01*
X9952569Y6947330D02*
X9952665Y6947378D01*
X9952665Y6947378D02*
X9952855Y6947378D01*
X9952855Y6947378D02*
X9952950Y6947330D01*
X9952522Y6946758D02*
X9952617Y6946711D01*
X9952617Y6946711D02*
X9952855Y6946711D01*
X9952855Y6946711D02*
X9952950Y6946758D01*
X9952950Y6946758D02*
X9952998Y6946854D01*
X9952998Y6946854D02*
X9952998Y6946949D01*
X9952998Y6946949D02*
X9952950Y6947044D01*
X9952950Y6947044D02*
X9952855Y6947092D01*
X9952855Y6947092D02*
X9952617Y6947092D01*
X9952617Y6947092D02*
X9952522Y6947139D01*
X9952045Y6946711D02*
X9952045Y6947378D01*
X9952045Y6947187D02*
X9951998Y6947282D01*
X9951998Y6947282D02*
X9951950Y6947330D01*
X9951950Y6947330D02*
X9951855Y6947378D01*
X9951855Y6947378D02*
X9951760Y6947378D01*
X9950998Y6946711D02*
X9950998Y6947711D01*
X9950998Y6946758D02*
X9951093Y6946711D01*
X9951093Y6946711D02*
X9951284Y6946711D01*
X9951284Y6946711D02*
X9951379Y6946758D01*
X9951379Y6946758D02*
X9951426Y6946806D01*
X9951426Y6946806D02*
X9951474Y6946901D01*
X9951474Y6946901D02*
X9951474Y6947187D01*
X9951474Y6947187D02*
X9951426Y6947282D01*
X9951426Y6947282D02*
X9951379Y6947330D01*
X9951379Y6947330D02*
X9951284Y6947378D01*
X9951284Y6947378D02*
X9951093Y6947378D01*
X9951093Y6947378D02*
X9950998Y6947330D01*
X9950521Y6947092D02*
X9949760Y6947092D01*
X9948855Y6947711D02*
X9949045Y6947711D01*
X9949045Y6947711D02*
X9949141Y6947663D01*
X9949141Y6947663D02*
X9949188Y6947616D01*
X9949188Y6947616D02*
X9949283Y6947473D01*
X9949283Y6947473D02*
X9949331Y6947282D01*
X9949331Y6947282D02*
X9949331Y6946901D01*
X9949331Y6946901D02*
X9949283Y6946806D01*
X9949283Y6946806D02*
X9949236Y6946758D01*
X9949236Y6946758D02*
X9949141Y6946711D01*
X9949141Y6946711D02*
X9948950Y6946711D01*
X9948950Y6946711D02*
X9948855Y6946758D01*
X9948855Y6946758D02*
X9948807Y6946806D01*
X9948807Y6946806D02*
X9948760Y6946901D01*
X9948760Y6946901D02*
X9948760Y6947139D01*
X9948760Y6947139D02*
X9948807Y6947235D01*
X9948807Y6947235D02*
X9948855Y6947282D01*
X9948855Y6947282D02*
X9948950Y6947330D01*
X9948950Y6947330D02*
X9949141Y6947330D01*
X9949141Y6947330D02*
X9949236Y6947282D01*
X9949236Y6947282D02*
X9949283Y6947235D01*
X9949283Y6947235D02*
X9949331Y6947139D01*
X9948427Y6947711D02*
X9947760Y6947711D01*
X9947760Y6947711D02*
X9948189Y6946711D01*
X9947379Y6947235D02*
X9947046Y6947235D01*
X9946903Y6946711D02*
X9947379Y6946711D01*
X9947379Y6946711D02*
X9947379Y6947711D01*
X9947379Y6947711D02*
X9946903Y6947711D01*
X9946141Y6947235D02*
X9945998Y6947187D01*
X9945998Y6947187D02*
X9945951Y6947139D01*
X9945951Y6947139D02*
X9945903Y6947044D01*
X9945903Y6947044D02*
X9945903Y6946901D01*
X9945903Y6946901D02*
X9945951Y6946806D01*
X9945951Y6946806D02*
X9945998Y6946758D01*
X9945998Y6946758D02*
X9946093Y6946711D01*
X9946093Y6946711D02*
X9946474Y6946711D01*
X9946474Y6946711D02*
X9946474Y6947711D01*
X9946474Y6947711D02*
X9946141Y6947711D01*
X9946141Y6947711D02*
X9946046Y6947663D01*
X9946046Y6947663D02*
X9945998Y6947616D01*
X9945998Y6947616D02*
X9945951Y6947520D01*
X9945951Y6947520D02*
X9945951Y6947425D01*
X9945951Y6947425D02*
X9945998Y6947330D01*
X9945998Y6947330D02*
X9946046Y6947282D01*
X9946046Y6947282D02*
X9946141Y6947235D01*
X9946141Y6947235D02*
X9946474Y6947235D01*
X9945141Y6947235D02*
X9945474Y6947235D01*
X9945474Y6946711D02*
X9945474Y6947711D01*
X9945474Y6947711D02*
X9944998Y6947711D01*
X9944427Y6947711D02*
X9944332Y6947711D01*
X9944332Y6947711D02*
X9944236Y6947663D01*
X9944236Y6947663D02*
X9944189Y6947616D01*
X9944189Y6947616D02*
X9944141Y6947520D01*
X9944141Y6947520D02*
X9944094Y6947330D01*
X9944094Y6947330D02*
X9944094Y6947092D01*
X9944094Y6947092D02*
X9944141Y6946901D01*
X9944141Y6946901D02*
X9944189Y6946806D01*
X9944189Y6946806D02*
X9944236Y6946758D01*
X9944236Y6946758D02*
X9944332Y6946711D01*
X9944332Y6946711D02*
X9944427Y6946711D01*
X9944427Y6946711D02*
X9944522Y6946758D01*
X9944522Y6946758D02*
X9944570Y6946806D01*
X9944570Y6946806D02*
X9944617Y6946901D01*
X9944617Y6946901D02*
X9944665Y6947092D01*
X9944665Y6947092D02*
X9944665Y6947330D01*
X9944665Y6947330D02*
X9944617Y6947520D01*
X9944617Y6947520D02*
X9944570Y6947616D01*
X9944570Y6947616D02*
X9944522Y6947663D01*
X9944522Y6947663D02*
X9944427Y6947711D01*
X9943713Y6946997D02*
X9943237Y6946997D01*
X9943808Y6946711D02*
X9943475Y6947711D01*
X9943475Y6947711D02*
X9943142Y6946711D01*
X9942618Y6947711D02*
X9942523Y6947711D01*
X9942523Y6947711D02*
X9942427Y6947663D01*
X9942427Y6947663D02*
X9942380Y6947616D01*
X9942380Y6947616D02*
X9942332Y6947520D01*
X9942332Y6947520D02*
X9942285Y6947330D01*
X9942285Y6947330D02*
X9942285Y6947092D01*
X9942285Y6947092D02*
X9942332Y6946901D01*
X9942332Y6946901D02*
X9942380Y6946806D01*
X9942380Y6946806D02*
X9942427Y6946758D01*
X9942427Y6946758D02*
X9942523Y6946711D01*
X9942523Y6946711D02*
X9942618Y6946711D01*
X9942618Y6946711D02*
X9942713Y6946758D01*
X9942713Y6946758D02*
X9942761Y6946806D01*
X9942761Y6946806D02*
X9942808Y6946901D01*
X9942808Y6946901D02*
X9942856Y6947092D01*
X9942856Y6947092D02*
X9942856Y6947330D01*
X9942856Y6947330D02*
X9942808Y6947520D01*
X9942808Y6947520D02*
X9942761Y6947616D01*
X9942761Y6947616D02*
X9942713Y6947663D01*
X9942713Y6947663D02*
X9942618Y6947711D01*
D11*
%TO.C,kibuzzard-67CC6D9E*%
G36*
X44389763Y17471960D02*
G01*
X44390908Y17470815D01*
X44386330Y17467382D01*
X44384041Y17467382D01*
X44389763Y17471960D01*
G37*
G36*
X43970879Y17476538D02*
G01*
X43966301Y17471960D01*
X43975457Y17463948D01*
X43974313Y17463948D01*
X43965157Y17470815D01*
X43966301Y17471960D01*
X43965157Y17473104D01*
X43970879Y17477682D01*
X43970879Y17476538D01*
G37*
G36*
X44239835Y17696853D02*
G01*
X44261580Y17644778D01*
X44239262Y17593848D01*
X44176888Y17576109D01*
X44115085Y17594421D01*
X44093340Y17644778D01*
X44116230Y17696853D01*
X44179177Y17715737D01*
X44239835Y17696853D01*
G37*
G36*
X44223812Y17370672D02*
G01*
X44238690Y17334621D01*
X44222667Y17299142D01*
X44178032Y17286552D01*
X44133397Y17298569D01*
X44118519Y17334621D01*
X44134541Y17370100D01*
X44179177Y17382690D01*
X44223812Y17370672D01*
G37*
G36*
X43478747Y18011397D02*
G01*
X43741981Y18011397D01*
X44180321Y18011397D01*
X44471022Y18011397D01*
X44661771Y18011397D01*
X45002702Y17500000D01*
X44661771Y16988603D01*
X44471022Y16988603D01*
X43188046Y16988603D01*
X42997298Y16988603D01*
X42997298Y17340343D01*
X43190335Y17340343D01*
X43203497Y17303720D01*
X43238404Y17264807D01*
X43383755Y17134335D01*
X43402066Y17119456D01*
X43479892Y17100000D01*
X43560006Y17123462D01*
X43582896Y17205293D01*
X43582896Y17640200D01*
X43883898Y17640200D01*
X43892926Y17579924D01*
X43920013Y17524225D01*
X43965157Y17473104D01*
X43964012Y17471960D01*
X43965157Y17470815D01*
X43921380Y17409585D01*
X43906787Y17335765D01*
X43915689Y17269131D01*
X43942394Y17209617D01*
X43986902Y17157225D01*
X44043999Y17116532D01*
X44108472Y17092116D01*
X44180321Y17083977D01*
X44251280Y17092243D01*
X44314608Y17117040D01*
X44370307Y17158369D01*
X44413543Y17211652D01*
X44439485Y17272310D01*
X44448132Y17340343D01*
X44433826Y17405579D01*
X44390908Y17470815D01*
X44392052Y17471960D01*
X44390908Y17473104D01*
X44435416Y17525751D01*
X44462120Y17581450D01*
X44471022Y17640200D01*
X44460976Y17717326D01*
X44430838Y17783898D01*
X44380607Y17839914D01*
X44318169Y17882197D01*
X44251407Y17907566D01*
X44180321Y17916023D01*
X44100906Y17907248D01*
X44030520Y17880925D01*
X43969162Y17837053D01*
X43921793Y17780083D01*
X43893371Y17714465D01*
X43883898Y17640200D01*
X43582896Y17640200D01*
X43582896Y17794707D01*
X43632109Y17794707D01*
X43638261Y17741345D01*
X43656716Y17707153D01*
X43690622Y17688698D01*
X43743125Y17682546D01*
X43827818Y17707153D01*
X43845843Y17741059D01*
X43851852Y17793562D01*
X43827245Y17878255D01*
X43741981Y17902289D01*
X43656716Y17878255D01*
X43632109Y17794707D01*
X43582896Y17794707D01*
X43582896Y17800429D01*
X43560006Y17880544D01*
X43478747Y17903433D01*
X43398633Y17880544D01*
X43375743Y17799285D01*
X43375743Y17412446D01*
X43364298Y17422747D01*
X43293912Y17455937D01*
X43225815Y17415880D01*
X43190335Y17340343D01*
X42997298Y17340343D01*
X42997298Y18011397D01*
X43188046Y18011397D01*
X43478747Y18011397D01*
G37*
D12*
%TO.C,Module301*%
X12600000Y51750000D02*
X12600000Y3750000D01*
X16100000Y250000D02*
X49100000Y250000D01*
X48160000Y36650000D02*
X50960000Y36650000D01*
X48160000Y35650000D02*
X48160000Y36650000D01*
X48160000Y14850000D02*
X48160000Y13850000D01*
X48160000Y13850000D02*
X50960000Y13850000D01*
X49100000Y55250000D02*
X16100000Y55250000D01*
X50960000Y35650000D02*
X50960000Y36650000D01*
X50960000Y14850000D02*
X50960000Y13850000D01*
X52600000Y3750000D02*
X52600000Y51750000D01*
X12600000Y51750000D02*
G75*
G02*
X16100000Y55250000I3500000J0D01*
G01*
X16100000Y250000D02*
G75*
G02*
X12600000Y3750000I0J3500000D01*
G01*
X49100000Y55250000D02*
G75*
G02*
X52600000Y51750000I1J-3499999D01*
G01*
X52600000Y3750000D02*
G75*
G02*
X49100000Y250000I-3499999J-1D01*
G01*
%TO.C,R103*%
X46393641Y17850000D02*
X46086359Y17850000D01*
X46393641Y17090000D02*
X46086359Y17090000D01*
%TO.C,R108*%
X4873641Y3540000D02*
X4566359Y3540000D01*
X4873641Y2780000D02*
X4566359Y2780000D01*
%TO.C,U401*%
X23900000Y44562020D02*
X22900000Y44562020D01*
X23900000Y41742020D02*
X23110000Y41742020D01*
X22780000Y41462020D02*
X22500000Y41742020D01*
X22780000Y41742020D01*
X22780000Y41462020D01*
G36*
X22780000Y41462020D02*
G01*
X22500000Y41742020D01*
X22780000Y41742020D01*
X22780000Y41462020D01*
G37*
D11*
%TO.C,kibuzzard-67EBF14E*%
G36*
X3500000Y9988650D02*
G01*
X3929614Y9988650D01*
X4239580Y9988650D01*
X4239580Y8511350D01*
X3929614Y8511350D01*
X3070386Y8511350D01*
X2760420Y8511350D01*
X2760420Y9249070D01*
X3070386Y9249070D01*
X3082475Y9159800D01*
X3121531Y9113305D01*
X3168956Y9097496D01*
X3226609Y9094707D01*
X3347496Y9094707D01*
X3347496Y8971960D01*
X3350286Y8915236D01*
X3366094Y8869671D01*
X3412589Y8832475D01*
X3501860Y8821316D01*
X3589270Y8833405D01*
X3635765Y8871531D01*
X3651574Y8917096D01*
X3654363Y8973820D01*
X3654363Y9094707D01*
X3777110Y9094707D01*
X3833834Y9097496D01*
X3879399Y9113305D01*
X3917525Y9160730D01*
X3929614Y9250930D01*
X3918455Y9338340D01*
X3882189Y9384835D01*
X3839413Y9400644D01*
X3786409Y9403433D01*
X3654363Y9403433D01*
X3654363Y9526180D01*
X3651574Y9582904D01*
X3635765Y9628469D01*
X3589270Y9666595D01*
X3500000Y9678684D01*
X3412589Y9666595D01*
X3366094Y9627539D01*
X3350286Y9581044D01*
X3347496Y9524320D01*
X3347496Y9403433D01*
X3213591Y9403433D01*
X3160587Y9400644D01*
X3117811Y9384835D01*
X3081545Y9338340D01*
X3070386Y9249070D01*
X2760420Y9249070D01*
X2760420Y9988650D01*
X3070386Y9988650D01*
X3500000Y9988650D01*
G37*
D12*
%TO.C,R102*%
X45400000Y18726359D02*
X45400000Y19033641D01*
X46160000Y18726359D02*
X46160000Y19033641D01*
%TO.C,U1*%
X2625000Y6990000D02*
X2625000Y6815000D01*
X2625000Y3770000D02*
X2625000Y3945000D01*
X3300000Y6990000D02*
X2625000Y6990000D01*
X3300000Y3770000D02*
X2625000Y3770000D01*
X5170000Y6990000D02*
X5545000Y6990000D01*
X5170000Y3770000D02*
X5845000Y3770000D01*
X5845000Y3770000D02*
X5845000Y3945000D01*
X5845000Y6990000D02*
X5705000Y7180000D01*
X5985000Y7180000D01*
X5845000Y6990000D01*
G36*
X5845000Y6990000D02*
G01*
X5705000Y7180000D01*
X5985000Y7180000D01*
X5845000Y6990000D01*
G37*
%TO.C,R403*%
X9121359Y54680000D02*
X9428641Y54680000D01*
X9121359Y53920000D02*
X9428641Y53920000D01*
D13*
%TO.C,CN1*%
X3100000Y12060000D02*
X3100000Y12660000D01*
X3100000Y12060000D02*
X3100000Y10210000D01*
X3100000Y10210000D02*
X4070000Y10210000D01*
X4140000Y14510000D02*
X6070000Y14510000D01*
X6140000Y10210000D02*
X7100000Y10210000D01*
X7100000Y10210000D02*
X7100000Y12660000D01*
D11*
%TO.C,kibuzzard-67CC7445*%
G36*
X33573482Y3284164D02*
G01*
X33452452Y3533949D01*
X33694512Y3533949D01*
X33573482Y3284164D01*
G37*
G36*
X43781208Y3284164D02*
G01*
X43660178Y3533949D01*
X43902238Y3533949D01*
X43781208Y3284164D01*
G37*
G36*
X34137431Y4994035D02*
G01*
X34794083Y4994035D01*
X37037002Y4994035D01*
X38195800Y4994035D01*
X39720263Y4994035D01*
X41445585Y4994035D01*
X44345156Y4994035D01*
X44703096Y4994035D01*
X45346873Y4994035D01*
X45346873Y1860129D01*
X44703096Y1860129D01*
X32656744Y1860129D01*
X32012967Y1860129D01*
X32012967Y4163563D01*
X32679920Y4163563D01*
X32713396Y3982018D01*
X33359748Y2642962D01*
X33449877Y2543820D01*
X33576057Y2506481D01*
X33701594Y2541245D01*
X33789791Y2645537D01*
X34436143Y3982018D01*
X34453280Y4072146D01*
X34562323Y4072146D01*
X34562323Y2735666D01*
X34567474Y2649400D01*
X34593225Y2581159D01*
X34664040Y2525794D01*
X34799233Y2509056D01*
X34916401Y2524507D01*
X34982066Y2556696D01*
X35028418Y2609485D01*
X35672195Y3474721D01*
X35672195Y2735666D01*
X35677345Y2650687D01*
X35703096Y2582447D01*
X35775199Y2527082D01*
X35909105Y2509056D01*
X36043010Y2527082D01*
X36115113Y2586309D01*
X36139577Y2657125D01*
X36141424Y2699614D01*
X36254169Y2699614D01*
X36269620Y2587597D01*
X36319834Y2528370D01*
X36379062Y2507769D01*
X36452452Y2503906D01*
X37629276Y2503906D01*
X37702667Y2507769D01*
X37760607Y2528370D01*
X37809534Y2588885D01*
X37824984Y2702189D01*
X37809534Y2815494D01*
X37759319Y2876009D01*
X37700092Y2896610D01*
X37626701Y2900473D01*
X37271336Y2900473D01*
X37271336Y4072146D01*
X37961465Y4072146D01*
X37961465Y2740816D01*
X38014255Y2556696D01*
X38203525Y2506481D01*
X39146014Y2506481D01*
X39234856Y2510344D01*
X39304384Y2534807D01*
X39362323Y2606910D01*
X39380349Y2743391D01*
X39362323Y2877297D01*
X39303096Y2949400D01*
X39232281Y2973863D01*
X39143439Y2977726D01*
X38432710Y2977726D01*
X38432710Y3206910D01*
X38909105Y3206910D01*
X38992796Y3210773D01*
X39054598Y3231374D01*
X39103525Y3293176D01*
X39117688Y3410344D01*
X39103525Y3524936D01*
X39053311Y3584164D01*
X38988933Y3604764D01*
X38903954Y3608627D01*
X38432710Y3608627D01*
X38432710Y3837812D01*
X39146014Y3837812D01*
X39234856Y3841674D01*
X39304384Y3866138D01*
X39362323Y3938241D01*
X39380009Y4072146D01*
X39488504Y4072146D01*
X39488504Y2735666D01*
X39493654Y2649400D01*
X39519405Y2581159D01*
X39590220Y2525794D01*
X39725414Y2509056D01*
X39842581Y2524507D01*
X39908246Y2556696D01*
X39954598Y2609485D01*
X40598375Y3474721D01*
X40598375Y2735666D01*
X40603525Y2650687D01*
X40629276Y2582447D01*
X40701379Y2527082D01*
X40835285Y2509056D01*
X40969190Y2527082D01*
X41041293Y2586309D01*
X41065757Y2657125D01*
X41069620Y2745966D01*
X41069620Y4072146D01*
X41213826Y4072146D01*
X41213826Y2735666D01*
X41218976Y2649400D01*
X41244727Y2581159D01*
X41315542Y2525794D01*
X41450735Y2509056D01*
X41567903Y2524507D01*
X41633568Y2556696D01*
X41679920Y2609485D01*
X42323697Y3474721D01*
X42323697Y2735666D01*
X42328847Y2650687D01*
X42354598Y2582447D01*
X42426701Y2527082D01*
X42560607Y2509056D01*
X42694512Y2527082D01*
X42766615Y2586309D01*
X42791079Y2657125D01*
X42794941Y2745966D01*
X42794941Y4074721D01*
X42791079Y4163563D01*
X42887645Y4163563D01*
X42921122Y3982018D01*
X43567474Y2642962D01*
X43657602Y2543820D01*
X43783783Y2506481D01*
X43909319Y2541245D01*
X43997517Y2645537D01*
X44643868Y3982018D01*
X44678632Y4164850D01*
X44535714Y4291030D01*
X44345156Y4328370D01*
X44218976Y4180301D01*
X44100521Y3935666D01*
X43467044Y3935666D01*
X43348590Y4182876D01*
X43219834Y4325794D01*
X43031851Y4288455D01*
X42887645Y4163563D01*
X42791079Y4163563D01*
X42766615Y4233091D01*
X42694512Y4291030D01*
X42558032Y4309056D01*
X42425414Y4294893D01*
X42349448Y4239528D01*
X41682495Y3358842D01*
X41682495Y4074721D01*
X41678632Y4163563D01*
X41654169Y4233091D01*
X41582066Y4291030D01*
X41445585Y4309056D01*
X41312967Y4291030D01*
X41243439Y4233091D01*
X41218976Y4162275D01*
X41213826Y4072146D01*
X41069620Y4072146D01*
X41069620Y4074721D01*
X41065757Y4163563D01*
X41041293Y4233091D01*
X40969190Y4291030D01*
X40832710Y4309056D01*
X40700092Y4294893D01*
X40624126Y4239528D01*
X39957173Y3358842D01*
X39957173Y4074721D01*
X39953311Y4163563D01*
X39928847Y4233091D01*
X39856744Y4291030D01*
X39720263Y4309056D01*
X39587645Y4291030D01*
X39518117Y4233091D01*
X39493654Y4162275D01*
X39488504Y4072146D01*
X39380009Y4072146D01*
X39380349Y4074721D01*
X39362323Y4208627D01*
X39303096Y4280730D01*
X39232281Y4305194D01*
X39143439Y4309056D01*
X38195800Y4309056D01*
X38061894Y4291030D01*
X37989791Y4231803D01*
X37965328Y4160988D01*
X37961465Y4072146D01*
X37271336Y4072146D01*
X37271336Y4079872D01*
X37267474Y4166138D01*
X37243010Y4234378D01*
X37170907Y4291030D01*
X37037002Y4309056D01*
X36904384Y4291030D01*
X36834856Y4233091D01*
X36811680Y4163563D01*
X36807817Y4077297D01*
X36807817Y2900473D01*
X36449877Y2900473D01*
X36376487Y2896610D01*
X36318547Y2876009D01*
X36269620Y2815494D01*
X36254169Y2699614D01*
X36141424Y2699614D01*
X36143439Y2745966D01*
X36143439Y4074721D01*
X36139577Y4163563D01*
X36115113Y4233091D01*
X36043010Y4291030D01*
X35906529Y4309056D01*
X35773911Y4294893D01*
X35697946Y4239528D01*
X35030993Y3358842D01*
X35030993Y4074721D01*
X35027130Y4163563D01*
X35002667Y4233091D01*
X34930564Y4291030D01*
X34794083Y4309056D01*
X34661465Y4291030D01*
X34591937Y4233091D01*
X34567474Y4162275D01*
X34562323Y4072146D01*
X34453280Y4072146D01*
X34470907Y4164850D01*
X34327989Y4291030D01*
X34137431Y4328370D01*
X34011250Y4180301D01*
X33892796Y3935666D01*
X33259319Y3935666D01*
X33140864Y4182876D01*
X33012109Y4325794D01*
X32824126Y4288455D01*
X32679920Y4163563D01*
X32012967Y4163563D01*
X32012967Y4994035D01*
X32656744Y4994035D01*
X34137431Y4994035D01*
G37*
D13*
%TO.C,D403*%
X16460000Y7130000D02*
X16460000Y5090000D01*
X19180000Y7130000D02*
X16460000Y7130000D01*
X19180000Y7130000D02*
X19180000Y5090000D01*
X19180000Y5090000D02*
X16460000Y5090000D01*
X16860000Y7510000D02*
G75*
G02*
X16740000Y7510000I-60000J0D01*
G01*
X16740000Y7510000D02*
G75*
G02*
X16860000Y7510000I60000J0D01*
G01*
D11*
%TO.C,kibuzzard-67CC6D94*%
G36*
X43479558Y19358536D02*
G01*
X43930488Y19358536D01*
X44377984Y19358536D01*
X44686997Y19358536D01*
X44877746Y19358536D01*
X45216770Y18850000D01*
X44877746Y18341464D01*
X44686997Y18341464D01*
X43173979Y18341464D01*
X42983230Y18341464D01*
X42983230Y19006795D01*
X43173979Y19006795D01*
X43202591Y18952718D01*
X43288428Y18934692D01*
X43351375Y18947282D01*
X43384565Y19001073D01*
X43386854Y19007368D01*
X43395438Y19021102D01*
X43412605Y19038269D01*
X43440073Y19052003D01*
X43480703Y19058298D01*
X43552233Y19040558D01*
X43579129Y18993062D01*
X43557097Y18943276D01*
X43491003Y18926681D01*
X43459529Y18926681D01*
X43433206Y18921531D01*
X43407455Y18907225D01*
X43393721Y18877468D01*
X43386854Y18827110D01*
X43394293Y18769886D01*
X43418328Y18740129D01*
X43447512Y18730401D01*
X43484136Y18728684D01*
X43492148Y18728684D01*
X43545366Y18721245D01*
X43561962Y18692060D01*
X43543077Y18652575D01*
X43491003Y18638269D01*
X43441790Y18649714D01*
X43408600Y18684049D01*
X43373756Y18731227D01*
X43325687Y18744580D01*
X43264394Y18724106D01*
X43207741Y18661159D01*
X43224336Y18582189D01*
X43226053Y18578183D01*
X43232348Y18565594D01*
X43243793Y18546710D01*
X43262105Y18523820D01*
X43287283Y18499213D01*
X43321046Y18475751D01*
X43363392Y18455722D01*
X43416039Y18441989D01*
X43479558Y18436838D01*
X43562788Y18445486D01*
X43633937Y18471427D01*
X43693006Y18514664D01*
X43737196Y18568455D01*
X43763710Y18626061D01*
X43772548Y18687482D01*
X43752806Y18771316D01*
X43693578Y18828255D01*
X43757670Y18890057D01*
X43780846Y18935837D01*
X43788571Y18990773D01*
X43786467Y19006795D01*
X44072405Y19006795D01*
X44101017Y18952718D01*
X44186854Y18934692D01*
X44249801Y18947282D01*
X44282992Y19001073D01*
X44285281Y19007368D01*
X44293864Y19021102D01*
X44311032Y19038269D01*
X44338499Y19052003D01*
X44379129Y19058298D01*
X44450660Y19040558D01*
X44477555Y18993062D01*
X44455524Y18943276D01*
X44389429Y18926681D01*
X44357956Y18926681D01*
X44331632Y18921531D01*
X44305881Y18907225D01*
X44292148Y18877468D01*
X44285281Y18827110D01*
X44292720Y18769886D01*
X44316754Y18740129D01*
X44345939Y18730401D01*
X44382562Y18728684D01*
X44390574Y18728684D01*
X44443793Y18721245D01*
X44460388Y18692060D01*
X44441504Y18652575D01*
X44389429Y18638269D01*
X44340216Y18649714D01*
X44307026Y18684049D01*
X44272182Y18731227D01*
X44224114Y18744580D01*
X44162820Y18724106D01*
X44106168Y18661159D01*
X44122763Y18582189D01*
X44124479Y18578183D01*
X44130774Y18565594D01*
X44142219Y18546710D01*
X44160531Y18523820D01*
X44185710Y18499213D01*
X44219472Y18475751D01*
X44261818Y18455722D01*
X44314465Y18441989D01*
X44377984Y18436838D01*
X44461214Y18445486D01*
X44532364Y18471427D01*
X44591432Y18514664D01*
X44635622Y18568455D01*
X44662136Y18626061D01*
X44670974Y18687482D01*
X44651232Y18771316D01*
X44592004Y18828255D01*
X44656096Y18890057D01*
X44679272Y18935837D01*
X44686997Y18990773D01*
X44677269Y19064847D01*
X44648085Y19129892D01*
X44599444Y19185908D01*
X44535924Y19228827D01*
X44462105Y19254578D01*
X44377984Y19263162D01*
X44299777Y19254578D01*
X44228437Y19228827D01*
X44163964Y19185908D01*
X44113098Y19131672D01*
X44082578Y19071968D01*
X44072405Y19006795D01*
X43786467Y19006795D01*
X43778843Y19064847D01*
X43749658Y19129892D01*
X43738284Y19142990D01*
X43820617Y19142990D01*
X43826768Y19089628D01*
X43845223Y19055436D01*
X43879129Y19036981D01*
X43931632Y19030830D01*
X44016325Y19055436D01*
X44034351Y19089342D01*
X44040359Y19141845D01*
X44015753Y19226538D01*
X43930488Y19250572D01*
X43845223Y19226538D01*
X43820617Y19142990D01*
X43738284Y19142990D01*
X43701017Y19185908D01*
X43637498Y19228827D01*
X43563678Y19254578D01*
X43479558Y19263162D01*
X43401351Y19254578D01*
X43330011Y19228827D01*
X43265538Y19185908D01*
X43214672Y19131672D01*
X43184152Y19071968D01*
X43173979Y19006795D01*
X42983230Y19006795D01*
X42983230Y19358536D01*
X43173979Y19358536D01*
X43479558Y19358536D01*
G37*
%TO.C,kibuzzard-67EBD221*%
G36*
X4735675Y1215602D02*
G01*
X4735675Y1024853D01*
X4230000Y687736D01*
X3724325Y1024853D01*
X3724325Y1215602D01*
X3724325Y1797004D01*
X3826567Y1797004D01*
X3882647Y1735201D01*
X4127568Y1582984D01*
X3882647Y1423899D01*
X3826567Y1360380D01*
X3854034Y1276260D01*
X3919843Y1221324D01*
X3994807Y1246503D01*
X4335866Y1474257D01*
X4536152Y1474257D01*
X4575637Y1475974D01*
X4606538Y1486846D01*
X4632289Y1518892D01*
X4640300Y1579550D01*
X4632289Y1640208D01*
X4605966Y1672254D01*
X4573920Y1683127D01*
X4533863Y1684843D01*
X4335866Y1684843D01*
X3994807Y1912597D01*
X3918126Y1937776D01*
X3854034Y1881696D01*
X3830000Y1833627D01*
X3826567Y1797004D01*
X3724325Y1797004D01*
X3724325Y1944643D01*
X3724325Y2612264D01*
X4735675Y2612264D01*
X4735675Y1944643D01*
X4735675Y1579550D01*
X4735675Y1215602D01*
G37*
%TO.C,kibuzzard-67EBAC4C*%
G36*
X46324622Y7044206D02*
G01*
X46357527Y6965522D01*
X46326768Y6891130D01*
X46253092Y6861087D01*
X46098585Y6861087D01*
X46098585Y7069957D01*
X46255953Y7069957D01*
X46324622Y7044206D01*
G37*
G36*
X48879165Y7336588D02*
G01*
X48954808Y7282403D01*
X49005774Y7201395D01*
X49022763Y7102861D01*
X49005595Y7005043D01*
X48954093Y6923319D01*
X48878628Y6868062D01*
X48789572Y6849642D01*
X48699444Y6868062D01*
X48623621Y6923319D01*
X48572119Y7005043D01*
X48554952Y7102861D01*
X48572298Y7198712D01*
X48624336Y7280258D01*
X48699980Y7336052D01*
X48788142Y7354649D01*
X48879165Y7336588D01*
G37*
G36*
X46464823Y7854888D02*
G01*
X47290288Y7854888D01*
X48102877Y7854888D01*
X48795295Y7854888D01*
X49692291Y7854888D01*
X50059959Y7854888D01*
X50298395Y7854888D01*
X50801653Y7100000D01*
X50298395Y6345112D01*
X50059959Y6345112D01*
X45836783Y6345112D01*
X45598347Y6345112D01*
X45598347Y7467668D01*
X45836783Y7467668D01*
X45836783Y6729471D01*
X45838929Y6681545D01*
X45852519Y6642203D01*
X45892577Y6609299D01*
X45968399Y6599285D01*
X46255953Y6599285D01*
X46314072Y6605007D01*
X46373979Y6622175D01*
X46433707Y6650072D01*
X46491289Y6687983D01*
X46542612Y6738591D01*
X46583564Y6804578D01*
X46610388Y6882010D01*
X46619329Y6966953D01*
X46605341Y7074090D01*
X46563376Y7166603D01*
X46501143Y7235908D01*
X46693721Y7235908D01*
X46693721Y7002718D01*
X46695867Y6953362D01*
X46709458Y6914735D01*
X46749515Y6882546D01*
X46823907Y6872532D01*
X46898299Y6882546D01*
X46938356Y6915451D01*
X46951947Y6954793D01*
X46954093Y7004149D01*
X46954093Y7235908D01*
X46981275Y7311731D01*
X47057097Y7338913D01*
X47132205Y7311016D01*
X47160102Y7235908D01*
X47160102Y7001288D01*
X47162248Y6953362D01*
X47175838Y6914735D01*
X47215180Y6882546D01*
X47290288Y6872532D01*
X47364680Y6882546D01*
X47404737Y6915451D01*
X47418328Y6954793D01*
X47420474Y7002718D01*
X47420474Y7469099D01*
X47506311Y7469099D01*
X47506311Y6998426D01*
X47509172Y6951216D01*
X47522763Y6914020D01*
X47562105Y6883262D01*
X47636497Y6873963D01*
X47703735Y6882546D01*
X47742362Y6906152D01*
X47758099Y6933333D01*
X47762391Y6962661D01*
X47838929Y6901144D01*
X47942648Y6873963D01*
X48028167Y6885249D01*
X48099698Y6919107D01*
X48157241Y6975536D01*
X48199364Y7049611D01*
X48216537Y7108584D01*
X48293149Y7108584D01*
X48302090Y7003970D01*
X48328914Y6907582D01*
X48373621Y6819421D01*
X48436210Y6739485D01*
X48511586Y6673140D01*
X48594651Y6625751D01*
X48685406Y6597318D01*
X48783850Y6587840D01*
X48884351Y6597183D01*
X48976983Y6625215D01*
X49061747Y6671933D01*
X49138643Y6737339D01*
X49202484Y6816246D01*
X49248085Y6903469D01*
X49275445Y6999008D01*
X49284565Y7102861D01*
X49275579Y7204927D01*
X49248621Y7299392D01*
X49214120Y7366094D01*
X49326053Y7366094D01*
X49386139Y7274535D01*
X49445589Y7241472D01*
X49507582Y7251009D01*
X49572119Y7303147D01*
X49630059Y7355365D01*
X49686568Y7368956D01*
X49770974Y7348212D01*
X49796725Y7281688D01*
X49759529Y7237339D01*
X49647226Y7203720D01*
X49579093Y7185300D01*
X49524909Y7165808D01*
X49444794Y7120029D01*
X49387570Y7058512D01*
X49353235Y6981259D01*
X49341790Y6888269D01*
X49352440Y6805532D01*
X49384390Y6732809D01*
X49437641Y6670100D01*
X49507105Y6622016D01*
X49587697Y6593165D01*
X49679415Y6583548D01*
X49787347Y6593085D01*
X49878430Y6621698D01*
X49952663Y6669385D01*
X50004165Y6743062D01*
X49969830Y6831044D01*
X49885424Y6900429D01*
X49789572Y6873963D01*
X49773120Y6860372D01*
X49753092Y6843920D01*
X49725195Y6833190D01*
X49677984Y6828183D01*
X49625052Y6846066D01*
X49602162Y6889700D01*
X49627198Y6936195D01*
X49683707Y6961230D01*
X49770974Y6979113D01*
X49862534Y7001288D01*
X49943542Y7038484D01*
X50006311Y7092847D01*
X50046547Y7170458D01*
X50059959Y7277396D01*
X50053879Y7345708D01*
X50035638Y7407582D01*
X49973406Y7504149D01*
X49885424Y7567811D01*
X49787426Y7604292D01*
X49692291Y7615021D01*
X49612176Y7608584D01*
X49544937Y7592847D01*
X49489859Y7569242D01*
X49445509Y7542060D01*
X49411175Y7514163D01*
X49386139Y7489127D01*
X49370402Y7469099D01*
X49361818Y7459084D01*
X49326053Y7366094D01*
X49214120Y7366094D01*
X49203691Y7386257D01*
X49140788Y7465522D01*
X49065279Y7531554D01*
X48982527Y7578720D01*
X48892532Y7607019D01*
X48795295Y7616452D01*
X48695331Y7607153D01*
X48602877Y7579256D01*
X48517934Y7532761D01*
X48440502Y7467668D01*
X48376035Y7389431D01*
X48329987Y7303505D01*
X48302359Y7209889D01*
X48293149Y7108584D01*
X48216537Y7108584D01*
X48224638Y7136401D01*
X48233063Y7235908D01*
X48233063Y7470529D01*
X48230917Y7518455D01*
X48217326Y7557082D01*
X48177984Y7589270D01*
X48102877Y7599285D01*
X48027055Y7589270D01*
X47986997Y7556366D01*
X47973406Y7517024D01*
X47971261Y7469099D01*
X47971261Y7235908D01*
X47944794Y7160086D01*
X47869687Y7132904D01*
X47793864Y7160801D01*
X47765252Y7235908D01*
X47765252Y7470529D01*
X47763106Y7518455D01*
X47749515Y7557082D01*
X47709458Y7589270D01*
X47635066Y7599285D01*
X47561389Y7589270D01*
X47522047Y7557082D01*
X47508457Y7518455D01*
X47506311Y7469099D01*
X47420474Y7469099D01*
X47420474Y7473391D01*
X47419758Y7511302D01*
X47411890Y7544206D01*
X47391861Y7573534D01*
X47353235Y7591416D01*
X47290288Y7599285D01*
X47204808Y7582475D01*
X47165824Y7532046D01*
X47096082Y7581402D01*
X47018471Y7597854D01*
X46931044Y7586250D01*
X46853791Y7551439D01*
X46786711Y7493419D01*
X46735050Y7418391D01*
X46704053Y7332554D01*
X46693721Y7235908D01*
X46501143Y7235908D01*
X46493435Y7244492D01*
X46596439Y7381831D01*
X46635066Y7480544D01*
X46566396Y7564950D01*
X46464823Y7604292D01*
X46384708Y7537768D01*
X46231632Y7330329D01*
X46098585Y7330329D01*
X46098585Y7469099D01*
X46096439Y7518455D01*
X46082849Y7557082D01*
X46042791Y7589270D01*
X45966969Y7599285D01*
X45892577Y7589270D01*
X45852519Y7556366D01*
X45838929Y7517024D01*
X45836783Y7467668D01*
X45598347Y7467668D01*
X45598347Y7854888D01*
X45836783Y7854888D01*
X46464823Y7854888D01*
G37*
D13*
%TO.C,SW101*%
X51410000Y11220000D02*
X52080000Y11220000D01*
X51410000Y10000000D02*
X51410000Y11220000D01*
X51410000Y5720000D02*
X51410000Y6940000D01*
X52080000Y5720000D02*
X51410000Y5720000D01*
X53240000Y11220000D02*
X53910000Y11220000D01*
X53410000Y9970000D02*
X53910000Y9970000D01*
X53410000Y6970000D02*
X53410000Y9970000D01*
X53910000Y9970000D02*
X53910000Y9520000D01*
X53910000Y7220000D02*
X55210000Y7220000D01*
X53910000Y6970000D02*
X53410000Y6970000D01*
X53910000Y5720000D02*
X53240000Y5720000D01*
X53910000Y5720000D02*
X53910000Y11220000D01*
X55210000Y8420000D02*
X53910000Y8420000D01*
X55210000Y7220000D02*
X55210000Y8420000D01*
D11*
%TO.C,kibuzzard-67EBF015*%
G36*
X2124320Y16615021D02*
G01*
X2163376Y16517382D01*
X2163376Y16318383D01*
X1891845Y16318383D01*
X1891845Y16519242D01*
X1925322Y16611302D01*
X2027611Y16655007D01*
X2124320Y16615021D01*
G37*
G36*
X1976234Y19589771D02*
G01*
X2082475Y19522818D01*
X2154310Y19424714D01*
X2178255Y19308941D01*
X2154310Y19191774D01*
X2082475Y19093205D01*
X1976234Y19026252D01*
X1849070Y19003934D01*
X1724464Y19026484D01*
X1618455Y19094134D01*
X1545923Y19192471D01*
X1521745Y19307082D01*
X1545225Y19425411D01*
X1615665Y19523748D01*
X1720976Y19590004D01*
X1849070Y19612089D01*
X1976234Y19589771D01*
G37*
G36*
X2987268Y21921960D02*
G01*
X2987268Y15978040D01*
X2987268Y15513090D01*
X712732Y15513090D01*
X712732Y15978040D01*
X712732Y16147282D01*
X1203720Y16147282D01*
X1216738Y16050572D01*
X1259514Y15998498D01*
X1310658Y15980830D01*
X1374821Y15978040D01*
X2334478Y15978040D01*
X2396781Y15980830D01*
X2447926Y15998498D01*
X2490701Y16050572D01*
X2503720Y16149142D01*
X2503720Y16519242D01*
X2496280Y16595029D01*
X2473963Y16673605D01*
X2437697Y16751717D01*
X2388412Y16826109D01*
X2322622Y16892364D01*
X2236838Y16946066D01*
X2136177Y16981634D01*
X2025751Y16993491D01*
X1915790Y16981867D01*
X1816524Y16946996D01*
X1732135Y16893759D01*
X1666810Y16827039D01*
X1617525Y16751717D01*
X1581259Y16672675D01*
X1558941Y16593401D01*
X1551502Y16517382D01*
X1551502Y16318383D01*
X1372961Y16318383D01*
X1308798Y16315594D01*
X1258584Y16297926D01*
X1216738Y16245851D01*
X1203720Y16147282D01*
X712732Y16147282D01*
X712732Y17240844D01*
X1201860Y17240844D01*
X1214878Y17144134D01*
X1257654Y17092060D01*
X1308798Y17074392D01*
X1372961Y17071602D01*
X2334478Y17071602D01*
X2396781Y17074392D01*
X2447926Y17092060D01*
X2490701Y17144134D01*
X2503720Y17242704D01*
X2490701Y17339413D01*
X2447926Y17391488D01*
X2396781Y17409156D01*
X2332618Y17411946D01*
X1371102Y17411946D01*
X1306938Y17409156D01*
X1256724Y17391488D01*
X1214878Y17339413D01*
X1201860Y17240844D01*
X712732Y17240844D01*
X712732Y18163305D01*
X1183262Y18163305D01*
X1188841Y18084496D01*
X1205579Y18000572D01*
X1235569Y17912697D01*
X1280901Y17822031D01*
X1339485Y17734853D01*
X1409227Y17657439D01*
X1495011Y17591184D01*
X1601717Y17537482D01*
X1724928Y17501913D01*
X1860229Y17490057D01*
X1990415Y17501681D01*
X2109442Y17536552D01*
X2212893Y17589557D01*
X2296352Y17655579D01*
X2364235Y17732994D01*
X2420959Y17820172D01*
X2464896Y17911302D01*
X2494421Y18000572D01*
X2511159Y18086820D01*
X2516738Y18168884D01*
X2505166Y18279646D01*
X2470450Y18393713D01*
X2412589Y18511087D01*
X2377253Y18561302D01*
X2338197Y18595708D01*
X2282403Y18613376D01*
X2178255Y18572461D01*
X2102933Y18502718D01*
X2077825Y18438555D01*
X2120601Y18338126D01*
X2128970Y18326037D01*
X2139199Y18310229D01*
X2149428Y18292561D01*
X2158727Y18267454D01*
X2166166Y18237697D01*
X2172675Y18200501D01*
X2174535Y18155866D01*
X2155937Y18049857D01*
X2101073Y17944778D01*
X1999714Y17862017D01*
X1929971Y17838305D01*
X1850930Y17830401D01*
X1749338Y17844582D01*
X1664020Y17887124D01*
X1598695Y17947335D01*
X1557082Y18014521D01*
X1527325Y18155866D01*
X1542668Y18253970D01*
X1588698Y18347425D01*
X1625894Y18440415D01*
X1599392Y18503648D01*
X1519886Y18570601D01*
X1412017Y18611516D01*
X1344134Y18585479D01*
X1287411Y18509227D01*
X1229550Y18398879D01*
X1194834Y18283572D01*
X1183262Y18163305D01*
X712732Y18163305D01*
X712732Y19316381D01*
X1181402Y19316381D01*
X1193491Y19186427D01*
X1229757Y19066237D01*
X1290200Y18955812D01*
X1374821Y18855150D01*
X1476529Y18771343D01*
X1588233Y18711481D01*
X1709934Y18675563D01*
X1841631Y18663591D01*
X1977629Y18675215D01*
X2102933Y18710086D01*
X2217543Y18768205D01*
X2321459Y18849571D01*
X2407707Y18947559D01*
X2469313Y19055544D01*
X2506277Y19173525D01*
X2518598Y19301502D01*
X2506451Y19432153D01*
X2470011Y19552575D01*
X2409277Y19662768D01*
X2324249Y19762732D01*
X2221669Y19845726D01*
X2108280Y19905007D01*
X1984080Y19940576D01*
X1849070Y19952432D01*
X1716385Y19940750D01*
X1593580Y19905705D01*
X1480655Y19847295D01*
X1377611Y19765522D01*
X1291769Y19667360D01*
X1230454Y19559782D01*
X1193665Y19442789D01*
X1181402Y19316381D01*
X712732Y19316381D01*
X712732Y20173748D01*
X712732Y20845136D01*
X1198140Y20845136D01*
X1198140Y20173748D01*
X1249285Y20054721D01*
X1371102Y20004506D01*
X1465486Y20021245D01*
X1551502Y20071459D01*
X1617758Y20136087D01*
X1686338Y20225823D01*
X1750268Y20323927D01*
X1802575Y20413662D01*
X1854649Y20494331D01*
X1917883Y20565236D01*
X1987625Y20614753D01*
X2059227Y20631259D01*
X2108512Y20624750D01*
X2156867Y20583834D01*
X2181974Y20489914D01*
X2143383Y20381116D01*
X2027611Y20344850D01*
X1968097Y20342060D01*
X1920672Y20324392D01*
X1881617Y20272318D01*
X1869528Y20173748D01*
X1882546Y20077039D01*
X1925322Y20024964D01*
X1976466Y20007296D01*
X2040629Y20004506D01*
X2159450Y20019385D01*
X2270418Y20064020D01*
X2373534Y20138412D01*
X2456191Y20236775D01*
X2505786Y20353322D01*
X2522318Y20488054D01*
X2506406Y20616381D01*
X2458671Y20731068D01*
X2379113Y20832117D01*
X2276824Y20910642D01*
X2160897Y20957757D01*
X2031330Y20973462D01*
X1937411Y20964396D01*
X1849070Y20937196D01*
X1770029Y20895118D01*
X1704006Y20841416D01*
X1606366Y20727969D01*
X1540343Y20616381D01*
X1540343Y20848856D01*
X1536624Y20913019D01*
X1518026Y20963233D01*
X1465951Y21005079D01*
X1367382Y21018097D01*
X1271602Y21005079D01*
X1220458Y20962303D01*
X1201860Y20909299D01*
X1198140Y20845136D01*
X712732Y20845136D01*
X712732Y21470029D01*
X1177682Y21470029D01*
X1185819Y21369599D01*
X1210229Y21276609D01*
X1274392Y21150143D01*
X1307868Y21111087D01*
X1421316Y21040415D01*
X1547783Y21109227D01*
X1611016Y21224535D01*
X1549642Y21351001D01*
X1519886Y21458870D01*
X1547783Y21548140D01*
X1625894Y21579757D01*
X1703076Y21546280D01*
X1733763Y21464449D01*
X1707725Y21391917D01*
X1663090Y21287768D01*
X1700286Y21166881D01*
X1756080Y21084120D01*
X1810014Y21060873D01*
X2338197Y21129685D01*
X2390272Y21138984D01*
X2441416Y21160372D01*
X2490701Y21212446D01*
X2507439Y21300787D01*
X2505579Y21726681D01*
X2501860Y21790844D01*
X2484192Y21841059D01*
X2432117Y21882904D01*
X2330758Y21895923D01*
X2237768Y21883834D01*
X2188484Y21843848D01*
X2171745Y21795494D01*
X2168956Y21735980D01*
X2168956Y21449571D01*
X2070386Y21436552D01*
X2074106Y21468169D01*
X2074106Y21477468D01*
X2059537Y21590502D01*
X2015832Y21694031D01*
X1942990Y21788054D01*
X1850930Y21862446D01*
X1749571Y21907082D01*
X1638913Y21921960D01*
X1515649Y21907495D01*
X1406231Y21864100D01*
X1310658Y21791774D01*
X1236783Y21698164D01*
X1192457Y21590916D01*
X1177682Y21470029D01*
X712732Y21470029D01*
X712732Y21921960D01*
X712732Y22386910D01*
X2987268Y22386910D01*
X2987268Y21921960D01*
G37*
%TO.C,kibuzzard-67795592*%
G36*
X44927627Y10392060D02*
G01*
X44960531Y10313376D01*
X44929773Y10238984D01*
X44856096Y10208941D01*
X44701590Y10208941D01*
X44701590Y10417811D01*
X44858957Y10417811D01*
X44927627Y10392060D01*
G37*
G36*
X45791003Y10392060D02*
G01*
X45824622Y10313376D01*
X45793864Y10238984D01*
X45718757Y10208941D01*
X45565681Y10208941D01*
X45565681Y10417811D01*
X45720188Y10417811D01*
X45791003Y10392060D01*
G37*
G36*
X47924229Y10684442D02*
G01*
X47999873Y10630258D01*
X48050838Y10549249D01*
X48067827Y10450715D01*
X48050660Y10352897D01*
X47999158Y10271173D01*
X47923693Y10215916D01*
X47834637Y10197496D01*
X47744508Y10215916D01*
X47668685Y10271173D01*
X47617183Y10352897D01*
X47600016Y10450715D01*
X47617362Y10546567D01*
X47669401Y10628112D01*
X47745045Y10683906D01*
X47833206Y10702504D01*
X47924229Y10684442D01*
G37*
G36*
X48955703Y10684442D02*
G01*
X49031346Y10630258D01*
X49082312Y10549249D01*
X49099301Y10450715D01*
X49082133Y10352897D01*
X49030631Y10271173D01*
X48955166Y10215916D01*
X48866110Y10197496D01*
X48775982Y10215916D01*
X48700159Y10271173D01*
X48648657Y10352897D01*
X48631489Y10450715D01*
X48648836Y10546567D01*
X48700874Y10628112D01*
X48776518Y10683906D01*
X48864680Y10702504D01*
X48955703Y10684442D01*
G37*
G36*
X46976268Y10683906D02*
G01*
X46998442Y10676037D01*
X47019901Y10651717D01*
X47027770Y10606652D01*
X47009172Y10547282D01*
X46949086Y10533691D01*
X46930488Y10533691D01*
X46848943Y10508655D01*
X46824622Y10423534D01*
X46850374Y10341273D01*
X46937641Y10317668D01*
X46954808Y10317668D01*
X46989143Y10307654D01*
X46999158Y10263305D01*
X46984136Y10218956D01*
X46924766Y10207511D01*
X46751661Y10207511D01*
X46751661Y10685336D01*
X46956239Y10685336D01*
X46976268Y10683906D01*
G37*
G36*
X44219472Y11202742D02*
G01*
X45067827Y11202742D01*
X45434065Y11202742D01*
X46275266Y11202742D01*
X46620045Y11202742D01*
X47840359Y11202742D01*
X48871833Y11202742D01*
X49837498Y11202742D01*
X50275266Y11202742D01*
X50513702Y11202742D01*
X51015530Y10450000D01*
X50513702Y9697258D01*
X50275266Y9697258D01*
X43622906Y9697258D01*
X43384470Y9697258D01*
X43384470Y10816953D01*
X43622906Y10816953D01*
X43622906Y10346280D01*
X43625767Y10299070D01*
X43639358Y10261874D01*
X43678700Y10231116D01*
X43753092Y10221817D01*
X43820331Y10230401D01*
X43858957Y10254006D01*
X43874694Y10281187D01*
X43878986Y10310515D01*
X43955524Y10248999D01*
X44059243Y10221817D01*
X44144762Y10233103D01*
X44216293Y10266961D01*
X44273836Y10323391D01*
X44315959Y10397465D01*
X44341234Y10484255D01*
X44349658Y10583763D01*
X44349658Y10815522D01*
X44439787Y10815522D01*
X44439787Y10077325D01*
X44441933Y10029399D01*
X44455524Y9990057D01*
X44495581Y9957153D01*
X44571404Y9947139D01*
X44858957Y9947139D01*
X44917076Y9952861D01*
X44976983Y9970029D01*
X45036711Y9997926D01*
X45094293Y10035837D01*
X45145617Y10086445D01*
X45186568Y10152432D01*
X45213392Y10229864D01*
X45222333Y10314807D01*
X45208345Y10421944D01*
X45166381Y10514457D01*
X45096439Y10592346D01*
X45199444Y10729685D01*
X45233032Y10815522D01*
X45303879Y10815522D01*
X45303879Y10077325D01*
X45306024Y10029399D01*
X45319615Y9990057D01*
X45359673Y9957153D01*
X45435495Y9947139D01*
X45720188Y9947139D01*
X45778485Y9952861D01*
X45838929Y9970029D01*
X45899014Y9997926D01*
X45956239Y10035837D01*
X46007205Y10086445D01*
X46048514Y10152432D01*
X46075874Y10229864D01*
X46084994Y10314807D01*
X46076053Y10399392D01*
X46049229Y10475751D01*
X46008278Y10540665D01*
X45956954Y10590916D01*
X45899014Y10628827D01*
X45838213Y10656724D01*
X45777233Y10673891D01*
X45718757Y10679614D01*
X45565681Y10679614D01*
X45565681Y10816953D01*
X46145080Y10816953D01*
X46145080Y10077325D01*
X46147226Y10029399D01*
X46160817Y9990057D01*
X46200874Y9957153D01*
X46276697Y9947139D01*
X46351089Y9957153D01*
X46391146Y9990057D01*
X46404737Y10029399D01*
X46406883Y10078755D01*
X46406883Y10814092D01*
X46489859Y10814092D01*
X46489859Y10075894D01*
X46492004Y10027969D01*
X46505595Y9988627D01*
X46545653Y9955722D01*
X46621475Y9945708D01*
X46956239Y9945708D01*
X47036830Y9955802D01*
X47108838Y9986083D01*
X47172262Y10036552D01*
X47221539Y10100850D01*
X47251105Y10172620D01*
X47260960Y10251860D01*
X47249158Y10335551D01*
X47213750Y10412089D01*
X47238844Y10456438D01*
X47338213Y10456438D01*
X47347155Y10351824D01*
X47373979Y10255436D01*
X47418685Y10167275D01*
X47481275Y10087339D01*
X47556650Y10020994D01*
X47639715Y9973605D01*
X47730470Y9945172D01*
X47828914Y9935694D01*
X47929415Y9945038D01*
X48022047Y9973069D01*
X48106811Y10019787D01*
X48183707Y10085193D01*
X48247548Y10164101D01*
X48293149Y10251323D01*
X48320509Y10346862D01*
X48329630Y10450715D01*
X48329126Y10456438D01*
X48369687Y10456438D01*
X48378628Y10351824D01*
X48405452Y10255436D01*
X48450159Y10167275D01*
X48512748Y10087339D01*
X48588124Y10020994D01*
X48671189Y9973605D01*
X48761944Y9945172D01*
X48860388Y9935694D01*
X48960889Y9945038D01*
X49053521Y9973069D01*
X49138285Y10019787D01*
X49179019Y10054435D01*
X49402591Y10054435D01*
X49411175Y9992203D01*
X49439072Y9959299D01*
X49471976Y9947854D01*
X49512748Y9945708D01*
X50166540Y9945708D01*
X50207312Y9947854D01*
X50239501Y9959299D01*
X50266683Y9992918D01*
X50275266Y10055866D01*
X50266683Y10118813D01*
X50238786Y10152432D01*
X50205881Y10163877D01*
X50165109Y10166023D01*
X49967684Y10166023D01*
X49967684Y10821245D01*
X49965538Y10869170D01*
X49951947Y10907082D01*
X49911890Y10938555D01*
X49837498Y10948569D01*
X49763821Y10938555D01*
X49725195Y10906366D01*
X49712319Y10867740D01*
X49710173Y10819814D01*
X49710173Y10166023D01*
X49511318Y10166023D01*
X49470545Y10163877D01*
X49438356Y10152432D01*
X49411175Y10118813D01*
X49402591Y10054435D01*
X49179019Y10054435D01*
X49215180Y10085193D01*
X49279022Y10164101D01*
X49324622Y10251323D01*
X49351983Y10346862D01*
X49361103Y10450715D01*
X49352117Y10552781D01*
X49325159Y10647246D01*
X49280229Y10734111D01*
X49217326Y10813376D01*
X49141817Y10879408D01*
X49059065Y10926574D01*
X48969070Y10954873D01*
X48871833Y10964306D01*
X48771869Y10955007D01*
X48679415Y10927110D01*
X48594472Y10880615D01*
X48517040Y10815522D01*
X48452573Y10737285D01*
X48406525Y10651359D01*
X48378896Y10557743D01*
X48369687Y10456438D01*
X48329126Y10456438D01*
X48320644Y10552781D01*
X48293685Y10647246D01*
X48248755Y10734111D01*
X48185853Y10813376D01*
X48110343Y10879408D01*
X48027591Y10926574D01*
X47937596Y10954873D01*
X47840359Y10964306D01*
X47740395Y10955007D01*
X47647942Y10927110D01*
X47562999Y10880615D01*
X47485567Y10815522D01*
X47421100Y10737285D01*
X47375052Y10651359D01*
X47347423Y10557743D01*
X47338213Y10456438D01*
X47238844Y10456438D01*
X47270617Y10512589D01*
X47289572Y10622389D01*
X47278366Y10708385D01*
X47246654Y10785161D01*
X47194436Y10852718D01*
X47127913Y10905174D01*
X47053282Y10936648D01*
X46970545Y10947139D01*
X46620045Y10947139D01*
X46545653Y10937124D01*
X46505595Y10904220D01*
X46492004Y10864163D01*
X46489859Y10814092D01*
X46406883Y10814092D01*
X46406883Y10818383D01*
X46404737Y10867740D01*
X46391146Y10906366D01*
X46351089Y10938555D01*
X46275266Y10948569D01*
X46200874Y10938555D01*
X46160817Y10905651D01*
X46147226Y10866309D01*
X46145080Y10816953D01*
X45565681Y10816953D01*
X45563535Y10866309D01*
X45549944Y10904936D01*
X45509887Y10937124D01*
X45434065Y10947139D01*
X45359673Y10937124D01*
X45319615Y10904220D01*
X45306024Y10864878D01*
X45303879Y10815522D01*
X45233032Y10815522D01*
X45238070Y10828398D01*
X45169401Y10912804D01*
X45067827Y10952146D01*
X44987713Y10885622D01*
X44834637Y10678183D01*
X44701590Y10678183D01*
X44701590Y10816953D01*
X44699444Y10866309D01*
X44685853Y10904936D01*
X44645796Y10937124D01*
X44569973Y10947139D01*
X44495581Y10937124D01*
X44455524Y10904220D01*
X44441933Y10864878D01*
X44439787Y10815522D01*
X44349658Y10815522D01*
X44349658Y10818383D01*
X44347512Y10866309D01*
X44333921Y10904936D01*
X44294580Y10937124D01*
X44219472Y10947139D01*
X44143650Y10937124D01*
X44103592Y10904220D01*
X44090002Y10864878D01*
X44087856Y10816953D01*
X44087856Y10583763D01*
X44061389Y10507940D01*
X43986282Y10480758D01*
X43910459Y10508655D01*
X43881847Y10583763D01*
X43881847Y10818383D01*
X43879701Y10866309D01*
X43866110Y10904936D01*
X43826053Y10937124D01*
X43751661Y10947139D01*
X43677984Y10937124D01*
X43638643Y10904936D01*
X43625052Y10866309D01*
X43622906Y10816953D01*
X43384470Y10816953D01*
X43384470Y11202742D01*
X43622906Y11202742D01*
X44219472Y11202742D01*
G37*
%TO.C,kibuzzard-67EBD21C*%
G36*
X8819868Y5890253D02*
G01*
X8943473Y5890253D01*
X9134222Y5890253D01*
X9474390Y5380000D01*
X9134222Y4869747D01*
X8943473Y4869747D01*
X8173230Y4869747D01*
X7505610Y4869747D01*
X7505610Y5679857D01*
X8173802Y5679857D01*
X8213287Y5606037D01*
X8418151Y5380572D01*
X8212143Y5155107D01*
X8173802Y5081860D01*
X8217865Y5007468D01*
X8295691Y4966838D01*
X8365505Y5014335D01*
X8558924Y5226066D01*
X8751199Y5014335D01*
X8821013Y4966838D01*
X8898838Y5007468D01*
X8943473Y5081860D01*
X8904560Y5155107D01*
X8698552Y5380572D01*
X8903416Y5606037D01*
X8942901Y5679857D01*
X8897694Y5752532D01*
X8819868Y5793162D01*
X8750054Y5745665D01*
X8558924Y5535079D01*
X8366649Y5745665D01*
X8296835Y5793162D01*
X8219010Y5752532D01*
X8173802Y5679857D01*
X7505610Y5679857D01*
X7505610Y5890253D01*
X8173230Y5890253D01*
X8819868Y5890253D01*
G37*
D12*
%TO.C,R107*%
X3266359Y7990000D02*
X3573641Y7990000D01*
X3266359Y7230000D02*
X3573641Y7230000D01*
%TO.C,U402*%
X23887500Y48637020D02*
X22887500Y48637020D01*
X23887500Y45817020D02*
X23097500Y45817020D01*
X22767500Y45537020D02*
X22487500Y45817020D01*
X22767500Y45817020D01*
X22767500Y45537020D01*
G36*
X22767500Y45537020D02*
G01*
X22487500Y45817020D01*
X22767500Y45817020D01*
X22767500Y45537020D01*
G37*
D11*
%TO.C,kibuzzard-67EBF0A0*%
G36*
X10038913Y13759919D02*
G01*
X9964950Y13912566D01*
X10112876Y13912566D01*
X10038913Y13759919D01*
G37*
G36*
X8798856Y10889008D02*
G01*
X8835050Y10802456D01*
X8801216Y10720625D01*
X8720172Y10687577D01*
X8550215Y10687577D01*
X8550215Y10917334D01*
X8723319Y10917334D01*
X8798856Y10889008D01*
G37*
G36*
X10751001Y12653362D02*
G01*
X10791130Y12605365D01*
X10811588Y12534549D01*
X10820243Y12465308D01*
X10821030Y12402361D01*
X10821030Y12394492D01*
X10812670Y12271942D01*
X10787589Y12184406D01*
X10745789Y12131885D01*
X10687268Y12114378D01*
X10628058Y12131983D01*
X10585765Y12184800D01*
X10560390Y12272827D01*
X10551931Y12396066D01*
X10560291Y12517927D01*
X10585372Y12604971D01*
X10627173Y12657198D01*
X10685694Y12674607D01*
X10751001Y12653362D01*
G37*
G36*
X8392847Y14804840D02*
G01*
X10383548Y14804840D01*
X11500858Y14804840D01*
X11670815Y14804840D01*
X12064235Y14804840D01*
X12064235Y9995160D01*
X11670815Y9995160D01*
X8229185Y9995160D01*
X7835765Y9995160D01*
X7835765Y11354816D01*
X8262232Y11354816D01*
X8262232Y10542799D01*
X8264592Y10490081D01*
X8279542Y10446805D01*
X8323605Y10410610D01*
X8407010Y10399595D01*
X8723319Y10399595D01*
X8787250Y10405889D01*
X8853147Y10424773D01*
X8918848Y10455460D01*
X8982189Y10497163D01*
X9002935Y10517620D01*
X9181259Y10517620D01*
X9190701Y10449165D01*
X9221388Y10412971D01*
X9257582Y10400381D01*
X9302432Y10398021D01*
X10021602Y10398021D01*
X10066452Y10400381D01*
X10101860Y10412971D01*
X10131760Y10449952D01*
X10141202Y10519194D01*
X10131760Y10588436D01*
X10101073Y10625417D01*
X10064878Y10638007D01*
X10020029Y10640367D01*
X9802861Y10640367D01*
X9802861Y10944087D01*
X10186838Y10944087D01*
X10196674Y10833929D01*
X10226180Y10733214D01*
X10271030Y10645678D01*
X10326896Y10575060D01*
X10392400Y10517620D01*
X10466166Y10469623D01*
X10543276Y10432445D01*
X10618813Y10407463D01*
X10691792Y10393300D01*
X10761230Y10388579D01*
X10854952Y10398371D01*
X10951470Y10427746D01*
X11050787Y10476705D01*
X11093276Y10506605D01*
X11122389Y10539652D01*
X11137339Y10586862D01*
X11102718Y10674988D01*
X11043705Y10738722D01*
X10989413Y10759967D01*
X10904435Y10723772D01*
X10894206Y10716691D01*
X10880830Y10708035D01*
X10865880Y10699380D01*
X10844635Y10691512D01*
X10819456Y10685217D01*
X10787983Y10679709D01*
X10750215Y10678135D01*
X10660515Y10693872D01*
X10571602Y10740296D01*
X10501574Y10826061D01*
X10481509Y10885074D01*
X10474821Y10951955D01*
X10486820Y11037917D01*
X10522818Y11110110D01*
X10573766Y11165385D01*
X10630615Y11200596D01*
X10750215Y11225775D01*
X10833226Y11212792D01*
X10912303Y11173844D01*
X10990987Y11142370D01*
X11044492Y11164795D01*
X11101144Y11232070D01*
X11135765Y11323343D01*
X11113734Y11380782D01*
X11049213Y11428779D01*
X10955842Y11477738D01*
X10858274Y11507113D01*
X10756509Y11516905D01*
X10689825Y11512184D01*
X10618813Y11498021D01*
X10544456Y11472645D01*
X10467740Y11434287D01*
X10393974Y11384716D01*
X10328469Y11325703D01*
X10272407Y11253118D01*
X10226967Y11162828D01*
X10196871Y11058572D01*
X10186838Y10944087D01*
X9802861Y10944087D01*
X9802861Y11361111D01*
X9800501Y11413829D01*
X9785551Y11455532D01*
X9741488Y11490153D01*
X9659657Y11501168D01*
X9578612Y11490153D01*
X9536123Y11454745D01*
X9521960Y11412256D01*
X9519599Y11359537D01*
X9519599Y10640367D01*
X9300858Y10640367D01*
X9256009Y10638007D01*
X9220601Y10625417D01*
X9190701Y10588436D01*
X9181259Y10517620D01*
X9002935Y10517620D01*
X9038644Y10552831D01*
X9083691Y10625417D01*
X9113197Y10710593D01*
X9123033Y10804030D01*
X9107646Y10921880D01*
X9061485Y11023645D01*
X8984549Y11109323D01*
X9097854Y11260396D01*
X9140343Y11368979D01*
X9064807Y11461826D01*
X8953076Y11505103D01*
X8864950Y11431927D01*
X8696567Y11203743D01*
X8550215Y11203743D01*
X8550215Y11356390D01*
X8547854Y11410682D01*
X8532904Y11453171D01*
X8488841Y11488579D01*
X8405436Y11499595D01*
X8323605Y11488579D01*
X8279542Y11452384D01*
X8264592Y11409108D01*
X8262232Y11354816D01*
X7835765Y11354816D01*
X7835765Y12610086D01*
X8229185Y12610086D01*
X8268526Y12535730D01*
X8386552Y12510944D01*
X8473104Y12528255D01*
X8518741Y12602217D01*
X8521888Y12610873D01*
X8533691Y12629757D01*
X8557296Y12653362D01*
X8595064Y12672246D01*
X8650930Y12680901D01*
X8749285Y12656509D01*
X8786266Y12591202D01*
X8755973Y12522747D01*
X8665093Y12499928D01*
X8621817Y12499928D01*
X8585622Y12492847D01*
X8550215Y12473176D01*
X8531330Y12432260D01*
X8521888Y12363019D01*
X8532117Y12284335D01*
X8565165Y12243419D01*
X8605293Y12230043D01*
X8655651Y12227682D01*
X8666667Y12227682D01*
X8739843Y12217454D01*
X8762661Y12177325D01*
X8736695Y12123033D01*
X8665093Y12103362D01*
X8597425Y12119099D01*
X8551788Y12166309D01*
X8503879Y12231179D01*
X8437784Y12249539D01*
X8353505Y12221388D01*
X8275608Y12134835D01*
X8298426Y12026252D01*
X8300787Y12020744D01*
X8309442Y12003433D01*
X8325179Y11977468D01*
X8350358Y11945994D01*
X8384979Y11912160D01*
X8431402Y11879900D01*
X8489628Y11852361D01*
X8562017Y11833476D01*
X8649356Y11826395D01*
X8763797Y11838285D01*
X8861628Y11873955D01*
X8942847Y11933405D01*
X8943494Y11934192D01*
X9141917Y11934192D01*
X9230043Y11859442D01*
X9348069Y11835837D01*
X9420458Y11925536D01*
X9659657Y12514450D01*
X9669099Y12537697D01*
X9917740Y11925536D01*
X9991702Y11836624D01*
X10108155Y11859442D01*
X10198641Y11934979D01*
X10180544Y12043562D01*
X10020908Y12394492D01*
X10263948Y12394492D01*
X10265916Y12328398D01*
X10271817Y12262303D01*
X10284603Y12192275D01*
X10307225Y12114378D01*
X10338895Y12037661D01*
X10378827Y11971173D01*
X10431938Y11914717D01*
X10503147Y11868097D01*
X10589700Y11836820D01*
X10688841Y11826395D01*
X10756509Y11833576D01*
X10785229Y11836624D01*
X10869814Y11867310D01*
X10939843Y11913144D01*
X10992561Y11968813D01*
X11032493Y12034514D01*
X11064163Y12110443D01*
X11086981Y12188144D01*
X11100358Y12259156D01*
X11106849Y12327217D01*
X11109013Y12396066D01*
X11106652Y12466685D01*
X11099571Y12536910D01*
X11085604Y12609299D01*
X11062589Y12686409D01*
X11030919Y12760962D01*
X10990987Y12825680D01*
X10938662Y12880365D01*
X10869814Y12924821D01*
X10786803Y12954328D01*
X10691989Y12964163D01*
X10608190Y12957475D01*
X10533047Y12937411D01*
X10468723Y12905347D01*
X10417382Y12862661D01*
X10340272Y12758798D01*
X10312142Y12699785D01*
X10292275Y12634478D01*
X10270243Y12509371D01*
X10263948Y12394492D01*
X10020908Y12394492D01*
X9807582Y12863448D01*
X9753290Y12920887D01*
X9672246Y12942132D01*
X9584120Y12922461D01*
X9530615Y12863448D01*
X9157654Y12043562D01*
X9141917Y11934192D01*
X8943494Y11934192D01*
X8953076Y11945856D01*
X9003608Y12007368D01*
X9040065Y12086576D01*
X9052217Y12171030D01*
X9025072Y12286302D01*
X8943634Y12364592D01*
X9031760Y12449571D01*
X9063627Y12512518D01*
X9074249Y12588054D01*
X9060873Y12689906D01*
X9020744Y12779344D01*
X8953863Y12856366D01*
X8866524Y12915379D01*
X8765021Y12950787D01*
X8649356Y12962589D01*
X8541822Y12950787D01*
X8443729Y12915379D01*
X8355079Y12856366D01*
X8285137Y12781791D01*
X8243173Y12699698D01*
X8229185Y12610086D01*
X7835765Y12610086D01*
X7835765Y14239890D01*
X8251216Y14239890D01*
X8251216Y13427873D01*
X8253577Y13375155D01*
X8268526Y13332666D01*
X8312589Y13297258D01*
X8395994Y13286242D01*
X8437697Y13288603D01*
X8466023Y13292537D01*
X8486481Y13299619D01*
X8499857Y13307487D01*
X8511660Y13319289D01*
X8521888Y13330305D01*
X8649356Y13494014D01*
X8842918Y13742608D01*
X9162375Y13331879D01*
X9209585Y13295684D01*
X9292990Y13286242D01*
X9374821Y13297258D01*
X9418097Y13332666D01*
X9433047Y13375942D01*
X9436195Y13431021D01*
X9436195Y14243038D01*
X9433047Y14296543D01*
X9432756Y14297330D01*
X9492847Y14297330D01*
X9513305Y14186385D01*
X9672246Y13857104D01*
X9908298Y13368073D01*
X9963376Y13307487D01*
X10040486Y13284669D01*
X10117203Y13305913D01*
X10171102Y13369647D01*
X10566094Y14186385D01*
X10577614Y14246972D01*
X10612518Y14246972D01*
X10666810Y14145470D01*
X10948498Y13835455D01*
X10665236Y13525441D01*
X10612518Y13424726D01*
X10673104Y13322437D01*
X10691989Y13312578D01*
X10780114Y13266571D01*
X10876109Y13331879D01*
X11142060Y13623009D01*
X11406438Y13331879D01*
X11502432Y13266571D01*
X11609442Y13322437D01*
X11670815Y13424726D01*
X11617310Y13525441D01*
X11334049Y13835455D01*
X11615737Y14145470D01*
X11670029Y14246972D01*
X11607868Y14346900D01*
X11500858Y14402766D01*
X11404864Y14337458D01*
X11142060Y14047902D01*
X10877682Y14337458D01*
X10781688Y14402766D01*
X10674678Y14346900D01*
X10612518Y14246972D01*
X10577614Y14246972D01*
X10587339Y14298116D01*
X10500000Y14375227D01*
X10383548Y14398045D01*
X10306438Y14307558D01*
X10234049Y14158059D01*
X9846924Y14158059D01*
X9774535Y14309132D01*
X9695851Y14396471D01*
X9580973Y14373653D01*
X9492847Y14297330D01*
X9432756Y14297330D01*
X9417310Y14339032D01*
X9374034Y14373653D01*
X9291416Y14384669D01*
X9209585Y14373653D01*
X9165522Y14337458D01*
X9150572Y14294182D01*
X9148212Y14239890D01*
X9148212Y13792966D01*
X8964092Y14043181D01*
X8954649Y14055770D01*
X8939700Y14073081D01*
X8919242Y14088817D01*
X8886195Y14102980D01*
X8842918Y14107701D01*
X8772103Y14091571D01*
X8720172Y14043181D01*
X8537625Y13794540D01*
X8537625Y14243038D01*
X8535265Y14295756D01*
X8520315Y14338245D01*
X8476252Y14373653D01*
X8392847Y14384669D01*
X8311803Y14373653D01*
X8269313Y14338245D01*
X8254363Y14294969D01*
X8251216Y14239890D01*
X7835765Y14239890D01*
X7835765Y14804840D01*
X8229185Y14804840D01*
X8392847Y14804840D01*
G37*
D12*
%TO.C,C503*%
X6100000Y6772164D02*
X6100000Y6987836D01*
X6820000Y6772164D02*
X6820000Y6987836D01*
%TO.C,R104*%
X53160000Y32963641D02*
X53160000Y32656359D01*
X53920000Y32963641D02*
X53920000Y32656359D01*
%TO.C,Module302*%
X12600000Y51750000D02*
X12600000Y3750000D01*
X14160000Y36650000D02*
X17040000Y36650000D01*
X14160000Y35650000D02*
X14160000Y36650000D01*
X14160000Y14850000D02*
X14160000Y13850000D01*
X14160000Y13850000D02*
X17040000Y13850000D01*
X16100000Y250000D02*
X49100000Y250000D01*
X17040000Y35650000D02*
X17040000Y36650000D01*
X17040000Y14850000D02*
X17040000Y13850000D01*
X49100000Y55250000D02*
X16100000Y55250000D01*
X52600000Y3750000D02*
X52600000Y51750000D01*
X12600000Y51750000D02*
G75*
G02*
X16100000Y55250000I3500000J0D01*
G01*
X16100000Y250000D02*
G75*
G02*
X12600000Y3750000I0J3500000D01*
G01*
X49100000Y55250000D02*
G75*
G02*
X52600000Y51750000I1J-3499999D01*
G01*
X52600000Y3750000D02*
G75*
G02*
X49100000Y250000I-3499999J-1D01*
G01*
%TD*%
%LPC*%
D14*
%TO.C,J1*%
X15896000Y48700000D03*
X15896000Y41700000D03*
%TD*%
D15*
%TO.C,M701*%
X35450000Y22375000D03*
%TD*%
D16*
%TO.C,H105*%
X0Y0D03*
%TD*%
D15*
%TO.C,M702*%
X35450000Y10500000D03*
%TD*%
D16*
%TO.C,H103*%
X55000000Y58000000D03*
%TD*%
D17*
%TO.C,H101*%
X2600000Y24350000D03*
D18*
X2600000Y24350000D03*
%TD*%
D19*
%TO.C,J101*%
X11580000Y30650000D03*
X4420000Y30650000D03*
D20*
X11050000Y28620000D03*
X11050000Y32680000D03*
X4950000Y28620000D03*
X4950000Y32680000D03*
%TD*%
D21*
%TO.C,J701*%
X25450000Y50625000D03*
D22*
X45450000Y50625000D03*
%TD*%
D23*
%TO.C,TP105*%
X11280000Y22780000D03*
%TD*%
D24*
%TO.C,J501*%
X28190000Y9280000D03*
X13690000Y9280000D03*
D25*
X13690000Y3320000D03*
X28190000Y3320000D03*
%TD*%
D16*
%TO.C,H104*%
X55000000Y0D03*
%TD*%
D19*
%TO.C,USB701*%
X11580000Y19100000D03*
X4420000Y19100000D03*
D20*
X11050000Y17070000D03*
X11050000Y21130000D03*
X4950000Y17070000D03*
X4950000Y21130000D03*
%TD*%
D16*
%TO.C,H102*%
X0Y58000000D03*
%TD*%
D26*
%TO.C,SW501*%
X52920000Y17230000D03*
X52920000Y12930000D03*
%TD*%
D23*
%TO.C,TP104*%
X51460000Y48370000D03*
%TD*%
%TO.C,TP106*%
X28410000Y20500000D03*
%TD*%
D27*
%TO.C,Module301*%
X49100000Y3750000D03*
X49100000Y51750000D03*
D28*
X51140000Y35050000D03*
X48060000Y35050000D03*
X51140000Y34650000D03*
X48060000Y34650000D03*
X51140000Y34250000D03*
X48060000Y34250000D03*
X51140000Y33850000D03*
X48060000Y33850000D03*
X51140000Y33450000D03*
X48060000Y33450000D03*
X51140000Y33050000D03*
X48060000Y33050000D03*
X51140000Y32650000D03*
X48060000Y32650000D03*
X51140000Y32250000D03*
X48060000Y32250000D03*
X51140000Y31850000D03*
X48060000Y31850000D03*
X51140000Y31450000D03*
X48060000Y31450000D03*
X51140000Y31050000D03*
X48060000Y31050000D03*
X51140000Y30650000D03*
X48060000Y30650000D03*
X51140000Y30250000D03*
X48060000Y30250000D03*
X51140000Y29850000D03*
X48060000Y29850000D03*
X51140000Y29450000D03*
X48060000Y29450000D03*
X51140000Y29050000D03*
X48060000Y29050000D03*
X51140000Y28650000D03*
X48060000Y28650000D03*
X51140000Y28250000D03*
X48060000Y28250000D03*
X51140000Y27850000D03*
X48060000Y27850000D03*
X51140000Y27450000D03*
X48060000Y27450000D03*
X51140000Y27050000D03*
X48060000Y27050000D03*
X51140000Y26650000D03*
X48060000Y26650000D03*
X51140000Y26250000D03*
X48060000Y26250000D03*
X51140000Y25850000D03*
X48060000Y25850000D03*
X51140000Y25450000D03*
X48060000Y25450000D03*
X51140000Y25050000D03*
X48060000Y25050000D03*
X51140000Y24650000D03*
X48060000Y24650000D03*
X51140000Y24250000D03*
X48060000Y24250000D03*
X51140000Y23850000D03*
X48060000Y23850000D03*
X51140000Y23450000D03*
X48060000Y23450000D03*
X51140000Y23050000D03*
X48060000Y23050000D03*
X51140000Y22650000D03*
X48060000Y22650000D03*
X51140000Y22250000D03*
X48060000Y22250000D03*
X51140000Y21850000D03*
X48060000Y21850000D03*
X51140000Y21450000D03*
X48060000Y21450000D03*
X51140000Y21050000D03*
X48060000Y21050000D03*
X51140000Y20650000D03*
X48060000Y20650000D03*
X51140000Y20250000D03*
X48060000Y20250000D03*
X51140000Y19850000D03*
X48060000Y19850000D03*
X51140000Y19450000D03*
X48060000Y19450000D03*
X51140000Y19050000D03*
X48060000Y19050000D03*
X51140000Y18650000D03*
X48060000Y18650000D03*
X51140000Y18250000D03*
X48060000Y18250000D03*
X51140000Y17850000D03*
X48060000Y17850000D03*
X51140000Y17450000D03*
X48060000Y17450000D03*
X51140000Y17050000D03*
X48060000Y17050000D03*
X51140000Y16650000D03*
X48060000Y16650000D03*
X51140000Y16250000D03*
X48060000Y16250000D03*
X51140000Y15850000D03*
X48060000Y15850000D03*
X51140000Y15450000D03*
X48060000Y15450000D03*
%TD*%
D29*
%TO.C,R103*%
X46750000Y17470000D03*
X45730000Y17470000D03*
%TD*%
%TO.C,R108*%
X5230000Y3160000D03*
X4210000Y3160000D03*
%TD*%
D30*
%TO.C,U401*%
X23015000Y42152020D03*
X23015000Y42652020D03*
X23015000Y43152020D03*
X23015000Y43652020D03*
X23015000Y44152020D03*
X23785000Y44152020D03*
X23785000Y43652020D03*
X23785000Y43152020D03*
X23785000Y42652020D03*
X23785000Y42152020D03*
%TD*%
D31*
%TO.C,R102*%
X45780000Y18370000D03*
X45780000Y19390000D03*
%TD*%
D32*
%TO.C,U1*%
X5460000Y6380000D03*
X5460000Y5880000D03*
X5460000Y5380000D03*
X5460000Y4880000D03*
X5460000Y4380000D03*
D33*
X4735000Y4155000D03*
X4235000Y4155000D03*
X3735000Y4155000D03*
D32*
X3010000Y4380000D03*
X3010000Y4880000D03*
X3010000Y5380000D03*
X3010000Y5880000D03*
X3010000Y6380000D03*
D33*
X3735000Y6605000D03*
X4235000Y6605000D03*
X4735000Y6605000D03*
%TD*%
D34*
%TO.C,R403*%
X8765000Y54300000D03*
X9785000Y54300000D03*
%TD*%
D35*
%TO.C,CN1*%
X4600000Y9920000D03*
X5600000Y9920000D03*
D36*
X6900000Y13800000D03*
X3300000Y13800000D03*
%TD*%
D37*
%TO.C,D403*%
X16820000Y6540000D03*
X17320000Y6540000D03*
X17820000Y6540000D03*
X18320000Y6540000D03*
X18820000Y6540000D03*
X18820000Y5680000D03*
X18320000Y5680000D03*
X17820000Y5680000D03*
X17320000Y5680000D03*
X16820000Y5680000D03*
%TD*%
D38*
%TO.C,SW101*%
X52590000Y9970000D03*
X52590000Y6970000D03*
D39*
X51400000Y9470000D03*
X51400000Y7470000D03*
D40*
X52660000Y5470000D03*
X52660000Y11470000D03*
D39*
X51400000Y8470000D03*
%TD*%
D34*
%TO.C,R107*%
X2910000Y7610000D03*
X3930000Y7610000D03*
%TD*%
D30*
%TO.C,U402*%
X23002500Y46227020D03*
X23002500Y46727020D03*
X23002500Y47227020D03*
X23002500Y47727020D03*
X23002500Y48227020D03*
X23772500Y48227020D03*
X23772500Y47727020D03*
X23772500Y47227020D03*
X23772500Y46727020D03*
X23772500Y46227020D03*
%TD*%
D41*
%TO.C,C503*%
X6460000Y6400000D03*
X6460000Y7360000D03*
%TD*%
D31*
%TO.C,R104*%
X53540000Y32300000D03*
X53540000Y33320000D03*
%TD*%
D42*
%TO.C,Module302*%
X49100000Y3750000D03*
X49100000Y51750000D03*
D28*
X17140000Y35050000D03*
X14060000Y35050000D03*
X17140000Y34650000D03*
X14060000Y34650000D03*
X17140000Y34250000D03*
X14060000Y34250000D03*
X17140000Y33850000D03*
X14060000Y33850000D03*
X17140000Y33450000D03*
X14060000Y33450000D03*
X17140000Y33050000D03*
X14060000Y33050000D03*
X17140000Y32650000D03*
X14060000Y32650000D03*
X17140000Y32250000D03*
X14060000Y32250000D03*
X17140000Y31850000D03*
X14060000Y31850000D03*
X17140000Y31450000D03*
X14060000Y31450000D03*
X17140000Y31050000D03*
X14060000Y31050000D03*
X17140000Y30650000D03*
X14060000Y30650000D03*
X17140000Y30250000D03*
X14060000Y30250000D03*
X17140000Y29850000D03*
X14060000Y29850000D03*
X17140000Y29450000D03*
X14060000Y29450000D03*
X17140000Y29050000D03*
X14060000Y29050000D03*
X17140000Y28650000D03*
X14060000Y28650000D03*
X17140000Y28250000D03*
X14060000Y28250000D03*
X17140000Y27850000D03*
X14060000Y27850000D03*
X17140000Y27450000D03*
X14060000Y27450000D03*
X17140000Y27050000D03*
X14060000Y27050000D03*
X17140000Y26650000D03*
X14060000Y26650000D03*
X17140000Y26250000D03*
X14060000Y26250000D03*
X17140000Y25850000D03*
X14060000Y25850000D03*
X17140000Y25450000D03*
X14060000Y25450000D03*
X17140000Y25050000D03*
X14060000Y25050000D03*
X17140000Y24650000D03*
X14060000Y24650000D03*
X17140000Y24250000D03*
X14060000Y24250000D03*
X17140000Y23850000D03*
X14060000Y23850000D03*
X17140000Y23450000D03*
X14060000Y23450000D03*
X17140000Y23050000D03*
X14060000Y23050000D03*
X17140000Y22650000D03*
X14060000Y22650000D03*
X17140000Y22250000D03*
X14060000Y22250000D03*
X17140000Y21850000D03*
X14060000Y21850000D03*
X17140000Y21450000D03*
X14060000Y21450000D03*
X17140000Y21050000D03*
X14060000Y21050000D03*
X17140000Y20650000D03*
X14060000Y20650000D03*
X17140000Y20250000D03*
X14060000Y20250000D03*
X17140000Y19850000D03*
X14060000Y19850000D03*
X17140000Y19450000D03*
X14060000Y19450000D03*
X17140000Y19050000D03*
X14060000Y19050000D03*
X17140000Y18650000D03*
X14060000Y18650000D03*
X17140000Y18250000D03*
X14060000Y18250000D03*
X17140000Y17850000D03*
X14060000Y17850000D03*
X17140000Y17450000D03*
X14060000Y17450000D03*
X17140000Y17050000D03*
X14060000Y17050000D03*
X17140000Y16650000D03*
X14060000Y16650000D03*
X17140000Y16250000D03*
X14060000Y16250000D03*
X17140000Y15850000D03*
X14060000Y15850000D03*
X17140000Y15450000D03*
X14060000Y15450000D03*
%TD*%
%LPD*%
M02*
