G04 #@! TF.GenerationSoftware,KiCad,Pcbnew,9.0.0*
G04 #@! TF.CreationDate,2025-04-23T15:58:58+02:00*
G04 #@! TF.ProjectId,CM5_MINIMA_3,434d355f-4d49-44e4-994d-415f332e6b69,2*
G04 #@! TF.SameCoordinates,Original*
G04 #@! TF.FileFunction,Legend,Bot*
G04 #@! TF.FilePolarity,Positive*
%FSLAX46Y46*%
G04 Gerber Fmt 4.6, Leading zero omitted, Abs format (unit mm)*
G04 Created by KiCad (PCBNEW 9.0.0) date 2025-04-23 15:58:58*
%MOMM*%
%LPD*%
G01*
G04 APERTURE LIST*
G04 Aperture macros list*
%AMRoundRect*
0 Rectangle with rounded corners*
0 $1 Rounding radius*
0 $2 $3 $4 $5 $6 $7 $8 $9 X,Y pos of 4 corners*
0 Add a 4 corners polygon primitive as box body*
4,1,4,$2,$3,$4,$5,$6,$7,$8,$9,$2,$3,0*
0 Add four circle primitives for the rounded corners*
1,1,$1+$1,$2,$3*
1,1,$1+$1,$4,$5*
1,1,$1+$1,$6,$7*
1,1,$1+$1,$8,$9*
0 Add four rect primitives between the rounded corners*
20,1,$1+$1,$2,$3,$4,$5,0*
20,1,$1+$1,$4,$5,$6,$7,0*
20,1,$1+$1,$6,$7,$8,$9,0*
20,1,$1+$1,$8,$9,$2,$3,0*%
G04 Aperture macros list end*
%ADD10C,0.000000*%
%ADD11C,0.120000*%
%ADD12C,0.250000*%
%ADD13C,1.500000*%
%ADD14C,4.500000*%
%ADD15C,5.400000*%
%ADD16C,2.600000*%
%ADD17C,3.800000*%
%ADD18C,0.800000*%
%ADD19O,1.800000X0.860000*%
%ADD20C,1.150000*%
%ADD21C,1.650000*%
%ADD22C,1.000000*%
%ADD23O,1.500000X3.300000*%
%ADD24O,1.500000X2.300000*%
%ADD25C,1.200000*%
%ADD26C,2.700000*%
%ADD27R,0.700000X0.200000*%
%ADD28RoundRect,0.135000X0.135000X0.185000X-0.135000X0.185000X-0.135000X-0.185000X0.135000X-0.185000X0*%
%ADD29RoundRect,0.075000X0.200000X-0.075000X0.200000X0.075000X-0.200000X0.075000X-0.200000X-0.075000X0*%
%ADD30RoundRect,0.135000X0.185000X-0.135000X0.185000X0.135000X-0.185000X0.135000X-0.185000X-0.135000X0*%
%ADD31RoundRect,0.087500X0.187500X0.087500X-0.187500X0.087500X-0.187500X-0.087500X0.187500X-0.087500X0*%
%ADD32RoundRect,0.087500X0.087500X0.187500X-0.087500X0.187500X-0.087500X-0.187500X0.087500X-0.187500X0*%
%ADD33RoundRect,0.135000X-0.135000X-0.185000X0.135000X-0.185000X0.135000X0.185000X-0.135000X0.185000X0*%
%ADD34R,0.600000X1.550000*%
%ADD35R,1.200000X1.800000*%
%ADD36R,0.250000X0.680000*%
%ADD37C,0.900000*%
%ADD38R,0.700000X0.600000*%
%ADD39R,0.700000X0.900000*%
%ADD40RoundRect,0.140000X0.170000X-0.140000X0.170000X0.140000X-0.170000X0.140000X-0.170000X-0.140000X0*%
%ADD41C,3.000000*%
G04 APERTURE END LIST*
D10*
G36*
X122539763Y-63878040D02*
G01*
X122540908Y-63879185D01*
X122536330Y-63882618D01*
X122534041Y-63882618D01*
X122539763Y-63878040D01*
G37*
G36*
X122120879Y-63873462D02*
G01*
X122116301Y-63878040D01*
X122125457Y-63886052D01*
X122124313Y-63886052D01*
X122115157Y-63879185D01*
X122116301Y-63878040D01*
X122115157Y-63876896D01*
X122120879Y-63872318D01*
X122120879Y-63873462D01*
G37*
G36*
X122389835Y-63653147D02*
G01*
X122411580Y-63705222D01*
X122389262Y-63756152D01*
X122326888Y-63773891D01*
X122265085Y-63755579D01*
X122243340Y-63705222D01*
X122266230Y-63653147D01*
X122329177Y-63634263D01*
X122389835Y-63653147D01*
G37*
G36*
X122373812Y-63979328D02*
G01*
X122388690Y-64015379D01*
X122372667Y-64050858D01*
X122328032Y-64063448D01*
X122283397Y-64051431D01*
X122268519Y-64015379D01*
X122284541Y-63979900D01*
X122329177Y-63967310D01*
X122373812Y-63979328D01*
G37*
G36*
X121628747Y-63338603D02*
G01*
X121891981Y-63338603D01*
X122330321Y-63338603D01*
X122621022Y-63338603D01*
X122811771Y-63338603D01*
X123152702Y-63850000D01*
X122811771Y-64361397D01*
X122621022Y-64361397D01*
X121338046Y-64361397D01*
X121147298Y-64361397D01*
X121147298Y-64009657D01*
X121340335Y-64009657D01*
X121353497Y-64046280D01*
X121388404Y-64085193D01*
X121533755Y-64215665D01*
X121552066Y-64230544D01*
X121629892Y-64250000D01*
X121710006Y-64226538D01*
X121732896Y-64144707D01*
X121732896Y-63709800D01*
X122033898Y-63709800D01*
X122042926Y-63770076D01*
X122070013Y-63825775D01*
X122115157Y-63876896D01*
X122114012Y-63878040D01*
X122115157Y-63879185D01*
X122071380Y-63940415D01*
X122056787Y-64014235D01*
X122065689Y-64080869D01*
X122092394Y-64140383D01*
X122136902Y-64192775D01*
X122193999Y-64233468D01*
X122258472Y-64257884D01*
X122330321Y-64266023D01*
X122401280Y-64257757D01*
X122464608Y-64232960D01*
X122520307Y-64191631D01*
X122563543Y-64138348D01*
X122589485Y-64077690D01*
X122598132Y-64009657D01*
X122583826Y-63944421D01*
X122540908Y-63879185D01*
X122542052Y-63878040D01*
X122540908Y-63876896D01*
X122585416Y-63824249D01*
X122612120Y-63768550D01*
X122621022Y-63709800D01*
X122610976Y-63632674D01*
X122580838Y-63566102D01*
X122530607Y-63510086D01*
X122468169Y-63467803D01*
X122401407Y-63442434D01*
X122330321Y-63433977D01*
X122250906Y-63442752D01*
X122180520Y-63469075D01*
X122119162Y-63512947D01*
X122071793Y-63569917D01*
X122043371Y-63635535D01*
X122033898Y-63709800D01*
X121732896Y-63709800D01*
X121732896Y-63555293D01*
X121782109Y-63555293D01*
X121788261Y-63608655D01*
X121806716Y-63642847D01*
X121840622Y-63661302D01*
X121893125Y-63667454D01*
X121977818Y-63642847D01*
X121995843Y-63608941D01*
X122001852Y-63556438D01*
X121977245Y-63471745D01*
X121891981Y-63447711D01*
X121806716Y-63471745D01*
X121782109Y-63555293D01*
X121732896Y-63555293D01*
X121732896Y-63549571D01*
X121710006Y-63469456D01*
X121628747Y-63446567D01*
X121548633Y-63469456D01*
X121525743Y-63550715D01*
X121525743Y-63937554D01*
X121514298Y-63927253D01*
X121443912Y-63894063D01*
X121375815Y-63934120D01*
X121340335Y-64009657D01*
X121147298Y-64009657D01*
X121147298Y-63338603D01*
X121338046Y-63338603D01*
X121628747Y-63338603D01*
G37*
D11*
X90750000Y-29600000D02*
X90750000Y-77600000D01*
X94250000Y-81100000D02*
X127250000Y-81100000D01*
X126310000Y-44700000D02*
X129110000Y-44700000D01*
X126310000Y-45700000D02*
X126310000Y-44700000D01*
X126310000Y-66500000D02*
X126310000Y-67500000D01*
X126310000Y-67500000D02*
X129110000Y-67500000D01*
X127250000Y-26100000D02*
X94250000Y-26100000D01*
X129110000Y-45700000D02*
X129110000Y-44700000D01*
X129110000Y-66500000D02*
X129110000Y-67500000D01*
X130750000Y-77600000D02*
X130750000Y-29600000D01*
X90750000Y-29600000D02*
G75*
G02*
X94250000Y-26100000I3500000J0D01*
G01*
X94250000Y-81100000D02*
G75*
G02*
X90750000Y-77600000I0J3500000D01*
G01*
X127250000Y-26100000D02*
G75*
G02*
X130750000Y-29600000I1J-3499999D01*
G01*
X130750000Y-77600000D02*
G75*
G02*
X127250000Y-81100000I-3499999J-1D01*
G01*
X124543641Y-63500000D02*
X124236359Y-63500000D01*
X124543641Y-64260000D02*
X124236359Y-64260000D01*
X83023641Y-77810000D02*
X82716359Y-77810000D01*
X83023641Y-78570000D02*
X82716359Y-78570000D01*
X102050000Y-36787980D02*
X101050000Y-36787980D01*
X102050000Y-39607980D02*
X101260000Y-39607980D01*
X100930000Y-39887980D02*
X100650000Y-39607980D01*
X100930000Y-39607980D01*
X100930000Y-39887980D01*
G36*
X100930000Y-39887980D02*
G01*
X100650000Y-39607980D01*
X100930000Y-39607980D01*
X100930000Y-39887980D01*
G37*
D10*
G36*
X81650000Y-71361350D02*
G01*
X82079614Y-71361350D01*
X82389580Y-71361350D01*
X82389580Y-72838650D01*
X82079614Y-72838650D01*
X81220386Y-72838650D01*
X80910420Y-72838650D01*
X80910420Y-72100930D01*
X81220386Y-72100930D01*
X81232475Y-72190200D01*
X81271531Y-72236695D01*
X81318956Y-72252504D01*
X81376609Y-72255293D01*
X81497496Y-72255293D01*
X81497496Y-72378040D01*
X81500286Y-72434764D01*
X81516094Y-72480329D01*
X81562589Y-72517525D01*
X81651860Y-72528684D01*
X81739270Y-72516595D01*
X81785765Y-72478469D01*
X81801574Y-72432904D01*
X81804363Y-72376180D01*
X81804363Y-72255293D01*
X81927110Y-72255293D01*
X81983834Y-72252504D01*
X82029399Y-72236695D01*
X82067525Y-72189270D01*
X82079614Y-72099070D01*
X82068455Y-72011660D01*
X82032189Y-71965165D01*
X81989413Y-71949356D01*
X81936409Y-71946567D01*
X81804363Y-71946567D01*
X81804363Y-71823820D01*
X81801574Y-71767096D01*
X81785765Y-71721531D01*
X81739270Y-71683405D01*
X81650000Y-71671316D01*
X81562589Y-71683405D01*
X81516094Y-71722461D01*
X81500286Y-71768956D01*
X81497496Y-71825680D01*
X81497496Y-71946567D01*
X81363591Y-71946567D01*
X81310587Y-71949356D01*
X81267811Y-71965165D01*
X81231545Y-72011660D01*
X81220386Y-72100930D01*
X80910420Y-72100930D01*
X80910420Y-71361350D01*
X81220386Y-71361350D01*
X81650000Y-71361350D01*
G37*
D11*
X123550000Y-62623641D02*
X123550000Y-62316359D01*
X124310000Y-62623641D02*
X124310000Y-62316359D01*
X80775000Y-74360000D02*
X80775000Y-74535000D01*
X80775000Y-77580000D02*
X80775000Y-77405000D01*
X81450000Y-74360000D02*
X80775000Y-74360000D01*
X81450000Y-77580000D02*
X80775000Y-77580000D01*
X83320000Y-74360000D02*
X83695000Y-74360000D01*
X83320000Y-77580000D02*
X83995000Y-77580000D01*
X83995000Y-77580000D02*
X83995000Y-77405000D01*
X83995000Y-74360000D02*
X83855000Y-74170000D01*
X84135000Y-74170000D01*
X83995000Y-74360000D01*
G36*
X83995000Y-74360000D02*
G01*
X83855000Y-74170000D01*
X84135000Y-74170000D01*
X83995000Y-74360000D01*
G37*
X87271359Y-26670000D02*
X87578641Y-26670000D01*
X87271359Y-27430000D02*
X87578641Y-27430000D01*
D12*
X81250000Y-69290000D02*
X81250000Y-68690000D01*
X81250000Y-69290000D02*
X81250000Y-71140000D01*
X81250000Y-71140000D02*
X82220000Y-71140000D01*
X82290000Y-66840000D02*
X84220000Y-66840000D01*
X84290000Y-71140000D02*
X85250000Y-71140000D01*
X85250000Y-71140000D02*
X85250000Y-68690000D01*
D10*
G36*
X111723482Y-78065836D02*
G01*
X111602452Y-77816051D01*
X111844512Y-77816051D01*
X111723482Y-78065836D01*
G37*
G36*
X121931208Y-78065836D02*
G01*
X121810178Y-77816051D01*
X122052238Y-77816051D01*
X121931208Y-78065836D01*
G37*
G36*
X112287431Y-76355965D02*
G01*
X112944083Y-76355965D01*
X115187002Y-76355965D01*
X116345800Y-76355965D01*
X117870263Y-76355965D01*
X119595585Y-76355965D01*
X122495156Y-76355965D01*
X122853096Y-76355965D01*
X123496873Y-76355965D01*
X123496873Y-79489871D01*
X122853096Y-79489871D01*
X110806744Y-79489871D01*
X110162967Y-79489871D01*
X110162967Y-77186437D01*
X110829920Y-77186437D01*
X110863396Y-77367982D01*
X111509748Y-78707038D01*
X111599877Y-78806180D01*
X111726057Y-78843519D01*
X111851594Y-78808755D01*
X111939791Y-78704463D01*
X112586143Y-77367982D01*
X112603280Y-77277854D01*
X112712323Y-77277854D01*
X112712323Y-78614334D01*
X112717474Y-78700600D01*
X112743225Y-78768841D01*
X112814040Y-78824206D01*
X112949233Y-78840944D01*
X113066401Y-78825493D01*
X113132066Y-78793304D01*
X113178418Y-78740515D01*
X113822195Y-77875279D01*
X113822195Y-78614334D01*
X113827345Y-78699313D01*
X113853096Y-78767553D01*
X113925199Y-78822918D01*
X114059105Y-78840944D01*
X114193010Y-78822918D01*
X114265113Y-78763691D01*
X114289577Y-78692875D01*
X114291424Y-78650386D01*
X114404169Y-78650386D01*
X114419620Y-78762403D01*
X114469834Y-78821630D01*
X114529062Y-78842231D01*
X114602452Y-78846094D01*
X115779276Y-78846094D01*
X115852667Y-78842231D01*
X115910607Y-78821630D01*
X115959534Y-78761115D01*
X115974984Y-78647811D01*
X115959534Y-78534506D01*
X115909319Y-78473991D01*
X115850092Y-78453390D01*
X115776701Y-78449527D01*
X115421336Y-78449527D01*
X115421336Y-77277854D01*
X116111465Y-77277854D01*
X116111465Y-78609184D01*
X116164255Y-78793304D01*
X116353525Y-78843519D01*
X117296014Y-78843519D01*
X117384856Y-78839656D01*
X117454384Y-78815193D01*
X117512323Y-78743090D01*
X117530349Y-78606609D01*
X117512323Y-78472703D01*
X117453096Y-78400600D01*
X117382281Y-78376137D01*
X117293439Y-78372274D01*
X116582710Y-78372274D01*
X116582710Y-78143090D01*
X117059105Y-78143090D01*
X117142796Y-78139227D01*
X117204598Y-78118626D01*
X117253525Y-78056824D01*
X117267688Y-77939656D01*
X117253525Y-77825064D01*
X117203311Y-77765836D01*
X117138933Y-77745236D01*
X117053954Y-77741373D01*
X116582710Y-77741373D01*
X116582710Y-77512188D01*
X117296014Y-77512188D01*
X117384856Y-77508326D01*
X117454384Y-77483862D01*
X117512323Y-77411759D01*
X117530009Y-77277854D01*
X117638504Y-77277854D01*
X117638504Y-78614334D01*
X117643654Y-78700600D01*
X117669405Y-78768841D01*
X117740220Y-78824206D01*
X117875414Y-78840944D01*
X117992581Y-78825493D01*
X118058246Y-78793304D01*
X118104598Y-78740515D01*
X118748375Y-77875279D01*
X118748375Y-78614334D01*
X118753525Y-78699313D01*
X118779276Y-78767553D01*
X118851379Y-78822918D01*
X118985285Y-78840944D01*
X119119190Y-78822918D01*
X119191293Y-78763691D01*
X119215757Y-78692875D01*
X119219620Y-78604034D01*
X119219620Y-77277854D01*
X119363826Y-77277854D01*
X119363826Y-78614334D01*
X119368976Y-78700600D01*
X119394727Y-78768841D01*
X119465542Y-78824206D01*
X119600735Y-78840944D01*
X119717903Y-78825493D01*
X119783568Y-78793304D01*
X119829920Y-78740515D01*
X120473697Y-77875279D01*
X120473697Y-78614334D01*
X120478847Y-78699313D01*
X120504598Y-78767553D01*
X120576701Y-78822918D01*
X120710607Y-78840944D01*
X120844512Y-78822918D01*
X120916615Y-78763691D01*
X120941079Y-78692875D01*
X120944941Y-78604034D01*
X120944941Y-77275279D01*
X120941079Y-77186437D01*
X121037645Y-77186437D01*
X121071122Y-77367982D01*
X121717474Y-78707038D01*
X121807602Y-78806180D01*
X121933783Y-78843519D01*
X122059319Y-78808755D01*
X122147517Y-78704463D01*
X122793868Y-77367982D01*
X122828632Y-77185150D01*
X122685714Y-77058970D01*
X122495156Y-77021630D01*
X122368976Y-77169699D01*
X122250521Y-77414334D01*
X121617044Y-77414334D01*
X121498590Y-77167124D01*
X121369834Y-77024206D01*
X121181851Y-77061545D01*
X121037645Y-77186437D01*
X120941079Y-77186437D01*
X120916615Y-77116909D01*
X120844512Y-77058970D01*
X120708032Y-77040944D01*
X120575414Y-77055107D01*
X120499448Y-77110472D01*
X119832495Y-77991158D01*
X119832495Y-77275279D01*
X119828632Y-77186437D01*
X119804169Y-77116909D01*
X119732066Y-77058970D01*
X119595585Y-77040944D01*
X119462967Y-77058970D01*
X119393439Y-77116909D01*
X119368976Y-77187725D01*
X119363826Y-77277854D01*
X119219620Y-77277854D01*
X119219620Y-77275279D01*
X119215757Y-77186437D01*
X119191293Y-77116909D01*
X119119190Y-77058970D01*
X118982710Y-77040944D01*
X118850092Y-77055107D01*
X118774126Y-77110472D01*
X118107173Y-77991158D01*
X118107173Y-77275279D01*
X118103311Y-77186437D01*
X118078847Y-77116909D01*
X118006744Y-77058970D01*
X117870263Y-77040944D01*
X117737645Y-77058970D01*
X117668117Y-77116909D01*
X117643654Y-77187725D01*
X117638504Y-77277854D01*
X117530009Y-77277854D01*
X117530349Y-77275279D01*
X117512323Y-77141373D01*
X117453096Y-77069270D01*
X117382281Y-77044806D01*
X117293439Y-77040944D01*
X116345800Y-77040944D01*
X116211894Y-77058970D01*
X116139791Y-77118197D01*
X116115328Y-77189012D01*
X116111465Y-77277854D01*
X115421336Y-77277854D01*
X115421336Y-77270128D01*
X115417474Y-77183862D01*
X115393010Y-77115622D01*
X115320907Y-77058970D01*
X115187002Y-77040944D01*
X115054384Y-77058970D01*
X114984856Y-77116909D01*
X114961680Y-77186437D01*
X114957817Y-77272703D01*
X114957817Y-78449527D01*
X114599877Y-78449527D01*
X114526487Y-78453390D01*
X114468547Y-78473991D01*
X114419620Y-78534506D01*
X114404169Y-78650386D01*
X114291424Y-78650386D01*
X114293439Y-78604034D01*
X114293439Y-77275279D01*
X114289577Y-77186437D01*
X114265113Y-77116909D01*
X114193010Y-77058970D01*
X114056529Y-77040944D01*
X113923911Y-77055107D01*
X113847946Y-77110472D01*
X113180993Y-77991158D01*
X113180993Y-77275279D01*
X113177130Y-77186437D01*
X113152667Y-77116909D01*
X113080564Y-77058970D01*
X112944083Y-77040944D01*
X112811465Y-77058970D01*
X112741937Y-77116909D01*
X112717474Y-77187725D01*
X112712323Y-77277854D01*
X112603280Y-77277854D01*
X112620907Y-77185150D01*
X112477989Y-77058970D01*
X112287431Y-77021630D01*
X112161250Y-77169699D01*
X112042796Y-77414334D01*
X111409319Y-77414334D01*
X111290864Y-77167124D01*
X111162109Y-77024206D01*
X110974126Y-77061545D01*
X110829920Y-77186437D01*
X110162967Y-77186437D01*
X110162967Y-76355965D01*
X110806744Y-76355965D01*
X112287431Y-76355965D01*
G37*
D12*
X94610000Y-74220000D02*
X94610000Y-76260000D01*
X97330000Y-74220000D02*
X94610000Y-74220000D01*
X97330000Y-74220000D02*
X97330000Y-76260000D01*
X97330000Y-76260000D02*
X94610000Y-76260000D01*
X95010000Y-73840000D02*
G75*
G02*
X94890000Y-73840000I-60000J0D01*
G01*
X94890000Y-73840000D02*
G75*
G02*
X95010000Y-73840000I60000J0D01*
G01*
D10*
G36*
X121629558Y-61991464D02*
G01*
X122080488Y-61991464D01*
X122527984Y-61991464D01*
X122836997Y-61991464D01*
X123027746Y-61991464D01*
X123366770Y-62500000D01*
X123027746Y-63008536D01*
X122836997Y-63008536D01*
X121323979Y-63008536D01*
X121133230Y-63008536D01*
X121133230Y-62343205D01*
X121323979Y-62343205D01*
X121352591Y-62397282D01*
X121438428Y-62415308D01*
X121501375Y-62402718D01*
X121534565Y-62348927D01*
X121536854Y-62342632D01*
X121545438Y-62328898D01*
X121562605Y-62311731D01*
X121590073Y-62297997D01*
X121630703Y-62291702D01*
X121702233Y-62309442D01*
X121729129Y-62356938D01*
X121707097Y-62406724D01*
X121641003Y-62423319D01*
X121609529Y-62423319D01*
X121583206Y-62428469D01*
X121557455Y-62442775D01*
X121543721Y-62472532D01*
X121536854Y-62522890D01*
X121544293Y-62580114D01*
X121568328Y-62609871D01*
X121597512Y-62619599D01*
X121634136Y-62621316D01*
X121642148Y-62621316D01*
X121695366Y-62628755D01*
X121711962Y-62657940D01*
X121693077Y-62697425D01*
X121641003Y-62711731D01*
X121591790Y-62700286D01*
X121558600Y-62665951D01*
X121523756Y-62618773D01*
X121475687Y-62605420D01*
X121414394Y-62625894D01*
X121357741Y-62688841D01*
X121374336Y-62767811D01*
X121376053Y-62771817D01*
X121382348Y-62784406D01*
X121393793Y-62803290D01*
X121412105Y-62826180D01*
X121437283Y-62850787D01*
X121471046Y-62874249D01*
X121513392Y-62894278D01*
X121566039Y-62908011D01*
X121629558Y-62913162D01*
X121712788Y-62904514D01*
X121783937Y-62878573D01*
X121843006Y-62835336D01*
X121887196Y-62781545D01*
X121913710Y-62723939D01*
X121922548Y-62662518D01*
X121902806Y-62578684D01*
X121843578Y-62521745D01*
X121907670Y-62459943D01*
X121930846Y-62414163D01*
X121938571Y-62359227D01*
X121936467Y-62343205D01*
X122222405Y-62343205D01*
X122251017Y-62397282D01*
X122336854Y-62415308D01*
X122399801Y-62402718D01*
X122432992Y-62348927D01*
X122435281Y-62342632D01*
X122443864Y-62328898D01*
X122461032Y-62311731D01*
X122488499Y-62297997D01*
X122529129Y-62291702D01*
X122600660Y-62309442D01*
X122627555Y-62356938D01*
X122605524Y-62406724D01*
X122539429Y-62423319D01*
X122507956Y-62423319D01*
X122481632Y-62428469D01*
X122455881Y-62442775D01*
X122442148Y-62472532D01*
X122435281Y-62522890D01*
X122442720Y-62580114D01*
X122466754Y-62609871D01*
X122495939Y-62619599D01*
X122532562Y-62621316D01*
X122540574Y-62621316D01*
X122593793Y-62628755D01*
X122610388Y-62657940D01*
X122591504Y-62697425D01*
X122539429Y-62711731D01*
X122490216Y-62700286D01*
X122457026Y-62665951D01*
X122422182Y-62618773D01*
X122374114Y-62605420D01*
X122312820Y-62625894D01*
X122256168Y-62688841D01*
X122272763Y-62767811D01*
X122274479Y-62771817D01*
X122280774Y-62784406D01*
X122292219Y-62803290D01*
X122310531Y-62826180D01*
X122335710Y-62850787D01*
X122369472Y-62874249D01*
X122411818Y-62894278D01*
X122464465Y-62908011D01*
X122527984Y-62913162D01*
X122611214Y-62904514D01*
X122682364Y-62878573D01*
X122741432Y-62835336D01*
X122785622Y-62781545D01*
X122812136Y-62723939D01*
X122820974Y-62662518D01*
X122801232Y-62578684D01*
X122742004Y-62521745D01*
X122806096Y-62459943D01*
X122829272Y-62414163D01*
X122836997Y-62359227D01*
X122827269Y-62285153D01*
X122798085Y-62220108D01*
X122749444Y-62164092D01*
X122685924Y-62121173D01*
X122612105Y-62095422D01*
X122527984Y-62086838D01*
X122449777Y-62095422D01*
X122378437Y-62121173D01*
X122313964Y-62164092D01*
X122263098Y-62218328D01*
X122232578Y-62278032D01*
X122222405Y-62343205D01*
X121936467Y-62343205D01*
X121928843Y-62285153D01*
X121899658Y-62220108D01*
X121888284Y-62207010D01*
X121970617Y-62207010D01*
X121976768Y-62260372D01*
X121995223Y-62294564D01*
X122029129Y-62313019D01*
X122081632Y-62319170D01*
X122166325Y-62294564D01*
X122184351Y-62260658D01*
X122190359Y-62208155D01*
X122165753Y-62123462D01*
X122080488Y-62099428D01*
X121995223Y-62123462D01*
X121970617Y-62207010D01*
X121888284Y-62207010D01*
X121851017Y-62164092D01*
X121787498Y-62121173D01*
X121713678Y-62095422D01*
X121629558Y-62086838D01*
X121551351Y-62095422D01*
X121480011Y-62121173D01*
X121415538Y-62164092D01*
X121364672Y-62218328D01*
X121334152Y-62278032D01*
X121323979Y-62343205D01*
X121133230Y-62343205D01*
X121133230Y-61991464D01*
X121323979Y-61991464D01*
X121629558Y-61991464D01*
G37*
G36*
X82885675Y-80134398D02*
G01*
X82885675Y-80325147D01*
X82380000Y-80662264D01*
X81874325Y-80325147D01*
X81874325Y-80134398D01*
X81874325Y-79552996D01*
X81976567Y-79552996D01*
X82032647Y-79614799D01*
X82277568Y-79767016D01*
X82032647Y-79926101D01*
X81976567Y-79989620D01*
X82004034Y-80073740D01*
X82069843Y-80128676D01*
X82144807Y-80103497D01*
X82485866Y-79875743D01*
X82686152Y-79875743D01*
X82725637Y-79874026D01*
X82756538Y-79863154D01*
X82782289Y-79831108D01*
X82790300Y-79770450D01*
X82782289Y-79709792D01*
X82755966Y-79677746D01*
X82723920Y-79666873D01*
X82683863Y-79665157D01*
X82485866Y-79665157D01*
X82144807Y-79437403D01*
X82068126Y-79412224D01*
X82004034Y-79468304D01*
X81980000Y-79516373D01*
X81976567Y-79552996D01*
X81874325Y-79552996D01*
X81874325Y-79405357D01*
X81874325Y-78737736D01*
X82885675Y-78737736D01*
X82885675Y-79405357D01*
X82885675Y-79770450D01*
X82885675Y-80134398D01*
G37*
G36*
X124474622Y-74305794D02*
G01*
X124507527Y-74384478D01*
X124476768Y-74458870D01*
X124403092Y-74488913D01*
X124248585Y-74488913D01*
X124248585Y-74280043D01*
X124405953Y-74280043D01*
X124474622Y-74305794D01*
G37*
G36*
X127029165Y-74013412D02*
G01*
X127104808Y-74067597D01*
X127155774Y-74148605D01*
X127172763Y-74247139D01*
X127155595Y-74344957D01*
X127104093Y-74426681D01*
X127028628Y-74481938D01*
X126939572Y-74500358D01*
X126849444Y-74481938D01*
X126773621Y-74426681D01*
X126722119Y-74344957D01*
X126704952Y-74247139D01*
X126722298Y-74151288D01*
X126774336Y-74069742D01*
X126849980Y-74013948D01*
X126938142Y-73995351D01*
X127029165Y-74013412D01*
G37*
G36*
X124614823Y-73495112D02*
G01*
X125440288Y-73495112D01*
X126252877Y-73495112D01*
X126945295Y-73495112D01*
X127842291Y-73495112D01*
X128209959Y-73495112D01*
X128448395Y-73495112D01*
X128951653Y-74250000D01*
X128448395Y-75004888D01*
X128209959Y-75004888D01*
X123986783Y-75004888D01*
X123748347Y-75004888D01*
X123748347Y-73882332D01*
X123986783Y-73882332D01*
X123986783Y-74620529D01*
X123988929Y-74668455D01*
X124002519Y-74707797D01*
X124042577Y-74740701D01*
X124118399Y-74750715D01*
X124405953Y-74750715D01*
X124464072Y-74744993D01*
X124523979Y-74727825D01*
X124583707Y-74699928D01*
X124641289Y-74662017D01*
X124692612Y-74611409D01*
X124733564Y-74545422D01*
X124760388Y-74467990D01*
X124769329Y-74383047D01*
X124755341Y-74275910D01*
X124713376Y-74183397D01*
X124651143Y-74114092D01*
X124843721Y-74114092D01*
X124843721Y-74347282D01*
X124845867Y-74396638D01*
X124859458Y-74435265D01*
X124899515Y-74467454D01*
X124973907Y-74477468D01*
X125048299Y-74467454D01*
X125088356Y-74434549D01*
X125101947Y-74395207D01*
X125104093Y-74345851D01*
X125104093Y-74114092D01*
X125131275Y-74038269D01*
X125207097Y-74011087D01*
X125282205Y-74038984D01*
X125310102Y-74114092D01*
X125310102Y-74348712D01*
X125312248Y-74396638D01*
X125325838Y-74435265D01*
X125365180Y-74467454D01*
X125440288Y-74477468D01*
X125514680Y-74467454D01*
X125554737Y-74434549D01*
X125568328Y-74395207D01*
X125570474Y-74347282D01*
X125570474Y-73880901D01*
X125656311Y-73880901D01*
X125656311Y-74351574D01*
X125659172Y-74398784D01*
X125672763Y-74435980D01*
X125712105Y-74466738D01*
X125786497Y-74476037D01*
X125853735Y-74467454D01*
X125892362Y-74443848D01*
X125908099Y-74416667D01*
X125912391Y-74387339D01*
X125988929Y-74448856D01*
X126092648Y-74476037D01*
X126178167Y-74464751D01*
X126249698Y-74430893D01*
X126307241Y-74374464D01*
X126349364Y-74300389D01*
X126366537Y-74241416D01*
X126443149Y-74241416D01*
X126452090Y-74346030D01*
X126478914Y-74442418D01*
X126523621Y-74530579D01*
X126586210Y-74610515D01*
X126661586Y-74676860D01*
X126744651Y-74724249D01*
X126835406Y-74752682D01*
X126933850Y-74762160D01*
X127034351Y-74752817D01*
X127126983Y-74724785D01*
X127211747Y-74678067D01*
X127288643Y-74612661D01*
X127352484Y-74533754D01*
X127398085Y-74446531D01*
X127425445Y-74350992D01*
X127434565Y-74247139D01*
X127425579Y-74145073D01*
X127398621Y-74050608D01*
X127364120Y-73983906D01*
X127476053Y-73983906D01*
X127536139Y-74075465D01*
X127595589Y-74108528D01*
X127657582Y-74098991D01*
X127722119Y-74046853D01*
X127780059Y-73994635D01*
X127836568Y-73981044D01*
X127920974Y-74001788D01*
X127946725Y-74068312D01*
X127909529Y-74112661D01*
X127797226Y-74146280D01*
X127729093Y-74164700D01*
X127674909Y-74184192D01*
X127594794Y-74229971D01*
X127537570Y-74291488D01*
X127503235Y-74368741D01*
X127491790Y-74461731D01*
X127502440Y-74544468D01*
X127534390Y-74617191D01*
X127587641Y-74679900D01*
X127657105Y-74727984D01*
X127737697Y-74756835D01*
X127829415Y-74766452D01*
X127937347Y-74756915D01*
X128028430Y-74728302D01*
X128102663Y-74680615D01*
X128154165Y-74606938D01*
X128119830Y-74518956D01*
X128035424Y-74449571D01*
X127939572Y-74476037D01*
X127923120Y-74489628D01*
X127903092Y-74506080D01*
X127875195Y-74516810D01*
X127827984Y-74521817D01*
X127775052Y-74503934D01*
X127752162Y-74460300D01*
X127777198Y-74413805D01*
X127833707Y-74388770D01*
X127920974Y-74370887D01*
X128012534Y-74348712D01*
X128093542Y-74311516D01*
X128156311Y-74257153D01*
X128196547Y-74179542D01*
X128209959Y-74072604D01*
X128203879Y-74004292D01*
X128185638Y-73942418D01*
X128123406Y-73845851D01*
X128035424Y-73782189D01*
X127937426Y-73745708D01*
X127842291Y-73734979D01*
X127762176Y-73741416D01*
X127694937Y-73757153D01*
X127639859Y-73780758D01*
X127595509Y-73807940D01*
X127561175Y-73835837D01*
X127536139Y-73860873D01*
X127520402Y-73880901D01*
X127511818Y-73890916D01*
X127476053Y-73983906D01*
X127364120Y-73983906D01*
X127353691Y-73963743D01*
X127290788Y-73884478D01*
X127215279Y-73818446D01*
X127132527Y-73771280D01*
X127042532Y-73742981D01*
X126945295Y-73733548D01*
X126845331Y-73742847D01*
X126752877Y-73770744D01*
X126667934Y-73817239D01*
X126590502Y-73882332D01*
X126526035Y-73960569D01*
X126479987Y-74046495D01*
X126452359Y-74140111D01*
X126443149Y-74241416D01*
X126366537Y-74241416D01*
X126374638Y-74213599D01*
X126383063Y-74114092D01*
X126383063Y-73879471D01*
X126380917Y-73831545D01*
X126367326Y-73792918D01*
X126327984Y-73760730D01*
X126252877Y-73750715D01*
X126177055Y-73760730D01*
X126136997Y-73793634D01*
X126123406Y-73832976D01*
X126121261Y-73880901D01*
X126121261Y-74114092D01*
X126094794Y-74189914D01*
X126019687Y-74217096D01*
X125943864Y-74189199D01*
X125915252Y-74114092D01*
X125915252Y-73879471D01*
X125913106Y-73831545D01*
X125899515Y-73792918D01*
X125859458Y-73760730D01*
X125785066Y-73750715D01*
X125711389Y-73760730D01*
X125672047Y-73792918D01*
X125658457Y-73831545D01*
X125656311Y-73880901D01*
X125570474Y-73880901D01*
X125570474Y-73876609D01*
X125569758Y-73838698D01*
X125561890Y-73805794D01*
X125541861Y-73776466D01*
X125503235Y-73758584D01*
X125440288Y-73750715D01*
X125354808Y-73767525D01*
X125315824Y-73817954D01*
X125246082Y-73768598D01*
X125168471Y-73752146D01*
X125081044Y-73763750D01*
X125003791Y-73798561D01*
X124936711Y-73856581D01*
X124885050Y-73931609D01*
X124854053Y-74017446D01*
X124843721Y-74114092D01*
X124651143Y-74114092D01*
X124643435Y-74105508D01*
X124746439Y-73968169D01*
X124785066Y-73869456D01*
X124716396Y-73785050D01*
X124614823Y-73745708D01*
X124534708Y-73812232D01*
X124381632Y-74019671D01*
X124248585Y-74019671D01*
X124248585Y-73880901D01*
X124246439Y-73831545D01*
X124232849Y-73792918D01*
X124192791Y-73760730D01*
X124116969Y-73750715D01*
X124042577Y-73760730D01*
X124002519Y-73793634D01*
X123988929Y-73832976D01*
X123986783Y-73882332D01*
X123748347Y-73882332D01*
X123748347Y-73495112D01*
X123986783Y-73495112D01*
X124614823Y-73495112D01*
G37*
D12*
X129560000Y-70130000D02*
X130230000Y-70130000D01*
X129560000Y-71350000D02*
X129560000Y-70130000D01*
X129560000Y-75630000D02*
X129560000Y-74410000D01*
X130230000Y-75630000D02*
X129560000Y-75630000D01*
X131390000Y-70130000D02*
X132060000Y-70130000D01*
X131560000Y-71380000D02*
X132060000Y-71380000D01*
X131560000Y-74380000D02*
X131560000Y-71380000D01*
X132060000Y-71380000D02*
X132060000Y-71830000D01*
X132060000Y-74130000D02*
X133360000Y-74130000D01*
X132060000Y-74380000D02*
X131560000Y-74380000D01*
X132060000Y-75630000D02*
X131390000Y-75630000D01*
X132060000Y-75630000D02*
X132060000Y-70130000D01*
X133360000Y-72930000D02*
X132060000Y-72930000D01*
X133360000Y-74130000D02*
X133360000Y-72930000D01*
D10*
G36*
X80274320Y-64734979D02*
G01*
X80313376Y-64832618D01*
X80313376Y-65031617D01*
X80041845Y-65031617D01*
X80041845Y-64830758D01*
X80075322Y-64738698D01*
X80177611Y-64694993D01*
X80274320Y-64734979D01*
G37*
G36*
X80126234Y-61760229D02*
G01*
X80232475Y-61827182D01*
X80304310Y-61925286D01*
X80328255Y-62041059D01*
X80304310Y-62158226D01*
X80232475Y-62256795D01*
X80126234Y-62323748D01*
X79999070Y-62346066D01*
X79874464Y-62323516D01*
X79768455Y-62255866D01*
X79695923Y-62157529D01*
X79671745Y-62042918D01*
X79695225Y-61924589D01*
X79765665Y-61826252D01*
X79870976Y-61759996D01*
X79999070Y-61737911D01*
X80126234Y-61760229D01*
G37*
G36*
X81137268Y-59428040D02*
G01*
X81137268Y-65371960D01*
X81137268Y-65836910D01*
X78862732Y-65836910D01*
X78862732Y-65371960D01*
X78862732Y-65202718D01*
X79353720Y-65202718D01*
X79366738Y-65299428D01*
X79409514Y-65351502D01*
X79460658Y-65369170D01*
X79524821Y-65371960D01*
X80484478Y-65371960D01*
X80546781Y-65369170D01*
X80597926Y-65351502D01*
X80640701Y-65299428D01*
X80653720Y-65200858D01*
X80653720Y-64830758D01*
X80646280Y-64754971D01*
X80623963Y-64676395D01*
X80587697Y-64598283D01*
X80538412Y-64523891D01*
X80472622Y-64457636D01*
X80386838Y-64403934D01*
X80286177Y-64368366D01*
X80175751Y-64356509D01*
X80065790Y-64368133D01*
X79966524Y-64403004D01*
X79882135Y-64456241D01*
X79816810Y-64522961D01*
X79767525Y-64598283D01*
X79731259Y-64677325D01*
X79708941Y-64756599D01*
X79701502Y-64832618D01*
X79701502Y-65031617D01*
X79522961Y-65031617D01*
X79458798Y-65034406D01*
X79408584Y-65052074D01*
X79366738Y-65104149D01*
X79353720Y-65202718D01*
X78862732Y-65202718D01*
X78862732Y-64109156D01*
X79351860Y-64109156D01*
X79364878Y-64205866D01*
X79407654Y-64257940D01*
X79458798Y-64275608D01*
X79522961Y-64278398D01*
X80484478Y-64278398D01*
X80546781Y-64275608D01*
X80597926Y-64257940D01*
X80640701Y-64205866D01*
X80653720Y-64107296D01*
X80640701Y-64010587D01*
X80597926Y-63958512D01*
X80546781Y-63940844D01*
X80482618Y-63938054D01*
X79521102Y-63938054D01*
X79456938Y-63940844D01*
X79406724Y-63958512D01*
X79364878Y-64010587D01*
X79351860Y-64109156D01*
X78862732Y-64109156D01*
X78862732Y-63186695D01*
X79333262Y-63186695D01*
X79338841Y-63265504D01*
X79355579Y-63349428D01*
X79385569Y-63437303D01*
X79430901Y-63527969D01*
X79489485Y-63615147D01*
X79559227Y-63692561D01*
X79645011Y-63758816D01*
X79751717Y-63812518D01*
X79874928Y-63848087D01*
X80010229Y-63859943D01*
X80140415Y-63848319D01*
X80259442Y-63813448D01*
X80362893Y-63760443D01*
X80446352Y-63694421D01*
X80514235Y-63617006D01*
X80570959Y-63529828D01*
X80614896Y-63438698D01*
X80644421Y-63349428D01*
X80661159Y-63263180D01*
X80666738Y-63181116D01*
X80655166Y-63070354D01*
X80620450Y-62956287D01*
X80562589Y-62838913D01*
X80527253Y-62788698D01*
X80488197Y-62754292D01*
X80432403Y-62736624D01*
X80328255Y-62777539D01*
X80252933Y-62847282D01*
X80227825Y-62911445D01*
X80270601Y-63011874D01*
X80278970Y-63023963D01*
X80289199Y-63039771D01*
X80299428Y-63057439D01*
X80308727Y-63082546D01*
X80316166Y-63112303D01*
X80322675Y-63149499D01*
X80324535Y-63194134D01*
X80305937Y-63300143D01*
X80251073Y-63405222D01*
X80149714Y-63487983D01*
X80079971Y-63511695D01*
X80000930Y-63519599D01*
X79899338Y-63505418D01*
X79814020Y-63462876D01*
X79748695Y-63402665D01*
X79707082Y-63335479D01*
X79677325Y-63194134D01*
X79692668Y-63096030D01*
X79738698Y-63002575D01*
X79775894Y-62909585D01*
X79749392Y-62846352D01*
X79669886Y-62779399D01*
X79562017Y-62738484D01*
X79494134Y-62764521D01*
X79437411Y-62840773D01*
X79379550Y-62951121D01*
X79344834Y-63066428D01*
X79333262Y-63186695D01*
X78862732Y-63186695D01*
X78862732Y-62033619D01*
X79331402Y-62033619D01*
X79343491Y-62163573D01*
X79379757Y-62283763D01*
X79440200Y-62394188D01*
X79524821Y-62494850D01*
X79626529Y-62578657D01*
X79738233Y-62638519D01*
X79859934Y-62674437D01*
X79991631Y-62686409D01*
X80127629Y-62674785D01*
X80252933Y-62639914D01*
X80367543Y-62581795D01*
X80471459Y-62500429D01*
X80557707Y-62402441D01*
X80619313Y-62294456D01*
X80656277Y-62176475D01*
X80668598Y-62048498D01*
X80656451Y-61917847D01*
X80620011Y-61797425D01*
X80559277Y-61687232D01*
X80474249Y-61587268D01*
X80371669Y-61504274D01*
X80258280Y-61444993D01*
X80134080Y-61409424D01*
X79999070Y-61397568D01*
X79866385Y-61409250D01*
X79743580Y-61444295D01*
X79630655Y-61502705D01*
X79527611Y-61584478D01*
X79441769Y-61682640D01*
X79380454Y-61790218D01*
X79343665Y-61907211D01*
X79331402Y-62033619D01*
X78862732Y-62033619D01*
X78862732Y-61176252D01*
X78862732Y-60504864D01*
X79348140Y-60504864D01*
X79348140Y-61176252D01*
X79399285Y-61295279D01*
X79521102Y-61345494D01*
X79615486Y-61328755D01*
X79701502Y-61278541D01*
X79767758Y-61213913D01*
X79836338Y-61124177D01*
X79900268Y-61026073D01*
X79952575Y-60936338D01*
X80004649Y-60855669D01*
X80067883Y-60784764D01*
X80137625Y-60735247D01*
X80209227Y-60718741D01*
X80258512Y-60725250D01*
X80306867Y-60766166D01*
X80331974Y-60860086D01*
X80293383Y-60968884D01*
X80177611Y-61005150D01*
X80118097Y-61007940D01*
X80070672Y-61025608D01*
X80031617Y-61077682D01*
X80019528Y-61176252D01*
X80032546Y-61272961D01*
X80075322Y-61325036D01*
X80126466Y-61342704D01*
X80190629Y-61345494D01*
X80309450Y-61330615D01*
X80420418Y-61285980D01*
X80523534Y-61211588D01*
X80606191Y-61113225D01*
X80655786Y-60996678D01*
X80672318Y-60861946D01*
X80656406Y-60733619D01*
X80608671Y-60618932D01*
X80529113Y-60517883D01*
X80426824Y-60439358D01*
X80310897Y-60392243D01*
X80181330Y-60376538D01*
X80087411Y-60385604D01*
X79999070Y-60412804D01*
X79920029Y-60454882D01*
X79854006Y-60508584D01*
X79756366Y-60622031D01*
X79690343Y-60733619D01*
X79690343Y-60501144D01*
X79686624Y-60436981D01*
X79668026Y-60386767D01*
X79615951Y-60344921D01*
X79517382Y-60331903D01*
X79421602Y-60344921D01*
X79370458Y-60387697D01*
X79351860Y-60440701D01*
X79348140Y-60504864D01*
X78862732Y-60504864D01*
X78862732Y-59879971D01*
X79327682Y-59879971D01*
X79335819Y-59980401D01*
X79360229Y-60073391D01*
X79424392Y-60199857D01*
X79457868Y-60238913D01*
X79571316Y-60309585D01*
X79697783Y-60240773D01*
X79761016Y-60125465D01*
X79699642Y-59998999D01*
X79669886Y-59891130D01*
X79697783Y-59801860D01*
X79775894Y-59770243D01*
X79853076Y-59803720D01*
X79883763Y-59885551D01*
X79857725Y-59958083D01*
X79813090Y-60062232D01*
X79850286Y-60183119D01*
X79906080Y-60265880D01*
X79960014Y-60289127D01*
X80488197Y-60220315D01*
X80540272Y-60211016D01*
X80591416Y-60189628D01*
X80640701Y-60137554D01*
X80657439Y-60049213D01*
X80655579Y-59623319D01*
X80651860Y-59559156D01*
X80634192Y-59508941D01*
X80582117Y-59467096D01*
X80480758Y-59454077D01*
X80387768Y-59466166D01*
X80338484Y-59506152D01*
X80321745Y-59554506D01*
X80318956Y-59614020D01*
X80318956Y-59900429D01*
X80220386Y-59913448D01*
X80224106Y-59881831D01*
X80224106Y-59872532D01*
X80209537Y-59759498D01*
X80165832Y-59655969D01*
X80092990Y-59561946D01*
X80000930Y-59487554D01*
X79899571Y-59442918D01*
X79788913Y-59428040D01*
X79665649Y-59442505D01*
X79556231Y-59485900D01*
X79460658Y-59558226D01*
X79386783Y-59651836D01*
X79342457Y-59759084D01*
X79327682Y-59879971D01*
X78862732Y-59879971D01*
X78862732Y-59428040D01*
X78862732Y-58963090D01*
X81137268Y-58963090D01*
X81137268Y-59428040D01*
G37*
G36*
X123077627Y-70957940D02*
G01*
X123110531Y-71036624D01*
X123079773Y-71111016D01*
X123006096Y-71141059D01*
X122851590Y-71141059D01*
X122851590Y-70932189D01*
X123008957Y-70932189D01*
X123077627Y-70957940D01*
G37*
G36*
X123941003Y-70957940D02*
G01*
X123974622Y-71036624D01*
X123943864Y-71111016D01*
X123868757Y-71141059D01*
X123715681Y-71141059D01*
X123715681Y-70932189D01*
X123870188Y-70932189D01*
X123941003Y-70957940D01*
G37*
G36*
X126074229Y-70665558D02*
G01*
X126149873Y-70719742D01*
X126200838Y-70800751D01*
X126217827Y-70899285D01*
X126200660Y-70997103D01*
X126149158Y-71078827D01*
X126073693Y-71134084D01*
X125984637Y-71152504D01*
X125894508Y-71134084D01*
X125818685Y-71078827D01*
X125767183Y-70997103D01*
X125750016Y-70899285D01*
X125767362Y-70803433D01*
X125819401Y-70721888D01*
X125895045Y-70666094D01*
X125983206Y-70647496D01*
X126074229Y-70665558D01*
G37*
G36*
X127105703Y-70665558D02*
G01*
X127181346Y-70719742D01*
X127232312Y-70800751D01*
X127249301Y-70899285D01*
X127232133Y-70997103D01*
X127180631Y-71078827D01*
X127105166Y-71134084D01*
X127016110Y-71152504D01*
X126925982Y-71134084D01*
X126850159Y-71078827D01*
X126798657Y-70997103D01*
X126781489Y-70899285D01*
X126798836Y-70803433D01*
X126850874Y-70721888D01*
X126926518Y-70666094D01*
X127014680Y-70647496D01*
X127105703Y-70665558D01*
G37*
G36*
X125126268Y-70666094D02*
G01*
X125148442Y-70673963D01*
X125169901Y-70698283D01*
X125177770Y-70743348D01*
X125159172Y-70802718D01*
X125099086Y-70816309D01*
X125080488Y-70816309D01*
X124998943Y-70841345D01*
X124974622Y-70926466D01*
X125000374Y-71008727D01*
X125087641Y-71032332D01*
X125104808Y-71032332D01*
X125139143Y-71042346D01*
X125149158Y-71086695D01*
X125134136Y-71131044D01*
X125074766Y-71142489D01*
X124901661Y-71142489D01*
X124901661Y-70664664D01*
X125106239Y-70664664D01*
X125126268Y-70666094D01*
G37*
G36*
X122369472Y-70147258D02*
G01*
X123217827Y-70147258D01*
X123584065Y-70147258D01*
X124425266Y-70147258D01*
X124770045Y-70147258D01*
X125990359Y-70147258D01*
X127021833Y-70147258D01*
X127987498Y-70147258D01*
X128425266Y-70147258D01*
X128663702Y-70147258D01*
X129165530Y-70900000D01*
X128663702Y-71652742D01*
X128425266Y-71652742D01*
X121772906Y-71652742D01*
X121534470Y-71652742D01*
X121534470Y-70533047D01*
X121772906Y-70533047D01*
X121772906Y-71003720D01*
X121775767Y-71050930D01*
X121789358Y-71088126D01*
X121828700Y-71118884D01*
X121903092Y-71128183D01*
X121970331Y-71119599D01*
X122008957Y-71095994D01*
X122024694Y-71068813D01*
X122028986Y-71039485D01*
X122105524Y-71101001D01*
X122209243Y-71128183D01*
X122294762Y-71116897D01*
X122366293Y-71083039D01*
X122423836Y-71026609D01*
X122465959Y-70952535D01*
X122491234Y-70865745D01*
X122499658Y-70766237D01*
X122499658Y-70534478D01*
X122589787Y-70534478D01*
X122589787Y-71272675D01*
X122591933Y-71320601D01*
X122605524Y-71359943D01*
X122645581Y-71392847D01*
X122721404Y-71402861D01*
X123008957Y-71402861D01*
X123067076Y-71397139D01*
X123126983Y-71379971D01*
X123186711Y-71352074D01*
X123244293Y-71314163D01*
X123295617Y-71263555D01*
X123336568Y-71197568D01*
X123363392Y-71120136D01*
X123372333Y-71035193D01*
X123358345Y-70928056D01*
X123316381Y-70835543D01*
X123246439Y-70757654D01*
X123349444Y-70620315D01*
X123383032Y-70534478D01*
X123453879Y-70534478D01*
X123453879Y-71272675D01*
X123456024Y-71320601D01*
X123469615Y-71359943D01*
X123509673Y-71392847D01*
X123585495Y-71402861D01*
X123870188Y-71402861D01*
X123928485Y-71397139D01*
X123988929Y-71379971D01*
X124049014Y-71352074D01*
X124106239Y-71314163D01*
X124157205Y-71263555D01*
X124198514Y-71197568D01*
X124225874Y-71120136D01*
X124234994Y-71035193D01*
X124226053Y-70950608D01*
X124199229Y-70874249D01*
X124158278Y-70809335D01*
X124106954Y-70759084D01*
X124049014Y-70721173D01*
X123988213Y-70693276D01*
X123927233Y-70676109D01*
X123868757Y-70670386D01*
X123715681Y-70670386D01*
X123715681Y-70533047D01*
X124295080Y-70533047D01*
X124295080Y-71272675D01*
X124297226Y-71320601D01*
X124310817Y-71359943D01*
X124350874Y-71392847D01*
X124426697Y-71402861D01*
X124501089Y-71392847D01*
X124541146Y-71359943D01*
X124554737Y-71320601D01*
X124556883Y-71271245D01*
X124556883Y-70535908D01*
X124639859Y-70535908D01*
X124639859Y-71274106D01*
X124642004Y-71322031D01*
X124655595Y-71361373D01*
X124695653Y-71394278D01*
X124771475Y-71404292D01*
X125106239Y-71404292D01*
X125186830Y-71394198D01*
X125258838Y-71363917D01*
X125322262Y-71313448D01*
X125371539Y-71249150D01*
X125401105Y-71177380D01*
X125410960Y-71098140D01*
X125399158Y-71014449D01*
X125363750Y-70937911D01*
X125388844Y-70893562D01*
X125488213Y-70893562D01*
X125497155Y-70998176D01*
X125523979Y-71094564D01*
X125568685Y-71182725D01*
X125631275Y-71262661D01*
X125706650Y-71329006D01*
X125789715Y-71376395D01*
X125880470Y-71404828D01*
X125978914Y-71414306D01*
X126079415Y-71404962D01*
X126172047Y-71376931D01*
X126256811Y-71330213D01*
X126333707Y-71264807D01*
X126397548Y-71185899D01*
X126443149Y-71098677D01*
X126470509Y-71003138D01*
X126479630Y-70899285D01*
X126479126Y-70893562D01*
X126519687Y-70893562D01*
X126528628Y-70998176D01*
X126555452Y-71094564D01*
X126600159Y-71182725D01*
X126662748Y-71262661D01*
X126738124Y-71329006D01*
X126821189Y-71376395D01*
X126911944Y-71404828D01*
X127010388Y-71414306D01*
X127110889Y-71404962D01*
X127203521Y-71376931D01*
X127288285Y-71330213D01*
X127329019Y-71295565D01*
X127552591Y-71295565D01*
X127561175Y-71357797D01*
X127589072Y-71390701D01*
X127621976Y-71402146D01*
X127662748Y-71404292D01*
X128316540Y-71404292D01*
X128357312Y-71402146D01*
X128389501Y-71390701D01*
X128416683Y-71357082D01*
X128425266Y-71294134D01*
X128416683Y-71231187D01*
X128388786Y-71197568D01*
X128355881Y-71186123D01*
X128315109Y-71183977D01*
X128117684Y-71183977D01*
X128117684Y-70528755D01*
X128115538Y-70480830D01*
X128101947Y-70442918D01*
X128061890Y-70411445D01*
X127987498Y-70401431D01*
X127913821Y-70411445D01*
X127875195Y-70443634D01*
X127862319Y-70482260D01*
X127860173Y-70530186D01*
X127860173Y-71183977D01*
X127661318Y-71183977D01*
X127620545Y-71186123D01*
X127588356Y-71197568D01*
X127561175Y-71231187D01*
X127552591Y-71295565D01*
X127329019Y-71295565D01*
X127365180Y-71264807D01*
X127429022Y-71185899D01*
X127474622Y-71098677D01*
X127501983Y-71003138D01*
X127511103Y-70899285D01*
X127502117Y-70797219D01*
X127475159Y-70702754D01*
X127430229Y-70615889D01*
X127367326Y-70536624D01*
X127291817Y-70470592D01*
X127209065Y-70423426D01*
X127119070Y-70395127D01*
X127021833Y-70385694D01*
X126921869Y-70394993D01*
X126829415Y-70422890D01*
X126744472Y-70469385D01*
X126667040Y-70534478D01*
X126602573Y-70612715D01*
X126556525Y-70698641D01*
X126528896Y-70792257D01*
X126519687Y-70893562D01*
X126479126Y-70893562D01*
X126470644Y-70797219D01*
X126443685Y-70702754D01*
X126398755Y-70615889D01*
X126335853Y-70536624D01*
X126260343Y-70470592D01*
X126177591Y-70423426D01*
X126087596Y-70395127D01*
X125990359Y-70385694D01*
X125890395Y-70394993D01*
X125797942Y-70422890D01*
X125712999Y-70469385D01*
X125635567Y-70534478D01*
X125571100Y-70612715D01*
X125525052Y-70698641D01*
X125497423Y-70792257D01*
X125488213Y-70893562D01*
X125388844Y-70893562D01*
X125420617Y-70837411D01*
X125439572Y-70727611D01*
X125428366Y-70641615D01*
X125396654Y-70564839D01*
X125344436Y-70497282D01*
X125277913Y-70444826D01*
X125203282Y-70413352D01*
X125120545Y-70402861D01*
X124770045Y-70402861D01*
X124695653Y-70412876D01*
X124655595Y-70445780D01*
X124642004Y-70485837D01*
X124639859Y-70535908D01*
X124556883Y-70535908D01*
X124556883Y-70531617D01*
X124554737Y-70482260D01*
X124541146Y-70443634D01*
X124501089Y-70411445D01*
X124425266Y-70401431D01*
X124350874Y-70411445D01*
X124310817Y-70444349D01*
X124297226Y-70483691D01*
X124295080Y-70533047D01*
X123715681Y-70533047D01*
X123713535Y-70483691D01*
X123699944Y-70445064D01*
X123659887Y-70412876D01*
X123584065Y-70402861D01*
X123509673Y-70412876D01*
X123469615Y-70445780D01*
X123456024Y-70485122D01*
X123453879Y-70534478D01*
X123383032Y-70534478D01*
X123388070Y-70521602D01*
X123319401Y-70437196D01*
X123217827Y-70397854D01*
X123137713Y-70464378D01*
X122984637Y-70671817D01*
X122851590Y-70671817D01*
X122851590Y-70533047D01*
X122849444Y-70483691D01*
X122835853Y-70445064D01*
X122795796Y-70412876D01*
X122719973Y-70402861D01*
X122645581Y-70412876D01*
X122605524Y-70445780D01*
X122591933Y-70485122D01*
X122589787Y-70534478D01*
X122499658Y-70534478D01*
X122499658Y-70531617D01*
X122497512Y-70483691D01*
X122483921Y-70445064D01*
X122444580Y-70412876D01*
X122369472Y-70402861D01*
X122293650Y-70412876D01*
X122253592Y-70445780D01*
X122240002Y-70485122D01*
X122237856Y-70533047D01*
X122237856Y-70766237D01*
X122211389Y-70842060D01*
X122136282Y-70869242D01*
X122060459Y-70841345D01*
X122031847Y-70766237D01*
X122031847Y-70531617D01*
X122029701Y-70483691D01*
X122016110Y-70445064D01*
X121976053Y-70412876D01*
X121901661Y-70402861D01*
X121827984Y-70412876D01*
X121788643Y-70445064D01*
X121775052Y-70483691D01*
X121772906Y-70533047D01*
X121534470Y-70533047D01*
X121534470Y-70147258D01*
X121772906Y-70147258D01*
X122369472Y-70147258D01*
G37*
G36*
X86969868Y-75459747D02*
G01*
X87093473Y-75459747D01*
X87284222Y-75459747D01*
X87624390Y-75970000D01*
X87284222Y-76480253D01*
X87093473Y-76480253D01*
X86323230Y-76480253D01*
X85655610Y-76480253D01*
X85655610Y-75670143D01*
X86323802Y-75670143D01*
X86363287Y-75743963D01*
X86568151Y-75969428D01*
X86362143Y-76194893D01*
X86323802Y-76268140D01*
X86367865Y-76342532D01*
X86445691Y-76383162D01*
X86515505Y-76335665D01*
X86708924Y-76123934D01*
X86901199Y-76335665D01*
X86971013Y-76383162D01*
X87048838Y-76342532D01*
X87093473Y-76268140D01*
X87054560Y-76194893D01*
X86848552Y-75969428D01*
X87053416Y-75743963D01*
X87092901Y-75670143D01*
X87047694Y-75597468D01*
X86969868Y-75556838D01*
X86900054Y-75604335D01*
X86708924Y-75814921D01*
X86516649Y-75604335D01*
X86446835Y-75556838D01*
X86369010Y-75597468D01*
X86323802Y-75670143D01*
X85655610Y-75670143D01*
X85655610Y-75459747D01*
X86323230Y-75459747D01*
X86969868Y-75459747D01*
G37*
D11*
X81416359Y-73360000D02*
X81723641Y-73360000D01*
X81416359Y-74120000D02*
X81723641Y-74120000D01*
X102037500Y-32712980D02*
X101037500Y-32712980D01*
X102037500Y-35532980D02*
X101247500Y-35532980D01*
X100917500Y-35812980D02*
X100637500Y-35532980D01*
X100917500Y-35532980D01*
X100917500Y-35812980D01*
G36*
X100917500Y-35812980D02*
G01*
X100637500Y-35532980D01*
X100917500Y-35532980D01*
X100917500Y-35812980D01*
G37*
D10*
G36*
X88188913Y-67590081D02*
G01*
X88114950Y-67437434D01*
X88262876Y-67437434D01*
X88188913Y-67590081D01*
G37*
G36*
X86948856Y-70460992D02*
G01*
X86985050Y-70547544D01*
X86951216Y-70629375D01*
X86870172Y-70662423D01*
X86700215Y-70662423D01*
X86700215Y-70432666D01*
X86873319Y-70432666D01*
X86948856Y-70460992D01*
G37*
G36*
X88901001Y-68696638D02*
G01*
X88941130Y-68744635D01*
X88961588Y-68815451D01*
X88970243Y-68884692D01*
X88971030Y-68947639D01*
X88971030Y-68955508D01*
X88962670Y-69078058D01*
X88937589Y-69165594D01*
X88895789Y-69218115D01*
X88837268Y-69235622D01*
X88778058Y-69218017D01*
X88735765Y-69165200D01*
X88710390Y-69077173D01*
X88701931Y-68953934D01*
X88710291Y-68832073D01*
X88735372Y-68745029D01*
X88777173Y-68692802D01*
X88835694Y-68675393D01*
X88901001Y-68696638D01*
G37*
G36*
X86542847Y-66545160D02*
G01*
X88533548Y-66545160D01*
X89650858Y-66545160D01*
X89820815Y-66545160D01*
X90214235Y-66545160D01*
X90214235Y-71354840D01*
X89820815Y-71354840D01*
X86379185Y-71354840D01*
X85985765Y-71354840D01*
X85985765Y-69995184D01*
X86412232Y-69995184D01*
X86412232Y-70807201D01*
X86414592Y-70859919D01*
X86429542Y-70903195D01*
X86473605Y-70939390D01*
X86557010Y-70950405D01*
X86873319Y-70950405D01*
X86937250Y-70944111D01*
X87003147Y-70925227D01*
X87068848Y-70894540D01*
X87132189Y-70852837D01*
X87152935Y-70832380D01*
X87331259Y-70832380D01*
X87340701Y-70900835D01*
X87371388Y-70937029D01*
X87407582Y-70949619D01*
X87452432Y-70951979D01*
X88171602Y-70951979D01*
X88216452Y-70949619D01*
X88251860Y-70937029D01*
X88281760Y-70900048D01*
X88291202Y-70830806D01*
X88281760Y-70761564D01*
X88251073Y-70724583D01*
X88214878Y-70711993D01*
X88170029Y-70709633D01*
X87952861Y-70709633D01*
X87952861Y-70405913D01*
X88336838Y-70405913D01*
X88346674Y-70516071D01*
X88376180Y-70616786D01*
X88421030Y-70704322D01*
X88476896Y-70774940D01*
X88542400Y-70832380D01*
X88616166Y-70880377D01*
X88693276Y-70917555D01*
X88768813Y-70942537D01*
X88841792Y-70956700D01*
X88911230Y-70961421D01*
X89004952Y-70951629D01*
X89101470Y-70922254D01*
X89200787Y-70873295D01*
X89243276Y-70843395D01*
X89272389Y-70810348D01*
X89287339Y-70763138D01*
X89252718Y-70675012D01*
X89193705Y-70611278D01*
X89139413Y-70590033D01*
X89054435Y-70626228D01*
X89044206Y-70633309D01*
X89030830Y-70641965D01*
X89015880Y-70650620D01*
X88994635Y-70658488D01*
X88969456Y-70664783D01*
X88937983Y-70670291D01*
X88900215Y-70671865D01*
X88810515Y-70656128D01*
X88721602Y-70609704D01*
X88651574Y-70523939D01*
X88631509Y-70464926D01*
X88624821Y-70398045D01*
X88636820Y-70312083D01*
X88672818Y-70239890D01*
X88723766Y-70184615D01*
X88780615Y-70149404D01*
X88900215Y-70124225D01*
X88983226Y-70137208D01*
X89062303Y-70176156D01*
X89140987Y-70207630D01*
X89194492Y-70185205D01*
X89251144Y-70117930D01*
X89285765Y-70026657D01*
X89263734Y-69969218D01*
X89199213Y-69921221D01*
X89105842Y-69872262D01*
X89008274Y-69842887D01*
X88906509Y-69833095D01*
X88839825Y-69837816D01*
X88768813Y-69851979D01*
X88694456Y-69877355D01*
X88617740Y-69915713D01*
X88543974Y-69965284D01*
X88478469Y-70024297D01*
X88422407Y-70096882D01*
X88376967Y-70187172D01*
X88346871Y-70291428D01*
X88336838Y-70405913D01*
X87952861Y-70405913D01*
X87952861Y-69988889D01*
X87950501Y-69936171D01*
X87935551Y-69894468D01*
X87891488Y-69859847D01*
X87809657Y-69848832D01*
X87728612Y-69859847D01*
X87686123Y-69895255D01*
X87671960Y-69937744D01*
X87669599Y-69990463D01*
X87669599Y-70709633D01*
X87450858Y-70709633D01*
X87406009Y-70711993D01*
X87370601Y-70724583D01*
X87340701Y-70761564D01*
X87331259Y-70832380D01*
X87152935Y-70832380D01*
X87188644Y-70797169D01*
X87233691Y-70724583D01*
X87263197Y-70639407D01*
X87273033Y-70545970D01*
X87257646Y-70428120D01*
X87211485Y-70326355D01*
X87134549Y-70240677D01*
X87247854Y-70089604D01*
X87290343Y-69981021D01*
X87214807Y-69888174D01*
X87103076Y-69844897D01*
X87014950Y-69918073D01*
X86846567Y-70146257D01*
X86700215Y-70146257D01*
X86700215Y-69993610D01*
X86697854Y-69939318D01*
X86682904Y-69896829D01*
X86638841Y-69861421D01*
X86555436Y-69850405D01*
X86473605Y-69861421D01*
X86429542Y-69897616D01*
X86414592Y-69940892D01*
X86412232Y-69995184D01*
X85985765Y-69995184D01*
X85985765Y-68739914D01*
X86379185Y-68739914D01*
X86418526Y-68814270D01*
X86536552Y-68839056D01*
X86623104Y-68821745D01*
X86668741Y-68747783D01*
X86671888Y-68739127D01*
X86683691Y-68720243D01*
X86707296Y-68696638D01*
X86745064Y-68677754D01*
X86800930Y-68669099D01*
X86899285Y-68693491D01*
X86936266Y-68758798D01*
X86905973Y-68827253D01*
X86815093Y-68850072D01*
X86771817Y-68850072D01*
X86735622Y-68857153D01*
X86700215Y-68876824D01*
X86681330Y-68917740D01*
X86671888Y-68986981D01*
X86682117Y-69065665D01*
X86715165Y-69106581D01*
X86755293Y-69119957D01*
X86805651Y-69122318D01*
X86816667Y-69122318D01*
X86889843Y-69132546D01*
X86912661Y-69172675D01*
X86886695Y-69226967D01*
X86815093Y-69246638D01*
X86747425Y-69230901D01*
X86701788Y-69183691D01*
X86653879Y-69118821D01*
X86587784Y-69100461D01*
X86503505Y-69128612D01*
X86425608Y-69215165D01*
X86448426Y-69323748D01*
X86450787Y-69329256D01*
X86459442Y-69346567D01*
X86475179Y-69372532D01*
X86500358Y-69404006D01*
X86534979Y-69437840D01*
X86581402Y-69470100D01*
X86639628Y-69497639D01*
X86712017Y-69516524D01*
X86799356Y-69523605D01*
X86913797Y-69511715D01*
X87011628Y-69476045D01*
X87092847Y-69416595D01*
X87093494Y-69415808D01*
X87291917Y-69415808D01*
X87380043Y-69490558D01*
X87498069Y-69514163D01*
X87570458Y-69424464D01*
X87809657Y-68835550D01*
X87819099Y-68812303D01*
X88067740Y-69424464D01*
X88141702Y-69513376D01*
X88258155Y-69490558D01*
X88348641Y-69415021D01*
X88330544Y-69306438D01*
X88170908Y-68955508D01*
X88413948Y-68955508D01*
X88415916Y-69021602D01*
X88421817Y-69087697D01*
X88434603Y-69157725D01*
X88457225Y-69235622D01*
X88488895Y-69312339D01*
X88528827Y-69378827D01*
X88581938Y-69435283D01*
X88653147Y-69481903D01*
X88739700Y-69513180D01*
X88838841Y-69523605D01*
X88906509Y-69516424D01*
X88935229Y-69513376D01*
X89019814Y-69482690D01*
X89089843Y-69436856D01*
X89142561Y-69381187D01*
X89182493Y-69315486D01*
X89214163Y-69239557D01*
X89236981Y-69161856D01*
X89250358Y-69090844D01*
X89256849Y-69022783D01*
X89259013Y-68953934D01*
X89256652Y-68883315D01*
X89249571Y-68813090D01*
X89235604Y-68740701D01*
X89212589Y-68663591D01*
X89180919Y-68589038D01*
X89140987Y-68524320D01*
X89088662Y-68469635D01*
X89019814Y-68425179D01*
X88936803Y-68395672D01*
X88841989Y-68385837D01*
X88758190Y-68392525D01*
X88683047Y-68412589D01*
X88618723Y-68444653D01*
X88567382Y-68487339D01*
X88490272Y-68591202D01*
X88462142Y-68650215D01*
X88442275Y-68715522D01*
X88420243Y-68840629D01*
X88413948Y-68955508D01*
X88170908Y-68955508D01*
X87957582Y-68486552D01*
X87903290Y-68429113D01*
X87822246Y-68407868D01*
X87734120Y-68427539D01*
X87680615Y-68486552D01*
X87307654Y-69306438D01*
X87291917Y-69415808D01*
X87093494Y-69415808D01*
X87103076Y-69404144D01*
X87153608Y-69342632D01*
X87190065Y-69263424D01*
X87202217Y-69178970D01*
X87175072Y-69063698D01*
X87093634Y-68985408D01*
X87181760Y-68900429D01*
X87213627Y-68837482D01*
X87224249Y-68761946D01*
X87210873Y-68660094D01*
X87170744Y-68570656D01*
X87103863Y-68493634D01*
X87016524Y-68434621D01*
X86915021Y-68399213D01*
X86799356Y-68387411D01*
X86691822Y-68399213D01*
X86593729Y-68434621D01*
X86505079Y-68493634D01*
X86435137Y-68568209D01*
X86393173Y-68650302D01*
X86379185Y-68739914D01*
X85985765Y-68739914D01*
X85985765Y-67110110D01*
X86401216Y-67110110D01*
X86401216Y-67922127D01*
X86403577Y-67974845D01*
X86418526Y-68017334D01*
X86462589Y-68052742D01*
X86545994Y-68063758D01*
X86587697Y-68061397D01*
X86616023Y-68057463D01*
X86636481Y-68050381D01*
X86649857Y-68042513D01*
X86661660Y-68030711D01*
X86671888Y-68019695D01*
X86799356Y-67855986D01*
X86992918Y-67607392D01*
X87312375Y-68018121D01*
X87359585Y-68054316D01*
X87442990Y-68063758D01*
X87524821Y-68052742D01*
X87568097Y-68017334D01*
X87583047Y-67974058D01*
X87586195Y-67918979D01*
X87586195Y-67106962D01*
X87583047Y-67053457D01*
X87582756Y-67052670D01*
X87642847Y-67052670D01*
X87663305Y-67163615D01*
X87822246Y-67492896D01*
X88058298Y-67981927D01*
X88113376Y-68042513D01*
X88190486Y-68065331D01*
X88267203Y-68044087D01*
X88321102Y-67980353D01*
X88716094Y-67163615D01*
X88727614Y-67103028D01*
X88762518Y-67103028D01*
X88816810Y-67204530D01*
X89098498Y-67514545D01*
X88815236Y-67824559D01*
X88762518Y-67925274D01*
X88823104Y-68027563D01*
X88841989Y-68037422D01*
X88930114Y-68083429D01*
X89026109Y-68018121D01*
X89292060Y-67726991D01*
X89556438Y-68018121D01*
X89652432Y-68083429D01*
X89759442Y-68027563D01*
X89820815Y-67925274D01*
X89767310Y-67824559D01*
X89484049Y-67514545D01*
X89765737Y-67204530D01*
X89820029Y-67103028D01*
X89757868Y-67003100D01*
X89650858Y-66947234D01*
X89554864Y-67012542D01*
X89292060Y-67302098D01*
X89027682Y-67012542D01*
X88931688Y-66947234D01*
X88824678Y-67003100D01*
X88762518Y-67103028D01*
X88727614Y-67103028D01*
X88737339Y-67051884D01*
X88650000Y-66974773D01*
X88533548Y-66951955D01*
X88456438Y-67042442D01*
X88384049Y-67191941D01*
X87996924Y-67191941D01*
X87924535Y-67040868D01*
X87845851Y-66953529D01*
X87730973Y-66976347D01*
X87642847Y-67052670D01*
X87582756Y-67052670D01*
X87567310Y-67010968D01*
X87524034Y-66976347D01*
X87441416Y-66965331D01*
X87359585Y-66976347D01*
X87315522Y-67012542D01*
X87300572Y-67055818D01*
X87298212Y-67110110D01*
X87298212Y-67557034D01*
X87114092Y-67306819D01*
X87104649Y-67294230D01*
X87089700Y-67276919D01*
X87069242Y-67261183D01*
X87036195Y-67247020D01*
X86992918Y-67242299D01*
X86922103Y-67258429D01*
X86870172Y-67306819D01*
X86687625Y-67555460D01*
X86687625Y-67106962D01*
X86685265Y-67054244D01*
X86670315Y-67011755D01*
X86626252Y-66976347D01*
X86542847Y-66965331D01*
X86461803Y-66976347D01*
X86419313Y-67011755D01*
X86404363Y-67055031D01*
X86401216Y-67110110D01*
X85985765Y-67110110D01*
X85985765Y-66545160D01*
X86379185Y-66545160D01*
X86542847Y-66545160D01*
G37*
D11*
X84250000Y-74577836D02*
X84250000Y-74362164D01*
X84970000Y-74577836D02*
X84970000Y-74362164D01*
X131310000Y-48386359D02*
X131310000Y-48693641D01*
X132070000Y-48386359D02*
X132070000Y-48693641D01*
X90750000Y-29600000D02*
X90750000Y-77600000D01*
X92310000Y-44700000D02*
X95190000Y-44700000D01*
X92310000Y-45700000D02*
X92310000Y-44700000D01*
X92310000Y-66500000D02*
X92310000Y-67500000D01*
X92310000Y-67500000D02*
X95190000Y-67500000D01*
X94250000Y-81100000D02*
X127250000Y-81100000D01*
X95190000Y-45700000D02*
X95190000Y-44700000D01*
X95190000Y-66500000D02*
X95190000Y-67500000D01*
X127250000Y-26100000D02*
X94250000Y-26100000D01*
X130750000Y-77600000D02*
X130750000Y-29600000D01*
X90750000Y-29600000D02*
G75*
G02*
X94250000Y-26100000I3500000J0D01*
G01*
X94250000Y-81100000D02*
G75*
G02*
X90750000Y-77600000I0J3500000D01*
G01*
X127250000Y-26100000D02*
G75*
G02*
X130750000Y-29600000I1J-3499999D01*
G01*
X130750000Y-77600000D02*
G75*
G02*
X127250000Y-81100000I-3499999J-1D01*
G01*
%LPC*%
D13*
X94046000Y-32650000D03*
X94046000Y-39650000D03*
D14*
X113600000Y-58975000D03*
D15*
X78150000Y-81350000D03*
D14*
X113600000Y-70850000D03*
D15*
X133150000Y-23350000D03*
D16*
X80750000Y-57000000D03*
D17*
X80750000Y-57000000D03*
D18*
X89730000Y-50700000D03*
X82570000Y-50700000D03*
D19*
X89200000Y-52730000D03*
X89200000Y-48670000D03*
X83100000Y-52730000D03*
X83100000Y-48670000D03*
D20*
X103600000Y-30725000D03*
D21*
X123600000Y-30725000D03*
D22*
X89430000Y-58570000D03*
D23*
X106340000Y-72070000D03*
X91840000Y-72070000D03*
D24*
X91840000Y-78030000D03*
X106340000Y-78030000D03*
D15*
X133150000Y-81350000D03*
D18*
X89730000Y-62250000D03*
X82570000Y-62250000D03*
D19*
X89200000Y-64280000D03*
X89200000Y-60220000D03*
X83100000Y-64280000D03*
X83100000Y-60220000D03*
D15*
X78150000Y-23350000D03*
D25*
X131070000Y-64120000D03*
X131070000Y-68420000D03*
D22*
X129610000Y-32980000D03*
X106560000Y-60850000D03*
D26*
X127250000Y-77600000D03*
X127250000Y-29600000D03*
D27*
X129290000Y-46300000D03*
X126210000Y-46300000D03*
X129290000Y-46700000D03*
X126210000Y-46700000D03*
X129290000Y-47100000D03*
X126210000Y-47100000D03*
X129290000Y-47500000D03*
X126210000Y-47500000D03*
X129290000Y-47900000D03*
X126210000Y-47900000D03*
X129290000Y-48300000D03*
X126210000Y-48300000D03*
X129290000Y-48700000D03*
X126210000Y-48700000D03*
X129290000Y-49100000D03*
X126210000Y-49100000D03*
X129290000Y-49500000D03*
X126210000Y-49500000D03*
X129290000Y-49900000D03*
X126210000Y-49900000D03*
X129290000Y-50300000D03*
X126210000Y-50300000D03*
X129290000Y-50700000D03*
X126210000Y-50700000D03*
X129290000Y-51100000D03*
X126210000Y-51100000D03*
X129290000Y-51500000D03*
X126210000Y-51500000D03*
X129290000Y-51900000D03*
X126210000Y-51900000D03*
X129290000Y-52300000D03*
X126210000Y-52300000D03*
X129290000Y-52700000D03*
X126210000Y-52700000D03*
X129290000Y-53100000D03*
X126210000Y-53100000D03*
X129290000Y-53500000D03*
X126210000Y-53500000D03*
X129290000Y-53900000D03*
X126210000Y-53900000D03*
X129290000Y-54300000D03*
X126210000Y-54300000D03*
X129290000Y-54700000D03*
X126210000Y-54700000D03*
X129290000Y-55100000D03*
X126210000Y-55100000D03*
X129290000Y-55500000D03*
X126210000Y-55500000D03*
X129290000Y-55900000D03*
X126210000Y-55900000D03*
X129290000Y-56300000D03*
X126210000Y-56300000D03*
X129290000Y-56700000D03*
X126210000Y-56700000D03*
X129290000Y-57100000D03*
X126210000Y-57100000D03*
X129290000Y-57500000D03*
X126210000Y-57500000D03*
X129290000Y-57900000D03*
X126210000Y-57900000D03*
X129290000Y-58300000D03*
X126210000Y-58300000D03*
X129290000Y-58700000D03*
X126210000Y-58700000D03*
X129290000Y-59100000D03*
X126210000Y-59100000D03*
X129290000Y-59500000D03*
X126210000Y-59500000D03*
X129290000Y-59900000D03*
X126210000Y-59900000D03*
X129290000Y-60300000D03*
X126210000Y-60300000D03*
X129290000Y-60700000D03*
X126210000Y-60700000D03*
X129290000Y-61100000D03*
X126210000Y-61100000D03*
X129290000Y-61500000D03*
X126210000Y-61500000D03*
X129290000Y-61900000D03*
X126210000Y-61900000D03*
X129290000Y-62300000D03*
X126210000Y-62300000D03*
X129290000Y-62700000D03*
X126210000Y-62700000D03*
X129290000Y-63100000D03*
X126210000Y-63100000D03*
X129290000Y-63500000D03*
X126210000Y-63500000D03*
X129290000Y-63900000D03*
X126210000Y-63900000D03*
X129290000Y-64300000D03*
X126210000Y-64300000D03*
X129290000Y-64700000D03*
X126210000Y-64700000D03*
X129290000Y-65100000D03*
X126210000Y-65100000D03*
X129290000Y-65500000D03*
X126210000Y-65500000D03*
X129290000Y-65900000D03*
X126210000Y-65900000D03*
D28*
X124900000Y-63880000D03*
X123880000Y-63880000D03*
X83380000Y-78190000D03*
X82360000Y-78190000D03*
D29*
X101165000Y-39197980D03*
X101165000Y-38697980D03*
X101165000Y-38197980D03*
X101165000Y-37697980D03*
X101165000Y-37197980D03*
X101935000Y-37197980D03*
X101935000Y-37697980D03*
X101935000Y-38197980D03*
X101935000Y-38697980D03*
X101935000Y-39197980D03*
D30*
X123930000Y-62980000D03*
X123930000Y-61960000D03*
D31*
X83610000Y-74970000D03*
X83610000Y-75470000D03*
X83610000Y-75970000D03*
X83610000Y-76470000D03*
X83610000Y-76970000D03*
D32*
X82885000Y-77195000D03*
X82385000Y-77195000D03*
X81885000Y-77195000D03*
D31*
X81160000Y-76970000D03*
X81160000Y-76470000D03*
X81160000Y-75970000D03*
X81160000Y-75470000D03*
X81160000Y-74970000D03*
D32*
X81885000Y-74745000D03*
X82385000Y-74745000D03*
X82885000Y-74745000D03*
D33*
X86915000Y-27050000D03*
X87935000Y-27050000D03*
D34*
X82750000Y-71430000D03*
X83750000Y-71430000D03*
D35*
X85050000Y-67550000D03*
X81450000Y-67550000D03*
D36*
X94970000Y-74810000D03*
X95470000Y-74810000D03*
X95970000Y-74810000D03*
X96470000Y-74810000D03*
X96970000Y-74810000D03*
X96970000Y-75670000D03*
X96470000Y-75670000D03*
X95970000Y-75670000D03*
X95470000Y-75670000D03*
X94970000Y-75670000D03*
D37*
X130740000Y-71380000D03*
X130740000Y-74380000D03*
D38*
X129550000Y-71880000D03*
X129550000Y-73880000D03*
D39*
X130810000Y-75880000D03*
X130810000Y-69880000D03*
D38*
X129550000Y-72880000D03*
D33*
X81060000Y-73740000D03*
X82080000Y-73740000D03*
D29*
X101152500Y-35122980D03*
X101152500Y-34622980D03*
X101152500Y-34122980D03*
X101152500Y-33622980D03*
X101152500Y-33122980D03*
X101922500Y-33122980D03*
X101922500Y-33622980D03*
X101922500Y-34122980D03*
X101922500Y-34622980D03*
X101922500Y-35122980D03*
D40*
X84610000Y-74950000D03*
X84610000Y-73990000D03*
D30*
X131690000Y-49050000D03*
X131690000Y-48030000D03*
D41*
X127250000Y-77600000D03*
X127250000Y-29600000D03*
D27*
X95290000Y-46300000D03*
X92210000Y-46300000D03*
X95290000Y-46700000D03*
X92210000Y-46700000D03*
X95290000Y-47100000D03*
X92210000Y-47100000D03*
X95290000Y-47500000D03*
X92210000Y-47500000D03*
X95290000Y-47900000D03*
X92210000Y-47900000D03*
X95290000Y-48300000D03*
X92210000Y-48300000D03*
X95290000Y-48700000D03*
X92210000Y-48700000D03*
X95290000Y-49100000D03*
X92210000Y-49100000D03*
X95290000Y-49500000D03*
X92210000Y-49500000D03*
X95290000Y-49900000D03*
X92210000Y-49900000D03*
X95290000Y-50300000D03*
X92210000Y-50300000D03*
X95290000Y-50700000D03*
X92210000Y-50700000D03*
X95290000Y-51100000D03*
X92210000Y-51100000D03*
X95290000Y-51500000D03*
X92210000Y-51500000D03*
X95290000Y-51900000D03*
X92210000Y-51900000D03*
X95290000Y-52300000D03*
X92210000Y-52300000D03*
X95290000Y-52700000D03*
X92210000Y-52700000D03*
X95290000Y-53100000D03*
X92210000Y-53100000D03*
X95290000Y-53500000D03*
X92210000Y-53500000D03*
X95290000Y-53900000D03*
X92210000Y-53900000D03*
X95290000Y-54300000D03*
X92210000Y-54300000D03*
X95290000Y-54700000D03*
X92210000Y-54700000D03*
X95290000Y-55100000D03*
X92210000Y-55100000D03*
X95290000Y-55500000D03*
X92210000Y-55500000D03*
X95290000Y-55900000D03*
X92210000Y-55900000D03*
X95290000Y-56300000D03*
X92210000Y-56300000D03*
X95290000Y-56700000D03*
X92210000Y-56700000D03*
X95290000Y-57100000D03*
X92210000Y-57100000D03*
X95290000Y-57500000D03*
X92210000Y-57500000D03*
X95290000Y-57900000D03*
X92210000Y-57900000D03*
X95290000Y-58300000D03*
X92210000Y-58300000D03*
X95290000Y-58700000D03*
X92210000Y-58700000D03*
X95290000Y-59100000D03*
X92210000Y-59100000D03*
X95290000Y-59500000D03*
X92210000Y-59500000D03*
X95290000Y-59900000D03*
X92210000Y-59900000D03*
X95290000Y-60300000D03*
X92210000Y-60300000D03*
X95290000Y-60700000D03*
X92210000Y-60700000D03*
X95290000Y-61100000D03*
X92210000Y-61100000D03*
X95290000Y-61500000D03*
X92210000Y-61500000D03*
X95290000Y-61900000D03*
X92210000Y-61900000D03*
X95290000Y-62300000D03*
X92210000Y-62300000D03*
X95290000Y-62700000D03*
X92210000Y-62700000D03*
X95290000Y-63100000D03*
X92210000Y-63100000D03*
X95290000Y-63500000D03*
X92210000Y-63500000D03*
X95290000Y-63900000D03*
X92210000Y-63900000D03*
X95290000Y-64300000D03*
X92210000Y-64300000D03*
X95290000Y-64700000D03*
X92210000Y-64700000D03*
X95290000Y-65100000D03*
X92210000Y-65100000D03*
X95290000Y-65500000D03*
X92210000Y-65500000D03*
X95290000Y-65900000D03*
X92210000Y-65900000D03*
%LPD*%
M02*
