M48
METRIC,TZ
T1C0.300
T2C0.500
T3C0.500
T4C0.800
T5C0.900
T6C0.900
T7C2.200
T8C2.700
T9C2.950
%
G90
G05
T1
X79300Y-45000
X79300Y-46630
X79300Y-48260
X79300Y-49890
X79300Y-51520
X79300Y-53150
X79300Y-54780
X79300Y-59670
X79300Y-61300
X79300Y-62930
X79300Y-64560
X79300Y-66190
X79300Y-67820
X79300Y-69450
X79300Y-71080
X79300Y-72710
X79300Y-74340
X79300Y-75970
X79300Y-77600
X80850Y-78900
X80950Y-70400
X81450Y-72500
X81810Y-75450
X81810Y-76460
X81975Y-45050
X82050Y-72500
X82070Y-24850
X82250Y-80200
X82550Y-69350
X82810Y-47460
X82900Y-49750
X82900Y-51650
X82950Y-61300
X82950Y-63200
X83700Y-24850
X83880Y-80200
X84320Y-77010
X84400Y-48625
X84475Y-52525
X84480Y-48050
X84480Y-53425
X84510Y-56970
X84830Y-75880
X84960Y-73360
X85020Y-78160
X85060Y-76510
X85064Y-48978
X85110Y-77560
X85140Y-59570
X85330Y-24850
X85390Y-47970
X85510Y-80200
X85800Y-52400
X85800Y-63900
X85848Y-48520
X85848Y-59700
X86120Y-55730
X86125Y-27075
X86150Y-56890
X86450Y-66375
X86452Y-48520
X86452Y-59700
X86861Y-47920
X86960Y-24850
X87140Y-80200
X87175Y-74575
X87200Y-52350
X87200Y-64400
X87220Y-59510
X87400Y-71400
X87500Y-69400
X87790Y-59140
X87825Y-48825
X87825Y-53375
X88220Y-71390
X88360Y-57470
X88470Y-67280
X88590Y-24850
X88770Y-80200
X89260Y-65420
X89400Y-49750
X89400Y-61300
X89400Y-63200
X89425Y-74575
X89450Y-78850
X89500Y-47300
X90170Y-55620
X90220Y-24850
X90400Y-80200
X90580Y-68190
X90720Y-48920
X91150Y-28740
X91150Y-31970
X91150Y-35230
X91150Y-38490
X91150Y-41750
X91173Y-67000
X91173Y-67550
X91360Y-52200
X91370Y-51340
X91370Y-54690
X91380Y-55910
X91430Y-64300
X91460Y-63110
X91500Y-58300
X91550Y-26350
X91850Y-24850
X92030Y-80200
X92450Y-67250
X92990Y-65370
X93014Y-48124
X93071Y-63350
X93071Y-64050
X93110Y-59395
X93175Y-44075
X93262Y-60950
X93262Y-61650
X93480Y-24850
X93640Y-64480
X93653Y-47264
X93660Y-80200
X93670Y-46600
X93707Y-47912
X93886Y-49556
X94096Y-59750
X94096Y-60450
X94134Y-48339
X94150Y-58005
X94150Y-62150
X94150Y-62850
X94200Y-55600
X94210Y-54770
X94280Y-50780
X94314Y-49984
X94430Y-73640
X94475Y-28825
X94520Y-64410
X94550Y-59270
X94570Y-65520
X95110Y-24850
X95120Y-66720
X95140Y-73110
X95290Y-80200
X95375Y-26325
X95484Y-74026
X95550Y-44718
X95550Y-45322
X95610Y-69270
X96030Y-64740
X96050Y-43300
X96050Y-74200
X96100Y-73600
X96610Y-24900
X96634Y-48288
X96650Y-63250
X96920Y-80200
X96940Y-74000
X97000Y-56420
X97190Y-24900
X97560Y-73660
X97600Y-73000
X97680Y-47670
X97925Y-43575
X98170Y-57220
X98257Y-47670
X98400Y-58690
X98550Y-80200
X98600Y-69150
X98833Y-47670
X99000Y-26875
X99130Y-59410
X99350Y-68310
X99410Y-47670
X99410Y-48380
X99625Y-34100
X99649Y-40118
X99650Y-36125
X99955Y-34780
X99955Y-35480
X99974Y-38170
X99982Y-38860
X99982Y-39560
X99997Y-36820
X99997Y-37520
X100002Y-32740
X100002Y-33440
X100100Y-69170
X100100Y-73000
X100180Y-80200
X100450Y-34100
X100525Y-35850
X100553Y-36483
X100600Y-39875
X100610Y-25490
X100625Y-32400
X100650Y-41500
X100990Y-25010
X101600Y-69150
X101600Y-73000
X101810Y-80200
X102200Y-58600
X102350Y-68330
X102450Y-60650
X103100Y-69160
X103100Y-73100
X103440Y-80200
X103540Y-45590
X103900Y-67800
X103950Y-58250
X103950Y-62170
X104040Y-47290
X104090Y-74110
X104213Y-45413
X104280Y-44750
X104550Y-26710
X104680Y-30550
X104707Y-45907
X104713Y-47203
X104780Y-41350
X104820Y-46550
X104980Y-48430
X105030Y-57990
X105050Y-61550
X105070Y-80200
X105150Y-64700
X105207Y-47697
X105286Y-31095
X105310Y-63439
X105390Y-45760
X105700Y-65550
X105800Y-60120
X105800Y-68250
X105890Y-47540
X106150Y-62550
X106340Y-26740
X106600Y-57550
X106650Y-65550
X106700Y-80200
X106728Y-47746
X106750Y-63630
X106800Y-55450
X106890Y-47040
X107100Y-48950
X107100Y-56950
X107223Y-48241
X107230Y-49910
X107360Y-31095
X107490Y-62570
X107700Y-57550
X107800Y-30280
X107912Y-49740
X107940Y-48080
X107950Y-56150
X108050Y-54600
X108060Y-49060
X108270Y-50890
X108330Y-80200
X108340Y-31095
X108407Y-50235
X108435Y-40505
X108650Y-53950
X109160Y-50090
X109350Y-75950
X109350Y-78050
X109350Y-80200
X109450Y-40475
X109530Y-50590
X109640Y-63630
X109990Y-64670
X110213Y-50453
X110310Y-49760
X110450Y-60250
X110500Y-40475
X110560Y-74440
X110570Y-59110
X110707Y-50947
X110840Y-26680
X111149Y-51426
X111420Y-50750
X111450Y-61400
X111450Y-62590
X112475Y-51675
X112580Y-63630
X113310Y-62610
X113550Y-64680
X113620Y-74405
X114330Y-63630
X114820Y-62570
X114950Y-55250
X115220Y-64670
X115390Y-26580
X115780Y-31740
X115840Y-63640
X115850Y-56050
X116050Y-56750
X116160Y-62570
X116180Y-30530
X116250Y-60450
X116340Y-29900
X116350Y-51650
X116350Y-66450
X116530Y-31790
X116600Y-68240
X116840Y-74450
X117610Y-31390
X117700Y-64600
X117840Y-68880
X118070Y-51740
X118160Y-69420
X118240Y-31700
X118400Y-71420
X118460Y-68870
X118550Y-70650
X118850Y-51740
X118860Y-25470
X119350Y-26978
X119350Y-27582
X119580Y-51730
X119810Y-74470
X121254Y-59154
X121300Y-57650
X121300Y-61200
X121420Y-51680
X121470Y-31700
X121510Y-69100
X121790Y-30960
X122100Y-26680
X122100Y-31760
X122200Y-49700
X122470Y-74490
X122670Y-26680
X123220Y-32720
X123350Y-49455
X123500Y-48805
X123525Y-33375
X123600Y-58950
X123850Y-65750
X124350Y-66650
X124350Y-67500
X124350Y-68055
X124350Y-68632
X124390Y-34020
X124550Y-75100
X124580Y-34680
X124600Y-65800
X124660Y-44360
X124760Y-45870
X124760Y-56140
X124850Y-62950
X124900Y-58670
X124900Y-59260
X124970Y-56710
X125120Y-50430
X125160Y-41310
X125240Y-68050
X125240Y-68632
X125240Y-69200
X125250Y-33925
X125250Y-34525
X125250Y-67500
X125260Y-65250
X125260Y-66950
X125450Y-62950
X125480Y-64600
X125550Y-35900
X125840Y-24850
X126891Y-73996
X126950Y-63300
X127150Y-65150
X127220Y-44110
X127220Y-49810
X127223Y-61177
X127225Y-61925
X127230Y-52200
X127250Y-57050
X127250Y-62650
X127260Y-43070
X127310Y-59110
X127320Y-49090
X127370Y-47410
X127470Y-24850
X127610Y-51090
X127625Y-48450
X127850Y-57100
X128000Y-56200
X128100Y-62850
X128230Y-50990
X128250Y-64450
X128300Y-74310
X128570Y-49940
X128600Y-61425
X128600Y-62000
X128610Y-55900
X128660Y-51500
X128880Y-69990
X129100Y-24850
X129110Y-68860
X129450Y-35800
X129450Y-80700
X129475Y-42925
X130000Y-61650
X130000Y-62200
X130000Y-62750
X130000Y-63300
X130060Y-55510
X130210Y-52470
X130230Y-48730
X130250Y-48080
X130275Y-51100
X130280Y-49500
X130310Y-72970
X130420Y-55030
X130430Y-57770
X130600Y-26150
X130700Y-51690
X130800Y-62500
X130900Y-78300
X130940Y-49750
X130959Y-65560
X131130Y-61660
X131370Y-57830
X131808Y-61707
X131930Y-61140
X132000Y-27050
X132000Y-28680
X132000Y-30310
X132000Y-31940
X132000Y-33570
X132000Y-35200
X132000Y-36830
X132000Y-38460
X132000Y-40090
X132000Y-41720
X132000Y-43350
X132000Y-44980
X132000Y-46610
X132000Y-49870
X132000Y-51500
X132030Y-53260
X132050Y-70490
X132050Y-72120
X132050Y-73750
X132050Y-75380
X132050Y-77010
T2
X89430Y-58570
X106560Y-60850
X129610Y-32980
T4
X82570Y-50700
X82570Y-62250
X89730Y-50700
X89730Y-62250
T5
X130740Y-71380
X130740Y-74380
T6
X131070Y-64120
X131070Y-68420
T7
X80750Y-57000
T8
X78150Y-23350
X78150Y-81350
X133150Y-23350
X133150Y-81350
T9
X113600Y-58975
X113600Y-70850
T3
X83550Y-48670G85X82650Y-48670
G05
X83550Y-52730G85X82650Y-52730
G05
X83550Y-60220G85X82650Y-60220
G05
X83550Y-64280G85X82650Y-64280
G05
X89650Y-48670G85X88750Y-48670
G05
X89650Y-52730G85X88750Y-52730
G05
X89650Y-60220G85X88750Y-60220
G05
X89650Y-64280G85X88750Y-64280
G05
T5
X91840Y-71170G85X91840Y-72970
G05
X91840Y-77630G85X91840Y-78430
G05
X106340Y-71170G85X106340Y-72970
G05
X106340Y-77630G85X106340Y-78430
G05
M30
