G04 #@! TF.GenerationSoftware,KiCad,Pcbnew,9.0.0*
G04 #@! TF.CreationDate,2025-04-23T15:58:58+02:00*
G04 #@! TF.ProjectId,CM5_MINIMA_3,434d355f-4d49-44e4-994d-415f332e6b69,2*
G04 #@! TF.SameCoordinates,Original*
G04 #@! TF.FileFunction,Soldermask,Bot*
G04 #@! TF.FilePolarity,Negative*
%FSLAX46Y46*%
G04 Gerber Fmt 4.6, Leading zero omitted, Abs format (unit mm)*
G04 Created by KiCad (PCBNEW 9.0.0) date 2025-04-23 15:58:58*
%MOMM*%
%LPD*%
G01*
G04 APERTURE LIST*
G04 Aperture macros list*
%AMRoundRect*
0 Rectangle with rounded corners*
0 $1 Rounding radius*
0 $2 $3 $4 $5 $6 $7 $8 $9 X,Y pos of 4 corners*
0 Add a 4 corners polygon primitive as box body*
4,1,4,$2,$3,$4,$5,$6,$7,$8,$9,$2,$3,0*
0 Add four circle primitives for the rounded corners*
1,1,$1+$1,$2,$3*
1,1,$1+$1,$4,$5*
1,1,$1+$1,$6,$7*
1,1,$1+$1,$8,$9*
0 Add four rect primitives between the rounded corners*
20,1,$1+$1,$2,$3,$4,$5,0*
20,1,$1+$1,$4,$5,$6,$7,0*
20,1,$1+$1,$6,$7,$8,$9,0*
20,1,$1+$1,$8,$9,$2,$3,0*%
G04 Aperture macros list end*
%ADD10C,1.500000*%
%ADD11C,4.500000*%
%ADD12C,5.400000*%
%ADD13C,2.600000*%
%ADD14C,3.800000*%
%ADD15C,0.800000*%
%ADD16O,1.800000X0.860000*%
%ADD17C,1.150000*%
%ADD18C,1.650000*%
%ADD19C,1.000000*%
%ADD20O,1.500000X3.300000*%
%ADD21O,1.500000X2.300000*%
%ADD22C,1.200000*%
%ADD23C,2.700000*%
%ADD24R,0.700000X0.200000*%
%ADD25RoundRect,0.135000X0.135000X0.185000X-0.135000X0.185000X-0.135000X-0.185000X0.135000X-0.185000X0*%
%ADD26RoundRect,0.075000X0.200000X-0.075000X0.200000X0.075000X-0.200000X0.075000X-0.200000X-0.075000X0*%
%ADD27RoundRect,0.135000X0.185000X-0.135000X0.185000X0.135000X-0.185000X0.135000X-0.185000X-0.135000X0*%
%ADD28RoundRect,0.087500X0.187500X0.087500X-0.187500X0.087500X-0.187500X-0.087500X0.187500X-0.087500X0*%
%ADD29RoundRect,0.087500X0.087500X0.187500X-0.087500X0.187500X-0.087500X-0.187500X0.087500X-0.187500X0*%
%ADD30RoundRect,0.135000X-0.135000X-0.185000X0.135000X-0.185000X0.135000X0.185000X-0.135000X0.185000X0*%
%ADD31R,0.600000X1.550000*%
%ADD32R,1.200000X1.800000*%
%ADD33R,0.250000X0.680000*%
%ADD34C,0.900000*%
%ADD35R,0.700000X0.600000*%
%ADD36R,0.700000X0.900000*%
%ADD37RoundRect,0.140000X0.170000X-0.140000X0.170000X0.140000X-0.170000X0.140000X-0.170000X-0.140000X0*%
%ADD38C,3.000000*%
G04 APERTURE END LIST*
D10*
X94046000Y-32650000D03*
X94046000Y-39650000D03*
D11*
X113600000Y-58975000D03*
D12*
X78150000Y-81350000D03*
D11*
X113600000Y-70850000D03*
D12*
X133150000Y-23350000D03*
D13*
X80750000Y-57000000D03*
D14*
X80750000Y-57000000D03*
D15*
X89730000Y-50700000D03*
X82570000Y-50700000D03*
D16*
X89200000Y-52730000D03*
X89200000Y-48670000D03*
X83100000Y-52730000D03*
X83100000Y-48670000D03*
D17*
X103600000Y-30725000D03*
D18*
X123600000Y-30725000D03*
D19*
X89430000Y-58570000D03*
D20*
X106340000Y-72070000D03*
X91840000Y-72070000D03*
D21*
X91840000Y-78030000D03*
X106340000Y-78030000D03*
D12*
X133150000Y-81350000D03*
D15*
X89730000Y-62250000D03*
X82570000Y-62250000D03*
D16*
X89200000Y-64280000D03*
X89200000Y-60220000D03*
X83100000Y-64280000D03*
X83100000Y-60220000D03*
D12*
X78150000Y-23350000D03*
D22*
X131070000Y-64120000D03*
X131070000Y-68420000D03*
D19*
X129610000Y-32980000D03*
X106560000Y-60850000D03*
D23*
X127250000Y-77600000D03*
X127250000Y-29600000D03*
D24*
X129290000Y-46300000D03*
X126210000Y-46300000D03*
X129290000Y-46700000D03*
X126210000Y-46700000D03*
X129290000Y-47100000D03*
X126210000Y-47100000D03*
X129290000Y-47500000D03*
X126210000Y-47500000D03*
X129290000Y-47900000D03*
X126210000Y-47900000D03*
X129290000Y-48300000D03*
X126210000Y-48300000D03*
X129290000Y-48700000D03*
X126210000Y-48700000D03*
X129290000Y-49100000D03*
X126210000Y-49100000D03*
X129290000Y-49500000D03*
X126210000Y-49500000D03*
X129290000Y-49900000D03*
X126210000Y-49900000D03*
X129290000Y-50300000D03*
X126210000Y-50300000D03*
X129290000Y-50700000D03*
X126210000Y-50700000D03*
X129290000Y-51100000D03*
X126210000Y-51100000D03*
X129290000Y-51500000D03*
X126210000Y-51500000D03*
X129290000Y-51900000D03*
X126210000Y-51900000D03*
X129290000Y-52300000D03*
X126210000Y-52300000D03*
X129290000Y-52700000D03*
X126210000Y-52700000D03*
X129290000Y-53100000D03*
X126210000Y-53100000D03*
X129290000Y-53500000D03*
X126210000Y-53500000D03*
X129290000Y-53900000D03*
X126210000Y-53900000D03*
X129290000Y-54300000D03*
X126210000Y-54300000D03*
X129290000Y-54700000D03*
X126210000Y-54700000D03*
X129290000Y-55100000D03*
X126210000Y-55100000D03*
X129290000Y-55500000D03*
X126210000Y-55500000D03*
X129290000Y-55900000D03*
X126210000Y-55900000D03*
X129290000Y-56300000D03*
X126210000Y-56300000D03*
X129290000Y-56700000D03*
X126210000Y-56700000D03*
X129290000Y-57100000D03*
X126210000Y-57100000D03*
X129290000Y-57500000D03*
X126210000Y-57500000D03*
X129290000Y-57900000D03*
X126210000Y-57900000D03*
X129290000Y-58300000D03*
X126210000Y-58300000D03*
X129290000Y-58700000D03*
X126210000Y-58700000D03*
X129290000Y-59100000D03*
X126210000Y-59100000D03*
X129290000Y-59500000D03*
X126210000Y-59500000D03*
X129290000Y-59900000D03*
X126210000Y-59900000D03*
X129290000Y-60300000D03*
X126210000Y-60300000D03*
X129290000Y-60700000D03*
X126210000Y-60700000D03*
X129290000Y-61100000D03*
X126210000Y-61100000D03*
X129290000Y-61500000D03*
X126210000Y-61500000D03*
X129290000Y-61900000D03*
X126210000Y-61900000D03*
X129290000Y-62300000D03*
X126210000Y-62300000D03*
X129290000Y-62700000D03*
X126210000Y-62700000D03*
X129290000Y-63100000D03*
X126210000Y-63100000D03*
X129290000Y-63500000D03*
X126210000Y-63500000D03*
X129290000Y-63900000D03*
X126210000Y-63900000D03*
X129290000Y-64300000D03*
X126210000Y-64300000D03*
X129290000Y-64700000D03*
X126210000Y-64700000D03*
X129290000Y-65100000D03*
X126210000Y-65100000D03*
X129290000Y-65500000D03*
X126210000Y-65500000D03*
X129290000Y-65900000D03*
X126210000Y-65900000D03*
D25*
X124900000Y-63880000D03*
X123880000Y-63880000D03*
X83380000Y-78190000D03*
X82360000Y-78190000D03*
D26*
X101165000Y-39197980D03*
X101165000Y-38697980D03*
X101165000Y-38197980D03*
X101165000Y-37697980D03*
X101165000Y-37197980D03*
X101935000Y-37197980D03*
X101935000Y-37697980D03*
X101935000Y-38197980D03*
X101935000Y-38697980D03*
X101935000Y-39197980D03*
D27*
X123930000Y-62980000D03*
X123930000Y-61960000D03*
D28*
X83610000Y-74970000D03*
X83610000Y-75470000D03*
X83610000Y-75970000D03*
X83610000Y-76470000D03*
X83610000Y-76970000D03*
D29*
X82885000Y-77195000D03*
X82385000Y-77195000D03*
X81885000Y-77195000D03*
D28*
X81160000Y-76970000D03*
X81160000Y-76470000D03*
X81160000Y-75970000D03*
X81160000Y-75470000D03*
X81160000Y-74970000D03*
D29*
X81885000Y-74745000D03*
X82385000Y-74745000D03*
X82885000Y-74745000D03*
D30*
X86915000Y-27050000D03*
X87935000Y-27050000D03*
D31*
X82750000Y-71430000D03*
X83750000Y-71430000D03*
D32*
X85050000Y-67550000D03*
X81450000Y-67550000D03*
D33*
X94970000Y-74810000D03*
X95470000Y-74810000D03*
X95970000Y-74810000D03*
X96470000Y-74810000D03*
X96970000Y-74810000D03*
X96970000Y-75670000D03*
X96470000Y-75670000D03*
X95970000Y-75670000D03*
X95470000Y-75670000D03*
X94970000Y-75670000D03*
D34*
X130740000Y-71380000D03*
X130740000Y-74380000D03*
D35*
X129550000Y-71880000D03*
X129550000Y-73880000D03*
D36*
X130810000Y-75880000D03*
X130810000Y-69880000D03*
D35*
X129550000Y-72880000D03*
D30*
X81060000Y-73740000D03*
X82080000Y-73740000D03*
D26*
X101152500Y-35122980D03*
X101152500Y-34622980D03*
X101152500Y-34122980D03*
X101152500Y-33622980D03*
X101152500Y-33122980D03*
X101922500Y-33122980D03*
X101922500Y-33622980D03*
X101922500Y-34122980D03*
X101922500Y-34622980D03*
X101922500Y-35122980D03*
D37*
X84610000Y-74950000D03*
X84610000Y-73990000D03*
D27*
X131690000Y-49050000D03*
X131690000Y-48030000D03*
D38*
X127250000Y-77600000D03*
X127250000Y-29600000D03*
D24*
X95290000Y-46300000D03*
X92210000Y-46300000D03*
X95290000Y-46700000D03*
X92210000Y-46700000D03*
X95290000Y-47100000D03*
X92210000Y-47100000D03*
X95290000Y-47500000D03*
X92210000Y-47500000D03*
X95290000Y-47900000D03*
X92210000Y-47900000D03*
X95290000Y-48300000D03*
X92210000Y-48300000D03*
X95290000Y-48700000D03*
X92210000Y-48700000D03*
X95290000Y-49100000D03*
X92210000Y-49100000D03*
X95290000Y-49500000D03*
X92210000Y-49500000D03*
X95290000Y-49900000D03*
X92210000Y-49900000D03*
X95290000Y-50300000D03*
X92210000Y-50300000D03*
X95290000Y-50700000D03*
X92210000Y-50700000D03*
X95290000Y-51100000D03*
X92210000Y-51100000D03*
X95290000Y-51500000D03*
X92210000Y-51500000D03*
X95290000Y-51900000D03*
X92210000Y-51900000D03*
X95290000Y-52300000D03*
X92210000Y-52300000D03*
X95290000Y-52700000D03*
X92210000Y-52700000D03*
X95290000Y-53100000D03*
X92210000Y-53100000D03*
X95290000Y-53500000D03*
X92210000Y-53500000D03*
X95290000Y-53900000D03*
X92210000Y-53900000D03*
X95290000Y-54300000D03*
X92210000Y-54300000D03*
X95290000Y-54700000D03*
X92210000Y-54700000D03*
X95290000Y-55100000D03*
X92210000Y-55100000D03*
X95290000Y-55500000D03*
X92210000Y-55500000D03*
X95290000Y-55900000D03*
X92210000Y-55900000D03*
X95290000Y-56300000D03*
X92210000Y-56300000D03*
X95290000Y-56700000D03*
X92210000Y-56700000D03*
X95290000Y-57100000D03*
X92210000Y-57100000D03*
X95290000Y-57500000D03*
X92210000Y-57500000D03*
X95290000Y-57900000D03*
X92210000Y-57900000D03*
X95290000Y-58300000D03*
X92210000Y-58300000D03*
X95290000Y-58700000D03*
X92210000Y-58700000D03*
X95290000Y-59100000D03*
X92210000Y-59100000D03*
X95290000Y-59500000D03*
X92210000Y-59500000D03*
X95290000Y-59900000D03*
X92210000Y-59900000D03*
X95290000Y-60300000D03*
X92210000Y-60300000D03*
X95290000Y-60700000D03*
X92210000Y-60700000D03*
X95290000Y-61100000D03*
X92210000Y-61100000D03*
X95290000Y-61500000D03*
X92210000Y-61500000D03*
X95290000Y-61900000D03*
X92210000Y-61900000D03*
X95290000Y-62300000D03*
X92210000Y-62300000D03*
X95290000Y-62700000D03*
X92210000Y-62700000D03*
X95290000Y-63100000D03*
X92210000Y-63100000D03*
X95290000Y-63500000D03*
X92210000Y-63500000D03*
X95290000Y-63900000D03*
X92210000Y-63900000D03*
X95290000Y-64300000D03*
X92210000Y-64300000D03*
X95290000Y-64700000D03*
X92210000Y-64700000D03*
X95290000Y-65100000D03*
X92210000Y-65100000D03*
X95290000Y-65500000D03*
X92210000Y-65500000D03*
X95290000Y-65900000D03*
X92210000Y-65900000D03*
M02*
