M48
; DRILL file {KiCad 9.0.0} date 2025-03-28T16:29:38+0100
; FORMAT={-:-/ absolute / inch / decimal}
; #@! TF.CreationDate,2025-03-28T16:29:38+01:00
; #@! TF.GenerationSoftware,Kicad,Pcbnew,9.0.0
; #@! TF.FileFunction,Plated,1,6,PTH
FMAT,2
INCH
; #@! TA.AperFunction,Plated,PTH,ViaDrill
T1C0.0118
; #@! TA.AperFunction,Plated,PTH,ComponentDrill
T2C0.0197
; #@! TA.AperFunction,Plated,PTH,ComponentDrill
T3C0.0197
; #@! TA.AperFunction,Plated,PTH,ComponentDrill
T4C0.0315
; #@! TA.AperFunction,Plated,PTH,ComponentDrill
T5C0.0354
; #@! TA.AperFunction,Plated,PTH,ComponentDrill
T6C0.0354
; #@! TA.AperFunction,Plated,PTH,ComponentDrill
T7C0.0866
; #@! TA.AperFunction,Plated,PTH,ComponentDrill
T8C0.1161
%
G90
G05
T1
X0.0709Y1.4035
X0.0846Y2.1476
X0.1407Y2.127
X0.1447Y1.4193
X0.1776Y1.3244
X0.1811Y1.2343
X0.1811Y1.1594
X0.1831Y0.7795
X0.1831Y0.7047
X0.2402Y1.2785
X0.2402Y0.8071
X0.2431Y1.125
X0.2433Y1.3012
X0.2445Y0.95
X0.247Y1.1033
X0.2579Y0.6378
X0.2663Y1.2646
X0.2693Y0.8476
X0.2713Y0.6126
X0.2791Y1.3043
X0.2874Y2.1732
X0.2953Y1.1299
X0.2953Y0.6772
X0.2972Y1.2827
X0.2972Y0.8425
X0.3079Y0.9988
X0.3091Y0.9531
X0.3209Y0.5797
X0.3209Y1.2827
X0.3209Y0.8425
X0.337Y1.3063
X0.3494Y0.2569
X0.3504Y1.1319
X0.3504Y0.6575
X0.3512Y0.85
X0.3583Y0.3819
X0.3622Y0.4606
X0.3736Y0.8646
X0.374Y1.1122
X0.375Y1.2707
X0.3906Y0.3823
X0.3961Y0.9303
X0.4004Y0.5441
X0.4146Y1.0827
X0.4315Y0.6173
X0.437Y1.2343
X0.437Y0.7795
X0.437Y0.7047
X0.438Y0.2569
X0.439Y0.0886
X0.4409Y1.3307
X0.4673Y1.0031
X0.4835Y0.5083
X0.489Y1.2669
X0.5068Y0.5551
X0.5068Y0.5335
X0.5142Y1.1378
X0.5146Y1.1717
X0.5146Y1.0398
X0.515Y0.9917
X0.5169Y0.6614
X0.5181Y0.7083
X0.5197Y0.8976
X0.5315Y2.1654
X0.5571Y0.5453
X0.5783Y0.6193
X0.5793Y1.2983
X0.5815Y0.6988
X0.5815Y0.6713
X0.5831Y0.8545
X0.5891Y0.7933
X0.5891Y0.7657
X0.6039Y0.6543
X0.6045Y1.3321
X0.6051Y1.3583
X0.6066Y1.3066
X0.6136Y1.2419
X0.6219Y0.8406
X0.6219Y0.813
X0.6234Y1.2898
X0.624Y0.7461
X0.624Y0.7185
X0.6264Y1.0366
X0.6291Y1.1937
X0.6303Y0.9093
X0.6305Y1.2251
X0.635Y0.2937
X0.6386Y0.6571
X0.6398Y0.8594
X0.6406Y0.6134
X0.6622Y0.5661
X0.663Y0.3146
X0.6693Y2.0551
X0.6765Y0.2785
X0.6791Y1.4324
X0.6791Y1.4086
X0.6815Y0.4657
X0.6898Y1.9512
X0.698Y0.6441
X0.6988Y0.2717
X0.7008Y0.2953
X0.7165Y1.0031
X0.7209Y2.2126
X0.7218Y1.2918
X0.7339Y0.2795
X0.7362Y0.9717
X0.7437Y2.2126
X0.7583Y0.2929
X0.7598Y0.3189
X0.763Y1.3161
X0.7677Y0.9402
X0.7857Y1.3161
X0.7913Y0.8823
X0.7992Y0.4705
X0.8084Y1.3161
X0.8287Y0.5035
X0.8295Y1.5522
X0.8311Y1.3161
X0.8311Y1.2882
X0.8451Y1.8154
X0.8453Y1.6504
X0.8504Y2.0504
X0.8583Y1.5772
X0.8583Y0.4697
X0.8583Y0.3189
X0.8744Y2.0555
X0.8783Y2.1894
X0.8933Y2.2083
X0.9146Y1.7315
X0.9173Y0.4705
X0.9173Y0.3189
X0.9413Y1.7433
X0.9438Y1.5896
X0.9445Y1.878
X0.9449Y1.7123
X0.9469Y0.5028
X0.9627Y1.6939
X0.9627Y1.6663
X0.9642Y1.6346
X0.9642Y1.6071
X0.9647Y1.7997
X0.9647Y1.7721
X0.9652Y1.8588
X0.9652Y1.8312
X0.9764Y0.4701
X0.9764Y0.315
X0.9837Y1.7085
X0.9853Y1.6491
X0.9858Y1.5935
X0.989Y1.8756
X0.9937Y1.398
X0.9988Y1.7461
X1.0134Y1.3311
X1.0154Y0.2752
X1.0202Y1.405
X1.0228Y1.4311
X1.0283Y1.7437
X1.0335Y2.1413
X1.0386Y1.9902
X1.0397Y1.3855
X1.0399Y1.3345
X1.0425Y1.565
X1.0441Y1.3602
X1.0504Y1.2862
X1.0593Y1.3151
X1.0624Y1.9687
X1.0665Y1.3913
X1.0862Y1.3213
X1.1004Y0.8661
X1.1039Y2.1402
X1.1192Y1.3132
X1.122Y1.0098
X1.1256Y1.3409
X1.1339Y1.2657
X1.1339Y0.9508
X1.1387Y1.2937
X1.139Y1.228
X1.1441Y1.9687
X1.1614Y2.0008
X1.1658Y1.2346
X1.1669Y1.3
X1.1673Y0.9823
X1.1713Y1.0433
X1.1717Y1.2614
X1.1799Y1.1894
X1.1813Y1.5508
X1.1821Y1.5868
X1.1827Y1.9687
X1.1853Y1.2152
X1.1992Y1.5705
X1.215Y1.2209
X1.2213Y1.552
X1.222Y1.5858
X1.2224Y0.2028
X1.2224Y0.1201
X1.2224Y0.0354
X1.2295Y1.2012
X1.2441Y1.5713
X1.2564Y1.2066
X1.2602Y1.2339
X1.262Y1.5862
X1.2626Y1.552
X1.2701Y0.2622
X1.2759Y1.1871
X1.2811Y2.1425
X1.2933Y1.1683
X1.3039Y1.1949
X1.3455Y1.1585
X1.3906Y0.2636
X1.4602Y2.1465
X1.4756Y1.9433
X1.4913Y1.9909
X1.4976Y2.0157
X1.5051Y1.9413
X1.5173Y0.2618
X1.5321Y1.1559
X1.5476Y1.9571
X1.5657Y1.1559
X1.5724Y1.9449
X1.5748Y0.6693
X1.5787Y0.3811
X1.5965Y1.1559
X1.5969Y2.1902
X1.6083Y0.6437
X1.6161Y2.1308
X1.6161Y2.107
X1.6252Y1.1563
X1.6343Y0.261
X1.661Y1.1579
X1.6791Y0.7736
X1.6909Y0.7244
X1.6976Y1.1583
X1.6996Y1.9449
X1.7012Y0.4724
X1.7122Y1.974
X1.7228Y0.8209
X1.7244Y2.1425
X1.7244Y1.9425
X1.7283Y1.2362
X1.739Y0.2602
X1.7469Y2.1425
X1.7555Y0.8484
X1.7685Y1.9047
X1.7736Y1.2459
X1.7776Y0.8425
X1.7795Y1.2715
X1.7805Y1.8789
X1.8031Y0.6142
X1.8031Y0.5827
X1.813Y0.5354
X1.813Y0.5136
X1.813Y0.4908
X1.8146Y1.8535
X1.8209Y0.5995
X1.8209Y0.2362
X1.822Y1.8276
X1.8252Y1.4465
X1.8291Y1.387
X1.8291Y0.9827
X1.8307Y0.7323
X1.8307Y0.7106
X1.8346Y0.8831
X1.8346Y0.8598
X1.8374Y0.9602
X1.8433Y1.2075
X1.8449Y1.5665
X1.848Y0.5138
X1.848Y0.4908
X1.848Y0.4685
X1.8484Y1.8573
X1.8484Y1.8337
X1.8484Y0.5354
X1.8488Y0.624
X1.8488Y0.5571
X1.8575Y0.6496
X1.8583Y0.7146
X1.8602Y1.7795
X1.913Y0.2797
X1.9165Y0.961
X1.9193Y0.9339
X1.926Y1.4563
X1.926Y1.2319
X1.9261Y0.7844
X1.9262Y0.7549
X1.9264Y1.1378
X1.9272Y0.7264
X1.9276Y1.4972
X1.9295Y0.8657
X1.9299Y1.2602
X1.9319Y1.3264
X1.9413Y1.1815
X1.9419Y1.2854
X1.9469Y0.6752
X1.9484Y0.7004
X1.9567Y0.9803
X1.9657Y1.1854
X1.9685Y0.2673
X1.9791Y1.2268
X1.9803Y0.7746
X1.9803Y0.752
X1.9807Y0.9921
X1.9827Y1.1654
X1.9854Y1.8449
X1.9913Y0.4374
X2.0004Y0.4819
X2.0089Y1.4734
X2.0138Y1.7835
X2.0354Y0.7657
X2.0354Y0.7441
X2.0354Y0.7224
X2.0354Y0.7008
X2.0378Y1.0075
X2.0437Y1.1272
X2.0445Y1.2744
X2.0453Y1.3
X2.0463Y1.1811
X2.0465Y1.2441
X2.0476Y0.3201
X2.052Y1.0264
X2.0524Y0.9185
X2.063Y1.1579
X2.0669Y0.7323
X2.0724Y1.2343
X2.0732Y0.6118
X2.0799Y0.7654
X2.0894Y0.9161
X2.1066Y0.7635
X2.1114Y0.7858
X2.1154Y1.0961
T2
X0.4382Y0.887
X1.0925Y0.7709
X2.0665Y2.161
T4
X0.1681Y1.1969
X0.1681Y0.7421
X0.45Y1.1969
X0.45Y0.7421
T5
X2.0646Y0.3827
X2.0646Y0.2646
T6
X2.0776Y0.6685
X2.0776Y0.4992
T7
X0.0965Y0.9488
T8
X1.3898Y0.8711
X1.3898Y0.3976
T3
G00X0.2067Y1.2768
M15
G01X0.1713Y1.2768
M16
G05
G00X0.2067Y1.1169
M15
G01X0.1713Y1.1169
M16
G05
G00X0.2067Y0.822
M15
G01X0.1713Y0.822
M16
G05
G00X0.2067Y0.6622
M15
G01X0.1713Y0.6622
M16
G05
G00X0.4468Y1.2768
M15
G01X0.4114Y1.2768
M16
G05
G00X0.4468Y1.1169
M15
G01X0.4114Y1.1169
M16
G05
G00X0.4468Y0.822
M15
G01X0.4114Y0.822
M16
G05
G00X0.4468Y0.6622
M15
G01X0.4114Y0.6622
M16
G05
T5
G00X0.5331Y0.3909
M15
G01X0.5331Y0.3201
M16
G05
G00X0.5331Y0.1366
M15
G01X0.5331Y0.1051
M16
G05
G00X1.1039Y0.3909
M15
G01X1.1039Y0.3201
M16
G05
G00X1.1039Y0.1366
M15
G01X1.1039Y0.1051
M16
G05
M30
