%TF.GenerationSoftware,KiCad,Pcbnew,9.0.0*%
%TF.CreationDate,2025-04-22T15:43:43+02:00*%
%TF.ProjectId,CM5_MINIMA_3,434d355f-4d49-44e4-994d-415f332e6b69,2*%
%TF.SameCoordinates,Original*%
%TF.FileFunction,Profile,NP*%
%FSLAX46Y46*%
G04 Gerber Fmt 4.6, Leading zero omitted, Abs format (unit mm)*
G04 Created by KiCad (PCBNEW 9.0.0) date 2025-04-22 15:43:43*
%MOMM*%
%LPD*%
G01*
G04 APERTURE LIST*
%TA.AperFunction,Profile*%
%ADD10C,0.050000*%
%TD*%
G04 APERTURE END LIST*
D10*
X11133579Y53108579D02*
G75*
G02*
X11333579Y52908579I21J-199979D01*
G01*
X56198280Y3200469D02*
X57223718Y2159880D01*
X53138956Y60479214D02*
G75*
G02*
X57260012Y55878129I1861044J-2479214D01*
G01*
X48274817Y280000D02*
X6758008Y280000D01*
X2211856Y-2172024D02*
G75*
G02*
X-2057640Y2318645I-2211856J2172024D01*
G01*
X11333579Y52908579D02*
X11333579Y37516421D01*
X56239162Y54870297D02*
X57260012Y55878129D01*
X6991566Y57420000D02*
G75*
G02*
X3431261Y58909446I34J5000000D01*
G01*
X220000Y53108579D02*
X210472Y53228879D01*
X51827331Y-1201528D02*
X52828053Y-2211932D01*
X-2057639Y2318644D02*
X-1282455Y3081424D01*
X54751934Y51311284D02*
X54759646Y6709117D01*
X51489420Y58856070D02*
G75*
G02*
X47982512Y57419992I-3506920J3563930D01*
G01*
X54751934Y51311284D02*
G75*
G02*
X56239180Y54870279I5000266J716D01*
G01*
X11133579Y53108579D02*
X220000Y53108579D01*
X-2133961Y55751399D02*
X64581Y53555271D01*
X57223718Y2159880D02*
G75*
G02*
X52828052Y-2211933I-2223718J-2159880D01*
G01*
X210637Y6643833D02*
G75*
G02*
X-1282456Y3081425I-5000007J1527D01*
G01*
X56198280Y3200469D02*
G75*
G02*
X54759619Y6709117I3561320J3509531D01*
G01*
X220000Y37316421D02*
X11133579Y37316421D01*
X11333579Y37516421D02*
G75*
G02*
X11133579Y37316421I-199979J-21D01*
G01*
X3262699Y-1144693D02*
G75*
G02*
X6758008Y279995I3495301J-3575307D01*
G01*
X-2133961Y55751399D02*
G75*
G02*
X1958863Y60402676I2133961J2248601D01*
G01*
X2211856Y-2172024D02*
X3262699Y-1144693D01*
X210637Y6643833D02*
X219967Y37316421D01*
X51489420Y58856070D02*
X53138956Y60479214D01*
X6991566Y57420000D02*
X47982512Y57420000D01*
X64581Y53555271D02*
G75*
G02*
X210511Y53228881I-353281J-353771D01*
G01*
X48274817Y280000D02*
G75*
G02*
X51827343Y-1201516I-17J-5000100D01*
G01*
X1958863Y60402676D02*
X3431244Y58909429D01*
M02*
