%TF.GenerationSoftware,KiCad,Pcbnew,9.0.0*%
%TF.CreationDate,2025-03-28T16:29:38+01:00*%
%TF.ProjectId,CM5_MINIMA_3,434d355f-4d49-44e4-994d-415f332e6b69,2*%
%TF.SameCoordinates,Original*%
%TF.FileFunction,Soldermask,Top*%
%TF.FilePolarity,Negative*%
%FSLAX46Y46*%
G04 Gerber Fmt 4.6, Leading zero omitted, Abs format (unit mm)*
G04 Created by KiCad (PCBNEW 9.0.0) date 2025-03-28 16:29:38*
%MOMM*%
%LPD*%
G01*
G04 APERTURE LIST*
G04 Aperture macros list*
%AMRoundRect*
0 Rectangle with rounded corners*
0 $1 Rounding radius*
0 $2 $3 $4 $5 $6 $7 $8 $9 X,Y pos of 4 corners*
0 Add a 4 corners polygon primitive as box body*
4,1,4,$2,$3,$4,$5,$6,$7,$8,$9,$2,$3,0*
0 Add four circle primitives for the rounded corners*
1,1,$1+$1,$2,$3*
1,1,$1+$1,$4,$5*
1,1,$1+$1,$6,$7*
1,1,$1+$1,$8,$9*
0 Add four rect primitives between the rounded corners*
20,1,$1+$1,$2,$3,$4,$5,0*
20,1,$1+$1,$4,$5,$6,$7,0*
20,1,$1+$1,$6,$7,$8,$9,0*
20,1,$1+$1,$8,$9,$2,$3,0*%
G04 Aperture macros list end*
%ADD10C,0.010000*%
%ADD11RoundRect,0.150000X0.512500X0.150000X-0.512500X0.150000X-0.512500X-0.150000X0.512500X-0.150000X0*%
%ADD12RoundRect,0.135000X-0.185000X0.135000X-0.185000X-0.135000X0.185000X-0.135000X0.185000X0.135000X0*%
%ADD13RoundRect,0.150000X0.625000X-0.150000X0.625000X0.150000X-0.625000X0.150000X-0.625000X-0.150000X0*%
%ADD14RoundRect,0.250000X0.650000X-0.350000X0.650000X0.350000X-0.650000X0.350000X-0.650000X-0.350000X0*%
%ADD15C,1.000000*%
%ADD16RoundRect,0.250000X-0.250000X-0.475000X0.250000X-0.475000X0.250000X0.475000X-0.250000X0.475000X0*%
%ADD17R,0.300000X0.500000*%
%ADD18R,1.750000X1.050000*%
%ADD19RoundRect,0.140000X0.170000X-0.140000X0.170000X0.140000X-0.170000X0.140000X-0.170000X-0.140000X0*%
%ADD20R,0.250000X0.680000*%
%ADD21RoundRect,0.075000X0.200000X-0.075000X0.200000X0.075000X-0.200000X0.075000X-0.200000X-0.075000X0*%
%ADD22C,4.500000*%
%ADD23RoundRect,0.135000X0.135000X0.185000X-0.135000X0.185000X-0.135000X-0.185000X0.135000X-0.185000X0*%
%ADD24R,0.800000X0.700000*%
%ADD25RoundRect,0.135000X-0.135000X-0.185000X0.135000X-0.185000X0.135000X0.185000X-0.135000X0.185000X0*%
%ADD26RoundRect,0.250000X2.100000X-0.340000X2.100000X0.340000X-2.100000X0.340000X-2.100000X-0.340000X0*%
%ADD27R,1.200000X1.400000*%
%ADD28RoundRect,0.250000X0.475000X-0.250000X0.475000X0.250000X-0.475000X0.250000X-0.475000X-0.250000X0*%
%ADD29RoundRect,0.135000X0.185000X-0.135000X0.185000X0.135000X-0.185000X0.135000X-0.185000X-0.135000X0*%
%ADD30C,2.600000*%
%ADD31C,3.800000*%
%ADD32RoundRect,0.150000X-0.625000X0.150000X-0.625000X-0.150000X0.625000X-0.150000X0.625000X0.150000X0*%
%ADD33RoundRect,0.250000X-0.650000X0.350000X-0.650000X-0.350000X0.650000X-0.350000X0.650000X0.350000X0*%
%ADD34RoundRect,0.100000X0.225000X0.100000X-0.225000X0.100000X-0.225000X-0.100000X0.225000X-0.100000X0*%
%ADD35RoundRect,0.125000X0.425000X-0.125000X0.425000X0.125000X-0.425000X0.125000X-0.425000X-0.125000X0*%
%ADD36RoundRect,0.250000X0.600000X-0.350000X0.600000X0.350000X-0.600000X0.350000X-0.600000X-0.350000X0*%
%ADD37RoundRect,0.140000X-0.140000X-0.170000X0.140000X-0.170000X0.140000X0.170000X-0.140000X0.170000X0*%
%ADD38C,0.800000*%
%ADD39O,1.800000X0.860000*%
%ADD40R,0.400000X1.100000*%
%ADD41RoundRect,0.102000X-0.150000X-0.775000X0.150000X-0.775000X0.150000X0.775000X-0.150000X0.775000X0*%
%ADD42RoundRect,0.102000X-0.600000X-1.375000X0.600000X-1.375000X0.600000X1.375000X-0.600000X1.375000X0*%
%ADD43RoundRect,0.102000X1.500000X-0.355000X1.500000X0.355000X-1.500000X0.355000X-1.500000X-0.355000X0*%
%ADD44RoundRect,0.102000X1.500000X-0.700000X1.500000X0.700000X-1.500000X0.700000X-1.500000X-0.700000X0*%
%ADD45RoundRect,0.140000X-0.170000X0.140000X-0.170000X-0.140000X0.170000X-0.140000X0.170000X0.140000X0*%
%ADD46R,0.300000X2.600000*%
%ADD47O,1.500000X3.300000*%
%ADD48O,1.500000X2.300000*%
%ADD49RoundRect,0.140000X0.140000X0.170000X-0.140000X0.170000X-0.140000X-0.170000X0.140000X-0.170000X0*%
%ADD50RoundRect,0.125000X-0.125000X0.175000X-0.125000X-0.175000X0.125000X-0.175000X0.125000X0.175000X0*%
%ADD51RoundRect,0.125000X0.125000X-0.175000X0.125000X0.175000X-0.125000X0.175000X-0.125000X-0.175000X0*%
%ADD52R,1.200000X0.700000*%
%ADD53R,0.950000X1.300000*%
%ADD54C,1.200000*%
%ADD55R,1.000000X1.500000*%
%ADD56R,0.700000X0.800000*%
%ADD57RoundRect,0.125000X-0.175000X-0.125000X0.175000X-0.125000X0.175000X0.125000X-0.175000X0.125000X0*%
%ADD58R,1.300000X0.300000*%
%ADD59R,2.200000X1.800000*%
%ADD60C,6.100000*%
%ADD61C,0.900000*%
G04 APERTURE END LIST*
D10*
%TO.C,REF\u002A\u002A*%
X1119453Y8902468D02*
X1196468Y8899090D01*
X1253477Y8892018D01*
X1294974Y8880072D01*
X1325457Y8862070D01*
X1349420Y8836833D01*
X1366145Y8811913D01*
X1388403Y8751989D01*
X1393424Y8682249D01*
X1380748Y8616560D01*
X1373166Y8599212D01*
X1340372Y8557804D01*
X1292953Y8522395D01*
X1242349Y8500496D01*
X1217402Y8496931D01*
X1182573Y8508881D01*
X1164143Y8535093D01*
X1152984Y8563196D01*
X1150928Y8576065D01*
X1165851Y8582331D01*
X1198325Y8594704D01*
X1212998Y8600132D01*
X1263756Y8630570D01*
X1289073Y8674640D01*
X1288294Y8731150D01*
X1287297Y8735335D01*
X1272993Y8765505D01*
X1245107Y8787684D01*
X1200213Y8802833D01*
X1134885Y8811910D01*
X1045696Y8815874D01*
X998239Y8816246D01*
X923429Y8816430D01*
X872431Y8817638D01*
X840029Y8820851D01*
X821005Y8827051D01*
X810144Y8837220D01*
X802228Y8852341D01*
X801830Y8853214D01*
X789519Y8882332D01*
X784986Y8896757D01*
X798691Y8898974D01*
X836575Y8900871D01*
X893785Y8902313D01*
X965473Y8903162D01*
X1017935Y8903331D01*
X1119453Y8902468D01*
G36*
X1119453Y8902468D02*
G01*
X1196468Y8899090D01*
X1253477Y8892018D01*
X1294974Y8880072D01*
X1325457Y8862070D01*
X1349420Y8836833D01*
X1366145Y8811913D01*
X1388403Y8751989D01*
X1393424Y8682249D01*
X1380748Y8616560D01*
X1373166Y8599212D01*
X1340372Y8557804D01*
X1292953Y8522395D01*
X1242349Y8500496D01*
X1217402Y8496931D01*
X1182573Y8508881D01*
X1164143Y8535093D01*
X1152984Y8563196D01*
X1150928Y8576065D01*
X1165851Y8582331D01*
X1198325Y8594704D01*
X1212998Y8600132D01*
X1263756Y8630570D01*
X1289073Y8674640D01*
X1288294Y8731150D01*
X1287297Y8735335D01*
X1272993Y8765505D01*
X1245107Y8787684D01*
X1200213Y8802833D01*
X1134885Y8811910D01*
X1045696Y8815874D01*
X998239Y8816246D01*
X923429Y8816430D01*
X872431Y8817638D01*
X840029Y8820851D01*
X821005Y8827051D01*
X810144Y8837220D01*
X802228Y8852341D01*
X801830Y8853214D01*
X789519Y8882332D01*
X784986Y8896757D01*
X798691Y8898974D01*
X836575Y8900871D01*
X893785Y8902313D01*
X965473Y8903162D01*
X1017935Y8903331D01*
X1119453Y8902468D01*
G37*
X1028111Y12863019D02*
X1120981Y12861189D01*
X1189611Y12859048D01*
X1238789Y12855979D01*
X1273302Y12851366D01*
X1297938Y12844592D01*
X1317484Y12835041D01*
X1334730Y12823526D01*
X1389820Y12767970D01*
X1421678Y12700180D01*
X1429309Y12626447D01*
X1411720Y12553067D01*
X1384777Y12506488D01*
X1358034Y12474103D01*
X1330016Y12450418D01*
X1295752Y12434101D01*
X1250273Y12423821D01*
X1188608Y12418246D01*
X1105789Y12416044D01*
X1046254Y12415789D01*
X827109Y12415789D01*
X799456Y12477474D01*
X771803Y12539160D01*
X1011830Y12546417D01*
X1101472Y12549416D01*
X1166538Y12552562D01*
X1211474Y12556459D01*
X1240730Y12561713D01*
X1258752Y12568929D01*
X1269989Y12578710D01*
X1272421Y12581848D01*
X1291417Y12629399D01*
X1283900Y12677463D01*
X1263957Y12706074D01*
X1249825Y12717713D01*
X1231280Y12725769D01*
X1203166Y12730889D01*
X1160327Y12733719D01*
X1097605Y12734904D01*
X1032239Y12735103D01*
X950232Y12735142D01*
X892184Y12736546D01*
X853035Y12741246D01*
X827720Y12751173D01*
X811177Y12768257D01*
X798344Y12794428D01*
X785009Y12829385D01*
X770493Y12867564D01*
X1028111Y12863019D01*
G36*
X1028111Y12863019D02*
G01*
X1120981Y12861189D01*
X1189611Y12859048D01*
X1238789Y12855979D01*
X1273302Y12851366D01*
X1297938Y12844592D01*
X1317484Y12835041D01*
X1334730Y12823526D01*
X1389820Y12767970D01*
X1421678Y12700180D01*
X1429309Y12626447D01*
X1411720Y12553067D01*
X1384777Y12506488D01*
X1358034Y12474103D01*
X1330016Y12450418D01*
X1295752Y12434101D01*
X1250273Y12423821D01*
X1188608Y12418246D01*
X1105789Y12416044D01*
X1046254Y12415789D01*
X827109Y12415789D01*
X799456Y12477474D01*
X771803Y12539160D01*
X1011830Y12546417D01*
X1101472Y12549416D01*
X1166538Y12552562D01*
X1211474Y12556459D01*
X1240730Y12561713D01*
X1258752Y12568929D01*
X1269989Y12578710D01*
X1272421Y12581848D01*
X1291417Y12629399D01*
X1283900Y12677463D01*
X1263957Y12706074D01*
X1249825Y12717713D01*
X1231280Y12725769D01*
X1203166Y12730889D01*
X1160327Y12733719D01*
X1097605Y12734904D01*
X1032239Y12735103D01*
X950232Y12735142D01*
X892184Y12736546D01*
X853035Y12741246D01*
X827720Y12751173D01*
X811177Y12768257D01*
X798344Y12794428D01*
X785009Y12829385D01*
X770493Y12867564D01*
X1028111Y12863019D01*
G37*
X1005831Y10991562D02*
X1020843Y10991252D01*
X1109641Y10989059D01*
X1174481Y10986467D01*
X1220433Y10982778D01*
X1252565Y10977296D01*
X1275947Y10969325D01*
X1295648Y10958167D01*
X1304090Y10952330D01*
X1341443Y10918864D01*
X1370497Y10881433D01*
X1373033Y10876851D01*
X1393057Y10809734D01*
X1389745Y10739234D01*
X1365416Y10673302D01*
X1322383Y10619887D01*
X1292091Y10598996D01*
X1236506Y10576221D01*
X1196314Y10576694D01*
X1169283Y10600598D01*
X1164687Y10609443D01*
X1150356Y10647630D01*
X1154028Y10667132D01*
X1178093Y10673738D01*
X1191386Y10674074D01*
X1240290Y10686168D01*
X1274501Y10717689D01*
X1291024Y10761501D01*
X1286866Y10810465D01*
X1265273Y10850266D01*
X1252956Y10863710D01*
X1238013Y10873239D01*
X1215425Y10879675D01*
X1180172Y10883843D01*
X1127234Y10886563D01*
X1051593Y10888658D01*
X1027643Y10889200D01*
X945710Y10891179D01*
X888045Y10893429D01*
X849892Y10896803D01*
X826496Y10902154D01*
X813102Y10910336D01*
X804955Y10922201D01*
X801356Y10929798D01*
X789048Y10962058D01*
X784986Y10981049D01*
X798552Y10987324D01*
X839566Y10991154D01*
X908501Y10992560D01*
X1005831Y10991562D01*
G36*
X1005831Y10991562D02*
G01*
X1020843Y10991252D01*
X1109641Y10989059D01*
X1174481Y10986467D01*
X1220433Y10982778D01*
X1252565Y10977296D01*
X1275947Y10969325D01*
X1295648Y10958167D01*
X1304090Y10952330D01*
X1341443Y10918864D01*
X1370497Y10881433D01*
X1373033Y10876851D01*
X1393057Y10809734D01*
X1389745Y10739234D01*
X1365416Y10673302D01*
X1322383Y10619887D01*
X1292091Y10598996D01*
X1236506Y10576221D01*
X1196314Y10576694D01*
X1169283Y10600598D01*
X1164687Y10609443D01*
X1150356Y10647630D01*
X1154028Y10667132D01*
X1178093Y10673738D01*
X1191386Y10674074D01*
X1240290Y10686168D01*
X1274501Y10717689D01*
X1291024Y10761501D01*
X1286866Y10810465D01*
X1265273Y10850266D01*
X1252956Y10863710D01*
X1238013Y10873239D01*
X1215425Y10879675D01*
X1180172Y10883843D01*
X1127234Y10886563D01*
X1051593Y10888658D01*
X1027643Y10889200D01*
X945710Y10891179D01*
X888045Y10893429D01*
X849892Y10896803D01*
X826496Y10902154D01*
X813102Y10910336D01*
X804955Y10922201D01*
X801356Y10929798D01*
X789048Y10962058D01*
X784986Y10981049D01*
X798552Y10987324D01*
X839566Y10991154D01*
X908501Y10992560D01*
X1005831Y10991562D01*
G37*
X1377742Y9954934D02*
X1390218Y9923101D01*
X1394586Y9904477D01*
X1380782Y9899702D01*
X1342214Y9895239D01*
X1283144Y9891385D01*
X1207837Y9888438D01*
X1144214Y9887017D01*
X893843Y9883046D01*
X888944Y9848401D01*
X892369Y9816892D01*
X903459Y9801452D01*
X924192Y9797137D01*
X968355Y9793452D01*
X1030354Y9790691D01*
X1104591Y9789148D01*
X1142794Y9788925D01*
X1362717Y9788703D01*
X1378651Y9742994D01*
X1389485Y9710642D01*
X1394538Y9693045D01*
X1394586Y9692537D01*
X1380852Y9690772D01*
X1342770Y9688831D01*
X1285018Y9686878D01*
X1212273Y9685076D01*
X1144214Y9683817D01*
X893843Y9679846D01*
X893843Y9592760D01*
X1122260Y9588764D01*
X1350678Y9584768D01*
X1372632Y9542313D01*
X1387707Y9510968D01*
X1394549Y9492416D01*
X1394586Y9491881D01*
X1380837Y9489327D01*
X1342650Y9487112D01*
X1284614Y9485376D01*
X1211320Y9484261D01*
X1134445Y9483903D01*
X874304Y9483903D01*
X828373Y9529834D01*
X800071Y9561485D01*
X788607Y9589270D01*
X789332Y9627245D01*
X791179Y9642320D01*
X796552Y9689434D01*
X799631Y9728404D01*
X799915Y9737903D01*
X798055Y9769927D01*
X793386Y9815728D01*
X791179Y9833486D01*
X787765Y9877103D01*
X795180Y9906415D01*
X818073Y9935480D01*
X828373Y9945972D01*
X874304Y9991903D01*
X1360898Y9991903D01*
X1377742Y9954934D01*
G36*
X1377742Y9954934D02*
G01*
X1390218Y9923101D01*
X1394586Y9904477D01*
X1380782Y9899702D01*
X1342214Y9895239D01*
X1283144Y9891385D01*
X1207837Y9888438D01*
X1144214Y9887017D01*
X893843Y9883046D01*
X888944Y9848401D01*
X892369Y9816892D01*
X903459Y9801452D01*
X924192Y9797137D01*
X968355Y9793452D01*
X1030354Y9790691D01*
X1104591Y9789148D01*
X1142794Y9788925D01*
X1362717Y9788703D01*
X1378651Y9742994D01*
X1389485Y9710642D01*
X1394538Y9693045D01*
X1394586Y9692537D01*
X1380852Y9690772D01*
X1342770Y9688831D01*
X1285018Y9686878D01*
X1212273Y9685076D01*
X1144214Y9683817D01*
X893843Y9679846D01*
X893843Y9592760D01*
X1122260Y9588764D01*
X1350678Y9584768D01*
X1372632Y9542313D01*
X1387707Y9510968D01*
X1394549Y9492416D01*
X1394586Y9491881D01*
X1380837Y9489327D01*
X1342650Y9487112D01*
X1284614Y9485376D01*
X1211320Y9484261D01*
X1134445Y9483903D01*
X874304Y9483903D01*
X828373Y9529834D01*
X800071Y9561485D01*
X788607Y9589270D01*
X789332Y9627245D01*
X791179Y9642320D01*
X796552Y9689434D01*
X799631Y9728404D01*
X799915Y9737903D01*
X798055Y9769927D01*
X793386Y9815728D01*
X791179Y9833486D01*
X787765Y9877103D01*
X795180Y9906415D01*
X818073Y9935480D01*
X828373Y9945972D01*
X874304Y9991903D01*
X1360898Y9991903D01*
X1377742Y9954934D01*
G37*
X1590056Y11947703D02*
X1609953Y11900531D01*
X1488211Y11893274D01*
X1428887Y11889021D01*
X1393928Y11884135D01*
X1378680Y11877365D01*
X1378485Y11867458D01*
X1380305Y11864246D01*
X1393485Y11821516D01*
X1392715Y11765933D01*
X1379167Y11709423D01*
X1361639Y11674078D01*
X1333639Y11637839D01*
X1301951Y11611347D01*
X1261687Y11593161D01*
X1207957Y11581838D01*
X1135874Y11575938D01*
X1040549Y11574017D01*
X1022263Y11573983D01*
X816854Y11573960D01*
X800920Y11619669D01*
X790080Y11652133D01*
X785032Y11669945D01*
X784986Y11670469D01*
X798672Y11672223D01*
X836424Y11673716D01*
X893276Y11674834D01*
X964266Y11675463D01*
X1007427Y11675560D01*
X1092527Y11675762D01*
X1153519Y11676802D01*
X1195323Y11679329D01*
X1222858Y11683996D01*
X1241044Y11691453D01*
X1254802Y11702349D01*
X1261427Y11709153D01*
X1288125Y11755888D01*
X1290125Y11806888D01*
X1267545Y11853159D01*
X1259393Y11861716D01*
X1244064Y11874267D01*
X1225882Y11882972D01*
X1199591Y11888529D01*
X1159938Y11891634D01*
X1101668Y11892984D01*
X1021327Y11893274D01*
X816854Y11893274D01*
X800920Y11938983D01*
X790080Y11971447D01*
X785032Y11989259D01*
X784986Y11989783D01*
X798877Y11991123D01*
X838061Y11992332D01*
X898800Y11993359D01*
X977359Y11994158D01*
X1070002Y11994679D01*
X1172991Y11994874D01*
X1570158Y11994874D01*
X1590056Y11947703D01*
G36*
X1590056Y11947703D02*
G01*
X1609953Y11900531D01*
X1488211Y11893274D01*
X1428887Y11889021D01*
X1393928Y11884135D01*
X1378680Y11877365D01*
X1378485Y11867458D01*
X1380305Y11864246D01*
X1393485Y11821516D01*
X1392715Y11765933D01*
X1379167Y11709423D01*
X1361639Y11674078D01*
X1333639Y11637839D01*
X1301951Y11611347D01*
X1261687Y11593161D01*
X1207957Y11581838D01*
X1135874Y11575938D01*
X1040549Y11574017D01*
X1022263Y11573983D01*
X816854Y11573960D01*
X800920Y11619669D01*
X790080Y11652133D01*
X785032Y11669945D01*
X784986Y11670469D01*
X798672Y11672223D01*
X836424Y11673716D01*
X893276Y11674834D01*
X964266Y11675463D01*
X1007427Y11675560D01*
X1092527Y11675762D01*
X1153519Y11676802D01*
X1195323Y11679329D01*
X1222858Y11683996D01*
X1241044Y11691453D01*
X1254802Y11702349D01*
X1261427Y11709153D01*
X1288125Y11755888D01*
X1290125Y11806888D01*
X1267545Y11853159D01*
X1259393Y11861716D01*
X1244064Y11874267D01*
X1225882Y11882972D01*
X1199591Y11888529D01*
X1159938Y11891634D01*
X1101668Y11892984D01*
X1021327Y11893274D01*
X816854Y11893274D01*
X800920Y11938983D01*
X790080Y11971447D01*
X785032Y11989259D01*
X784986Y11989783D01*
X798877Y11991123D01*
X838061Y11992332D01*
X898800Y11993359D01*
X977359Y11994158D01*
X1070002Y11994679D01*
X1172991Y11994874D01*
X1570158Y11994874D01*
X1590056Y11947703D01*
G37*
X1109308Y14534838D02*
X1179087Y14534334D01*
X1231341Y14532064D01*
X1267551Y14527092D01*
X1294201Y14518447D01*
X1317778Y14505155D01*
X1322162Y14502217D01*
X1381251Y14452847D01*
X1415553Y14399051D01*
X1429169Y14333558D01*
X1429835Y14311318D01*
X1417538Y14228045D01*
X1381767Y14160015D01*
X1324199Y14109809D01*
X1287188Y14091975D01*
X1231618Y14078097D01*
X1161404Y14070993D01*
X1084773Y14070320D01*
X1009948Y14075733D01*
X945158Y14086890D01*
X898627Y14103446D01*
X890613Y14108534D01*
X830793Y14168805D01*
X794965Y14240391D01*
X784480Y14318068D01*
X786112Y14325974D01*
X919820Y14325974D01*
X920952Y14292257D01*
X942484Y14258165D01*
X965471Y14237831D01*
X999022Y14225789D01*
X1051931Y14219026D01*
X1058101Y14218562D01*
X1153987Y14217408D01*
X1225201Y14229472D01*
X1271306Y14254590D01*
X1291865Y14292600D01*
X1292986Y14306168D01*
X1287348Y14341796D01*
X1267814Y14366166D01*
X1230458Y14381067D01*
X1171350Y14388285D01*
X1109308Y14389731D01*
X1043070Y14388887D01*
X999114Y14385564D01*
X970721Y14378577D01*
X951175Y14366744D01*
X944643Y14360703D01*
X919820Y14325974D01*
X786112Y14325974D01*
X800690Y14396612D01*
X810408Y14418471D01*
X840357Y14461038D01*
X880067Y14498397D01*
X885103Y14501928D01*
X909376Y14516279D01*
X935322Y14525766D01*
X969478Y14531370D01*
X1018381Y14534074D01*
X1088565Y14534861D01*
X1104300Y14534874D01*
X1109308Y14534838D01*
G36*
X1109308Y14534838D02*
G01*
X1179087Y14534334D01*
X1231341Y14532064D01*
X1267551Y14527092D01*
X1294201Y14518447D01*
X1317778Y14505155D01*
X1322162Y14502217D01*
X1381251Y14452847D01*
X1415553Y14399051D01*
X1429169Y14333558D01*
X1429835Y14311318D01*
X1417538Y14228045D01*
X1381767Y14160015D01*
X1324199Y14109809D01*
X1287188Y14091975D01*
X1231618Y14078097D01*
X1161404Y14070993D01*
X1084773Y14070320D01*
X1009948Y14075733D01*
X945158Y14086890D01*
X898627Y14103446D01*
X890613Y14108534D01*
X830793Y14168805D01*
X794965Y14240391D01*
X784480Y14318068D01*
X786112Y14325974D01*
X919820Y14325974D01*
X920952Y14292257D01*
X942484Y14258165D01*
X965471Y14237831D01*
X999022Y14225789D01*
X1051931Y14219026D01*
X1058101Y14218562D01*
X1153987Y14217408D01*
X1225201Y14229472D01*
X1271306Y14254590D01*
X1291865Y14292600D01*
X1292986Y14306168D01*
X1287348Y14341796D01*
X1267814Y14366166D01*
X1230458Y14381067D01*
X1171350Y14388285D01*
X1109308Y14389731D01*
X1043070Y14388887D01*
X999114Y14385564D01*
X970721Y14378577D01*
X951175Y14366744D01*
X944643Y14360703D01*
X919820Y14325974D01*
X786112Y14325974D01*
X800690Y14396612D01*
X810408Y14418471D01*
X840357Y14461038D01*
X880067Y14498397D01*
X885103Y14501928D01*
X909376Y14516279D01*
X935322Y14525766D01*
X969478Y14531370D01*
X1018381Y14534074D01*
X1088565Y14534861D01*
X1104300Y14534874D01*
X1109308Y14534838D01*
G37*
X1133253Y8408788D02*
X1177251Y8407875D01*
X1244116Y8400964D01*
X1292805Y8387276D01*
X1328651Y8365064D01*
X1356987Y8332586D01*
X1366145Y8318427D01*
X1389993Y8254107D01*
X1391494Y8183687D01*
X1372534Y8115565D01*
X1335003Y8058139D01*
X1301404Y8030441D01*
X1240436Y8008498D01*
X1192192Y8006755D01*
X1127684Y8010703D01*
X1062566Y8159474D01*
X1029298Y8231811D01*
X1002536Y8279076D01*
X979356Y8303653D01*
X956833Y8307923D01*
X932045Y8294271D01*
X915614Y8279217D01*
X889265Y8235414D01*
X887419Y8187771D01*
X907954Y8144015D01*
X948748Y8111871D01*
X963153Y8106122D01*
X1008144Y8078584D01*
X1027318Y8046902D01*
X1043721Y8003446D01*
X981534Y8003446D01*
X939217Y8007288D01*
X903531Y8022337D01*
X862557Y8053880D01*
X857233Y8058568D01*
X820780Y8093654D01*
X801217Y8123813D01*
X792217Y8161545D01*
X789270Y8192825D01*
X788535Y8248775D01*
X797840Y8288605D01*
X811654Y8313452D01*
X814884Y8317604D01*
X1104300Y8317604D01*
X1109835Y8300886D01*
X1124483Y8264911D01*
X1145310Y8216829D01*
X1149786Y8206774D01*
X1180686Y8146008D01*
X1207843Y8112528D01*
X1233280Y8105170D01*
X1259019Y8122769D01*
X1270391Y8137304D01*
X1293136Y8189750D01*
X1289378Y8238838D01*
X1261616Y8279933D01*
X1212348Y8308402D01*
X1173243Y8317529D01*
X1133253Y8321153D01*
X1108374Y8320137D01*
X1104300Y8317604D01*
X814884Y8317604D01*
X842033Y8352504D01*
X874887Y8379535D01*
X916206Y8396643D01*
X971979Y8405922D01*
X1048195Y8409467D01*
X1086878Y8409750D01*
X1133253Y8408788D01*
G36*
X1133253Y8408788D02*
G01*
X1177251Y8407875D01*
X1244116Y8400964D01*
X1292805Y8387276D01*
X1328651Y8365064D01*
X1356987Y8332586D01*
X1366145Y8318427D01*
X1389993Y8254107D01*
X1391494Y8183687D01*
X1372534Y8115565D01*
X1335003Y8058139D01*
X1301404Y8030441D01*
X1240436Y8008498D01*
X1192192Y8006755D01*
X1127684Y8010703D01*
X1062566Y8159474D01*
X1029298Y8231811D01*
X1002536Y8279076D01*
X979356Y8303653D01*
X956833Y8307923D01*
X932045Y8294271D01*
X915614Y8279217D01*
X889265Y8235414D01*
X887419Y8187771D01*
X907954Y8144015D01*
X948748Y8111871D01*
X963153Y8106122D01*
X1008144Y8078584D01*
X1027318Y8046902D01*
X1043721Y8003446D01*
X981534Y8003446D01*
X939217Y8007288D01*
X903531Y8022337D01*
X862557Y8053880D01*
X857233Y8058568D01*
X820780Y8093654D01*
X801217Y8123813D01*
X792217Y8161545D01*
X789270Y8192825D01*
X788535Y8248775D01*
X797840Y8288605D01*
X811654Y8313452D01*
X814884Y8317604D01*
X1104300Y8317604D01*
X1109835Y8300886D01*
X1124483Y8264911D01*
X1145310Y8216829D01*
X1149786Y8206774D01*
X1180686Y8146008D01*
X1207843Y8112528D01*
X1233280Y8105170D01*
X1259019Y8122769D01*
X1270391Y8137304D01*
X1293136Y8189750D01*
X1289378Y8238838D01*
X1261616Y8279933D01*
X1212348Y8308402D01*
X1173243Y8317529D01*
X1133253Y8321153D01*
X1108374Y8320137D01*
X1104300Y8317604D01*
X814884Y8317604D01*
X842033Y8352504D01*
X874887Y8379535D01*
X916206Y8396643D01*
X971979Y8405922D01*
X1048195Y8409467D01*
X1086878Y8409750D01*
X1133253Y8408788D01*
G37*
X1093853Y10499702D02*
X1180932Y10496350D01*
X1249414Y10484434D01*
X1300900Y10462025D01*
X1341057Y10427036D01*
X1361639Y10399785D01*
X1383875Y10350253D01*
X1394196Y10292844D01*
X1391433Y10239478D01*
X1380288Y10209617D01*
X1377117Y10197899D01*
X1388943Y10190123D01*
X1420634Y10184695D01*
X1468907Y10180589D01*
X1522671Y10176093D01*
X1555018Y10169847D01*
X1573515Y10158484D01*
X1585730Y10138632D01*
X1591138Y10126160D01*
X1610899Y10078989D01*
X1274142Y10079043D01*
X1165663Y10079227D01*
X1082213Y10079941D01*
X1019796Y10081485D01*
X974415Y10084159D01*
X942071Y10088266D01*
X918767Y10094105D01*
X900505Y10101978D01*
X890082Y10107939D01*
X833555Y10157305D01*
X798123Y10219896D01*
X789759Y10265459D01*
X890081Y10265459D01*
X914795Y10217884D01*
X918144Y10214181D01*
X935565Y10198377D01*
X956291Y10188467D01*
X987138Y10183102D01*
X1034923Y10180932D01*
X1087752Y10180589D01*
X1154119Y10181333D01*
X1198394Y10184412D01*
X1227491Y10191099D01*
X1248327Y10202664D01*
X1259393Y10212147D01*
X1287302Y10256200D01*
X1290657Y10306936D01*
X1269341Y10355364D01*
X1261427Y10364710D01*
X1243853Y10380620D01*
X1222913Y10390550D01*
X1191718Y10395882D01*
X1143378Y10397997D01*
X1093853Y10398303D01*
X1028950Y10397684D01*
X985986Y10394846D01*
X957878Y10388320D01*
X937547Y10376637D01*
X922212Y10362677D01*
X892610Y10315795D01*
X890081Y10265459D01*
X789759Y10265459D01*
X785410Y10289147D01*
X797037Y10358492D01*
X817932Y10399785D01*
X854078Y10443135D01*
X898224Y10472679D01*
X956038Y10490505D01*
X1033187Y10498697D01*
X1089786Y10499858D01*
X1093853Y10499702D01*
G36*
X1093853Y10499702D02*
G01*
X1180932Y10496350D01*
X1249414Y10484434D01*
X1300900Y10462025D01*
X1341057Y10427036D01*
X1361639Y10399785D01*
X1383875Y10350253D01*
X1394196Y10292844D01*
X1391433Y10239478D01*
X1380288Y10209617D01*
X1377117Y10197899D01*
X1388943Y10190123D01*
X1420634Y10184695D01*
X1468907Y10180589D01*
X1522671Y10176093D01*
X1555018Y10169847D01*
X1573515Y10158484D01*
X1585730Y10138632D01*
X1591138Y10126160D01*
X1610899Y10078989D01*
X1274142Y10079043D01*
X1165663Y10079227D01*
X1082213Y10079941D01*
X1019796Y10081485D01*
X974415Y10084159D01*
X942071Y10088266D01*
X918767Y10094105D01*
X900505Y10101978D01*
X890082Y10107939D01*
X833555Y10157305D01*
X798123Y10219896D01*
X789759Y10265459D01*
X890081Y10265459D01*
X914795Y10217884D01*
X918144Y10214181D01*
X935565Y10198377D01*
X956291Y10188467D01*
X987138Y10183102D01*
X1034923Y10180932D01*
X1087752Y10180589D01*
X1154119Y10181333D01*
X1198394Y10184412D01*
X1227491Y10191099D01*
X1248327Y10202664D01*
X1259393Y10212147D01*
X1287302Y10256200D01*
X1290657Y10306936D01*
X1269341Y10355364D01*
X1261427Y10364710D01*
X1243853Y10380620D01*
X1222913Y10390550D01*
X1191718Y10395882D01*
X1143378Y10397997D01*
X1093853Y10398303D01*
X1028950Y10397684D01*
X985986Y10394846D01*
X957878Y10388320D01*
X937547Y10376637D01*
X922212Y10362677D01*
X892610Y10315795D01*
X890081Y10265459D01*
X789759Y10265459D01*
X785410Y10289147D01*
X797037Y10358492D01*
X817932Y10399785D01*
X854078Y10443135D01*
X898224Y10472679D01*
X956038Y10490505D01*
X1033187Y10498697D01*
X1089786Y10499858D01*
X1093853Y10499702D01*
G37*
X1196752Y13425927D02*
X1233473Y13421966D01*
X1303288Y13397610D01*
X1352198Y13363704D01*
X1401622Y13302507D01*
X1426141Y13235097D01*
X1427703Y13166280D01*
X1408261Y13100857D01*
X1369765Y13043633D01*
X1314165Y12999411D01*
X1243414Y12972993D01*
X1191338Y12967650D01*
X1169607Y12968257D01*
X1152969Y12973338D01*
X1138063Y12987305D01*
X1121527Y13014571D01*
X1100002Y13059548D01*
X1070126Y13126649D01*
X1069976Y13126989D01*
X1041687Y13188753D01*
X1016567Y13239401D01*
X997321Y13273756D01*
X996342Y13274938D01*
X1155407Y13274938D01*
X1162395Y13250262D01*
X1178913Y13211365D01*
X1199619Y13167885D01*
X1200167Y13166804D01*
X1219551Y13129951D01*
X1232487Y13115160D01*
X1246049Y13118807D01*
X1263868Y13134165D01*
X1289655Y13173237D01*
X1291550Y13215314D01*
X1272783Y13253057D01*
X1236585Y13279126D01*
X1196752Y13286646D01*
X1164747Y13284836D01*
X1155407Y13274938D01*
X996342Y13274938D01*
X986652Y13286642D01*
X986566Y13286646D01*
X963334Y13275288D01*
X937726Y13248729D01*
X919279Y13218237D01*
X915614Y13202790D01*
X928288Y13160645D01*
X960029Y13124352D01*
X994928Y13106643D01*
X1020655Y13089608D01*
X1049954Y13056238D01*
X1075265Y13017011D01*
X1089029Y12982404D01*
X1089786Y12975167D01*
X1077340Y12967021D01*
X1045528Y12966530D01*
X1002634Y12972517D01*
X956942Y12983803D01*
X916739Y12999210D01*
X915178Y12999989D01*
X850438Y13046356D01*
X806403Y13106449D01*
X784789Y13174695D01*
X787315Y13245522D01*
X815696Y13313356D01*
X817692Y13316372D01*
X866052Y13369733D01*
X929148Y13404820D01*
X1012113Y13424238D01*
X1035422Y13426844D01*
X1145445Y13431459D01*
X1196752Y13425927D01*
G36*
X1196752Y13425927D02*
G01*
X1233473Y13421966D01*
X1303288Y13397610D01*
X1352198Y13363704D01*
X1401622Y13302507D01*
X1426141Y13235097D01*
X1427703Y13166280D01*
X1408261Y13100857D01*
X1369765Y13043633D01*
X1314165Y12999411D01*
X1243414Y12972993D01*
X1191338Y12967650D01*
X1169607Y12968257D01*
X1152969Y12973338D01*
X1138063Y12987305D01*
X1121527Y13014571D01*
X1100002Y13059548D01*
X1070126Y13126649D01*
X1069976Y13126989D01*
X1041687Y13188753D01*
X1016567Y13239401D01*
X997321Y13273756D01*
X996342Y13274938D01*
X1155407Y13274938D01*
X1162395Y13250262D01*
X1178913Y13211365D01*
X1199619Y13167885D01*
X1200167Y13166804D01*
X1219551Y13129951D01*
X1232487Y13115160D01*
X1246049Y13118807D01*
X1263868Y13134165D01*
X1289655Y13173237D01*
X1291550Y13215314D01*
X1272783Y13253057D01*
X1236585Y13279126D01*
X1196752Y13286646D01*
X1164747Y13284836D01*
X1155407Y13274938D01*
X996342Y13274938D01*
X986652Y13286642D01*
X986566Y13286646D01*
X963334Y13275288D01*
X937726Y13248729D01*
X919279Y13218237D01*
X915614Y13202790D01*
X928288Y13160645D01*
X960029Y13124352D01*
X994928Y13106643D01*
X1020655Y13089608D01*
X1049954Y13056238D01*
X1075265Y13017011D01*
X1089029Y12982404D01*
X1089786Y12975167D01*
X1077340Y12967021D01*
X1045528Y12966530D01*
X1002634Y12972517D01*
X956942Y12983803D01*
X916739Y12999210D01*
X915178Y12999989D01*
X850438Y13046356D01*
X806403Y13106449D01*
X784789Y13174695D01*
X787315Y13245522D01*
X815696Y13313356D01*
X817692Y13316372D01*
X866052Y13369733D01*
X929148Y13404820D01*
X1012113Y13424238D01*
X1035422Y13426844D01*
X1145445Y13431459D01*
X1196752Y13425927D01*
G37*
X1259418Y11472664D02*
X1327173Y11430485D01*
X1349839Y11408536D01*
X1378931Y11358643D01*
X1392100Y11295193D01*
X1388532Y11229416D01*
X1367413Y11172544D01*
X1367007Y11171893D01*
X1341120Y11136720D01*
X1310867Y11110753D01*
X1271442Y11092490D01*
X1218038Y11080428D01*
X1145849Y11073064D01*
X1050068Y11068896D01*
X1036422Y11068531D01*
X830658Y11063284D01*
X807822Y11107444D01*
X792390Y11139397D01*
X785077Y11158690D01*
X784986Y11159582D01*
X798478Y11162921D01*
X834874Y11165573D01*
X888048Y11167204D01*
X931107Y11167560D01*
X1000859Y11167568D01*
X1044663Y11170757D01*
X1065556Y11181872D01*
X1066575Y11205659D01*
X1050759Y11246864D01*
X1021685Y11309074D01*
X997537Y11354819D01*
X976587Y11378347D01*
X953753Y11385264D01*
X952623Y11385274D01*
X913288Y11373861D01*
X892038Y11340068D01*
X888961Y11288351D01*
X889494Y11251099D01*
X878765Y11231457D01*
X852995Y11219208D01*
X820163Y11212158D01*
X801534Y11222318D01*
X798868Y11226143D01*
X788160Y11262159D01*
X786644Y11312594D01*
X793741Y11364534D01*
X806712Y11401338D01*
X849915Y11452222D01*
X910054Y11481146D01*
X957038Y11486874D01*
X999418Y11482503D01*
X1034012Y11466685D01*
X1064737Y11435363D01*
X1095510Y11384482D01*
X1130248Y11309984D01*
X1132212Y11305446D01*
X1163213Y11238339D01*
X1188638Y11196928D01*
X1211486Y11179179D01*
X1234755Y11183053D01*
X1261444Y11206517D01*
X1267586Y11213533D01*
X1291400Y11260530D01*
X1290397Y11309227D01*
X1267049Y11351638D01*
X1223825Y11379776D01*
X1215340Y11382391D01*
X1174192Y11407852D01*
X1154372Y11440159D01*
X1134730Y11486874D01*
X1185550Y11486874D01*
X1259418Y11472664D01*
G36*
X1259418Y11472664D02*
G01*
X1327173Y11430485D01*
X1349839Y11408536D01*
X1378931Y11358643D01*
X1392100Y11295193D01*
X1388532Y11229416D01*
X1367413Y11172544D01*
X1367007Y11171893D01*
X1341120Y11136720D01*
X1310867Y11110753D01*
X1271442Y11092490D01*
X1218038Y11080428D01*
X1145849Y11073064D01*
X1050068Y11068896D01*
X1036422Y11068531D01*
X830658Y11063284D01*
X807822Y11107444D01*
X792390Y11139397D01*
X785077Y11158690D01*
X784986Y11159582D01*
X798478Y11162921D01*
X834874Y11165573D01*
X888048Y11167204D01*
X931107Y11167560D01*
X1000859Y11167568D01*
X1044663Y11170757D01*
X1065556Y11181872D01*
X1066575Y11205659D01*
X1050759Y11246864D01*
X1021685Y11309074D01*
X997537Y11354819D01*
X976587Y11378347D01*
X953753Y11385264D01*
X952623Y11385274D01*
X913288Y11373861D01*
X892038Y11340068D01*
X888961Y11288351D01*
X889494Y11251099D01*
X878765Y11231457D01*
X852995Y11219208D01*
X820163Y11212158D01*
X801534Y11222318D01*
X798868Y11226143D01*
X788160Y11262159D01*
X786644Y11312594D01*
X793741Y11364534D01*
X806712Y11401338D01*
X849915Y11452222D01*
X910054Y11481146D01*
X957038Y11486874D01*
X999418Y11482503D01*
X1034012Y11466685D01*
X1064737Y11435363D01*
X1095510Y11384482D01*
X1130248Y11309984D01*
X1132212Y11305446D01*
X1163213Y11238339D01*
X1188638Y11196928D01*
X1211486Y11179179D01*
X1234755Y11183053D01*
X1261444Y11206517D01*
X1267586Y11213533D01*
X1291400Y11260530D01*
X1290397Y11309227D01*
X1267049Y11351638D01*
X1223825Y11379776D01*
X1215340Y11382391D01*
X1174192Y11407852D01*
X1154372Y11440159D01*
X1134730Y11486874D01*
X1185550Y11486874D01*
X1259418Y11472664D01*
G37*
X1033547Y9377531D02*
X1068014Y9346611D01*
X1087311Y9315740D01*
X1111741Y9267218D01*
X1136515Y9210675D01*
X1140301Y9201250D01*
X1167709Y9139141D01*
X1191866Y9103338D01*
X1215881Y9091823D01*
X1242865Y9102580D01*
X1263957Y9121046D01*
X1289928Y9164691D01*
X1291876Y9212714D01*
X1271863Y9256754D01*
X1231949Y9288451D01*
X1221652Y9292611D01*
X1183776Y9316833D01*
X1155658Y9352195D01*
X1132583Y9396817D01*
X1198015Y9396817D01*
X1237994Y9394191D01*
X1269503Y9382930D01*
X1303122Y9357961D01*
X1329016Y9333991D01*
X1365683Y9296719D01*
X1385379Y9267759D01*
X1393280Y9236655D01*
X1394586Y9201447D01*
X1383165Y9124284D01*
X1364156Y9082493D01*
X1341122Y9049691D01*
X1315367Y9025657D01*
X1282142Y9009063D01*
X1236700Y8998583D01*
X1174293Y8992889D01*
X1090173Y8990653D01*
X1034779Y8990417D01*
X818674Y8990417D01*
X801830Y9027386D01*
X789519Y9056504D01*
X784986Y9070929D01*
X798475Y9073688D01*
X834847Y9075878D01*
X887958Y9077218D01*
X930128Y9077503D01*
X991053Y9078726D01*
X1039385Y9082024D01*
X1068982Y9086839D01*
X1075271Y9090664D01*
X1068848Y9116377D01*
X1052375Y9156742D01*
X1030042Y9203481D01*
X1006043Y9248315D01*
X984570Y9282967D01*
X969815Y9299158D01*
X969655Y9299222D01*
X942348Y9297830D01*
X916281Y9285342D01*
X895108Y9263417D01*
X888026Y9231417D01*
X888851Y9204068D01*
X889458Y9165334D01*
X880384Y9145002D01*
X856408Y9132791D01*
X851887Y9131251D01*
X817694Y9125957D01*
X796932Y9140113D01*
X787038Y9177012D01*
X785208Y9216871D01*
X798773Y9288598D01*
X818145Y9325728D01*
X863655Y9371584D01*
X919517Y9395904D01*
X978543Y9398087D01*
X1033547Y9377531D01*
G36*
X1033547Y9377531D02*
G01*
X1068014Y9346611D01*
X1087311Y9315740D01*
X1111741Y9267218D01*
X1136515Y9210675D01*
X1140301Y9201250D01*
X1167709Y9139141D01*
X1191866Y9103338D01*
X1215881Y9091823D01*
X1242865Y9102580D01*
X1263957Y9121046D01*
X1289928Y9164691D01*
X1291876Y9212714D01*
X1271863Y9256754D01*
X1231949Y9288451D01*
X1221652Y9292611D01*
X1183776Y9316833D01*
X1155658Y9352195D01*
X1132583Y9396817D01*
X1198015Y9396817D01*
X1237994Y9394191D01*
X1269503Y9382930D01*
X1303122Y9357961D01*
X1329016Y9333991D01*
X1365683Y9296719D01*
X1385379Y9267759D01*
X1393280Y9236655D01*
X1394586Y9201447D01*
X1383165Y9124284D01*
X1364156Y9082493D01*
X1341122Y9049691D01*
X1315367Y9025657D01*
X1282142Y9009063D01*
X1236700Y8998583D01*
X1174293Y8992889D01*
X1090173Y8990653D01*
X1034779Y8990417D01*
X818674Y8990417D01*
X801830Y9027386D01*
X789519Y9056504D01*
X784986Y9070929D01*
X798475Y9073688D01*
X834847Y9075878D01*
X887958Y9077218D01*
X930128Y9077503D01*
X991053Y9078726D01*
X1039385Y9082024D01*
X1068982Y9086839D01*
X1075271Y9090664D01*
X1068848Y9116377D01*
X1052375Y9156742D01*
X1030042Y9203481D01*
X1006043Y9248315D01*
X984570Y9282967D01*
X969815Y9299158D01*
X969655Y9299222D01*
X942348Y9297830D01*
X916281Y9285342D01*
X895108Y9263417D01*
X888026Y9231417D01*
X888851Y9204068D01*
X889458Y9165334D01*
X880384Y9145002D01*
X856408Y9132791D01*
X851887Y9131251D01*
X817694Y9125957D01*
X796932Y9140113D01*
X787038Y9177012D01*
X785208Y9216871D01*
X798773Y9288598D01*
X818145Y9325728D01*
X863655Y9371584D01*
X919517Y9395904D01*
X978543Y9398087D01*
X1033547Y9377531D01*
G37*
X786045Y13982089D02*
X894161Y13980811D01*
X926500Y13980412D01*
X1037976Y13978975D01*
X1110897Y13977688D01*
X1124255Y13977452D01*
X1189167Y13975483D01*
X1236542Y13972710D01*
X1270210Y13968772D01*
X1294002Y13963311D01*
X1311747Y13955968D01*
X1327276Y13946383D01*
X1333119Y13942273D01*
X1388315Y13887755D01*
X1419610Y13818824D01*
X1428335Y13739088D01*
X1419582Y13669416D01*
X1391932Y13613959D01*
X1341020Y13565012D01*
X1322162Y13551531D01*
X1297485Y13536846D01*
X1270684Y13527318D01*
X1234913Y13521867D01*
X1183331Y13519413D01*
X1115233Y13518874D01*
X1021912Y13521308D01*
X951843Y13529766D01*
X899569Y13545986D01*
X859631Y13571706D01*
X826571Y13608663D01*
X824614Y13611378D01*
X804592Y13647800D01*
X794685Y13691658D01*
X793033Y13729397D01*
X919548Y13729397D01*
X943750Y13693944D01*
X944643Y13693046D01*
X963347Y13678621D01*
X988768Y13669847D01*
X1027916Y13665421D01*
X1087803Y13664042D01*
X1101070Y13664017D01*
X1183599Y13667348D01*
X1240809Y13678191D01*
X1275734Y13697820D01*
X1291406Y13727510D01*
X1292986Y13744669D01*
X1285574Y13785394D01*
X1261170Y13813328D01*
X1216520Y13830143D01*
X1148370Y13837510D01*
X1110897Y13838189D01*
X1049001Y13837405D01*
X1008503Y13833920D01*
X981792Y13826036D01*
X961256Y13812055D01*
X951240Y13802563D01*
X921933Y13763756D01*
X919548Y13729397D01*
X793033Y13729397D01*
X792243Y13747436D01*
X792243Y13838112D01*
X704217Y13838150D01*
X655192Y13838994D01*
X626435Y13844136D01*
X609189Y13857573D01*
X594692Y13883302D01*
X591731Y13889481D01*
X577852Y13918396D01*
X569086Y13940784D01*
X568329Y13957431D01*
X578477Y13969124D01*
X602427Y13976650D01*
X643074Y13980794D01*
X703314Y13982345D01*
X786045Y13982089D01*
G36*
X786045Y13982089D02*
G01*
X894161Y13980811D01*
X926500Y13980412D01*
X1037976Y13978975D01*
X1110897Y13977688D01*
X1124255Y13977452D01*
X1189167Y13975483D01*
X1236542Y13972710D01*
X1270210Y13968772D01*
X1294002Y13963311D01*
X1311747Y13955968D01*
X1327276Y13946383D01*
X1333119Y13942273D01*
X1388315Y13887755D01*
X1419610Y13818824D01*
X1428335Y13739088D01*
X1419582Y13669416D01*
X1391932Y13613959D01*
X1341020Y13565012D01*
X1322162Y13551531D01*
X1297485Y13536846D01*
X1270684Y13527318D01*
X1234913Y13521867D01*
X1183331Y13519413D01*
X1115233Y13518874D01*
X1021912Y13521308D01*
X951843Y13529766D01*
X899569Y13545986D01*
X859631Y13571706D01*
X826571Y13608663D01*
X824614Y13611378D01*
X804592Y13647800D01*
X794685Y13691658D01*
X793033Y13729397D01*
X919548Y13729397D01*
X943750Y13693944D01*
X944643Y13693046D01*
X963347Y13678621D01*
X988768Y13669847D01*
X1027916Y13665421D01*
X1087803Y13664042D01*
X1101070Y13664017D01*
X1183599Y13667348D01*
X1240809Y13678191D01*
X1275734Y13697820D01*
X1291406Y13727510D01*
X1292986Y13744669D01*
X1285574Y13785394D01*
X1261170Y13813328D01*
X1216520Y13830143D01*
X1148370Y13837510D01*
X1110897Y13838189D01*
X1049001Y13837405D01*
X1008503Y13833920D01*
X981792Y13826036D01*
X961256Y13812055D01*
X951240Y13802563D01*
X921933Y13763756D01*
X919548Y13729397D01*
X793033Y13729397D01*
X792243Y13747436D01*
X792243Y13838112D01*
X704217Y13838150D01*
X655192Y13838994D01*
X626435Y13844136D01*
X609189Y13857573D01*
X594692Y13883302D01*
X591731Y13889481D01*
X577852Y13918396D01*
X569086Y13940784D01*
X568329Y13957431D01*
X578477Y13969124D01*
X602427Y13976650D01*
X643074Y13980794D01*
X703314Y13982345D01*
X786045Y13982089D01*
G37*
X3909542Y13563217D02*
X3988483Y13562515D01*
X4045658Y13560997D01*
X4084697Y13558382D01*
X4109231Y13554385D01*
X4122891Y13548722D01*
X4129307Y13541111D01*
X4130497Y13537988D01*
X4134716Y13519153D01*
X4143134Y13477543D01*
X4154735Y13418501D01*
X4168501Y13347374D01*
X4183416Y13269506D01*
X4198464Y13190244D01*
X4212627Y13114933D01*
X4224890Y13048918D01*
X4234235Y12997544D01*
X4239646Y12966156D01*
X4240582Y12959172D01*
X4253100Y12952846D01*
X4286450Y12938841D01*
X4334319Y12919776D01*
X4353067Y12912497D01*
X4425501Y12883135D01*
X4505526Y12848560D01*
X4572968Y12817594D01*
X4624537Y12794808D01*
X4666911Y12779649D01*
X4692862Y12774589D01*
X4696340Y12775395D01*
X4712760Y12786090D01*
X4749279Y12810511D01*
X4802009Y12846036D01*
X4867061Y12890044D01*
X4940545Y12939914D01*
X4955051Y12949775D01*
X5040992Y13007639D01*
X5106435Y13050175D01*
X5154392Y13079077D01*
X5187876Y13096041D01*
X5209901Y13102764D01*
X5223479Y13100941D01*
X5223565Y13100895D01*
X5241399Y13086545D01*
X5275879Y13054808D01*
X5323428Y13009121D01*
X5380474Y12952927D01*
X5443441Y12889663D01*
X5450469Y12882529D01*
X5527676Y12802801D01*
X5584366Y12741274D01*
X5621586Y12696710D01*
X5640381Y12667874D01*
X5642807Y12655173D01*
X5632225Y12636637D01*
X5607780Y12598170D01*
X5572084Y12543745D01*
X5527749Y12477333D01*
X5477385Y12402906D01*
X5465536Y12385530D01*
X5297070Y12138834D01*
X5347634Y12027425D01*
X5377101Y11959674D01*
X5406737Y11886948D01*
X5430366Y11824428D01*
X5431338Y11821674D01*
X5449239Y11772771D01*
X5464376Y11735074D01*
X5473486Y11716706D01*
X5473512Y11716675D01*
X5489979Y11710846D01*
X5530477Y11700939D01*
X5590454Y11687936D01*
X5665356Y11672822D01*
X5750632Y11656579D01*
X5757821Y11655250D01*
X5845682Y11638956D01*
X5925436Y11623998D01*
X5992015Y11611340D01*
X6040349Y11601945D01*
X6065371Y11596777D01*
X6065753Y11596687D01*
X6076397Y11593542D01*
X6084434Y11587427D01*
X6090229Y11574678D01*
X6094149Y11551631D01*
X6096561Y11514622D01*
X6097831Y11459987D01*
X6098325Y11384064D01*
X6098410Y11283187D01*
X6098410Y11270131D01*
X6098348Y11166221D01*
X6097918Y11087677D01*
X6096754Y11030833D01*
X6094489Y10992026D01*
X6090756Y10967593D01*
X6085190Y10953869D01*
X6077423Y10947191D01*
X6067091Y10943895D01*
X6065753Y10943575D01*
X6041617Y10938569D01*
X5993995Y10929302D01*
X5927955Y10916739D01*
X5848568Y10901844D01*
X5760900Y10885580D01*
X5757821Y10885012D01*
X5671907Y10868721D01*
X5596000Y10853479D01*
X5534651Y10840270D01*
X5492414Y10830077D01*
X5473841Y10823883D01*
X5473512Y10823588D01*
X5464443Y10805343D01*
X5449329Y10767726D01*
X5431434Y10718860D01*
X5431338Y10718588D01*
X5408203Y10657038D01*
X5378731Y10584474D01*
X5349099Y10516074D01*
X5347634Y10512837D01*
X5297070Y10401429D01*
X5465536Y10154732D01*
X5516893Y10079054D01*
X5562807Y10010500D01*
X5600666Y9953043D01*
X5627859Y9910655D01*
X5641775Y9887306D01*
X5642807Y9885089D01*
X5638212Y9868121D01*
X5616041Y9836430D01*
X5575249Y9788779D01*
X5514791Y9723933D01*
X5450469Y9657734D01*
X5387084Y9593917D01*
X5329245Y9536802D01*
X5280521Y9489826D01*
X5244486Y9456428D01*
X5224712Y9440046D01*
X5223694Y9439437D01*
X5210124Y9437626D01*
X5187963Y9444448D01*
X5154218Y9461591D01*
X5105896Y9490738D01*
X5040004Y9533576D01*
X4955179Y9590683D01*
X4880519Y9641365D01*
X4813556Y9686670D01*
X4758180Y9723981D01*
X4718276Y9750679D01*
X4697734Y9764146D01*
X4696340Y9764994D01*
X4676658Y9763350D01*
X4638403Y9750886D01*
X4588807Y9730083D01*
X4572968Y9722669D01*
X4502406Y9690317D01*
X4422343Y9655803D01*
X4353067Y9627766D01*
X4301651Y9607563D01*
X4262577Y9591516D01*
X4242155Y9582243D01*
X4240582Y9581090D01*
X4237975Y9564035D01*
X4230833Y9523833D01*
X4220173Y9465829D01*
X4207011Y9395368D01*
X4192363Y9317796D01*
X4177247Y9238459D01*
X4162678Y9162700D01*
X4149674Y9095867D01*
X4139251Y9043303D01*
X4132426Y9010355D01*
X4130497Y9002274D01*
X4125734Y8993926D01*
X4114978Y8987625D01*
X4094598Y8983086D01*
X4060962Y8980027D01*
X4010441Y8978164D01*
X3939404Y8977213D01*
X3844220Y8976891D01*
X3805204Y8976874D01*
X3487897Y8976874D01*
X3472857Y9053074D01*
X3464701Y9095468D01*
X3452797Y9158731D01*
X3438580Y9235169D01*
X3423486Y9317088D01*
X3419341Y9339731D01*
X3404643Y9415325D01*
X3390191Y9481178D01*
X3377321Y9531765D01*
X3367374Y9561557D01*
X3364409Y9566519D01*
X3343413Y9578705D01*
X3302729Y9596178D01*
X3250374Y9615554D01*
X3239096Y9619397D01*
X3169173Y9644792D01*
X3090278Y9676314D01*
X3019430Y9707162D01*
X3019101Y9707314D01*
X2907963Y9758684D01*
X2659443Y9589732D01*
X2410924Y9420779D01*
X2193638Y9637702D01*
X2128970Y9703312D01*
X2071963Y9763152D01*
X2025663Y9813864D01*
X1993112Y9852085D01*
X1977353Y9874456D01*
X1976353Y9877665D01*
X1984227Y9896505D01*
X2006118Y9934951D01*
X2039429Y9988801D01*
X2081565Y10053855D01*
X2128753Y10124191D01*
X2176886Y10195576D01*
X2218768Y10259223D01*
X2251825Y10311090D01*
X2273478Y10347136D01*
X2281153Y10363264D01*
X2274659Y10382942D01*
X2257546Y10420256D01*
X2233370Y10467510D01*
X2230683Y10472519D01*
X2198769Y10536154D01*
X2183117Y10579790D01*
X2182951Y10606929D01*
X2197492Y10621074D01*
X2197696Y10621156D01*
X2214917Y10628226D01*
X2255797Y10645089D01*
X2317171Y10670436D01*
X2395877Y10702960D01*
X2488749Y10741353D01*
X2592624Y10784309D01*
X2693194Y10825909D01*
X2804180Y10871627D01*
X2906993Y10913605D01*
X2998481Y10950583D01*
X3075495Y10981304D01*
X3134881Y11004509D01*
X3173487Y11018941D01*
X3187896Y11023388D01*
X3204424Y11012235D01*
X3230766Y10983062D01*
X3259809Y10944160D01*
X3351657Y10833374D01*
X3456937Y10746780D01*
X3573430Y10685415D01*
X3698920Y10650316D01*
X3831189Y10642523D01*
X3892239Y10648188D01*
X4018901Y10679053D01*
X4130755Y10732211D01*
X4226695Y10804364D01*
X4305620Y10892214D01*
X4366426Y10992466D01*
X4408009Y11101821D01*
X4429268Y11216984D01*
X4429097Y11334656D01*
X4406395Y11451541D01*
X4360058Y11564342D01*
X4288983Y11669762D01*
X4248785Y11713763D01*
X4145567Y11798152D01*
X4032771Y11856909D01*
X3913686Y11890427D01*
X3791601Y11899096D01*
X3669803Y11883308D01*
X3551580Y11843453D01*
X3440221Y11779924D01*
X3339012Y11693110D01*
X3259809Y11596102D01*
X3229534Y11555694D01*
X3203477Y11527149D01*
X3187871Y11516874D01*
X3170853Y11522254D01*
X3130196Y11537556D01*
X3069054Y11561519D01*
X2990577Y11592887D01*
X2897916Y11630399D01*
X2794224Y11672798D01*
X2693170Y11714468D01*
X2582089Y11760441D01*
X2479155Y11803024D01*
X2387531Y11840910D01*
X2310380Y11872791D01*
X2250865Y11897360D01*
X2212152Y11913311D01*
X2197696Y11919221D01*
X2183011Y11933183D01*
X2183054Y11960191D01*
X2198597Y12003718D01*
X2230412Y12067241D01*
X2230683Y12067743D01*
X2255373Y12115571D01*
X2273358Y12154234D01*
X2281082Y12176036D01*
X2281153Y12176998D01*
X2273318Y12193410D01*
X2251531Y12229644D01*
X2218368Y12281657D01*
X2176405Y12345406D01*
X2128753Y12416071D01*
X2080505Y12488015D01*
X2038545Y12552857D01*
X2005469Y12606396D01*
X1983875Y12644434D01*
X1976353Y12662598D01*
X1986239Y12679323D01*
X2013870Y12712951D01*
X2056201Y12760121D01*
X2110191Y12817473D01*
X2172797Y12881647D01*
X2193713Y12902634D01*
X2411073Y13119632D01*
X2653476Y12954463D01*
X2727915Y12904267D01*
X2794724Y12860212D01*
X2850031Y12824769D01*
X2889967Y12800412D01*
X2910660Y12789609D01*
X2912133Y12789293D01*
X2931638Y12794988D01*
X2970874Y12810305D01*
X3023266Y12832594D01*
X3058341Y12848238D01*
X3125495Y12877490D01*
X3193338Y12905037D01*
X3250662Y12926394D01*
X3268124Y12932196D01*
X3314758Y12948679D01*
X3350791Y12964791D01*
X3364409Y12973641D01*
X3372744Y12993171D01*
X3384559Y13035797D01*
X3398515Y13095986D01*
X3413274Y13168209D01*
X3419341Y13200531D01*
X3434423Y13282609D01*
X3449027Y13361336D01*
X3461716Y13429022D01*
X3471054Y13477971D01*
X3472857Y13487188D01*
X3487897Y13563388D01*
X3805204Y13563388D01*
X3909542Y13563217D01*
G36*
X3909542Y13563217D02*
G01*
X3988483Y13562515D01*
X4045658Y13560997D01*
X4084697Y13558382D01*
X4109231Y13554385D01*
X4122891Y13548722D01*
X4129307Y13541111D01*
X4130497Y13537988D01*
X4134716Y13519153D01*
X4143134Y13477543D01*
X4154735Y13418501D01*
X4168501Y13347374D01*
X4183416Y13269506D01*
X4198464Y13190244D01*
X4212627Y13114933D01*
X4224890Y13048918D01*
X4234235Y12997544D01*
X4239646Y12966156D01*
X4240582Y12959172D01*
X4253100Y12952846D01*
X4286450Y12938841D01*
X4334319Y12919776D01*
X4353067Y12912497D01*
X4425501Y12883135D01*
X4505526Y12848560D01*
X4572968Y12817594D01*
X4624537Y12794808D01*
X4666911Y12779649D01*
X4692862Y12774589D01*
X4696340Y12775395D01*
X4712760Y12786090D01*
X4749279Y12810511D01*
X4802009Y12846036D01*
X4867061Y12890044D01*
X4940545Y12939914D01*
X4955051Y12949775D01*
X5040992Y13007639D01*
X5106435Y13050175D01*
X5154392Y13079077D01*
X5187876Y13096041D01*
X5209901Y13102764D01*
X5223479Y13100941D01*
X5223565Y13100895D01*
X5241399Y13086545D01*
X5275879Y13054808D01*
X5323428Y13009121D01*
X5380474Y12952927D01*
X5443441Y12889663D01*
X5450469Y12882529D01*
X5527676Y12802801D01*
X5584366Y12741274D01*
X5621586Y12696710D01*
X5640381Y12667874D01*
X5642807Y12655173D01*
X5632225Y12636637D01*
X5607780Y12598170D01*
X5572084Y12543745D01*
X5527749Y12477333D01*
X5477385Y12402906D01*
X5465536Y12385530D01*
X5297070Y12138834D01*
X5347634Y12027425D01*
X5377101Y11959674D01*
X5406737Y11886948D01*
X5430366Y11824428D01*
X5431338Y11821674D01*
X5449239Y11772771D01*
X5464376Y11735074D01*
X5473486Y11716706D01*
X5473512Y11716675D01*
X5489979Y11710846D01*
X5530477Y11700939D01*
X5590454Y11687936D01*
X5665356Y11672822D01*
X5750632Y11656579D01*
X5757821Y11655250D01*
X5845682Y11638956D01*
X5925436Y11623998D01*
X5992015Y11611340D01*
X6040349Y11601945D01*
X6065371Y11596777D01*
X6065753Y11596687D01*
X6076397Y11593542D01*
X6084434Y11587427D01*
X6090229Y11574678D01*
X6094149Y11551631D01*
X6096561Y11514622D01*
X6097831Y11459987D01*
X6098325Y11384064D01*
X6098410Y11283187D01*
X6098410Y11270131D01*
X6098348Y11166221D01*
X6097918Y11087677D01*
X6096754Y11030833D01*
X6094489Y10992026D01*
X6090756Y10967593D01*
X6085190Y10953869D01*
X6077423Y10947191D01*
X6067091Y10943895D01*
X6065753Y10943575D01*
X6041617Y10938569D01*
X5993995Y10929302D01*
X5927955Y10916739D01*
X5848568Y10901844D01*
X5760900Y10885580D01*
X5757821Y10885012D01*
X5671907Y10868721D01*
X5596000Y10853479D01*
X5534651Y10840270D01*
X5492414Y10830077D01*
X5473841Y10823883D01*
X5473512Y10823588D01*
X5464443Y10805343D01*
X5449329Y10767726D01*
X5431434Y10718860D01*
X5431338Y10718588D01*
X5408203Y10657038D01*
X5378731Y10584474D01*
X5349099Y10516074D01*
X5347634Y10512837D01*
X5297070Y10401429D01*
X5465536Y10154732D01*
X5516893Y10079054D01*
X5562807Y10010500D01*
X5600666Y9953043D01*
X5627859Y9910655D01*
X5641775Y9887306D01*
X5642807Y9885089D01*
X5638212Y9868121D01*
X5616041Y9836430D01*
X5575249Y9788779D01*
X5514791Y9723933D01*
X5450469Y9657734D01*
X5387084Y9593917D01*
X5329245Y9536802D01*
X5280521Y9489826D01*
X5244486Y9456428D01*
X5224712Y9440046D01*
X5223694Y9439437D01*
X5210124Y9437626D01*
X5187963Y9444448D01*
X5154218Y9461591D01*
X5105896Y9490738D01*
X5040004Y9533576D01*
X4955179Y9590683D01*
X4880519Y9641365D01*
X4813556Y9686670D01*
X4758180Y9723981D01*
X4718276Y9750679D01*
X4697734Y9764146D01*
X4696340Y9764994D01*
X4676658Y9763350D01*
X4638403Y9750886D01*
X4588807Y9730083D01*
X4572968Y9722669D01*
X4502406Y9690317D01*
X4422343Y9655803D01*
X4353067Y9627766D01*
X4301651Y9607563D01*
X4262577Y9591516D01*
X4242155Y9582243D01*
X4240582Y9581090D01*
X4237975Y9564035D01*
X4230833Y9523833D01*
X4220173Y9465829D01*
X4207011Y9395368D01*
X4192363Y9317796D01*
X4177247Y9238459D01*
X4162678Y9162700D01*
X4149674Y9095867D01*
X4139251Y9043303D01*
X4132426Y9010355D01*
X4130497Y9002274D01*
X4125734Y8993926D01*
X4114978Y8987625D01*
X4094598Y8983086D01*
X4060962Y8980027D01*
X4010441Y8978164D01*
X3939404Y8977213D01*
X3844220Y8976891D01*
X3805204Y8976874D01*
X3487897Y8976874D01*
X3472857Y9053074D01*
X3464701Y9095468D01*
X3452797Y9158731D01*
X3438580Y9235169D01*
X3423486Y9317088D01*
X3419341Y9339731D01*
X3404643Y9415325D01*
X3390191Y9481178D01*
X3377321Y9531765D01*
X3367374Y9561557D01*
X3364409Y9566519D01*
X3343413Y9578705D01*
X3302729Y9596178D01*
X3250374Y9615554D01*
X3239096Y9619397D01*
X3169173Y9644792D01*
X3090278Y9676314D01*
X3019430Y9707162D01*
X3019101Y9707314D01*
X2907963Y9758684D01*
X2659443Y9589732D01*
X2410924Y9420779D01*
X2193638Y9637702D01*
X2128970Y9703312D01*
X2071963Y9763152D01*
X2025663Y9813864D01*
X1993112Y9852085D01*
X1977353Y9874456D01*
X1976353Y9877665D01*
X1984227Y9896505D01*
X2006118Y9934951D01*
X2039429Y9988801D01*
X2081565Y10053855D01*
X2128753Y10124191D01*
X2176886Y10195576D01*
X2218768Y10259223D01*
X2251825Y10311090D01*
X2273478Y10347136D01*
X2281153Y10363264D01*
X2274659Y10382942D01*
X2257546Y10420256D01*
X2233370Y10467510D01*
X2230683Y10472519D01*
X2198769Y10536154D01*
X2183117Y10579790D01*
X2182951Y10606929D01*
X2197492Y10621074D01*
X2197696Y10621156D01*
X2214917Y10628226D01*
X2255797Y10645089D01*
X2317171Y10670436D01*
X2395877Y10702960D01*
X2488749Y10741353D01*
X2592624Y10784309D01*
X2693194Y10825909D01*
X2804180Y10871627D01*
X2906993Y10913605D01*
X2998481Y10950583D01*
X3075495Y10981304D01*
X3134881Y11004509D01*
X3173487Y11018941D01*
X3187896Y11023388D01*
X3204424Y11012235D01*
X3230766Y10983062D01*
X3259809Y10944160D01*
X3351657Y10833374D01*
X3456937Y10746780D01*
X3573430Y10685415D01*
X3698920Y10650316D01*
X3831189Y10642523D01*
X3892239Y10648188D01*
X4018901Y10679053D01*
X4130755Y10732211D01*
X4226695Y10804364D01*
X4305620Y10892214D01*
X4366426Y10992466D01*
X4408009Y11101821D01*
X4429268Y11216984D01*
X4429097Y11334656D01*
X4406395Y11451541D01*
X4360058Y11564342D01*
X4288983Y11669762D01*
X4248785Y11713763D01*
X4145567Y11798152D01*
X4032771Y11856909D01*
X3913686Y11890427D01*
X3791601Y11899096D01*
X3669803Y11883308D01*
X3551580Y11843453D01*
X3440221Y11779924D01*
X3339012Y11693110D01*
X3259809Y11596102D01*
X3229534Y11555694D01*
X3203477Y11527149D01*
X3187871Y11516874D01*
X3170853Y11522254D01*
X3130196Y11537556D01*
X3069054Y11561519D01*
X2990577Y11592887D01*
X2897916Y11630399D01*
X2794224Y11672798D01*
X2693170Y11714468D01*
X2582089Y11760441D01*
X2479155Y11803024D01*
X2387531Y11840910D01*
X2310380Y11872791D01*
X2250865Y11897360D01*
X2212152Y11913311D01*
X2197696Y11919221D01*
X2183011Y11933183D01*
X2183054Y11960191D01*
X2198597Y12003718D01*
X2230412Y12067241D01*
X2230683Y12067743D01*
X2255373Y12115571D01*
X2273358Y12154234D01*
X2281082Y12176036D01*
X2281153Y12176998D01*
X2273318Y12193410D01*
X2251531Y12229644D01*
X2218368Y12281657D01*
X2176405Y12345406D01*
X2128753Y12416071D01*
X2080505Y12488015D01*
X2038545Y12552857D01*
X2005469Y12606396D01*
X1983875Y12644434D01*
X1976353Y12662598D01*
X1986239Y12679323D01*
X2013870Y12712951D01*
X2056201Y12760121D01*
X2110191Y12817473D01*
X2172797Y12881647D01*
X2193713Y12902634D01*
X2411073Y13119632D01*
X2653476Y12954463D01*
X2727915Y12904267D01*
X2794724Y12860212D01*
X2850031Y12824769D01*
X2889967Y12800412D01*
X2910660Y12789609D01*
X2912133Y12789293D01*
X2931638Y12794988D01*
X2970874Y12810305D01*
X3023266Y12832594D01*
X3058341Y12848238D01*
X3125495Y12877490D01*
X3193338Y12905037D01*
X3250662Y12926394D01*
X3268124Y12932196D01*
X3314758Y12948679D01*
X3350791Y12964791D01*
X3364409Y12973641D01*
X3372744Y12993171D01*
X3384559Y13035797D01*
X3398515Y13095986D01*
X3413274Y13168209D01*
X3419341Y13200531D01*
X3434423Y13282609D01*
X3449027Y13361336D01*
X3461716Y13429022D01*
X3471054Y13477971D01*
X3472857Y13487188D01*
X3487897Y13563388D01*
X3805204Y13563388D01*
X3909542Y13563217D01*
G37*
%TD*%
D11*
%TO.C,U405*%
X15427500Y12910000D03*
X15427500Y13860000D03*
X15427500Y14810000D03*
X13152500Y14810000D03*
X13152500Y12910000D03*
%TD*%
D12*
%TO.C,R704*%
X39350000Y9510000D03*
X39350000Y8490000D03*
%TD*%
D13*
%TO.C,J502*%
X7775000Y3550000D03*
X7775000Y4550000D03*
X7775000Y5550000D03*
X7775000Y6550000D03*
D14*
X5250000Y2250000D03*
X5250000Y7850000D03*
%TD*%
D15*
%TO.C,TP103*%
X25000000Y20960000D03*
%TD*%
D16*
%TO.C,C705*%
X47990000Y12560000D03*
X49890000Y12560000D03*
%TD*%
D17*
%TO.C,U702*%
X49015000Y9640000D03*
X48515000Y9640000D03*
X48015000Y9640000D03*
X47515000Y9640000D03*
X47515000Y7840000D03*
X48015000Y7840000D03*
X48515000Y7840000D03*
X49015000Y7840000D03*
D18*
X48265000Y8740000D03*
%TD*%
D12*
%TO.C,R606*%
X52140000Y24910000D03*
X52140000Y23890000D03*
%TD*%
D16*
%TO.C,C708*%
X43210000Y13300000D03*
X45110000Y13300000D03*
%TD*%
D19*
%TO.C,C502*%
X16800000Y12720000D03*
X16800000Y13680000D03*
%TD*%
D20*
%TO.C,D401*%
X22050000Y14190000D03*
X21550000Y14190000D03*
X21050000Y14190000D03*
X20550000Y14190000D03*
X20050000Y14190000D03*
X20050000Y13330000D03*
X20550000Y13330000D03*
X21050000Y13330000D03*
X21550000Y13330000D03*
X22050000Y13330000D03*
%TD*%
D11*
%TO.C,U701*%
X9357500Y12900000D03*
X9357500Y13850000D03*
X9357500Y14800000D03*
X7082500Y14800000D03*
X7082500Y13850000D03*
X7082500Y12900000D03*
%TD*%
D21*
%TO.C,U401*%
X23610000Y40925000D03*
X23610000Y41425000D03*
X23610000Y41925000D03*
X23610000Y42425000D03*
X23610000Y42925000D03*
X22840000Y42925000D03*
X22840000Y42425000D03*
X22840000Y41925000D03*
X22840000Y41425000D03*
X22840000Y40925000D03*
%TD*%
D22*
%TO.C,M701*%
X35300000Y22125000D03*
%TD*%
D12*
%TO.C,R101*%
X10950000Y11660000D03*
X10950000Y10640000D03*
%TD*%
D15*
%TO.C,TP102*%
X51850000Y45550000D03*
%TD*%
D12*
%TO.C,R402*%
X21575000Y51535000D03*
X21575000Y50515000D03*
%TD*%
D22*
%TO.C,M702*%
X35300000Y10100000D03*
%TD*%
D23*
%TO.C,R401*%
X23730000Y39700000D03*
X22710000Y39700000D03*
%TD*%
D24*
%TO.C,D702*%
X19560000Y56200000D03*
X21360000Y56200000D03*
%TD*%
D12*
%TO.C,R105*%
X31510000Y44510000D03*
X31510000Y43490000D03*
%TD*%
%TO.C,R106*%
X30560000Y44510000D03*
X30560000Y43490000D03*
%TD*%
D15*
%TO.C,TP101*%
X11130000Y25030000D03*
%TD*%
D25*
%TO.C,R403*%
X5590000Y55200000D03*
X6610000Y55200000D03*
%TD*%
D26*
%TO.C,L701*%
X43700000Y7635000D03*
X43700000Y10945000D03*
%TD*%
D27*
%TO.C,U703*%
X44950000Y43875000D03*
X44950000Y46075000D03*
X43250000Y46075000D03*
X43250000Y43875000D03*
%TD*%
D16*
%TO.C,C704*%
X47990000Y14535000D03*
X49890000Y14535000D03*
%TD*%
D12*
%TO.C,R707*%
X23460000Y55980000D03*
X23460000Y54960000D03*
%TD*%
D16*
%TO.C,C709*%
X43200000Y15260000D03*
X45100000Y15260000D03*
%TD*%
D28*
%TO.C,C701*%
X11250000Y12900000D03*
X11250000Y14800000D03*
%TD*%
D29*
%TO.C,R706*%
X50000000Y9165000D03*
X50000000Y10185000D03*
%TD*%
D30*
%TO.C,H101*%
X2450000Y24100000D03*
D31*
X2450000Y24100000D03*
%TD*%
D32*
%TO.C,J601*%
X20025000Y32750000D03*
X20025000Y31750000D03*
X20025000Y30750000D03*
X20025000Y29750000D03*
D33*
X22550000Y34050000D03*
X22550000Y28450000D03*
%TD*%
D16*
%TO.C,C703*%
X6830000Y10880000D03*
X8730000Y10880000D03*
%TD*%
D34*
%TO.C,U602*%
X52110000Y20470000D03*
X52110000Y21120000D03*
X52110000Y21770000D03*
X50210000Y21770000D03*
X50210000Y20470000D03*
%TD*%
D35*
%TO.C,J503*%
X14980000Y22310000D03*
X14980000Y23110000D03*
X14980000Y23910000D03*
X14980000Y24710000D03*
X14980000Y25510000D03*
X14980000Y26310000D03*
X14980000Y27110000D03*
X14980000Y27910000D03*
X14980000Y28710000D03*
X14980000Y29510000D03*
D36*
X13580000Y21010000D03*
X13580000Y30810000D03*
%TD*%
D37*
%TO.C,C401*%
X22495000Y48075000D03*
X23455000Y48075000D03*
%TD*%
D29*
%TO.C,R702*%
X6200000Y22600001D03*
X6200000Y23619999D03*
%TD*%
%TO.C,R705*%
X50000000Y7285000D03*
X50000000Y8305000D03*
%TD*%
D38*
%TO.C,J101*%
X11430000Y30400000D03*
X4270000Y30400000D03*
D39*
X10900000Y28370000D03*
X10900000Y32430000D03*
X4800000Y28370000D03*
X4800000Y32430000D03*
D40*
X10400000Y29550000D03*
X9600000Y29550000D03*
X8900000Y29550000D03*
X8200000Y29550000D03*
X7500000Y29550000D03*
X6800000Y29550000D03*
X6100000Y29550000D03*
X5300000Y29550000D03*
X5300000Y31250000D03*
X6100000Y31250000D03*
X6800000Y31250000D03*
X7500000Y31250000D03*
X8200000Y31250000D03*
X8900000Y31250000D03*
X9600000Y31250000D03*
X10400000Y31250000D03*
%TD*%
D23*
%TO.C,R501*%
X10510000Y2200000D03*
X9490000Y2200000D03*
%TD*%
D41*
%TO.C,J701*%
X26050000Y55650000D03*
X26300000Y48100000D03*
X26550000Y55650000D03*
X26800000Y48100000D03*
X27050000Y55650000D03*
X27300000Y48100000D03*
X27550000Y55650000D03*
X27800000Y48100000D03*
X28050000Y55650000D03*
X28300000Y48100000D03*
X28550000Y55650000D03*
X28800000Y48100000D03*
X29050000Y55650000D03*
X29300000Y48100000D03*
X29550000Y55650000D03*
X29800000Y48100000D03*
X30050000Y55650000D03*
X30300000Y48100000D03*
X30550000Y55650000D03*
X30800000Y48100000D03*
X31050000Y55650000D03*
X31300000Y48100000D03*
X31550000Y55650000D03*
X31800000Y48100000D03*
X32050000Y55650000D03*
X32300000Y48100000D03*
X32550000Y55650000D03*
X32800000Y48100000D03*
X33050000Y55650000D03*
X33300000Y48100000D03*
X33550000Y55650000D03*
X33800000Y48100000D03*
X34050000Y55650000D03*
X34300000Y48100000D03*
X34550000Y55650000D03*
X34800000Y48100000D03*
X35050000Y55650000D03*
X35300000Y48100000D03*
X35550000Y55650000D03*
X35800000Y48100000D03*
X36050000Y55650000D03*
X36300000Y48100000D03*
X36550000Y55650000D03*
X36800000Y48100000D03*
X37050000Y55650000D03*
X37300000Y48100000D03*
X37550000Y55650000D03*
X37800000Y48100000D03*
X38050000Y55650000D03*
X38300000Y48100000D03*
X38550000Y55650000D03*
X38800000Y48100000D03*
X39050000Y55650000D03*
X39300000Y48100000D03*
X39550000Y55650000D03*
X39800000Y48100000D03*
X40050000Y55650000D03*
X40300000Y48100000D03*
X42550000Y55650000D03*
X42800000Y48100000D03*
X43050000Y55650000D03*
X43300000Y48100000D03*
X43550000Y55650000D03*
X43800000Y48100000D03*
X44050000Y55650000D03*
X44300000Y48100000D03*
X44550000Y55650000D03*
D42*
X24950000Y54875000D03*
X45650000Y54875000D03*
%TD*%
D43*
%TO.C,T401*%
X19270000Y38350000D03*
X19270000Y39370000D03*
X19270000Y40390000D03*
X19270000Y41410000D03*
X19270000Y42430000D03*
X19270000Y43450000D03*
X19270000Y44470000D03*
X19270000Y45490000D03*
X19270000Y46510000D03*
X19270000Y47530000D03*
X19270000Y48550000D03*
X19270000Y49570000D03*
X19270000Y50590000D03*
X19270000Y51610000D03*
D44*
X5570000Y36255000D03*
X5570000Y53705000D03*
%TD*%
D28*
%TO.C,C711*%
X23050000Y49300000D03*
X23050000Y51200000D03*
%TD*%
D15*
%TO.C,TP105*%
X11130000Y22530000D03*
%TD*%
D21*
%TO.C,U402*%
X23520000Y45112500D03*
X23520000Y45612500D03*
X23520000Y46112500D03*
X23520000Y46612500D03*
X23520000Y47112500D03*
X22750000Y47112500D03*
X22750000Y46612500D03*
X22750000Y46112500D03*
X22750000Y45612500D03*
X22750000Y45112500D03*
%TD*%
D19*
%TO.C,C712*%
X46300000Y44740000D03*
X46300000Y45700000D03*
%TD*%
D45*
%TO.C,C501*%
X11900000Y11630000D03*
X11900000Y10670000D03*
%TD*%
D46*
%TO.C,J501*%
X25290000Y9760000D03*
X24790000Y9760000D03*
X24290000Y9760000D03*
X23790000Y9760000D03*
X23290000Y9760000D03*
X22790000Y9760000D03*
X22290000Y9760000D03*
X21790000Y9760000D03*
X21290000Y9760000D03*
X20790000Y9760000D03*
X20290000Y9760000D03*
X19790000Y9760000D03*
X19290000Y9760000D03*
X18790000Y9760000D03*
X18290000Y9760000D03*
X17790000Y9760000D03*
X17290000Y9760000D03*
X16790000Y9760000D03*
X16290000Y9760000D03*
D47*
X28040000Y9030000D03*
X13540000Y9030000D03*
D48*
X13540000Y3070000D03*
X28040000Y3070000D03*
%TD*%
D16*
%TO.C,C710*%
X47700000Y46875000D03*
X49600000Y46875000D03*
%TD*%
D20*
%TO.C,D402*%
X25050000Y14190000D03*
X24550000Y14190000D03*
X24050000Y14190000D03*
X23550000Y14190000D03*
X23050000Y14190000D03*
X23050000Y13330000D03*
X23550000Y13330000D03*
X24050000Y13330000D03*
X24550000Y13330000D03*
X25050000Y13330000D03*
%TD*%
D12*
%TO.C,R701*%
X9950000Y11660000D03*
X9950000Y10640000D03*
%TD*%
D49*
%TO.C,C706*%
X48220000Y10635000D03*
X47260000Y10635000D03*
%TD*%
D50*
%TO.C,D101*%
X8350000Y27390000D03*
X7350000Y27390000D03*
X7850000Y26090000D03*
%TD*%
D37*
%TO.C,C102*%
X9550000Y33950000D03*
X10510000Y33950000D03*
%TD*%
D49*
%TO.C,C101*%
X6180000Y33950000D03*
X5220000Y33950000D03*
%TD*%
D38*
%TO.C,USB701*%
X11430000Y18850000D03*
X4270000Y18850000D03*
D39*
X10900000Y16820000D03*
X10900000Y20880000D03*
X4800000Y16820000D03*
X4800000Y20880000D03*
D40*
X10400000Y18000000D03*
X9600000Y18000000D03*
X8900000Y18000000D03*
X8200000Y18000000D03*
X7500000Y18000000D03*
X6800000Y18000000D03*
X6100000Y18000000D03*
X5300000Y18000000D03*
X5300000Y19700000D03*
X6100000Y19700000D03*
X6800000Y19700000D03*
X7500000Y19700000D03*
X8200000Y19700000D03*
X8900000Y19700000D03*
X9600000Y19700000D03*
X10400000Y19700000D03*
%TD*%
D51*
%TO.C,D701*%
X7350000Y22200000D03*
X8350000Y22200000D03*
X7850000Y23499999D03*
%TD*%
D28*
%TO.C,C601*%
X10050000Y6750000D03*
X10050000Y8650000D03*
%TD*%
D52*
%TO.C,SW501*%
X51370000Y16480000D03*
X51370000Y13200000D03*
D53*
X51245000Y14830000D03*
D54*
X52770000Y16980000D03*
D55*
X53370000Y16830000D03*
D54*
X52770000Y12680000D03*
D55*
X53370000Y12830000D03*
%TD*%
D29*
%TO.C,R703*%
X9480000Y22610001D03*
X9480000Y23629999D03*
%TD*%
D15*
%TO.C,TP104*%
X52490000Y54890000D03*
%TD*%
D49*
%TO.C,C707*%
X50070000Y11105000D03*
X49110000Y11105000D03*
%TD*%
D56*
%TO.C,D605*%
X53640000Y22380000D03*
X53640000Y20580000D03*
%TD*%
D57*
%TO.C,D502*%
X9650000Y4350000D03*
X9650000Y3350000D03*
X10950000Y3850000D03*
%TD*%
D58*
%TO.C,J802*%
X47850000Y39725000D03*
X47850000Y39225000D03*
X47850000Y38725000D03*
X47850000Y38225000D03*
X47850000Y37725000D03*
X47850000Y37225000D03*
X47850000Y36725000D03*
X47850000Y36225000D03*
X47850000Y35725000D03*
X47850000Y35225000D03*
X47850000Y34725000D03*
X47850000Y34225000D03*
X47850000Y33725000D03*
X47850000Y33225000D03*
X47850000Y32725000D03*
X47850000Y32225000D03*
X47850000Y31725000D03*
X47850000Y31225000D03*
X47850000Y30725000D03*
X47850000Y30225000D03*
X47850000Y29725000D03*
X47850000Y29225000D03*
D59*
X51100000Y27325000D03*
X51100000Y41625000D03*
%TD*%
D15*
%TO.C,TP106*%
X27750000Y19580000D03*
%TD*%
D23*
%TO.C,R502*%
X10510000Y5500000D03*
X9490000Y5500000D03*
%TD*%
D56*
%TO.C,D606*%
X53640000Y25320000D03*
X53640000Y23520000D03*
%TD*%
D23*
%TO.C,R605*%
X51000000Y23010000D03*
X49980000Y23010000D03*
%TD*%
D60*
%TO.C,Module301*%
X48950000Y3500000D03*
X48950000Y51500000D03*
%TD*%
D61*
%TO.C,SW101*%
X52440000Y9720000D03*
X52440000Y6720000D03*
%TD*%
D60*
%TO.C,Module302*%
X48950000Y3500000D03*
X48950000Y51500000D03*
%TD*%
M02*
