M48
; DRILL file {KiCad 9.0.0} date 2025-04-22T15:43:43+0200
; FORMAT={-:-/ absolute / inch / decimal}
; #@! TF.CreationDate,2025-04-22T15:43:43+02:00
; #@! TF.GenerationSoftware,Kicad,Pcbnew,9.0.0
; #@! TF.FileFunction,Plated,1,6,PTH
FMAT,2
INCH
; #@! TA.AperFunction,Plated,PTH,ViaDrill
T1C0.0118
; #@! TA.AperFunction,Plated,PTH,ComponentDrill
T2C0.0197
; #@! TA.AperFunction,Plated,PTH,ComponentDrill
T3C0.0197
; #@! TA.AperFunction,Plated,PTH,ComponentDrill
T4C0.0315
; #@! TA.AperFunction,Plated,PTH,ComponentDrill
T5C0.0354
; #@! TA.AperFunction,Plated,PTH,ComponentDrill
T6C0.0354
; #@! TA.AperFunction,Plated,PTH,ComponentDrill
T7C0.0866
; #@! TA.AperFunction,Plated,PTH,ComponentDrill
T8C0.1063
; #@! TA.AperFunction,Plated,PTH,ComponentDrill
T9C0.1161
%
G90
G05
T1
X0.0453Y1.4311
X0.0453Y1.3669
X0.0453Y1.3028
X0.0453Y1.2386
X0.0453Y1.1744
X0.0453Y1.1102
X0.0453Y1.0461
X0.0453Y0.8535
X0.0453Y0.7894
X0.0453Y0.7252
X0.0453Y0.661
X0.0453Y0.5969
X0.0453Y0.5327
X0.0453Y0.4685
X0.0453Y0.4043
X0.0453Y0.3402
X0.0453Y0.276
X0.0453Y0.2118
X0.0453Y0.1476
X0.1063Y0.0965
X0.1102Y0.4311
X0.1299Y0.3484
X0.1441Y0.2323
X0.1441Y0.1925
X0.1506Y1.4291
X0.1535Y0.3484
X0.1543Y2.2244
X0.1614Y0.0453
X0.1732Y0.4724
X0.1835Y1.3343
X0.187Y1.2441
X0.187Y1.1693
X0.189Y0.7894
X0.189Y0.7146
X0.2185Y2.2244
X0.2256Y0.0453
X0.2429Y0.1709
X0.2461Y1.2884
X0.249Y1.1348
X0.2492Y1.311
X0.2492Y1.0994
X0.2504Y0.9598
X0.263Y0.2154
X0.2681Y0.3146
X0.2705Y0.1256
X0.272Y0.1906
X0.2722Y1.2745
X0.274Y0.1492
X0.2752Y0.8575
X0.2827Y2.2244
X0.285Y1.3142
X0.2898Y0.0453
X0.3012Y1.1398
X0.3012Y0.687
X0.3031Y1.2925
X0.3031Y0.8524
X0.3138Y1.0087
X0.314Y2.1368
X0.315Y0.963
X0.3268Y0.5896
X0.3269Y1.2925
X0.3269Y0.8524
X0.3429Y1.3161
X0.3469Y2.2244
X0.3539Y0.0453
X0.3553Y0.2667
X0.3563Y1.1417
X0.3563Y0.6673
X0.3571Y0.8598
X0.3642Y0.3917
X0.3681Y0.4705
X0.3795Y0.8744
X0.3809Y1.2805
X0.3809Y1.1014
X0.3965Y0.3921
X0.402Y0.9402
X0.4063Y0.5539
X0.411Y2.2244
X0.4181Y0.0453
X0.4374Y0.6272
X0.4429Y1.2441
X0.4429Y0.7894
X0.4429Y0.7146
X0.4439Y0.2667
X0.4449Y0.0984
X0.4469Y1.3406
X0.4732Y1.013
X0.4752Y2.2244
X0.4823Y0.0453
X0.4894Y0.5181
X0.4949Y1.2768
X0.5118Y2.0713
X0.5118Y1.9441
X0.5118Y1.8157
X0.5118Y1.6874
X0.5118Y1.5591
X0.5127Y0.565
X0.5127Y0.5433
X0.5201Y1.1476
X0.5205Y1.1815
X0.5205Y1.0496
X0.5209Y1.0016
X0.5228Y0.6713
X0.524Y0.7181
X0.5256Y0.9075
X0.5276Y2.1654
X0.5394Y2.2244
X0.5465Y0.0453
X0.563Y0.5551
X0.5843Y0.6291
X0.5852Y1.3081
X0.5874Y0.7087
X0.5874Y0.6811
X0.589Y0.8644
X0.5915Y1.4675
X0.595Y0.8031
X0.595Y0.7756
X0.6035Y2.2244
X0.6098Y0.6642
X0.6104Y1.342
X0.6106Y0.0453
X0.611Y1.3681
X0.6125Y1.3165
X0.6195Y1.2517
X0.6278Y0.8504
X0.6278Y0.8228
X0.6293Y1.2997
X0.6299Y0.9191
X0.6299Y0.7559
X0.6299Y0.7283
X0.6319Y1.0138
X0.6323Y1.0465
X0.635Y1.2035
X0.6364Y1.2349
X0.6409Y0.3035
X0.6427Y2.0679
X0.6445Y0.6669
X0.6457Y0.8693
X0.6465Y0.6232
X0.6677Y2.2244
X0.6681Y0.576
X0.6689Y0.3244
X0.6748Y0.0453
X0.6781Y2.1663
X0.6824Y0.2884
X0.685Y1.4422
X0.685Y1.4184
X0.6874Y0.4756
X0.7039Y0.6539
X0.7047Y1.498
X0.7047Y0.2815
X0.7067Y0.3051
X0.7268Y2.2224
X0.7277Y1.3017
X0.7283Y0.7126
X0.739Y0.0453
X0.7398Y0.2894
X0.7421Y0.9815
X0.7496Y2.2224
X0.7642Y0.3028
X0.7657Y0.3287
X0.7689Y1.326
X0.7785Y1.4872
X0.7882Y0.95
X0.7916Y1.326
X0.7972Y0.8921
X0.8031Y0.0453
X0.8051Y0.4803
X0.8143Y1.326
X0.8209Y2.1447
X0.826Y0.8638
X0.8346Y0.5134
X0.837Y1.326
X0.837Y1.298
X0.8455Y1.8602
X0.8464Y1.6233
X0.8465Y1.7805
X0.8585Y1.8335
X0.8585Y1.8059
X0.8592Y1.7
X0.8595Y1.6728
X0.8595Y1.6453
X0.8601Y1.7531
X0.8601Y1.7256
X0.8603Y1.9138
X0.8603Y1.8862
X0.8642Y0.4795
X0.8642Y0.3287
X0.8673Y0.0453
X0.878Y1.8602
X0.8809Y1.7913
X0.882Y1.7664
X0.8839Y1.6329
X0.8843Y2.1992
X0.8848Y1.9272
X0.8858Y1.5689
X0.8992Y2.2181
X0.9232Y0.4803
X0.9232Y0.3287
X0.9315Y0.0453
X0.9469Y0.8957
X0.9528Y0.5126
X0.9567Y0.815
X0.9823Y0.4799
X0.9823Y0.3248
X0.9957Y0.0453
X0.9996Y1.4079
X1.0138Y0.5335
X1.0157Y0.9094
X1.0157Y0.7551
X1.0193Y1.3409
X1.0213Y0.285
X1.0261Y1.4149
X1.0287Y1.4409
X1.0394Y2.1512
X1.0445Y2.0
X1.0456Y1.3954
X1.0458Y1.3444
X1.0484Y1.5748
X1.05Y1.3701
X1.0563Y1.2961
X1.0583Y0.9197
X1.0591Y0.7795
X1.0598Y0.0453
X1.063Y0.6555
X1.0653Y1.3249
X1.0684Y1.9785
X1.0693Y0.7052
X1.0724Y1.4012
X1.0846Y0.622
X1.0886Y0.8358
X1.0886Y0.5157
X1.0921Y1.3311
X1.1024Y0.7402
X1.1098Y2.15
X1.1201Y0.937
X1.122Y0.622
X1.124Y0.0453
X1.1251Y1.323
X1.126Y0.6976
X1.128Y1.0197
X1.1315Y1.3508
X1.1398Y1.2756
X1.1398Y0.9606
X1.1446Y1.3035
X1.1449Y1.2378
X1.15Y1.9785
X1.1551Y0.7394
X1.1634Y0.937
X1.1673Y2.0106
X1.1718Y1.2445
X1.1728Y1.3098
X1.1732Y0.9921
X1.1772Y1.0531
X1.1776Y1.2713
X1.1858Y1.1992
X1.1882Y0.0453
X1.1886Y1.9785
X1.1912Y1.225
X1.1923Y1.6081
X1.2008Y1.0787
X1.2209Y1.2307
X1.2283Y0.2126
X1.2283Y0.1299
X1.2283Y0.0453
X1.2323Y1.6093
X1.2354Y1.211
X1.2398Y0.6976
X1.2535Y0.6567
X1.2623Y1.2164
X1.2661Y1.2437
X1.2717Y0.8307
X1.2736Y1.6093
X1.276Y0.272
X1.2764Y0.8756
X1.2818Y1.1969
X1.287Y2.1524
X1.2992Y1.1781
X1.3098Y1.2047
X1.311Y0.7854
X1.311Y0.7386
X1.3514Y1.1683
X1.3555Y0.6976
X1.3843Y0.7378
X1.3937Y0.6563
X1.3965Y0.2734
X1.4244Y0.6976
X1.4437Y0.7394
X1.4488Y1.0276
X1.4594Y0.6567
X1.4661Y2.1563
X1.4815Y1.9531
X1.4839Y0.6972
X1.4843Y0.9961
X1.4921Y0.9685
X1.4965Y0.7394
X1.4972Y2.0008
X1.5Y0.8228
X1.5035Y2.0256
X1.5039Y1.1693
X1.5039Y0.5866
X1.511Y1.9512
X1.5138Y0.5161
X1.5232Y0.2717
X1.5535Y1.9669
X1.5571Y0.6594
X1.5626Y0.4909
X1.5717Y1.1657
X1.5752Y0.4697
X1.5783Y1.9547
X1.5846Y0.3909
X1.587Y0.4913
X1.5906Y0.4213
X1.6024Y1.1657
X1.6028Y2.2
X1.622Y2.1406
X1.622Y2.1169
X1.6311Y1.1661
X1.6402Y0.2709
X1.697Y0.8738
X1.6988Y0.9331
X1.6988Y0.7933
X1.7035Y1.1681
X1.7055Y1.9547
X1.7071Y0.4823
X1.7181Y1.9839
X1.7303Y2.1524
X1.7303Y1.9524
X1.7343Y1.2461
X1.7449Y0.2701
X1.7528Y2.1524
X1.7744Y1.9146
X1.7795Y1.2557
X1.7854Y1.2813
X1.7864Y1.8888
X1.7894Y0.8819
X1.7992Y0.6142
X1.8189Y0.5787
X1.8189Y0.5453
X1.8189Y0.5234
X1.8189Y0.5007
X1.8205Y1.8634
X1.8268Y0.2461
X1.828Y1.8374
X1.8287Y0.6122
X1.8311Y1.4563
X1.835Y1.3969
X1.835Y0.9925
X1.8386Y0.7244
X1.8406Y0.8929
X1.8406Y0.8697
X1.8433Y0.9701
X1.8492Y1.2173
X1.8508Y1.5764
X1.8539Y0.5236
X1.8539Y0.5007
X1.8539Y0.4783
X1.8543Y1.8671
X1.8543Y1.8435
X1.8543Y0.5453
X1.8547Y0.6339
X1.8547Y0.5669
X1.8622Y0.7244
X1.8634Y0.6594
X1.8661Y1.7894
X1.8776Y2.2244
X1.9189Y0.2895
X1.9213Y0.7106
X1.9291Y0.6378
X1.9319Y1.4661
X1.9319Y1.2417
X1.932Y0.7942
X1.9321Y0.7648
X1.9323Y1.1476
X1.9331Y0.9567
X1.9331Y0.7362
X1.9335Y1.5071
X1.9354Y0.8756
X1.9358Y1.2701
X1.9378Y1.3362
X1.9417Y2.2244
X1.9472Y1.1913
X1.9478Y1.2953
X1.9567Y0.9547
X1.9626Y0.9902
X1.9665Y0.7283
X1.9717Y1.1953
X1.9724Y0.6654
X1.9744Y0.2772
X1.985Y1.2366
X1.9862Y0.7844
X1.9862Y0.7618
X1.9866Y1.002
X1.9886Y1.1752
X1.9972Y0.4472
X2.0059Y2.2244
X2.0063Y0.4917
X2.0197Y1.7933
X2.0197Y0.0256
X2.0207Y1.5128
X2.0413Y0.7756
X2.0413Y0.7539
X2.0413Y0.7323
X2.0413Y0.7106
X2.0437Y1.0173
X2.0496Y1.137
X2.0504Y1.2843
X2.0512Y1.3098
X2.0522Y1.1909
X2.0524Y1.2539
X2.0535Y0.3299
X2.0579Y1.0362
X2.0583Y0.9283
X2.065Y2.1732
X2.0689Y1.1677
X2.0728Y0.7421
X2.0768Y0.1201
X2.0783Y1.2441
X2.0791Y0.6217
X2.0858Y0.7752
X2.0953Y0.926
X2.1125Y0.7733
X2.1173Y0.7957
X2.1201Y2.1378
X2.1201Y2.0736
X2.1201Y2.0094
X2.1201Y1.9453
X2.1201Y1.8811
X2.1201Y1.8169
X2.1201Y1.7528
X2.1201Y1.6886
X2.1201Y1.6244
X2.1201Y1.5602
X2.1201Y1.4961
X2.1201Y1.4319
X2.1201Y1.3677
X2.1201Y1.2394
X2.1201Y1.1752
X2.1213Y1.1059
X2.122Y0.4276
X2.122Y0.3634
X2.122Y0.2992
X2.122Y0.235
X2.122Y0.1709
T2
X0.4441Y0.8969
X1.1185Y0.8071
X2.026Y1.9043
T4
X0.174Y1.2067
X0.174Y0.752
X0.4559Y1.2067
X0.4559Y0.752
T5
X2.0705Y0.3925
X2.0705Y0.2744
T6
X2.0835Y0.6783
X2.0835Y0.5091
T7
X0.1024Y0.9587
T8
X0.0Y2.2835
X0.0Y0.0
X2.1654Y2.2835
X2.1654Y0.0
T9
X1.3957Y0.8809
X1.3957Y0.4134
T3
G00X0.2126Y1.2866
M15
G01X0.1772Y1.2866
M16
G05
G00X0.2126Y1.1268
M15
G01X0.1772Y1.1268
M16
G05
G00X0.2126Y0.8319
M15
G01X0.1772Y0.8319
M16
G05
G00X0.2126Y0.672
M15
G01X0.1772Y0.672
M16
G05
G00X0.4528Y1.2866
M15
G01X0.4173Y1.2866
M16
G05
G00X0.4528Y1.1268
M15
G01X0.4173Y1.1268
M16
G05
G00X0.4528Y0.8319
M15
G01X0.4173Y0.8319
M16
G05
G00X0.4528Y0.672
M15
G01X0.4173Y0.672
M16
G05
T5
G00X0.539Y0.4008
M15
G01X0.539Y0.3299
M16
G05
G00X0.539Y0.1465
M15
G01X0.539Y0.115
M16
G05
G00X1.1098Y0.4008
M15
G01X1.1098Y0.3299
M16
G05
G00X1.1098Y0.1465
M15
G01X1.1098Y0.115
M16
G05
M30
